<svg viewBox="0 0 48 48" fill="none" xmlns="http://www.w3.org/2000/svg">
  <g clip-path="url(#clip0_4049_21943)">
    <path
      d="M24.005 48.0099C37.2625 48.0099 48.0099 37.2625 48.0099 24.005C48.0099 10.7474 37.2625 0 24.005 0C10.7474 0 0 10.7474 0 24.005C0 37.2625 10.7474 48.0099 24.005 48.0099Z"
      fill="#201E3D" />
    <path
      d="M27.0349 21.8577H26.1431C26.1431 19.0233 27.7394 16.7148 29.7014 16.7148H33.8574V17.6062H29.7014C28.2567 17.6062 27.0349 19.5492 27.0349 21.8577Z"
      fill="white" />
    <path
      d="M32.3531 26.1431C31.2614 26.1431 29.9371 26.1174 28.9975 26.0057C26.8947 25.7566 26.2147 22.3899 26.1431 22.012L27.02 21.8574C27.1811 22.7249 27.8701 25.0094 29.1049 25.1554C30.8856 25.3702 34.2233 25.2585 34.2591 25.2585L34.2859 26.1174C34.2143 26.1174 33.3911 26.1431 32.3531 26.1431Z"
      fill="white" />
    <path
      d="M19.3205 26.5706H18.4287C18.4287 23.7362 20.0251 21.4277 21.9871 21.4277H26.143V22.319H21.9871C20.5423 22.319 19.3205 24.2621 19.3205 26.5706Z"
      fill="white" />
    <path
      d="M24.6388 32.5717C23.5471 32.5717 22.2317 32.5434 21.2832 32.4205C19.1804 32.1466 18.5003 28.4432 18.4287 28.0275L19.3056 27.8574C19.4667 28.8116 20.1557 31.3246 21.3906 31.4852C23.1713 31.7214 26.5089 31.6081 26.5447 31.5986L26.5716 32.5434C26.5 32.5434 25.6767 32.5717 24.6298 32.5717H24.6388Z"
      fill="white" />
    <path
      d="M26.3571 24.4291C27.659 24.4291 28.7143 23.3738 28.7143 22.072C28.7143 20.7702 27.659 19.7148 26.3571 19.7148C25.0553 19.7148 24 20.7702 24 22.072C24 23.3738 25.0553 24.4291 26.3571 24.4291Z"
      fill="white" />
    <path
      d="M26.9998 34.2857C28.1833 34.2857 29.1426 33.3263 29.1426 32.1429C29.1426 30.9594 28.1833 30 26.9998 30C25.8163 30 24.8569 30.9594 24.8569 32.1429C24.8569 33.3263 25.8163 34.2857 26.9998 34.2857Z"
      fill="white" />
    <path
      d="M33.6428 19.7143C34.9446 19.7143 35.9999 18.659 35.9999 17.3571C35.9999 16.0553 34.9446 15 33.6428 15C32.341 15 31.2856 16.0553 31.2856 17.3571C31.2856 18.659 32.341 19.7143 33.6428 19.7143Z"
      fill="white" />
    <path d="M18.4286 26.1426H12V26.9997H18.4286V26.1426Z" fill="white" />
    <path
      d="M12.4285 28.7134C13.612 28.7134 14.5714 27.7541 14.5714 26.5706C14.5714 25.3871 13.612 24.4277 12.4285 24.4277C11.245 24.4277 10.2856 25.3871 10.2856 26.5706C10.2856 27.7541 11.245 28.7134 12.4285 28.7134Z"
      fill="white" />
    <path
      d="M19.0715 28.7134C20.3733 28.7134 21.4286 27.7541 21.4286 26.5706C21.4286 25.3871 20.3733 24.4277 19.0715 24.4277C17.7697 24.4277 16.7144 25.3871 16.7144 26.5706C16.7144 27.7541 17.7697 28.7134 19.0715 28.7134Z"
      fill="white" />
    <path
      d="M36.4776 25.631L34.5863 23.5886C34.4022 23.3897 34.0917 23.3778 33.8929 23.5619L31.8505 25.4532C31.6516 25.6373 31.6397 25.9478 31.8238 26.1466L33.7151 28.189C33.8993 28.3879 34.2097 28.3998 34.4086 28.2157L36.451 26.3244C36.6498 26.1403 36.6617 25.8298 36.4776 25.631Z"
      fill="white" />
  </g>
  <defs>
    <clipPath id="clip0_4049_21943">
      <rect width="48" height="48" fill="white" />
    </clipPath>
  </defs>
</svg>