<svg viewBox="0 0 48 48" fill="none" xmlns="http://www.w3.org/2000/svg">
  <g clip-path="url(#clip0_4049_21966)">
    <path
      d="M24.005 48.0099C37.2625 48.0099 48.0099 37.2625 48.0099 24.005C48.0099 10.7474 37.2625 0 24.005 0C10.7474 0 0 10.7474 0 24.005C0 37.2625 10.7474 48.0099 24.005 48.0099Z"
      fill="#201E3D" />
    <path
      d="M29.2785 26.2686C29.2785 26.2686 28.6628 23.7062 27.034 23.0011C26.5572 22.8422 25.1767 23.2494 26.011 25.2854C25.8024 25.047 25.0377 23.5473 25.6832 22.5839C26.1401 21.988 26.8353 21.6404 27.5901 21.6206C28.0669 21.6206 28.4542 21.2432 28.4641 20.7664C28.4641 20.687 28.4542 20.6075 28.4343 20.5281C28.2953 19.5846 27.0638 19.7137 27.0638 19.7137C27.0638 19.7137 23.8757 19.6541 23.1209 21.7497C23.1209 19.1972 26.3884 19.1873 26.3884 19.1873C26.3884 18.3928 23.6472 17.9061 21.8993 19.2568C19.5454 21.0743 19.5653 24.2028 21.4523 26.5765C20.3598 25.8416 19.6746 24.6398 19.5951 23.3288C19.2872 23.7261 18.3636 25.1861 18.6317 27.8378C19.0191 31.8602 27.5603 35.0681 28.9607 33.0321C30.3611 30.9961 29.2785 26.2587 29.2785 26.2587V26.2686Z"
      fill="white" />
    <path
      d="M20.1316 20.0322C19.9231 19.6151 18.2744 19.6449 18.2744 20.1216V23.6076C18.5624 23.0614 18.9696 22.5847 19.4662 22.2073C19.4861 21.4326 19.7244 20.6877 20.1316 20.0322Z"
      fill="white" />
    <path
      d="M22.5053 18.304L23.1508 18.0259V14.7087L24.3029 15.2053L22.8231 11.6895L21.3433 15.2053L22.5053 14.7087V18.304Z"
      fill="white" />
    <path
      d="M36.7176 28.5327L33.2018 27.043L33.6884 28.205H29.9839L30.0633 28.8505H33.6884L33.2018 30.0126L36.7176 28.5327Z"
      fill="white" />
    <path
      d="M20.2508 31.5622L19.784 31.1152L16.9435 33.9557L16.4767 32.7838L15.0366 36.3195L18.5723 34.8794L17.4004 34.4026L20.2508 31.5622Z"
      fill="white" />
    <path
      d="M28.8217 28.2065H23.1507V19.1289L22.5052 19.4765V28.3952L20.7075 30.1928L21.2538 30.5603L22.962 28.8521H28.931L28.8217 28.2065Z"
      fill="white" />
  </g>
  <defs>
    <clipPath id="clip0_4049_21966">
      <rect width="48" height="48" fill="white" />
    </clipPath>
  </defs>
</svg>