<svg xmlns="http://www.w3.org/2000/svg" width="24" height="24" viewBox="0 0 24 24" fill="none">
    <path
        d="M5 22.5C5 20.1833 5.48333 18.3042 6.45 16.8625C7.41667 15.4208 8.75 13.9667 10.45 12.5C8.75 11.0333 7.41667 9.57917 6.45 8.1375C5.48333 6.69583 5 4.81667 5 2.5V2.25C5 1.96667 5.09583 1.72917 5.2875 1.5375C5.47917 1.34583 5.71667 1.25 6 1.25C6.28333 1.25 6.52083 1.34583 6.7125 1.5375C6.90417 1.72917 7 1.96667 7 2.25V2.5C7 2.68333 7.00417 2.85417 7.0125 3.0125C7.02083 3.17083 7.03333 3.33333 7.05 3.5H16.95C16.9667 3.33333 16.9792 3.17083 16.9875 3.0125C16.9958 2.85417 17 2.68333 17 2.5V2.25C17 1.96667 17.0958 1.72917 17.2875 1.5375C17.4792 1.34583 17.7167 1.25 18 1.25C18.2833 1.25 18.5208 1.34583 18.7125 1.5375C18.9042 1.72917 19 1.96667 19 2.25V2.5C19 4.81667 18.5167 6.69583 17.55 8.1375C16.5833 9.57917 15.25 11.0333 13.55 12.5C15.25 13.9667 16.5833 15.4208 17.55 16.8625C18.5167 18.3042 19 20.1833 19 22.5V22.75C19 23.0333 18.9042 23.2708 18.7125 23.4625C18.5208 23.6542 18.2833 23.75 18 23.75C17.7167 23.75 17.4792 23.6542 17.2875 23.4625C17.0958 23.2708 17 23.0333 17 22.75V22.5C17 22.3167 16.9958 22.1458 16.9875 21.9875C16.9792 21.8292 16.9667 21.6667 16.95 21.5H7.05C7.03333 21.6667 7.02083 21.8292 7.0125 21.9875C7.00417 22.1458 7 22.3167 7 22.5V22.75C7 23.0333 6.90417 23.2708 6.7125 23.4625C6.52083 23.6542 6.28333 23.75 6 23.75C5.71667 23.75 5.47917 23.6542 5.2875 23.4625C5.09583 23.2708 5 23.0333 5 22.75V22.5ZM8.45 7.5H15.55C15.7667 7.18333 15.9542 6.86667 16.1125 6.55C16.2708 6.23333 16.4167 5.88333 16.55 5.5H7.45C7.58333 5.86667 7.72917 6.2125 7.8875 6.5375C8.04583 6.8625 8.23333 7.18333 8.45 7.5ZM12 11.2C12.3333 10.9167 12.6583 10.6333 12.975 10.35C13.2917 10.0667 13.5917 9.78333 13.875 9.5H10.125C10.4083 9.78333 10.7083 10.0667 11.025 10.35C11.3417 10.6333 11.6667 10.9167 12 11.2ZM10.125 15.5H13.875C13.5917 15.2167 13.2917 14.9333 12.975 14.65C12.6583 14.3667 12.3333 14.0833 12 13.8C11.6667 14.0833 11.3417 14.3667 11.025 14.65C10.7083 14.9333 10.4083 15.2167 10.125 15.5ZM7.45 19.5H16.55C16.4167 19.1333 16.2708 18.7875 16.1125 18.4625C15.9542 18.1375 15.7667 17.8167 15.55 17.5H8.45C8.23333 17.8167 8.04583 18.1333 7.8875 18.45C7.72917 18.7667 7.58333 19.1167 7.45 19.5Z"
        fill="currentColor" />
</svg>