<svg xmlns="http://www.w3.org/2000/svg" viewBox="0 0 24 24" width="24" height="24">
  <g id="kidney">
    <path
      d="M8.696 9.464a3.92 3.92 0 0 0 -0.048 -1.72s1.28 0 1.656 -1.784c0.456 -2.064 -0.8 -3.72 -3.024 -4.208 -3.952 -0.848 -5.872 4.072 -6.304 6.048s-0.32 7.336 3.2 8.104c2.064 0.44 3.952 0 4.416 -2.176a2.448 2.448 0 0 0 -1.088 -2.8 2.64 2.64 0 0 0 1.192 -1.464" />
    <path
      d="M15.304 9.464a3.92 3.92 0 0 1 0.048 -1.72s-1.28 0 -1.656 -1.784c-0.456 -2.064 0.8 -3.72 3.024 -4.208 3.952 -0.848 5.872 4.072 6.304 6.048s0.32 7.336 -3.2 8.104c-2.064 0.44 -3.952 0 -4.416 -2.176a2.448 2.448 0 0 1 1.088 -2.8 2.64 2.64 0 0 1 -1.192 -1.464" />
    <path
      d="M10.336 11.68v10.592h0.8V11.68a3.2 3.2 0 0 0 -1.6 -2.736 2.64 2.64 0 0 1 -0.064 0.488 1.36 1.36 0 0 1 -0.12 0.344 2.4 2.4 0 0 1 0.984 1.904" />
    <path
      d="M13.672 11.68v10.592h-0.8V11.68a3.2 3.2 0 0 1 1.6 -2.736c0 0.16 0 0.32 0.064 0.488a2.4 2.4 0 0 0 0.12 0.344 2.4 2.4 0 0 0 -0.984 1.904" />
  </g>
</svg>