<svg xmlns="http://www.w3.org/2000/svg" width="24" height="24" viewBox="0 0 24 24"><g id="surface1"><path d="M10.293 5.914c0-.68-.555-1.234-1.234-1.234-.68 0-1.235.554-1.235 1.234S8.38 7.148 9.06 7.148s1.234-.554 1.234-1.234m0 0" style="stroke:none;fill-rule:nonzero;fill:#3e6a76;fill-opacity:1"/><path d="M20.527 5.914a1.234 1.234 0 0 0-2.465 0 1.233 1.233 0 1 0 2.465 0m0 0" style="stroke:none;fill-rule:nonzero;fill:#60a3b5;fill-opacity:1"/><path d="M7.684 6.074a1.077 1.077 0 1 0-2.152 0 1.077 1.077 0 1 0 2.152 0m0 0" style="stroke:none;fill-rule:nonzero;fill:#3e6a76;fill-opacity:1"/><path d="M17.918 6.074a1.077 1.077 0 0 0-2.152 0 1.077 1.077 0 0 0 2.152 0m-2.34.145a.934.934 0 1 0-1.867 0 .934.934 0 0 0 1.867 0m0 0" style="stroke:none;fill-rule:nonzero;fill:#60a3b5;fill-opacity:1"/><path d="M5.348 6.215a.94.94 0 0 0-.938-.938.94.94 0 0 0-.937.938.94.94 0 0 0 .937.937.94.94 0 0 0 .938-.937M11.535 9c0-.66-.531-1.195-1.191-1.195S9.148 8.34 9.148 9s.536 1.191 1.196 1.191 1.191-.53 1.191-1.191m0 0" style="stroke:none;fill-rule:nonzero;fill:#3e6a76;fill-opacity:1"/><path d="M19.219 9a1.191 1.191 0 1 0-2.383 0 1.191 1.191 0 0 0 2.383 0m0 0" style="stroke:none;fill-rule:nonzero;fill:#60a3b5;fill-opacity:1"/><path d="M8.93 9.156a1.037 1.037 0 1 0-2.074.004 1.037 1.037 0 0 0 2.074-.004m0 0" style="stroke:none;fill-rule:nonzero;fill:#3e6a76;fill-opacity:1"/><path d="M16.61 9.156a1.034 1.034 0 1 0-2.07-.001 1.034 1.034 0 0 0 2.07.001m0 0" style="stroke:none;fill-rule:nonzero;fill:#60a3b5;fill-opacity:1"/><path d="M6.598 9.297a.895.895 0 0 0-.899-.895.895.895 0 0 0-.898.895.899.899 0 0 0 1.797 0m0 0" style="stroke:none;fill-rule:nonzero;fill:#3e6a76;fill-opacity:1"/><path d="M14.195 9.297a.894.894 0 1 0-1.788 0 .894.894 0 0 0 1.788 0m0 0" style="stroke:none;fill-rule:nonzero;fill:#60a3b5;fill-opacity:1"/><path d="M12.785 12.082a1.154 1.154 0 1 0-1.152 1.152c.637 0 1.152-.515 1.152-1.152m0 0" style="stroke:none;fill-rule:nonzero;fill:#3e6a76;fill-opacity:1"/><path d="M17.91 12.082a1.152 1.152 0 1 0-2.304 0 1.152 1.152 0 0 0 2.304 0m0 0" style="stroke:none;fill-rule:nonzero;fill:#60a3b5;fill-opacity:1"/><path d="M10.18 12.238a.999.999 0 0 0-1.996 0 .998.998 0 0 0 1.996 0m0 0" style="stroke:none;fill-rule:nonzero;fill:#3e6a76;fill-opacity:1"/><path d="M15.3 12.238a1 1 0 0 0-.995-.996.997.997 0 0 0 0 1.992c.55 0 .996-.445.996-.996m0 0" style="stroke:none;fill-rule:nonzero;fill:#60a3b5;fill-opacity:1"/><path d="M7.844 12.379a.859.859 0 1 0-1.717.006.859.859 0 0 0 1.717-.006m6.187 2.785a1.116 1.116 0 1 0-2.229.006 1.116 1.116 0 0 0 2.23-.006m0 0" style="stroke:none;fill-rule:nonzero;fill:#3e6a76;fill-opacity:1"/><path d="M16.605 15.164c0-.613-.5-1.113-1.113-1.113s-1.113.5-1.113 1.113.5 1.113 1.113 1.113 1.113-.5 1.113-1.113m0 0" style="stroke:none;fill-rule:nonzero;fill:#60a3b5;fill-opacity:1"/><path d="M11.426 15.324a.956.956 0 1 0-1.912-.002.956.956 0 0 0 1.912.002m-2.336.141a.82.82 0 1 0-.82.816.82.82 0 0 0 .82-.816m6.207 2.781a1.073 1.073 0 1 0-2.145 0 1.073 1.073 0 1 0 2.145 0m-2.609.156a.91.91 0 0 0-.915-.91.91.91 0 0 0-.91.91.91.91 0 0 0 .91.914.91.91 0 0 0 .915-.914m-2.372.161a.75.75 0 0 0-.754-.754.75.75 0 0 0-.753.753c0 .418.336.754.754.754a.75.75 0 0 0 .753-.753m0 0" style="stroke:none;fill-rule:nonzero;fill:#3e6a76;fill-opacity:1"/></g></svg>