<?xml version="1.0" encoding="utf-8" standalone="no"?>
<!DOCTYPE svg PUBLIC "-//W3C//DTD SVG 1.1//EN"
  "http://www.w3.org/Graphics/SVG/1.1/DTD/svg11.dtd">
<svg xmlns:xlink="http://www.w3.org/1999/xlink" width="705.6pt" height="432pt" viewBox="0 0 705.6 432" xmlns="http://www.w3.org/2000/svg" version="1.1">
 <metadata>
  <rdf:RDF xmlns:dc="http://purl.org/dc/elements/1.1/" xmlns:cc="http://creativecommons.org/ns#" xmlns:rdf="http://www.w3.org/1999/02/22-rdf-syntax-ns#">
   <cc:Work>
    <dc:type rdf:resource="http://purl.org/dc/dcmitype/StillImage"/>
    <dc:date>2025-09-05T11:02:57.668410</dc:date>
    <dc:format>image/svg+xml</dc:format>
    <dc:creator>
     <cc:Agent>
      <dc:title>Matplotlib v3.10.5, https://matplotlib.org/</dc:title>
     </cc:Agent>
    </dc:creator>
   </cc:Work>
  </rdf:RDF>
 </metadata>
 <defs>
  <style type="text/css">*{stroke-linejoin: round; stroke-linecap: butt}</style>
 </defs>
 <g id="figure_1">
  <g id="patch_1">
   <path d="M 0 432 
L 705.6 432 
L 705.6 0 
L 0 0 
z
" style="fill: #ffffff"/>
  </g>
  <g id="axes_1">
   <g id="patch_2">
    <path d="M 32.6736 385.72 
L 691.550059 385.72 
L 691.550059 10.8 
L 32.6736 10.8 
z
" style="fill: #ffffff"/>
   </g>
   <g id="patch_3">
    <path d="M 32.6736 10.8 
L 691.550059 10.8 
L 691.550059 26.487029 
L 32.6736 26.487029 
z
" clip-path="url(#pe530e39b86)" style="fill: #d3d3d3; opacity: 0.2"/>
   </g>
   <g id="patch_4">
    <path d="M 32.6736 42.174059 
L 691.550059 42.174059 
L 691.550059 57.861088 
L 32.6736 57.861088 
z
" clip-path="url(#pe530e39b86)" style="fill: #d3d3d3; opacity: 0.2"/>
   </g>
   <g id="patch_5">
    <path d="M 32.6736 73.548117 
L 691.550059 73.548117 
L 691.550059 89.235146 
L 32.6736 89.235146 
z
" clip-path="url(#pe530e39b86)" style="fill: #d3d3d3; opacity: 0.2"/>
   </g>
   <g id="patch_6">
    <path d="M 32.6736 104.922176 
L 691.550059 104.922176 
L 691.550059 120.609205 
L 32.6736 120.609205 
z
" clip-path="url(#pe530e39b86)" style="fill: #d3d3d3; opacity: 0.2"/>
   </g>
   <g id="patch_7">
    <path d="M 32.6736 136.296234 
L 691.550059 136.296234 
L 691.550059 151.983264 
L 32.6736 151.983264 
z
" clip-path="url(#pe530e39b86)" style="fill: #d3d3d3; opacity: 0.2"/>
   </g>
   <g id="patch_8">
    <path d="M 32.6736 167.670293 
L 691.550059 167.670293 
L 691.550059 183.357322 
L 32.6736 183.357322 
z
" clip-path="url(#pe530e39b86)" style="fill: #d3d3d3; opacity: 0.2"/>
   </g>
   <g id="patch_9">
    <path d="M 32.6736 199.044351 
L 691.550059 199.044351 
L 691.550059 214.731381 
L 32.6736 214.731381 
z
" clip-path="url(#pe530e39b86)" style="fill: #d3d3d3; opacity: 0.2"/>
   </g>
   <g id="patch_10">
    <path d="M 32.6736 230.41841 
L 691.550059 230.41841 
L 691.550059 246.105439 
L 32.6736 246.105439 
z
" clip-path="url(#pe530e39b86)" style="fill: #d3d3d3; opacity: 0.2"/>
   </g>
   <g id="patch_11">
    <path d="M 32.6736 261.792469 
L 691.550059 261.792469 
L 691.550059 277.479498 
L 32.6736 277.479498 
z
" clip-path="url(#pe530e39b86)" style="fill: #d3d3d3; opacity: 0.2"/>
   </g>
   <g id="patch_12">
    <path d="M 32.6736 293.166527 
L 691.550059 293.166527 
L 691.550059 308.853556 
L 32.6736 308.853556 
z
" clip-path="url(#pe530e39b86)" style="fill: #d3d3d3; opacity: 0.2"/>
   </g>
   <g id="patch_13">
    <path d="M 32.6736 324.540586 
L 691.550059 324.540586 
L 691.550059 340.227615 
L 32.6736 340.227615 
z
" clip-path="url(#pe530e39b86)" style="fill: #d3d3d3; opacity: 0.2"/>
   </g>
   <g id="patch_14">
    <path d="M 32.6736 355.914644 
L 691.550059 355.914644 
L 691.550059 371.601674 
L 32.6736 371.601674 
z
" clip-path="url(#pe530e39b86)" style="fill: #d3d3d3; opacity: 0.2"/>
   </g>
   <g id="matplotlib.axis_1">
    <g id="xtick_1">
     <g id="line2d_1">
      <defs>
       <path id="m42bdf9a142" d="M 0 0 
L 0 3.5 
" style="stroke: #000000; stroke-width: 0.8"/>
      </defs>
      <g>
       <use xlink:href="#m42bdf9a142" x="32.6736" y="385.72" style="stroke: #000000; stroke-width: 0.8"/>
      </g>
     </g>
     <g id="text_1">
      <!-- 0 -->
      <g transform="translate(29.058991 402.045469) scale(0.13 -0.13)">
       <defs>
        <path id="Helvetica-30" d="M 1731 4475 
Q 2600 4475 2988 3759 
Q 3288 3206 3288 2244 
Q 3288 1331 3016 734 
Q 2622 -122 1728 -122 
Q 922 -122 528 578 
Q 200 1163 200 2147 
Q 200 2909 397 3456 
Q 766 4475 1731 4475 
z
M 1725 391 
Q 2163 391 2422 778 
Q 2681 1166 2681 2222 
Q 2681 2984 2493 3476 
Q 2306 3969 1766 3969 
Q 1269 3969 1039 3501 
Q 809 3034 809 2125 
Q 809 1441 956 1025 
Q 1181 391 1725 391 
z
" transform="scale(0.015625)"/>
       </defs>
       <use xlink:href="#Helvetica-30"/>
      </g>
     </g>
    </g>
    <g id="xtick_2">
     <g id="line2d_2">
      <g>
       <use xlink:href="#m42bdf9a142" x="125.499249" y="385.72" style="stroke: #000000; stroke-width: 0.8"/>
      </g>
     </g>
     <g id="text_2">
      <!-- 50 -->
      <g transform="translate(118.270031 402.045469) scale(0.13 -0.13)">
       <defs>
        <path id="Helvetica-35" d="M 791 1141 
Q 847 659 1238 475 
Q 1438 381 1700 381 
Q 2200 381 2440 700 
Q 2681 1019 2681 1406 
Q 2681 1875 2395 2131 
Q 2109 2388 1709 2388 
Q 1419 2388 1211 2275 
Q 1003 2163 856 1963 
L 369 1991 
L 709 4400 
L 3034 4400 
L 3034 3856 
L 1131 3856 
L 941 2613 
Q 1097 2731 1238 2791 
Q 1488 2894 1816 2894 
Q 2431 2894 2859 2497 
Q 3288 2100 3288 1491 
Q 3288 856 2895 371 
Q 2503 -113 1644 -113 
Q 1097 -113 676 195 
Q 256 503 206 1141 
L 791 1141 
z
" transform="scale(0.015625)"/>
       </defs>
       <use xlink:href="#Helvetica-35"/>
       <use xlink:href="#Helvetica-30" transform="translate(55.615234 0)"/>
      </g>
     </g>
    </g>
    <g id="xtick_3">
     <g id="line2d_3">
      <g>
       <use xlink:href="#m42bdf9a142" x="218.324899" y="385.72" style="stroke: #000000; stroke-width: 0.8"/>
      </g>
     </g>
     <g id="text_3">
      <!-- 100 -->
      <g transform="translate(207.481071 402.045469) scale(0.13 -0.13)">
       <defs>
        <path id="Helvetica-31" d="M 613 3169 
L 613 3600 
Q 1222 3659 1462 3798 
Q 1703 3938 1822 4456 
L 2266 4456 
L 2266 0 
L 1666 0 
L 1666 3169 
L 613 3169 
z
" transform="scale(0.015625)"/>
       </defs>
       <use xlink:href="#Helvetica-31"/>
       <use xlink:href="#Helvetica-30" transform="translate(55.615234 0)"/>
       <use xlink:href="#Helvetica-30" transform="translate(111.230469 0)"/>
      </g>
     </g>
    </g>
    <g id="xtick_4">
     <g id="line2d_4">
      <g>
       <use xlink:href="#m42bdf9a142" x="311.150548" y="385.72" style="stroke: #000000; stroke-width: 0.8"/>
      </g>
     </g>
     <g id="text_4">
      <!-- 150 -->
      <g transform="translate(300.30672 402.045469) scale(0.13 -0.13)">
       <use xlink:href="#Helvetica-31"/>
       <use xlink:href="#Helvetica-35" transform="translate(55.615234 0)"/>
       <use xlink:href="#Helvetica-30" transform="translate(111.230469 0)"/>
      </g>
     </g>
    </g>
    <g id="xtick_5">
     <g id="line2d_5">
      <g>
       <use xlink:href="#m42bdf9a142" x="403.976197" y="385.72" style="stroke: #000000; stroke-width: 0.8"/>
      </g>
     </g>
     <g id="text_5">
      <!-- 200 -->
      <g transform="translate(393.132369 402.045469) scale(0.13 -0.13)">
       <defs>
        <path id="Helvetica-32" d="M 200 0 
Q 231 578 439 1006 
Q 647 1434 1250 1784 
L 1850 2131 
Q 2253 2366 2416 2531 
Q 2672 2791 2672 3125 
Q 2672 3516 2437 3745 
Q 2203 3975 1813 3975 
Q 1234 3975 1013 3538 
Q 894 3303 881 2888 
L 309 2888 
Q 319 3472 525 3841 
Q 891 4491 1816 4491 
Q 2584 4491 2939 4075 
Q 3294 3659 3294 3150 
Q 3294 2613 2916 2231 
Q 2697 2009 2131 1694 
L 1703 1456 
Q 1397 1288 1222 1134 
Q 909 863 828 531 
L 3272 531 
L 3272 0 
L 200 0 
z
" transform="scale(0.015625)"/>
       </defs>
       <use xlink:href="#Helvetica-32"/>
       <use xlink:href="#Helvetica-30" transform="translate(55.615234 0)"/>
       <use xlink:href="#Helvetica-30" transform="translate(111.230469 0)"/>
      </g>
     </g>
    </g>
    <g id="xtick_6">
     <g id="line2d_6">
      <g>
       <use xlink:href="#m42bdf9a142" x="496.801847" y="385.72" style="stroke: #000000; stroke-width: 0.8"/>
      </g>
     </g>
     <g id="text_6">
      <!-- 250 -->
      <g transform="translate(485.958019 402.045469) scale(0.13 -0.13)">
       <use xlink:href="#Helvetica-32"/>
       <use xlink:href="#Helvetica-35" transform="translate(55.615234 0)"/>
       <use xlink:href="#Helvetica-30" transform="translate(111.230469 0)"/>
      </g>
     </g>
    </g>
    <g id="xtick_7">
     <g id="line2d_7">
      <g>
       <use xlink:href="#m42bdf9a142" x="589.627496" y="385.72" style="stroke: #000000; stroke-width: 0.8"/>
      </g>
     </g>
     <g id="text_7">
      <!-- 300 -->
      <g transform="translate(578.783668 402.045469) scale(0.13 -0.13)">
       <defs>
        <path id="Helvetica-33" d="M 1663 -122 
Q 869 -122 511 314 
Q 153 750 153 1375 
L 741 1375 
Q 778 941 903 744 
Q 1122 391 1694 391 
Q 2138 391 2406 628 
Q 2675 866 2675 1241 
Q 2675 1703 2392 1887 
Q 2109 2072 1606 2072 
Q 1550 2072 1492 2070 
Q 1434 2069 1375 2066 
L 1375 2563 
Q 1463 2553 1522 2550 
Q 1581 2547 1650 2547 
Q 1966 2547 2169 2647 
Q 2525 2822 2525 3272 
Q 2525 3606 2287 3787 
Q 2050 3969 1734 3969 
Q 1172 3969 956 3594 
Q 838 3388 822 3006 
L 266 3006 
Q 266 3506 466 3856 
Q 809 4481 1675 4481 
Q 2359 4481 2734 4176 
Q 3109 3872 3109 3294 
Q 3109 2881 2888 2625 
Q 2750 2466 2531 2375 
Q 2884 2278 3082 2001 
Q 3281 1725 3281 1325 
Q 3281 684 2859 281 
Q 2438 -122 1663 -122 
z
" transform="scale(0.015625)"/>
       </defs>
       <use xlink:href="#Helvetica-33"/>
       <use xlink:href="#Helvetica-30" transform="translate(55.615234 0)"/>
       <use xlink:href="#Helvetica-30" transform="translate(111.230469 0)"/>
      </g>
     </g>
    </g>
    <g id="xtick_8">
     <g id="line2d_8">
      <g>
       <use xlink:href="#m42bdf9a142" x="682.453146" y="385.72" style="stroke: #000000; stroke-width: 0.8"/>
      </g>
     </g>
     <g id="text_8">
      <!-- 350 -->
      <g transform="translate(671.609317 402.045469) scale(0.13 -0.13)">
       <use xlink:href="#Helvetica-33"/>
       <use xlink:href="#Helvetica-35" transform="translate(55.615234 0)"/>
       <use xlink:href="#Helvetica-30" transform="translate(111.230469 0)"/>
      </g>
     </g>
    </g>
    <g id="text_9">
     <!-- Visualization Count -->
     <g transform="translate(306.470814 418.080625) scale(0.13 -0.13)">
      <defs>
       <path id="Helvetica-56" d="M 850 4591 
L 2169 681 
L 3472 4591 
L 4169 4591 
L 2494 0 
L 1834 0 
L 163 4591 
L 850 4591 
z
" transform="scale(0.015625)"/>
       <path id="Helvetica-69" d="M 413 3331 
L 984 3331 
L 984 0 
L 413 0 
L 413 3331 
z
M 413 4591 
L 984 4591 
L 984 3953 
L 413 3953 
L 413 4591 
z
" transform="scale(0.015625)"/>
       <path id="Helvetica-73" d="M 747 1050 
Q 772 769 888 619 
Q 1100 347 1625 347 
Q 1938 347 2175 483 
Q 2413 619 2413 903 
Q 2413 1119 2222 1231 
Q 2100 1300 1741 1391 
L 1294 1503 
Q 866 1609 663 1741 
Q 300 1969 300 2372 
Q 300 2847 642 3140 
Q 984 3434 1563 3434 
Q 2319 3434 2653 2991 
Q 2863 2709 2856 2384 
L 2325 2384 
Q 2309 2575 2191 2731 
Q 1997 2953 1519 2953 
Q 1200 2953 1036 2831 
Q 872 2709 872 2509 
Q 872 2291 1088 2159 
Q 1213 2081 1456 2022 
L 1828 1931 
Q 2434 1784 2641 1647 
Q 2969 1431 2969 969 
Q 2969 522 2630 197 
Q 2291 -128 1597 -128 
Q 850 -128 539 211 
Q 228 550 206 1050 
L 747 1050 
z
M 1578 3428 
L 1578 3428 
z
" transform="scale(0.015625)"/>
       <path id="Helvetica-75" d="M 975 3347 
L 975 1125 
Q 975 869 1056 706 
Q 1206 406 1616 406 
Q 2203 406 2416 931 
Q 2531 1213 2531 1703 
L 2531 3347 
L 3094 3347 
L 3094 0 
L 2563 0 
L 2569 494 
Q 2459 303 2297 172 
Q 1975 -91 1516 -91 
Q 800 -91 541 388 
Q 400 644 400 1072 
L 400 3347 
L 975 3347 
z
M 1747 3428 
L 1747 3428 
z
" transform="scale(0.015625)"/>
       <path id="Helvetica-61" d="M 844 891 
Q 844 647 1022 506 
Q 1200 366 1444 366 
Q 1741 366 2019 503 
Q 2488 731 2488 1250 
L 2488 1703 
Q 2384 1638 2221 1594 
Q 2059 1550 1903 1531 
L 1563 1488 
Q 1256 1447 1103 1359 
Q 844 1213 844 891 
z
M 2206 2028 
Q 2400 2053 2466 2191 
Q 2503 2266 2503 2406 
Q 2503 2694 2298 2823 
Q 2094 2953 1713 2953 
Q 1272 2953 1088 2716 
Q 984 2584 953 2325 
L 428 2325 
Q 444 2944 830 3186 
Q 1216 3428 1725 3428 
Q 2316 3428 2684 3203 
Q 3050 2978 3050 2503 
L 3050 575 
Q 3050 488 3086 434 
Q 3122 381 3238 381 
Q 3275 381 3322 386 
Q 3369 391 3422 400 
L 3422 -16 
Q 3291 -53 3222 -62 
Q 3153 -72 3034 -72 
Q 2744 -72 2613 134 
Q 2544 244 2516 444 
Q 2344 219 2022 53 
Q 1700 -113 1313 -113 
Q 847 -113 551 170 
Q 256 453 256 878 
Q 256 1344 547 1600 
Q 838 1856 1309 1916 
L 2206 2028 
z
M 1741 3428 
L 1741 3428 
z
" transform="scale(0.015625)"/>
       <path id="Helvetica-6c" d="M 428 4591 
L 991 4591 
L 991 0 
L 428 0 
L 428 4591 
z
" transform="scale(0.015625)"/>
       <path id="Helvetica-7a" d="M 163 444 
L 2147 2844 
L 309 2844 
L 309 3347 
L 2903 3347 
L 2903 2888 
L 931 503 
L 2963 503 
L 2963 0 
L 163 0 
L 163 444 
z
M 1609 3428 
L 1609 3428 
z
" transform="scale(0.015625)"/>
       <path id="Helvetica-74" d="M 525 4281 
L 1094 4281 
L 1094 3347 
L 1628 3347 
L 1628 2888 
L 1094 2888 
L 1094 703 
Q 1094 528 1213 469 
Q 1278 434 1431 434 
Q 1472 434 1519 436 
Q 1566 438 1628 444 
L 1628 0 
Q 1531 -28 1426 -40 
Q 1322 -53 1200 -53 
Q 806 -53 665 148 
Q 525 350 525 672 
L 525 2888 
L 72 2888 
L 72 3347 
L 525 3347 
L 525 4281 
z
" transform="scale(0.015625)"/>
       <path id="Helvetica-6f" d="M 1741 363 
Q 2300 363 2508 786 
Q 2716 1209 2716 1728 
Q 2716 2197 2566 2491 
Q 2328 2953 1747 2953 
Q 1231 2953 997 2559 
Q 763 2166 763 1609 
Q 763 1075 997 719 
Q 1231 363 1741 363 
z
M 1763 3444 
Q 2409 3444 2856 3012 
Q 3303 2581 3303 1744 
Q 3303 934 2909 406 
Q 2516 -122 1688 -122 
Q 997 -122 590 345 
Q 184 813 184 1600 
Q 184 2444 612 2944 
Q 1041 3444 1763 3444 
z
M 1744 3428 
L 1744 3428 
z
" transform="scale(0.015625)"/>
       <path id="Helvetica-6e" d="M 413 3347 
L 947 3347 
L 947 2872 
Q 1184 3166 1450 3294 
Q 1716 3422 2041 3422 
Q 2753 3422 3003 2925 
Q 3141 2653 3141 2147 
L 3141 0 
L 2569 0 
L 2569 2109 
Q 2569 2416 2478 2603 
Q 2328 2916 1934 2916 
Q 1734 2916 1606 2875 
Q 1375 2806 1200 2600 
Q 1059 2434 1017 2257 
Q 975 2081 975 1753 
L 975 0 
L 413 0 
L 413 3347 
z
M 1734 3428 
L 1734 3428 
z
" transform="scale(0.015625)"/>
       <path id="Helvetica-20" transform="scale(0.015625)"/>
       <path id="Helvetica-43" d="M 2422 4716 
Q 3294 4716 3775 4256 
Q 4256 3797 4309 3213 
L 3703 3213 
Q 3600 3656 3292 3915 
Q 2984 4175 2428 4175 
Q 1750 4175 1333 3698 
Q 916 3222 916 2238 
Q 916 1431 1292 929 
Q 1669 428 2416 428 
Q 3103 428 3463 956 
Q 3653 1234 3747 1688 
L 4353 1688 
Q 4272 963 3816 472 
Q 3269 -119 2341 -119 
Q 1541 -119 997 366 
Q 281 1006 281 2344 
Q 281 3359 819 4009 
Q 1400 4716 2422 4716 
z
M 2297 4716 
L 2297 4716 
z
" transform="scale(0.015625)"/>
      </defs>
      <use xlink:href="#Helvetica-56"/>
      <use xlink:href="#Helvetica-69" transform="translate(66.699219 0)"/>
      <use xlink:href="#Helvetica-73" transform="translate(88.916016 0)"/>
      <use xlink:href="#Helvetica-75" transform="translate(138.916016 0)"/>
      <use xlink:href="#Helvetica-61" transform="translate(194.53125 0)"/>
      <use xlink:href="#Helvetica-6c" transform="translate(250.146484 0)"/>
      <use xlink:href="#Helvetica-69" transform="translate(272.363281 0)"/>
      <use xlink:href="#Helvetica-7a" transform="translate(294.580078 0)"/>
      <use xlink:href="#Helvetica-61" transform="translate(344.580078 0)"/>
      <use xlink:href="#Helvetica-74" transform="translate(400.195312 0)"/>
      <use xlink:href="#Helvetica-69" transform="translate(427.978516 0)"/>
      <use xlink:href="#Helvetica-6f" transform="translate(450.195312 0)"/>
      <use xlink:href="#Helvetica-6e" transform="translate(505.810547 0)"/>
      <use xlink:href="#Helvetica-20" transform="translate(561.425781 0)"/>
      <use xlink:href="#Helvetica-43" transform="translate(589.208984 0)"/>
      <use xlink:href="#Helvetica-6f" transform="translate(661.425781 0)"/>
      <use xlink:href="#Helvetica-75" transform="translate(717.041016 0)"/>
      <use xlink:href="#Helvetica-6e" transform="translate(772.65625 0)"/>
      <use xlink:href="#Helvetica-74" transform="translate(828.271484 0)"/>
     </g>
    </g>
   </g>
   <g id="matplotlib.axis_2">
    <g id="ytick_1">
     <g id="line2d_9">
      <defs>
       <path id="mec9c78c8a9" d="M 0 0 
L -3.5 0 
" style="stroke: #000000; stroke-width: 0.8"/>
      </defs>
      <g>
       <use xlink:href="#mec9c78c8a9" x="32.6736" y="18.643515" style="stroke: #000000; stroke-width: 0.8"/>
      </g>
     </g>
    </g>
    <g id="ytick_2">
     <g id="line2d_10">
      <g>
       <use xlink:href="#mec9c78c8a9" x="32.6736" y="34.330544" style="stroke: #000000; stroke-width: 0.8"/>
      </g>
     </g>
    </g>
    <g id="ytick_3">
     <g id="line2d_11">
      <g>
       <use xlink:href="#mec9c78c8a9" x="32.6736" y="50.017573" style="stroke: #000000; stroke-width: 0.8"/>
      </g>
     </g>
    </g>
    <g id="ytick_4">
     <g id="line2d_12">
      <g>
       <use xlink:href="#mec9c78c8a9" x="32.6736" y="65.704603" style="stroke: #000000; stroke-width: 0.8"/>
      </g>
     </g>
    </g>
    <g id="ytick_5">
     <g id="line2d_13">
      <g>
       <use xlink:href="#mec9c78c8a9" x="32.6736" y="81.391632" style="stroke: #000000; stroke-width: 0.8"/>
      </g>
     </g>
    </g>
    <g id="ytick_6">
     <g id="line2d_14">
      <g>
       <use xlink:href="#mec9c78c8a9" x="32.6736" y="97.078661" style="stroke: #000000; stroke-width: 0.8"/>
      </g>
     </g>
    </g>
    <g id="ytick_7">
     <g id="line2d_15">
      <g>
       <use xlink:href="#mec9c78c8a9" x="32.6736" y="112.76569" style="stroke: #000000; stroke-width: 0.8"/>
      </g>
     </g>
    </g>
    <g id="ytick_8">
     <g id="line2d_16">
      <g>
       <use xlink:href="#mec9c78c8a9" x="32.6736" y="128.45272" style="stroke: #000000; stroke-width: 0.8"/>
      </g>
     </g>
    </g>
    <g id="ytick_9">
     <g id="line2d_17">
      <g>
       <use xlink:href="#mec9c78c8a9" x="32.6736" y="144.139749" style="stroke: #000000; stroke-width: 0.8"/>
      </g>
     </g>
    </g>
    <g id="ytick_10">
     <g id="line2d_18">
      <g>
       <use xlink:href="#mec9c78c8a9" x="32.6736" y="159.826778" style="stroke: #000000; stroke-width: 0.8"/>
      </g>
     </g>
    </g>
    <g id="ytick_11">
     <g id="line2d_19">
      <g>
       <use xlink:href="#mec9c78c8a9" x="32.6736" y="175.513808" style="stroke: #000000; stroke-width: 0.8"/>
      </g>
     </g>
    </g>
    <g id="ytick_12">
     <g id="line2d_20">
      <g>
       <use xlink:href="#mec9c78c8a9" x="32.6736" y="191.200837" style="stroke: #000000; stroke-width: 0.8"/>
      </g>
     </g>
    </g>
    <g id="ytick_13">
     <g id="line2d_21">
      <g>
       <use xlink:href="#mec9c78c8a9" x="32.6736" y="206.887866" style="stroke: #000000; stroke-width: 0.8"/>
      </g>
     </g>
    </g>
    <g id="ytick_14">
     <g id="line2d_22">
      <g>
       <use xlink:href="#mec9c78c8a9" x="32.6736" y="222.574895" style="stroke: #000000; stroke-width: 0.8"/>
      </g>
     </g>
    </g>
    <g id="ytick_15">
     <g id="line2d_23">
      <g>
       <use xlink:href="#mec9c78c8a9" x="32.6736" y="238.261925" style="stroke: #000000; stroke-width: 0.8"/>
      </g>
     </g>
    </g>
    <g id="ytick_16">
     <g id="line2d_24">
      <g>
       <use xlink:href="#mec9c78c8a9" x="32.6736" y="253.948954" style="stroke: #000000; stroke-width: 0.8"/>
      </g>
     </g>
    </g>
    <g id="ytick_17">
     <g id="line2d_25">
      <g>
       <use xlink:href="#mec9c78c8a9" x="32.6736" y="269.635983" style="stroke: #000000; stroke-width: 0.8"/>
      </g>
     </g>
    </g>
    <g id="ytick_18">
     <g id="line2d_26">
      <g>
       <use xlink:href="#mec9c78c8a9" x="32.6736" y="285.323013" style="stroke: #000000; stroke-width: 0.8"/>
      </g>
     </g>
    </g>
    <g id="ytick_19">
     <g id="line2d_27">
      <g>
       <use xlink:href="#mec9c78c8a9" x="32.6736" y="301.010042" style="stroke: #000000; stroke-width: 0.8"/>
      </g>
     </g>
    </g>
    <g id="ytick_20">
     <g id="line2d_28">
      <g>
       <use xlink:href="#mec9c78c8a9" x="32.6736" y="316.697071" style="stroke: #000000; stroke-width: 0.8"/>
      </g>
     </g>
    </g>
    <g id="ytick_21">
     <g id="line2d_29">
      <g>
       <use xlink:href="#mec9c78c8a9" x="32.6736" y="332.3841" style="stroke: #000000; stroke-width: 0.8"/>
      </g>
     </g>
    </g>
    <g id="ytick_22">
     <g id="line2d_30">
      <g>
       <use xlink:href="#mec9c78c8a9" x="32.6736" y="348.07113" style="stroke: #000000; stroke-width: 0.8"/>
      </g>
     </g>
    </g>
    <g id="ytick_23">
     <g id="line2d_31">
      <g>
       <use xlink:href="#mec9c78c8a9" x="32.6736" y="363.758159" style="stroke: #000000; stroke-width: 0.8"/>
      </g>
     </g>
    </g>
    <g id="ytick_24">
     <g id="line2d_32">
      <g>
       <use xlink:href="#mec9c78c8a9" x="32.6736" y="379.445188" style="stroke: #000000; stroke-width: 0.8"/>
      </g>
     </g>
    </g>
   </g>
   <g id="patch_15">
    <path d="M 32.6736 385.72 
L 32.6736 10.8 
" style="fill: none; stroke: #000000; stroke-width: 0.8; stroke-linejoin: miter; stroke-linecap: square"/>
   </g>
   <g id="patch_16">
    <path d="M 691.550059 385.72 
L 691.550059 10.8 
" style="fill: none; stroke: #000000; stroke-width: 0.8; stroke-linejoin: miter; stroke-linecap: square"/>
   </g>
   <g id="patch_17">
    <path d="M 32.6736 385.72 
L 691.550059 385.72 
" style="fill: none; stroke: #000000; stroke-width: 0.8; stroke-linejoin: miter; stroke-linecap: square"/>
   </g>
   <g id="patch_18">
    <path d="M 32.6736 10.8 
L 691.550059 10.8 
" style="fill: none; stroke: #000000; stroke-width: 0.8; stroke-linejoin: miter; stroke-linecap: square"/>
   </g>
   <g id="patch_19">
    <path d="M 32.6736 12.368703 
L 626.757756 12.368703 
L 626.757756 24.918326 
L 32.6736 24.918326 
z
" clip-path="url(#pe530e39b86)" style="fill: #4682b4"/>
   </g>
   <g id="patch_20">
    <path d="M 32.6736 28.055732 
L 251.742132 28.055732 
L 251.742132 40.605356 
L 32.6736 40.605356 
z
" clip-path="url(#pe530e39b86)" style="fill: #4682b4"/>
   </g>
   <g id="patch_21">
    <path d="M 32.6736 43.742762 
L 660.17499 43.742762 
L 660.17499 56.292385 
L 32.6736 56.292385 
z
" clip-path="url(#pe530e39b86)" style="fill: #4682b4"/>
   </g>
   <g id="patch_22">
    <path d="M 32.6736 59.429791 
L 32.6736 59.429791 
L 32.6736 71.979414 
L 32.6736 71.979414 
z
" clip-path="url(#pe530e39b86)" style="fill: #4682b4"/>
   </g>
   <g id="patch_23">
    <path d="M 32.6736 75.11682 
L 47.525704 75.11682 
L 47.525704 87.666444 
L 32.6736 87.666444 
z
" clip-path="url(#pe530e39b86)" style="fill: #4682b4"/>
   </g>
   <g id="patch_24">
    <path d="M 32.6736 90.803849 
L 351.993834 90.803849 
L 351.993834 103.353473 
L 32.6736 103.353473 
z
" clip-path="url(#pe530e39b86)" style="fill: #4682b4"/>
   </g>
   <g id="patch_25">
    <path d="M 32.6736 106.490879 
L 431.823892 106.490879 
L 431.823892 119.040502 
L 32.6736 119.040502 
z
" clip-path="url(#pe530e39b86)" style="fill: #4682b4"/>
   </g>
   <g id="patch_26">
    <path d="M 32.6736 122.177908 
L 32.6736 122.177908 
L 32.6736 134.727531 
L 32.6736 134.727531 
z
" clip-path="url(#pe530e39b86)" style="fill: #4682b4"/>
   </g>
   <g id="patch_27">
    <path d="M 32.6736 137.864937 
L 240.603055 137.864937 
L 240.603055 150.414561 
L 32.6736 150.414561 
z
" clip-path="url(#pe530e39b86)" style="fill: #4682b4"/>
   </g>
   <g id="patch_28">
    <path d="M 32.6736 153.551967 
L 170.055561 153.551967 
L 170.055561 166.10159 
L 32.6736 166.10159 
z
" clip-path="url(#pe530e39b86)" style="fill: #4682b4"/>
   </g>
   <g id="patch_29">
    <path d="M 32.6736 169.238996 
L 155.203457 169.238996 
L 155.203457 181.788619 
L 32.6736 181.788619 
z
" clip-path="url(#pe530e39b86)" style="fill: #4682b4"/>
   </g>
   <g id="patch_30">
    <path d="M 32.6736 184.926025 
L 197.903256 184.926025 
L 197.903256 197.475649 
L 32.6736 197.475649 
z
" clip-path="url(#pe530e39b86)" style="fill: #4682b4"/>
   </g>
   <g id="patch_31">
    <path d="M 32.6736 200.613054 
L 47.525704 200.613054 
L 47.525704 213.162678 
L 32.6736 213.162678 
z
" clip-path="url(#pe530e39b86)" style="fill: #4682b4"/>
   </g>
   <g id="patch_32">
    <path d="M 32.6736 216.300084 
L 32.6736 216.300084 
L 32.6736 228.849707 
L 32.6736 228.849707 
z
" clip-path="url(#pe530e39b86)" style="fill: #4682b4"/>
   </g>
   <g id="patch_33">
    <path d="M 32.6736 231.987113 
L 49.382217 231.987113 
L 49.382217 244.536736 
L 32.6736 244.536736 
z
" clip-path="url(#pe530e39b86)" style="fill: #4682b4"/>
   </g>
   <g id="patch_34">
    <path d="M 32.6736 247.674142 
L 32.6736 247.674142 
L 32.6736 260.223766 
L 32.6736 260.223766 
z
" clip-path="url(#pe530e39b86)" style="fill: #4682b4"/>
   </g>
   <g id="patch_35">
    <path d="M 32.6736 263.361172 
L 60.521295 263.361172 
L 60.521295 275.910795 
L 32.6736 275.910795 
z
" clip-path="url(#pe530e39b86)" style="fill: #4682b4"/>
   </g>
   <g id="patch_36">
    <path d="M 32.6736 279.048201 
L 32.6736 279.048201 
L 32.6736 291.597824 
L 32.6736 291.597824 
z
" clip-path="url(#pe530e39b86)" style="fill: #4682b4"/>
   </g>
   <g id="patch_37">
    <path d="M 32.6736 294.73523 
L 32.6736 294.73523 
L 32.6736 307.284854 
L 32.6736 307.284854 
z
" clip-path="url(#pe530e39b86)" style="fill: #4682b4"/>
   </g>
   <g id="patch_38">
    <path d="M 32.6736 310.422259 
L 53.095243 310.422259 
L 53.095243 322.971883 
L 32.6736 322.971883 
z
" clip-path="url(#pe530e39b86)" style="fill: #4682b4"/>
   </g>
   <g id="patch_39">
    <path d="M 32.6736 326.109289 
L 32.6736 326.109289 
L 32.6736 338.658912 
L 32.6736 338.658912 
z
" clip-path="url(#pe530e39b86)" style="fill: #4682b4"/>
   </g>
   <g id="patch_40">
    <path d="M 32.6736 341.796318 
L 32.6736 341.796318 
L 32.6736 354.345941 
L 32.6736 354.345941 
z
" clip-path="url(#pe530e39b86)" style="fill: #4682b4"/>
   </g>
   <g id="patch_41">
    <path d="M 32.6736 357.483347 
L 56.808269 357.483347 
L 56.808269 370.032971 
L 32.6736 370.032971 
z
" clip-path="url(#pe530e39b86)" style="fill: #4682b4"/>
   </g>
   <g id="patch_42">
    <path d="M 32.6736 373.170377 
L 38.243139 373.170377 
L 38.243139 385.72 
L 32.6736 385.72 
z
" clip-path="url(#pe530e39b86)" style="fill: #4682b4"/>
   </g>
   <g id="text_10">
    <!-- 320 -->
    <g style="fill: #ffffff" transform="translate(597.163582 21.951405) scale(0.13 -0.13)">
     <use xlink:href="#Helvetica-33"/>
     <use xlink:href="#Helvetica-32" transform="translate(55.615234 0)"/>
     <use xlink:href="#Helvetica-30" transform="translate(111.230469 0)"/>
    </g>
   </g>
   <g id="text_11">
    <!-- 118 -->
    <g transform="translate(259.64865 37.638435) scale(0.13 -0.13)">
     <defs>
      <path id="Helvetica-38" d="M 1741 2600 
Q 2113 2600 2322 2808 
Q 2531 3016 2531 3303 
Q 2531 3553 2331 3762 
Q 2131 3972 1722 3972 
Q 1316 3972 1134 3762 
Q 953 3553 953 3272 
Q 953 2956 1187 2778 
Q 1422 2600 1741 2600 
z
M 1775 384 
Q 2166 384 2423 595 
Q 2681 806 2681 1225 
Q 2681 1659 2415 1884 
Q 2150 2109 1734 2109 
Q 1331 2109 1076 1879 
Q 822 1650 822 1244 
Q 822 894 1055 639 
Q 1288 384 1775 384 
z
M 975 2384 
Q 741 2484 609 2619 
Q 363 2869 363 3269 
Q 363 3769 725 4128 
Q 1088 4488 1753 4488 
Q 2397 4488 2762 4148 
Q 3128 3809 3128 3356 
Q 3128 2938 2916 2678 
Q 2797 2531 2547 2391 
Q 2825 2263 2984 2097 
Q 3281 1784 3281 1284 
Q 3281 694 2884 283 
Q 2488 -128 1763 -128 
Q 1109 -128 657 226 
Q 206 581 206 1256 
Q 206 1653 400 1942 
Q 594 2231 975 2384 
z
" transform="scale(0.015625)"/>
     </defs>
     <use xlink:href="#Helvetica-31"/>
     <use xlink:href="#Helvetica-31" transform="translate(55.615234 0)"/>
     <use xlink:href="#Helvetica-38" transform="translate(111.230469 0)"/>
    </g>
   </g>
   <g id="text_12">
    <!-- 338 -->
    <g style="fill: #ffffff" transform="translate(630.580816 53.325464) scale(0.13 -0.13)">
     <use xlink:href="#Helvetica-33"/>
     <use xlink:href="#Helvetica-33" transform="translate(55.615234 0)"/>
     <use xlink:href="#Helvetica-38" transform="translate(111.230469 0)"/>
    </g>
   </g>
   <g id="text_13">
    <!-- 0 -->
    <g transform="translate(40.580118 69.012493) scale(0.13 -0.13)">
     <use xlink:href="#Helvetica-30"/>
    </g>
   </g>
   <g id="text_14">
    <!-- 8 -->
    <g transform="translate(55.432221 84.699522) scale(0.13 -0.13)">
     <use xlink:href="#Helvetica-38"/>
    </g>
   </g>
   <g id="text_15">
    <!-- 172 -->
    <g transform="translate(359.900351 100.386552) scale(0.13 -0.13)">
     <defs>
      <path id="Helvetica-37" d="M 3347 4400 
L 3347 3909 
Q 3131 3700 2773 3181 
Q 2416 2663 2141 2063 
Q 1869 1478 1728 997 
Q 1638 688 1494 0 
L 872 0 
Q 1084 1281 1809 2550 
Q 2238 3294 2709 3834 
L 234 3834 
L 234 4400 
L 3347 4400 
z
" transform="scale(0.015625)"/>
     </defs>
     <use xlink:href="#Helvetica-31"/>
     <use xlink:href="#Helvetica-37" transform="translate(55.615234 0)"/>
     <use xlink:href="#Helvetica-32" transform="translate(111.230469 0)"/>
    </g>
   </g>
   <g id="text_16">
    <!-- 215 -->
    <g transform="translate(439.73041 116.073581) scale(0.13 -0.13)">
     <use xlink:href="#Helvetica-32"/>
     <use xlink:href="#Helvetica-31" transform="translate(55.615234 0)"/>
     <use xlink:href="#Helvetica-35" transform="translate(111.230469 0)"/>
    </g>
   </g>
   <g id="text_17">
    <!-- 0 -->
    <g transform="translate(40.580118 131.76061) scale(0.13 -0.13)">
     <use xlink:href="#Helvetica-30"/>
    </g>
   </g>
   <g id="text_18">
    <!-- 112 -->
    <g transform="translate(248.509572 147.44764) scale(0.13 -0.13)">
     <use xlink:href="#Helvetica-31"/>
     <use xlink:href="#Helvetica-31" transform="translate(55.615234 0)"/>
     <use xlink:href="#Helvetica-32" transform="translate(111.230469 0)"/>
    </g>
   </g>
   <g id="text_19">
    <!-- 74 -->
    <g transform="translate(177.962079 163.134669) scale(0.13 -0.13)">
     <defs>
      <path id="Helvetica-34" d="M 2116 1584 
L 2116 3613 
L 681 1584 
L 2116 1584 
z
M 2125 0 
L 2125 1094 
L 163 1094 
L 163 1644 
L 2213 4488 
L 2688 4488 
L 2688 1584 
L 3347 1584 
L 3347 1094 
L 2688 1094 
L 2688 0 
L 2125 0 
z
" transform="scale(0.015625)"/>
     </defs>
     <use xlink:href="#Helvetica-37"/>
     <use xlink:href="#Helvetica-34" transform="translate(55.615234 0)"/>
    </g>
   </g>
   <g id="text_20">
    <!-- 66 -->
    <g transform="translate(163.109975 178.821698) scale(0.13 -0.13)">
     <defs>
      <path id="Helvetica-36" d="M 1872 4494 
Q 2622 4494 2917 4105 
Q 3213 3716 3213 3303 
L 2656 3303 
Q 2606 3569 2497 3719 
Q 2294 4000 1881 4000 
Q 1409 4000 1131 3564 
Q 853 3128 822 2316 
Q 1016 2600 1309 2741 
Q 1578 2866 1909 2866 
Q 2472 2866 2890 2506 
Q 3309 2147 3309 1434 
Q 3309 825 2912 354 
Q 2516 -116 1781 -116 
Q 1153 -116 697 361 
Q 241 838 241 1966 
Q 241 2800 444 3381 
Q 834 4494 1872 4494 
z
M 1831 384 
Q 2275 384 2495 682 
Q 2716 981 2716 1388 
Q 2716 1731 2519 2042 
Q 2322 2353 1803 2353 
Q 1441 2353 1167 2112 
Q 894 1872 894 1388 
Q 894 963 1142 673 
Q 1391 384 1831 384 
z
" transform="scale(0.015625)"/>
     </defs>
     <use xlink:href="#Helvetica-36"/>
     <use xlink:href="#Helvetica-36" transform="translate(55.615234 0)"/>
    </g>
   </g>
   <g id="text_21">
    <!-- 89 -->
    <g transform="translate(205.809773 194.508727) scale(0.13 -0.13)">
     <defs>
      <path id="Helvetica-39" d="M 850 1081 
Q 875 616 1209 438 
Q 1381 344 1597 344 
Q 2000 344 2284 680 
Q 2569 1016 2688 2044 
Q 2500 1747 2223 1626 
Q 1947 1506 1628 1506 
Q 981 1506 604 1909 
Q 228 2313 228 2947 
Q 228 3556 600 4018 
Q 972 4481 1697 4481 
Q 2675 4481 3047 3600 
Q 3253 3116 3253 2388 
Q 3253 1566 3006 931 
Q 2597 -125 1619 -125 
Q 963 -125 622 219 
Q 281 563 281 1081 
L 850 1081 
z
M 1703 2000 
Q 2038 2000 2314 2220 
Q 2591 2441 2591 2991 
Q 2591 3484 2342 3726 
Q 2094 3969 1709 3969 
Q 1297 3969 1055 3692 
Q 813 3416 813 2953 
Q 813 2516 1025 2258 
Q 1238 2000 1703 2000 
z
" transform="scale(0.015625)"/>
     </defs>
     <use xlink:href="#Helvetica-38"/>
     <use xlink:href="#Helvetica-39" transform="translate(55.615234 0)"/>
    </g>
   </g>
   <g id="text_22">
    <!-- 8 -->
    <g transform="translate(55.432221 210.195757) scale(0.13 -0.13)">
     <use xlink:href="#Helvetica-38"/>
    </g>
   </g>
   <g id="text_23">
    <!-- 0 -->
    <g transform="translate(40.580118 225.882786) scale(0.13 -0.13)">
     <use xlink:href="#Helvetica-30"/>
    </g>
   </g>
   <g id="text_24">
    <!-- 9 -->
    <g transform="translate(57.288734 241.569815) scale(0.13 -0.13)">
     <use xlink:href="#Helvetica-39"/>
    </g>
   </g>
   <g id="text_25">
    <!-- 0 -->
    <g transform="translate(40.580118 257.256845) scale(0.13 -0.13)">
     <use xlink:href="#Helvetica-30"/>
    </g>
   </g>
   <g id="text_26">
    <!-- 15 -->
    <g transform="translate(68.427812 272.943874) scale(0.13 -0.13)">
     <use xlink:href="#Helvetica-31"/>
     <use xlink:href="#Helvetica-35" transform="translate(55.615234 0)"/>
    </g>
   </g>
   <g id="text_27">
    <!-- 0 -->
    <g transform="translate(40.580118 288.630903) scale(0.13 -0.13)">
     <use xlink:href="#Helvetica-30"/>
    </g>
   </g>
   <g id="text_28">
    <!-- 0 -->
    <g transform="translate(40.580118 304.317932) scale(0.13 -0.13)">
     <use xlink:href="#Helvetica-30"/>
    </g>
   </g>
   <g id="text_29">
    <!-- 11 -->
    <g transform="translate(61.00176 320.004962) scale(0.13 -0.13)">
     <use xlink:href="#Helvetica-31"/>
     <use xlink:href="#Helvetica-31" transform="translate(55.615234 0)"/>
    </g>
   </g>
   <g id="text_30">
    <!-- 0 -->
    <g transform="translate(40.580118 335.691991) scale(0.13 -0.13)">
     <use xlink:href="#Helvetica-30"/>
    </g>
   </g>
   <g id="text_31">
    <!-- 0 -->
    <g transform="translate(40.580118 351.37902) scale(0.13 -0.13)">
     <use xlink:href="#Helvetica-30"/>
    </g>
   </g>
   <g id="text_32">
    <!-- 13 -->
    <g transform="translate(64.714786 367.06605) scale(0.13 -0.13)">
     <use xlink:href="#Helvetica-31"/>
     <use xlink:href="#Helvetica-33" transform="translate(55.615234 0)"/>
    </g>
   </g>
   <g id="text_33">
    <!-- 3 -->
    <g transform="translate(46.149656 382.753079) scale(0.13 -0.13)">
     <use xlink:href="#Helvetica-33"/>
    </g>
   </g>
   <g id="text_34">
    <!-- i -->
    <g transform="translate(6.318542 25.146875) scale(0.2 -0.2)">
     <use xlink:href="#Helvetica-69"/>
    </g>
   </g>
  </g>
 </g>
 <defs>
  <clipPath id="pe530e39b86">
   <rect x="32.6736" y="10.8" width="658.876459" height="374.92"/>
  </clipPath>
 </defs>
</svg>
