<?xml version="1.0" encoding="utf-8" standalone="no"?>
<!DOCTYPE svg PUBLIC "-//W3C//DTD SVG 1.1//EN"
  "http://www.w3.org/Graphics/SVG/1.1/DTD/svg11.dtd">
<svg xmlns:xlink="http://www.w3.org/1999/xlink" width="720pt" height="554.4pt" viewBox="0 0 720 554.4" xmlns="http://www.w3.org/2000/svg" version="1.1">
 <metadata>
  <rdf:RDF xmlns:dc="http://purl.org/dc/elements/1.1/" xmlns:cc="http://creativecommons.org/ns#" xmlns:rdf="http://www.w3.org/1999/02/22-rdf-syntax-ns#">
   <cc:Work>
    <dc:type rdf:resource="http://purl.org/dc/dcmitype/StillImage"/>
    <dc:date>2025-09-04T13:56:45.199615</dc:date>
    <dc:format>image/svg+xml</dc:format>
    <dc:creator>
     <cc:Agent>
      <dc:title>Matplotlib v3.10.5, https://matplotlib.org/</dc:title>
     </cc:Agent>
    </dc:creator>
   </cc:Work>
  </rdf:RDF>
 </metadata>
 <defs>
  <style type="text/css">*{stroke-linejoin: round; stroke-linecap: butt}</style>
 </defs>
 <g id="figure_1">
  <g id="patch_1">
   <path d="M 0 554.4 
L 720 554.4 
L 720 0 
L 0 0 
z
" style="fill: #ffffff"/>
  </g>
  <g id="axes_1">
   <g id="patch_2">
    <path d="M 261.9 505.24 
L 709.2 505.24 
L 709.2 44.95104 
L 261.9 44.95104 
z
" style="fill: #ffffff"/>
   </g>
   <g id="patch_3">
    <path d="M 261.9 484.317775 
L 709.2 484.317775 
L 709.2 463.395549 
L 261.9 463.395549 
z
" clip-path="url(#p185657cb2e)" style="fill: #d3d3d3; opacity: 0.2"/>
   </g>
   <g id="patch_4">
    <path d="M 261.9 442.473324 
L 709.2 442.473324 
L 709.2 421.551098 
L 261.9 421.551098 
z
" clip-path="url(#p185657cb2e)" style="fill: #d3d3d3; opacity: 0.2"/>
   </g>
   <g id="patch_5">
    <path d="M 261.9 400.628873 
L 709.2 400.628873 
L 709.2 379.706647 
L 261.9 379.706647 
z
" clip-path="url(#p185657cb2e)" style="fill: #d3d3d3; opacity: 0.2"/>
   </g>
   <g id="patch_6">
    <path d="M 261.9 358.784422 
L 709.2 358.784422 
L 709.2 337.862196 
L 261.9 337.862196 
z
" clip-path="url(#p185657cb2e)" style="fill: #d3d3d3; opacity: 0.2"/>
   </g>
   <g id="patch_7">
    <path d="M 261.9 316.939971 
L 709.2 316.939971 
L 709.2 296.017745 
L 261.9 296.017745 
z
" clip-path="url(#p185657cb2e)" style="fill: #d3d3d3; opacity: 0.2"/>
   </g>
   <g id="patch_8">
    <path d="M 261.9 275.09552 
L 709.2 275.09552 
L 709.2 254.173295 
L 261.9 254.173295 
z
" clip-path="url(#p185657cb2e)" style="fill: #d3d3d3; opacity: 0.2"/>
   </g>
   <g id="patch_9">
    <path d="M 261.9 233.251069 
L 709.2 233.251069 
L 709.2 212.328844 
L 261.9 212.328844 
z
" clip-path="url(#p185657cb2e)" style="fill: #d3d3d3; opacity: 0.2"/>
   </g>
   <g id="patch_10">
    <path d="M 261.9 191.406618 
L 709.2 191.406618 
L 709.2 170.484393 
L 261.9 170.484393 
z
" clip-path="url(#p185657cb2e)" style="fill: #d3d3d3; opacity: 0.2"/>
   </g>
   <g id="patch_11">
    <path d="M 261.9 149.562167 
L 709.2 149.562167 
L 709.2 128.639942 
L 261.9 128.639942 
z
" clip-path="url(#p185657cb2e)" style="fill: #d3d3d3; opacity: 0.2"/>
   </g>
   <g id="patch_12">
    <path d="M 261.9 107.717716 
L 709.2 107.717716 
L 709.2 86.795491 
L 261.9 86.795491 
z
" clip-path="url(#p185657cb2e)" style="fill: #d3d3d3; opacity: 0.2"/>
   </g>
   <g id="patch_13">
    <path d="M 261.9 65.873265 
L 709.2 65.873265 
L 709.2 44.95104 
L 261.9 44.95104 
z
" clip-path="url(#p185657cb2e)" style="fill: #d3d3d3; opacity: 0.2"/>
   </g>
   <g id="matplotlib.axis_1">
    <g id="xtick_1">
     <g id="line2d_1">
      <defs>
       <path id="ma8ef1d5293" d="M 0 0 
L 0 3.5 
" style="stroke: #000000; stroke-width: 0.8"/>
      </defs>
      <g>
       <use xlink:href="#ma8ef1d5293" x="261.9" y="505.24" style="stroke: #000000; stroke-width: 0.8"/>
      </g>
     </g>
     <g id="text_1">
      <!-- 0 -->
      <g transform="translate(258.007344 522.282812) scale(0.14 -0.14)">
       <defs>
        <path id="Helvetica-30" d="M 1731 4475 
Q 2600 4475 2988 3759 
Q 3288 3206 3288 2244 
Q 3288 1331 3016 734 
Q 2622 -122 1728 -122 
Q 922 -122 528 578 
Q 200 1163 200 2147 
Q 200 2909 397 3456 
Q 766 4475 1731 4475 
z
M 1725 391 
Q 2163 391 2422 778 
Q 2681 1166 2681 2222 
Q 2681 2984 2493 3476 
Q 2306 3969 1766 3969 
Q 1269 3969 1039 3501 
Q 809 3034 809 2125 
Q 809 1441 956 1025 
Q 1181 391 1725 391 
z
" transform="scale(0.015625)"/>
       </defs>
       <use xlink:href="#Helvetica-30"/>
      </g>
     </g>
    </g>
    <g id="xtick_2">
     <g id="line2d_2">
      <g>
       <use xlink:href="#ma8ef1d5293" x="319.898639" y="505.24" style="stroke: #000000; stroke-width: 0.8"/>
      </g>
     </g>
     <g id="text_2">
      <!-- 200 -->
      <g transform="translate(308.22067 522.282812) scale(0.14 -0.14)">
       <defs>
        <path id="Helvetica-32" d="M 200 0 
Q 231 578 439 1006 
Q 647 1434 1250 1784 
L 1850 2131 
Q 2253 2366 2416 2531 
Q 2672 2791 2672 3125 
Q 2672 3516 2437 3745 
Q 2203 3975 1813 3975 
Q 1234 3975 1013 3538 
Q 894 3303 881 2888 
L 309 2888 
Q 319 3472 525 3841 
Q 891 4491 1816 4491 
Q 2584 4491 2939 4075 
Q 3294 3659 3294 3150 
Q 3294 2613 2916 2231 
Q 2697 2009 2131 1694 
L 1703 1456 
Q 1397 1288 1222 1134 
Q 909 863 828 531 
L 3272 531 
L 3272 0 
L 200 0 
z
" transform="scale(0.015625)"/>
       </defs>
       <use xlink:href="#Helvetica-32"/>
       <use xlink:href="#Helvetica-30" transform="translate(55.615234 0)"/>
       <use xlink:href="#Helvetica-30" transform="translate(111.230469 0)"/>
      </g>
     </g>
    </g>
    <g id="xtick_3">
     <g id="line2d_3">
      <g>
       <use xlink:href="#ma8ef1d5293" x="377.897277" y="505.24" style="stroke: #000000; stroke-width: 0.8"/>
      </g>
     </g>
     <g id="text_3">
      <!-- 400 -->
      <g transform="translate(366.219308 522.282812) scale(0.14 -0.14)">
       <defs>
        <path id="Helvetica-34" d="M 2116 1584 
L 2116 3613 
L 681 1584 
L 2116 1584 
z
M 2125 0 
L 2125 1094 
L 163 1094 
L 163 1644 
L 2213 4488 
L 2688 4488 
L 2688 1584 
L 3347 1584 
L 3347 1094 
L 2688 1094 
L 2688 0 
L 2125 0 
z
" transform="scale(0.015625)"/>
       </defs>
       <use xlink:href="#Helvetica-34"/>
       <use xlink:href="#Helvetica-30" transform="translate(55.615234 0)"/>
       <use xlink:href="#Helvetica-30" transform="translate(111.230469 0)"/>
      </g>
     </g>
    </g>
    <g id="xtick_4">
     <g id="line2d_4">
      <g>
       <use xlink:href="#ma8ef1d5293" x="435.895916" y="505.24" style="stroke: #000000; stroke-width: 0.8"/>
      </g>
     </g>
     <g id="text_4">
      <!-- 600 -->
      <g transform="translate(424.217947 522.282812) scale(0.14 -0.14)">
       <defs>
        <path id="Helvetica-36" d="M 1872 4494 
Q 2622 4494 2917 4105 
Q 3213 3716 3213 3303 
L 2656 3303 
Q 2606 3569 2497 3719 
Q 2294 4000 1881 4000 
Q 1409 4000 1131 3564 
Q 853 3128 822 2316 
Q 1016 2600 1309 2741 
Q 1578 2866 1909 2866 
Q 2472 2866 2890 2506 
Q 3309 2147 3309 1434 
Q 3309 825 2912 354 
Q 2516 -116 1781 -116 
Q 1153 -116 697 361 
Q 241 838 241 1966 
Q 241 2800 444 3381 
Q 834 4494 1872 4494 
z
M 1831 384 
Q 2275 384 2495 682 
Q 2716 981 2716 1388 
Q 2716 1731 2519 2042 
Q 2322 2353 1803 2353 
Q 1441 2353 1167 2112 
Q 894 1872 894 1388 
Q 894 963 1142 673 
Q 1391 384 1831 384 
z
" transform="scale(0.015625)"/>
       </defs>
       <use xlink:href="#Helvetica-36"/>
       <use xlink:href="#Helvetica-30" transform="translate(55.615234 0)"/>
       <use xlink:href="#Helvetica-30" transform="translate(111.230469 0)"/>
      </g>
     </g>
    </g>
    <g id="xtick_5">
     <g id="line2d_5">
      <g>
       <use xlink:href="#ma8ef1d5293" x="493.894554" y="505.24" style="stroke: #000000; stroke-width: 0.8"/>
      </g>
     </g>
     <g id="text_5">
      <!-- 800 -->
      <g transform="translate(482.216585 522.282812) scale(0.14 -0.14)">
       <defs>
        <path id="Helvetica-38" d="M 1741 2600 
Q 2113 2600 2322 2808 
Q 2531 3016 2531 3303 
Q 2531 3553 2331 3762 
Q 2131 3972 1722 3972 
Q 1316 3972 1134 3762 
Q 953 3553 953 3272 
Q 953 2956 1187 2778 
Q 1422 2600 1741 2600 
z
M 1775 384 
Q 2166 384 2423 595 
Q 2681 806 2681 1225 
Q 2681 1659 2415 1884 
Q 2150 2109 1734 2109 
Q 1331 2109 1076 1879 
Q 822 1650 822 1244 
Q 822 894 1055 639 
Q 1288 384 1775 384 
z
M 975 2384 
Q 741 2484 609 2619 
Q 363 2869 363 3269 
Q 363 3769 725 4128 
Q 1088 4488 1753 4488 
Q 2397 4488 2762 4148 
Q 3128 3809 3128 3356 
Q 3128 2938 2916 2678 
Q 2797 2531 2547 2391 
Q 2825 2263 2984 2097 
Q 3281 1784 3281 1284 
Q 3281 694 2884 283 
Q 2488 -128 1763 -128 
Q 1109 -128 657 226 
Q 206 581 206 1256 
Q 206 1653 400 1942 
Q 594 2231 975 2384 
z
" transform="scale(0.015625)"/>
       </defs>
       <use xlink:href="#Helvetica-38"/>
       <use xlink:href="#Helvetica-30" transform="translate(55.615234 0)"/>
       <use xlink:href="#Helvetica-30" transform="translate(111.230469 0)"/>
      </g>
     </g>
    </g>
    <g id="xtick_6">
     <g id="line2d_6">
      <g>
       <use xlink:href="#ma8ef1d5293" x="551.893193" y="505.24" style="stroke: #000000; stroke-width: 0.8"/>
      </g>
     </g>
     <g id="text_6">
      <!-- 1000 -->
      <g transform="translate(536.322568 522.282812) scale(0.14 -0.14)">
       <defs>
        <path id="Helvetica-31" d="M 613 3169 
L 613 3600 
Q 1222 3659 1462 3798 
Q 1703 3938 1822 4456 
L 2266 4456 
L 2266 0 
L 1666 0 
L 1666 3169 
L 613 3169 
z
" transform="scale(0.015625)"/>
       </defs>
       <use xlink:href="#Helvetica-31"/>
       <use xlink:href="#Helvetica-30" transform="translate(55.615234 0)"/>
       <use xlink:href="#Helvetica-30" transform="translate(111.230469 0)"/>
       <use xlink:href="#Helvetica-30" transform="translate(166.845703 0)"/>
      </g>
     </g>
    </g>
    <g id="xtick_7">
     <g id="line2d_7">
      <g>
       <use xlink:href="#ma8ef1d5293" x="609.891831" y="505.24" style="stroke: #000000; stroke-width: 0.8"/>
      </g>
     </g>
     <g id="text_7">
      <!-- 1200 -->
      <g transform="translate(594.321206 522.282812) scale(0.14 -0.14)">
       <use xlink:href="#Helvetica-31"/>
       <use xlink:href="#Helvetica-32" transform="translate(55.615234 0)"/>
       <use xlink:href="#Helvetica-30" transform="translate(111.230469 0)"/>
       <use xlink:href="#Helvetica-30" transform="translate(166.845703 0)"/>
      </g>
     </g>
    </g>
    <g id="xtick_8">
     <g id="line2d_8">
      <g>
       <use xlink:href="#ma8ef1d5293" x="667.89047" y="505.24" style="stroke: #000000; stroke-width: 0.8"/>
      </g>
     </g>
     <g id="text_8">
      <!-- 1400 -->
      <g transform="translate(652.319845 522.282812) scale(0.14 -0.14)">
       <use xlink:href="#Helvetica-31"/>
       <use xlink:href="#Helvetica-34" transform="translate(55.615234 0)"/>
       <use xlink:href="#Helvetica-30" transform="translate(111.230469 0)"/>
       <use xlink:href="#Helvetica-30" transform="translate(166.845703 0)"/>
      </g>
     </g>
    </g>
    <g id="text_9">
     <!-- Dataset Count -->
     <g transform="translate(440.804688 539.24375) scale(0.14 -0.14)">
      <defs>
       <path id="Helvetica-44" d="M 2250 531 
Q 2566 531 2769 597 
Q 3131 719 3363 1066 
Q 3547 1344 3628 1778 
Q 3675 2038 3675 2259 
Q 3675 3113 3336 3584 
Q 2997 4056 2244 4056 
L 1141 4056 
L 1141 531 
L 2250 531 
z
M 516 4591 
L 2375 4591 
Q 3322 4591 3844 3919 
Q 4309 3313 4309 2366 
Q 4309 1634 4034 1044 
Q 3550 0 2369 0 
L 516 0 
L 516 4591 
z
" transform="scale(0.015625)"/>
       <path id="Helvetica-61" d="M 844 891 
Q 844 647 1022 506 
Q 1200 366 1444 366 
Q 1741 366 2019 503 
Q 2488 731 2488 1250 
L 2488 1703 
Q 2384 1638 2221 1594 
Q 2059 1550 1903 1531 
L 1563 1488 
Q 1256 1447 1103 1359 
Q 844 1213 844 891 
z
M 2206 2028 
Q 2400 2053 2466 2191 
Q 2503 2266 2503 2406 
Q 2503 2694 2298 2823 
Q 2094 2953 1713 2953 
Q 1272 2953 1088 2716 
Q 984 2584 953 2325 
L 428 2325 
Q 444 2944 830 3186 
Q 1216 3428 1725 3428 
Q 2316 3428 2684 3203 
Q 3050 2978 3050 2503 
L 3050 575 
Q 3050 488 3086 434 
Q 3122 381 3238 381 
Q 3275 381 3322 386 
Q 3369 391 3422 400 
L 3422 -16 
Q 3291 -53 3222 -62 
Q 3153 -72 3034 -72 
Q 2744 -72 2613 134 
Q 2544 244 2516 444 
Q 2344 219 2022 53 
Q 1700 -113 1313 -113 
Q 847 -113 551 170 
Q 256 453 256 878 
Q 256 1344 547 1600 
Q 838 1856 1309 1916 
L 2206 2028 
z
M 1741 3428 
L 1741 3428 
z
" transform="scale(0.015625)"/>
       <path id="Helvetica-74" d="M 525 4281 
L 1094 4281 
L 1094 3347 
L 1628 3347 
L 1628 2888 
L 1094 2888 
L 1094 703 
Q 1094 528 1213 469 
Q 1278 434 1431 434 
Q 1472 434 1519 436 
Q 1566 438 1628 444 
L 1628 0 
Q 1531 -28 1426 -40 
Q 1322 -53 1200 -53 
Q 806 -53 665 148 
Q 525 350 525 672 
L 525 2888 
L 72 2888 
L 72 3347 
L 525 3347 
L 525 4281 
z
" transform="scale(0.015625)"/>
       <path id="Helvetica-73" d="M 747 1050 
Q 772 769 888 619 
Q 1100 347 1625 347 
Q 1938 347 2175 483 
Q 2413 619 2413 903 
Q 2413 1119 2222 1231 
Q 2100 1300 1741 1391 
L 1294 1503 
Q 866 1609 663 1741 
Q 300 1969 300 2372 
Q 300 2847 642 3140 
Q 984 3434 1563 3434 
Q 2319 3434 2653 2991 
Q 2863 2709 2856 2384 
L 2325 2384 
Q 2309 2575 2191 2731 
Q 1997 2953 1519 2953 
Q 1200 2953 1036 2831 
Q 872 2709 872 2509 
Q 872 2291 1088 2159 
Q 1213 2081 1456 2022 
L 1828 1931 
Q 2434 1784 2641 1647 
Q 2969 1431 2969 969 
Q 2969 522 2630 197 
Q 2291 -128 1597 -128 
Q 850 -128 539 211 
Q 228 550 206 1050 
L 747 1050 
z
M 1578 3428 
L 1578 3428 
z
" transform="scale(0.015625)"/>
       <path id="Helvetica-65" d="M 1806 3422 
Q 2163 3422 2497 3255 
Q 2831 3088 3006 2822 
Q 3175 2569 3231 2231 
Q 3281 2000 3281 1494 
L 828 1494 
Q 844 984 1069 676 
Q 1294 369 1766 369 
Q 2206 369 2469 659 
Q 2619 828 2681 1050 
L 3234 1050 
Q 3213 866 3089 639 
Q 2966 413 2813 269 
Q 2556 19 2178 -69 
Q 1975 -119 1719 -119 
Q 1094 -119 659 336 
Q 225 791 225 1609 
Q 225 2416 662 2919 
Q 1100 3422 1806 3422 
z
M 2703 1941 
Q 2669 2306 2544 2525 
Q 2313 2931 1772 2931 
Q 1384 2931 1121 2651 
Q 859 2372 844 1941 
L 2703 1941 
z
M 1753 3428 
L 1753 3428 
z
" transform="scale(0.015625)"/>
       <path id="Helvetica-20" transform="scale(0.015625)"/>
       <path id="Helvetica-43" d="M 2422 4716 
Q 3294 4716 3775 4256 
Q 4256 3797 4309 3213 
L 3703 3213 
Q 3600 3656 3292 3915 
Q 2984 4175 2428 4175 
Q 1750 4175 1333 3698 
Q 916 3222 916 2238 
Q 916 1431 1292 929 
Q 1669 428 2416 428 
Q 3103 428 3463 956 
Q 3653 1234 3747 1688 
L 4353 1688 
Q 4272 963 3816 472 
Q 3269 -119 2341 -119 
Q 1541 -119 997 366 
Q 281 1006 281 2344 
Q 281 3359 819 4009 
Q 1400 4716 2422 4716 
z
M 2297 4716 
L 2297 4716 
z
" transform="scale(0.015625)"/>
       <path id="Helvetica-6f" d="M 1741 363 
Q 2300 363 2508 786 
Q 2716 1209 2716 1728 
Q 2716 2197 2566 2491 
Q 2328 2953 1747 2953 
Q 1231 2953 997 2559 
Q 763 2166 763 1609 
Q 763 1075 997 719 
Q 1231 363 1741 363 
z
M 1763 3444 
Q 2409 3444 2856 3012 
Q 3303 2581 3303 1744 
Q 3303 934 2909 406 
Q 2516 -122 1688 -122 
Q 997 -122 590 345 
Q 184 813 184 1600 
Q 184 2444 612 2944 
Q 1041 3444 1763 3444 
z
M 1744 3428 
L 1744 3428 
z
" transform="scale(0.015625)"/>
       <path id="Helvetica-75" d="M 975 3347 
L 975 1125 
Q 975 869 1056 706 
Q 1206 406 1616 406 
Q 2203 406 2416 931 
Q 2531 1213 2531 1703 
L 2531 3347 
L 3094 3347 
L 3094 0 
L 2563 0 
L 2569 494 
Q 2459 303 2297 172 
Q 1975 -91 1516 -91 
Q 800 -91 541 388 
Q 400 644 400 1072 
L 400 3347 
L 975 3347 
z
M 1747 3428 
L 1747 3428 
z
" transform="scale(0.015625)"/>
       <path id="Helvetica-6e" d="M 413 3347 
L 947 3347 
L 947 2872 
Q 1184 3166 1450 3294 
Q 1716 3422 2041 3422 
Q 2753 3422 3003 2925 
Q 3141 2653 3141 2147 
L 3141 0 
L 2569 0 
L 2569 2109 
Q 2569 2416 2478 2603 
Q 2328 2916 1934 2916 
Q 1734 2916 1606 2875 
Q 1375 2806 1200 2600 
Q 1059 2434 1017 2257 
Q 975 2081 975 1753 
L 975 0 
L 413 0 
L 413 3347 
z
M 1734 3428 
L 1734 3428 
z
" transform="scale(0.015625)"/>
      </defs>
      <use xlink:href="#Helvetica-44"/>
      <use xlink:href="#Helvetica-61" transform="translate(72.216797 0)"/>
      <use xlink:href="#Helvetica-74" transform="translate(127.832031 0)"/>
      <use xlink:href="#Helvetica-61" transform="translate(155.615234 0)"/>
      <use xlink:href="#Helvetica-73" transform="translate(211.230469 0)"/>
      <use xlink:href="#Helvetica-65" transform="translate(261.230469 0)"/>
      <use xlink:href="#Helvetica-74" transform="translate(316.845703 0)"/>
      <use xlink:href="#Helvetica-20" transform="translate(344.628906 0)"/>
      <use xlink:href="#Helvetica-43" transform="translate(372.412109 0)"/>
      <use xlink:href="#Helvetica-6f" transform="translate(444.628906 0)"/>
      <use xlink:href="#Helvetica-75" transform="translate(500.244141 0)"/>
      <use xlink:href="#Helvetica-6e" transform="translate(555.859375 0)"/>
      <use xlink:href="#Helvetica-74" transform="translate(611.474609 0)"/>
     </g>
    </g>
   </g>
   <g id="matplotlib.axis_2">
    <g id="ytick_1">
     <g id="line2d_9">
      <defs>
       <path id="m2cf1abf9ef" d="M 0 0 
L -3.5 0 
" style="stroke: #000000; stroke-width: 0.8"/>
      </defs>
      <g>
       <use xlink:href="#m2cf1abf9ef" x="261.9" y="494.778887" style="stroke: #000000; stroke-width: 0.8"/>
      </g>
     </g>
     <g id="text_10">
      <!-- 3D IMC -->
      <g transform="translate(207.453125 499.800294) scale(0.14 -0.14)">
       <defs>
        <path id="Helvetica-33" d="M 1663 -122 
Q 869 -122 511 314 
Q 153 750 153 1375 
L 741 1375 
Q 778 941 903 744 
Q 1122 391 1694 391 
Q 2138 391 2406 628 
Q 2675 866 2675 1241 
Q 2675 1703 2392 1887 
Q 2109 2072 1606 2072 
Q 1550 2072 1492 2070 
Q 1434 2069 1375 2066 
L 1375 2563 
Q 1463 2553 1522 2550 
Q 1581 2547 1650 2547 
Q 1966 2547 2169 2647 
Q 2525 2822 2525 3272 
Q 2525 3606 2287 3787 
Q 2050 3969 1734 3969 
Q 1172 3969 956 3594 
Q 838 3388 822 3006 
L 266 3006 
Q 266 3506 466 3856 
Q 809 4481 1675 4481 
Q 2359 4481 2734 4176 
Q 3109 3872 3109 3294 
Q 3109 2881 2888 2625 
Q 2750 2466 2531 2375 
Q 2884 2278 3082 2001 
Q 3281 1725 3281 1325 
Q 3281 684 2859 281 
Q 2438 -122 1663 -122 
z
" transform="scale(0.015625)"/>
        <path id="Helvetica-49" d="M 628 4591 
L 1256 4591 
L 1256 0 
L 628 0 
L 628 4591 
z
" transform="scale(0.015625)"/>
        <path id="Helvetica-4d" d="M 472 4591 
L 1363 4591 
L 2681 709 
L 3991 4591 
L 4872 4591 
L 4872 0 
L 4281 0 
L 4281 2709 
Q 4281 2850 4287 3175 
Q 4294 3500 4294 3872 
L 2984 0 
L 2369 0 
L 1050 3872 
L 1050 3731 
Q 1050 3563 1058 3217 
Q 1066 2872 1066 2709 
L 1066 0 
L 472 0 
L 472 4591 
z
" transform="scale(0.015625)"/>
       </defs>
       <use xlink:href="#Helvetica-33"/>
       <use xlink:href="#Helvetica-44" transform="translate(55.615234 0)"/>
       <use xlink:href="#Helvetica-20" transform="translate(127.832031 0)"/>
       <use xlink:href="#Helvetica-49" transform="translate(155.615234 0)"/>
       <use xlink:href="#Helvetica-4d" transform="translate(183.398438 0)"/>
       <use xlink:href="#Helvetica-43" transform="translate(266.699219 0)"/>
      </g>
     </g>
    </g>
    <g id="ytick_2">
     <g id="line2d_10">
      <g>
       <use xlink:href="#m2cf1abf9ef" x="261.9" y="473.856662" style="stroke: #000000; stroke-width: 0.8"/>
      </g>
     </g>
     <g id="text_11">
      <!-- PhenoCycler -->
      <g transform="translate(174.752188 479.014787) scale(0.14 -0.14)">
       <defs>
        <path id="Helvetica-50" d="M 547 4591 
L 2613 4591 
Q 3225 4591 3600 4245 
Q 3975 3900 3975 3275 
Q 3975 2738 3640 2339 
Q 3306 1941 2613 1941 
L 1169 1941 
L 1169 0 
L 547 0 
L 547 4591 
z
M 3347 3272 
Q 3347 3778 2972 3959 
Q 2766 4056 2406 4056 
L 1169 4056 
L 1169 2466 
L 2406 2466 
Q 2825 2466 3086 2644 
Q 3347 2822 3347 3272 
z
" transform="scale(0.015625)"/>
        <path id="Helvetica-68" d="M 413 4606 
L 975 4606 
L 975 2894 
Q 1175 3147 1334 3250 
Q 1606 3428 2013 3428 
Q 2741 3428 3000 2919 
Q 3141 2641 3141 2147 
L 3141 0 
L 2563 0 
L 2563 2109 
Q 2563 2478 2469 2650 
Q 2316 2925 1894 2925 
Q 1544 2925 1259 2684 
Q 975 2444 975 1775 
L 975 0 
L 413 0 
L 413 4606 
z
" transform="scale(0.015625)"/>
        <path id="Helvetica-79" d="M 2503 3347 
L 3125 3347 
Q 3006 3025 2597 1878 
Q 2291 1016 2084 472 
Q 1597 -809 1397 -1090 
Q 1197 -1372 709 -1372 
Q 591 -1372 527 -1362 
Q 463 -1353 369 -1328 
L 369 -816 
Q 516 -856 581 -865 
Q 647 -875 697 -875 
Q 853 -875 926 -823 
Q 1000 -772 1050 -697 
Q 1066 -672 1162 -440 
Q 1259 -209 1303 -97 
L 66 3347 
L 703 3347 
L 1600 622 
L 2503 3347 
z
M 1597 3428 
L 1597 3428 
z
" transform="scale(0.015625)"/>
        <path id="Helvetica-63" d="M 1703 3444 
Q 2269 3444 2623 3169 
Q 2978 2894 3050 2222 
L 2503 2222 
Q 2453 2531 2275 2736 
Q 2097 2941 1703 2941 
Q 1166 2941 934 2416 
Q 784 2075 784 1575 
Q 784 1072 996 728 
Q 1209 384 1666 384 
Q 2016 384 2220 598 
Q 2425 813 2503 1184 
L 3050 1184 
Q 2956 519 2581 211 
Q 2206 -97 1622 -97 
Q 966 -97 575 383 
Q 184 863 184 1581 
Q 184 2463 612 2953 
Q 1041 3444 1703 3444 
z
M 1616 3428 
L 1616 3428 
z
" transform="scale(0.015625)"/>
        <path id="Helvetica-6c" d="M 428 4591 
L 991 4591 
L 991 0 
L 428 0 
L 428 4591 
z
" transform="scale(0.015625)"/>
        <path id="Helvetica-72" d="M 428 3347 
L 963 3347 
L 963 2769 
Q 1028 2938 1284 3180 
Q 1541 3422 1875 3422 
Q 1891 3422 1928 3419 
Q 1966 3416 2056 3406 
L 2056 2813 
Q 2006 2822 1964 2825 
Q 1922 2828 1872 2828 
Q 1447 2828 1219 2554 
Q 991 2281 991 1925 
L 991 0 
L 428 0 
L 428 3347 
z
" transform="scale(0.015625)"/>
       </defs>
       <use xlink:href="#Helvetica-50"/>
       <use xlink:href="#Helvetica-68" transform="translate(66.699219 0)"/>
       <use xlink:href="#Helvetica-65" transform="translate(122.314453 0)"/>
       <use xlink:href="#Helvetica-6e" transform="translate(177.929688 0)"/>
       <use xlink:href="#Helvetica-6f" transform="translate(233.544922 0)"/>
       <use xlink:href="#Helvetica-43" transform="translate(289.160156 0)"/>
       <use xlink:href="#Helvetica-79" transform="translate(361.376953 0)"/>
       <use xlink:href="#Helvetica-63" transform="translate(411.376953 0)"/>
       <use xlink:href="#Helvetica-6c" transform="translate(461.376953 0)"/>
       <use xlink:href="#Helvetica-65" transform="translate(483.59375 0)"/>
       <use xlink:href="#Helvetica-72" transform="translate(539.208984 0)"/>
      </g>
     </g>
    </g>
    <g id="ytick_3">
     <g id="line2d_11">
      <g>
       <use xlink:href="#m2cf1abf9ef" x="261.9" y="452.934436" style="stroke: #000000; stroke-width: 0.8"/>
      </g>
     </g>
     <g id="text_12">
      <!-- Light Sheet -->
      <g transform="translate(184.070938 458.092561) scale(0.14 -0.14)">
       <defs>
        <path id="Helvetica-4c" d="M 488 4591 
L 1109 4591 
L 1109 547 
L 3434 547 
L 3434 0 
L 488 0 
L 488 4591 
z
" transform="scale(0.015625)"/>
        <path id="Helvetica-69" d="M 413 3331 
L 984 3331 
L 984 0 
L 413 0 
L 413 3331 
z
M 413 4591 
L 984 4591 
L 984 3953 
L 413 3953 
L 413 4591 
z
" transform="scale(0.015625)"/>
        <path id="Helvetica-67" d="M 1594 3406 
Q 1988 3406 2281 3213 
Q 2441 3103 2606 2894 
L 2606 3316 
L 3125 3316 
L 3125 272 
Q 3125 -366 2938 -734 
Q 2588 -1416 1616 -1416 
Q 1075 -1416 706 -1173 
Q 338 -931 294 -416 
L 866 -416 
Q 906 -641 1028 -763 
Q 1219 -950 1628 -950 
Q 2275 -950 2475 -494 
Q 2594 -225 2584 466 
Q 2416 209 2178 84 
Q 1941 -41 1550 -41 
Q 1006 -41 598 345 
Q 191 731 191 1622 
Q 191 2463 602 2934 
Q 1013 3406 1594 3406 
z
M 2606 1688 
Q 2606 2309 2350 2609 
Q 2094 2909 1697 2909 
Q 1103 2909 884 2353 
Q 769 2056 769 1575 
Q 769 1009 998 714 
Q 1228 419 1616 419 
Q 2222 419 2469 966 
Q 2606 1275 2606 1688 
z
M 1659 3428 
L 1659 3428 
z
" transform="scale(0.015625)"/>
        <path id="Helvetica-53" d="M 894 1481 
Q 916 1091 1078 847 
Q 1388 391 2169 391 
Q 2519 391 2806 491 
Q 3363 684 3363 1184 
Q 3363 1559 3128 1719 
Q 2891 1875 2384 1991 
L 1763 2131 
Q 1153 2269 900 2434 
Q 463 2722 463 3294 
Q 463 3913 891 4309 
Q 1319 4706 2103 4706 
Q 2825 4706 3329 4357 
Q 3834 4009 3834 3244 
L 3250 3244 
Q 3203 3613 3050 3809 
Q 2766 4169 2084 4169 
Q 1534 4169 1293 3937 
Q 1053 3706 1053 3400 
Q 1053 3063 1334 2906 
Q 1519 2806 2169 2656 
L 2813 2509 
Q 3278 2403 3531 2219 
Q 3969 1897 3969 1284 
Q 3969 522 3414 194 
Q 2859 -134 2125 -134 
Q 1269 -134 784 303 
Q 300 738 309 1481 
L 894 1481 
z
M 2150 4716 
L 2150 4716 
z
" transform="scale(0.015625)"/>
       </defs>
       <use xlink:href="#Helvetica-4c"/>
       <use xlink:href="#Helvetica-69" transform="translate(55.615234 0)"/>
       <use xlink:href="#Helvetica-67" transform="translate(77.832031 0)"/>
       <use xlink:href="#Helvetica-68" transform="translate(133.447266 0)"/>
       <use xlink:href="#Helvetica-74" transform="translate(189.0625 0)"/>
       <use xlink:href="#Helvetica-20" transform="translate(216.845703 0)"/>
       <use xlink:href="#Helvetica-53" transform="translate(244.628906 0)"/>
       <use xlink:href="#Helvetica-68" transform="translate(311.328125 0)"/>
       <use xlink:href="#Helvetica-65" transform="translate(366.943359 0)"/>
       <use xlink:href="#Helvetica-65" transform="translate(422.558594 0)"/>
       <use xlink:href="#Helvetica-74" transform="translate(478.173828 0)"/>
      </g>
     </g>
    </g>
    <g id="ytick_4">
     <g id="line2d_12">
      <g>
       <use xlink:href="#m2cf1abf9ef" x="261.9" y="432.012211" style="stroke: #000000; stroke-width: 0.8"/>
      </g>
     </g>
     <g id="text_13">
      <!-- 2D IMC -->
      <g transform="translate(207.453125 437.033617) scale(0.14 -0.14)">
       <use xlink:href="#Helvetica-32"/>
       <use xlink:href="#Helvetica-44" transform="translate(55.615234 0)"/>
       <use xlink:href="#Helvetica-20" transform="translate(127.832031 0)"/>
       <use xlink:href="#Helvetica-49" transform="translate(155.615234 0)"/>
       <use xlink:href="#Helvetica-4d" transform="translate(183.398438 0)"/>
       <use xlink:href="#Helvetica-43" transform="translate(266.699219 0)"/>
      </g>
     </g>
    </g>
    <g id="ytick_5">
     <g id="line2d_13">
      <g>
       <use xlink:href="#m2cf1abf9ef" x="261.9" y="411.089985" style="stroke: #000000; stroke-width: 0.8"/>
      </g>
     </g>
     <g id="text_14">
      <!-- MUSIC -->
      <g transform="translate(209.789375 416.111392) scale(0.14 -0.14)">
       <defs>
        <path id="Helvetica-55" d="M 1163 4591 
L 1163 1753 
Q 1163 1253 1350 922 
Q 1628 422 2288 422 
Q 3078 422 3363 963 
Q 3516 1256 3516 1753 
L 3516 4591 
L 4147 4591 
L 4147 2013 
Q 4147 1166 3919 709 
Q 3500 -122 2338 -122 
Q 1175 -122 759 709 
Q 531 1166 531 2013 
L 531 4591 
L 1163 4591 
z
M 2341 4591 
L 2341 4591 
z
" transform="scale(0.015625)"/>
       </defs>
       <use xlink:href="#Helvetica-4d"/>
       <use xlink:href="#Helvetica-55" transform="translate(83.300781 0)"/>
       <use xlink:href="#Helvetica-53" transform="translate(155.517578 0)"/>
       <use xlink:href="#Helvetica-49" transform="translate(222.216797 0)"/>
       <use xlink:href="#Helvetica-43" transform="translate(250 0)"/>
      </g>
     </g>
    </g>
    <g id="ytick_6">
     <g id="line2d_14">
      <g>
       <use xlink:href="#m2cf1abf9ef" x="261.9" y="390.16776" style="stroke: #000000; stroke-width: 0.8"/>
      </g>
     </g>
     <g id="text_15">
      <!-- DESI -->
      <g transform="translate(222.223125 395.189166) scale(0.14 -0.14)">
       <defs>
        <path id="Helvetica-45" d="M 547 4591 
L 3894 4591 
L 3894 4028 
L 1153 4028 
L 1153 2634 
L 3688 2634 
L 3688 2103 
L 1153 2103 
L 1153 547 
L 3941 547 
L 3941 0 
L 547 0 
L 547 4591 
z
M 2244 4591 
L 2244 4591 
z
" transform="scale(0.015625)"/>
       </defs>
       <use xlink:href="#Helvetica-44"/>
       <use xlink:href="#Helvetica-45" transform="translate(72.216797 0)"/>
       <use xlink:href="#Helvetica-53" transform="translate(138.916016 0)"/>
       <use xlink:href="#Helvetica-49" transform="translate(205.615234 0)"/>
      </g>
     </g>
    </g>
    <g id="ytick_7">
     <g id="line2d_15">
      <g>
       <use xlink:href="#m2cf1abf9ef" x="261.9" y="369.245535" style="stroke: #000000; stroke-width: 0.8"/>
      </g>
     </g>
     <g id="text_16">
      <!-- WGS -->
      <g transform="translate(221.4575 374.266941) scale(0.14 -0.14)">
       <defs>
        <path id="Helvetica-57" d="M 791 4591 
L 1656 856 
L 2694 4591 
L 3369 4591 
L 4406 856 
L 5272 4591 
L 5953 4591 
L 4747 0 
L 4094 0 
L 3034 3806 
L 1969 0 
L 1316 0 
L 116 4591 
L 791 4591 
z
" transform="scale(0.015625)"/>
        <path id="Helvetica-47" d="M 2472 4709 
Q 3119 4709 3591 4459 
Q 4275 4100 4428 3200 
L 3813 3200 
Q 3700 3703 3347 3933 
Q 2994 4163 2456 4163 
Q 1819 4163 1383 3684 
Q 947 3206 947 2259 
Q 947 1441 1306 927 
Q 1666 413 2478 413 
Q 3100 413 3508 773 
Q 3916 1134 3925 1941 
L 2488 1941 
L 2488 2456 
L 4503 2456 
L 4503 0 
L 4103 0 
L 3953 591 
Q 3638 244 3394 109 
Q 2984 -122 2353 -122 
Q 1538 -122 950 406 
Q 309 1069 309 2225 
Q 309 3378 934 4059 
Q 1528 4709 2472 4709 
z
M 2369 4716 
L 2369 4716 
z
" transform="scale(0.015625)"/>
       </defs>
       <use xlink:href="#Helvetica-57"/>
       <use xlink:href="#Helvetica-47" transform="translate(94.384766 0)"/>
       <use xlink:href="#Helvetica-53" transform="translate(172.167969 0)"/>
      </g>
     </g>
    </g>
    <g id="ytick_8">
     <g id="line2d_16">
      <g>
       <use xlink:href="#m2cf1abf9ef" x="261.9" y="348.323309" style="stroke: #000000; stroke-width: 0.8"/>
      </g>
     </g>
     <g id="text_17">
      <!-- seqFISH -->
      <g transform="translate(200.44 353.481434) scale(0.14 -0.14)">
       <defs>
        <path id="Helvetica-71" d="M 775 1628 
Q 775 1194 897 900 
Q 1113 378 1669 378 
Q 2256 378 2478 928 
Q 2600 1231 2600 1703 
Q 2600 2138 2466 2428 
Q 2238 2925 1663 2925 
Q 1297 2925 1036 2608 
Q 775 2291 775 1628 
z
M 1606 3422 
Q 2022 3422 2306 3213 
Q 2463 3100 2606 2881 
L 2606 3347 
L 3141 3347 
L 3141 -1334 
L 2575 -1334 
L 2575 384 
Q 2434 159 2186 26 
Q 1938 -106 1566 -106 
Q 1031 -106 609 312 
Q 188 731 188 1588 
Q 188 2391 583 2906 
Q 978 3422 1606 3422 
z
" transform="scale(0.015625)"/>
        <path id="Helvetica-46" d="M 547 4591 
L 3731 4591 
L 3731 4028 
L 1169 4028 
L 1169 2634 
L 3422 2634 
L 3422 2088 
L 1169 2088 
L 1169 0 
L 547 0 
L 547 4591 
z
" transform="scale(0.015625)"/>
        <path id="Helvetica-48" d="M 503 4591 
L 1131 4591 
L 1131 2694 
L 3519 2694 
L 3519 4591 
L 4147 4591 
L 4147 0 
L 3519 0 
L 3519 2147 
L 1131 2147 
L 1131 0 
L 503 0 
L 503 4591 
z
" transform="scale(0.015625)"/>
       </defs>
       <use xlink:href="#Helvetica-73"/>
       <use xlink:href="#Helvetica-65" transform="translate(50 0)"/>
       <use xlink:href="#Helvetica-71" transform="translate(105.615234 0)"/>
       <use xlink:href="#Helvetica-46" transform="translate(161.230469 0)"/>
       <use xlink:href="#Helvetica-49" transform="translate(222.314453 0)"/>
       <use xlink:href="#Helvetica-53" transform="translate(250.097656 0)"/>
       <use xlink:href="#Helvetica-48" transform="translate(316.796875 0)"/>
      </g>
     </g>
    </g>
    <g id="ytick_9">
     <g id="line2d_17">
      <g>
       <use xlink:href="#m2cf1abf9ef" x="261.9" y="327.401084" style="stroke: #000000; stroke-width: 0.8"/>
      </g>
     </g>
     <g id="text_18">
      <!-- CyTOF -->
      <g transform="translate(209.798125 332.559209) scale(0.14 -0.14)">
       <defs>
        <path id="Helvetica-54" d="M 3828 4591 
L 3828 4044 
L 2281 4044 
L 2281 0 
L 1650 0 
L 1650 4044 
L 103 4044 
L 103 4591 
L 3828 4591 
z
" transform="scale(0.015625)"/>
        <path id="Helvetica-4f" d="M 2469 4716 
Q 3684 4716 4269 3934 
Q 4725 3325 4725 2375 
Q 4725 1347 4203 666 
Q 3591 -134 2456 -134 
Q 1397 -134 791 566 
Q 250 1241 250 2272 
Q 250 3203 713 3866 
Q 1306 4716 2469 4716 
z
M 2531 422 
Q 3353 422 3720 1011 
Q 4088 1600 4088 2366 
Q 4088 3175 3664 3669 
Q 3241 4163 2506 4163 
Q 1794 4163 1344 3673 
Q 894 3184 894 2231 
Q 894 1469 1280 945 
Q 1666 422 2531 422 
z
M 2488 4716 
L 2488 4716 
z
" transform="scale(0.015625)"/>
       </defs>
       <use xlink:href="#Helvetica-43"/>
       <use xlink:href="#Helvetica-79" transform="translate(72.216797 0)"/>
       <use xlink:href="#Helvetica-54" transform="translate(122.216797 0)"/>
       <use xlink:href="#Helvetica-4f" transform="translate(183.300781 0)"/>
       <use xlink:href="#Helvetica-46" transform="translate(261.083984 0)"/>
      </g>
     </g>
    </g>
    <g id="ytick_10">
     <g id="line2d_18">
      <g>
       <use xlink:href="#m2cf1abf9ef" x="261.9" y="306.478858" style="stroke: #000000; stroke-width: 0.8"/>
      </g>
     </g>
     <g id="text_19">
      <!-- Cell DIVE -->
      <g transform="translate(194.216563 311.500264) scale(0.14 -0.14)">
       <defs>
        <path id="Helvetica-56" d="M 850 4591 
L 2169 681 
L 3472 4591 
L 4169 4591 
L 2494 0 
L 1834 0 
L 163 4591 
L 850 4591 
z
" transform="scale(0.015625)"/>
       </defs>
       <use xlink:href="#Helvetica-43"/>
       <use xlink:href="#Helvetica-65" transform="translate(72.216797 0)"/>
       <use xlink:href="#Helvetica-6c" transform="translate(127.832031 0)"/>
       <use xlink:href="#Helvetica-6c" transform="translate(150.048828 0)"/>
       <use xlink:href="#Helvetica-20" transform="translate(172.265625 0)"/>
       <use xlink:href="#Helvetica-44" transform="translate(200.048828 0)"/>
       <use xlink:href="#Helvetica-49" transform="translate(272.265625 0)"/>
       <use xlink:href="#Helvetica-56" transform="translate(300.048828 0)"/>
       <use xlink:href="#Helvetica-45" transform="translate(366.748047 0)"/>
      </g>
     </g>
    </g>
    <g id="ytick_11">
     <g id="line2d_19">
      <g>
       <use xlink:href="#m2cf1abf9ef" x="261.9" y="285.556633" style="stroke: #000000; stroke-width: 0.8"/>
      </g>
     </g>
     <g id="text_20">
      <!-- MALDI -->
      <g transform="translate(212.114688 290.578039) scale(0.14 -0.14)">
       <defs>
        <path id="Helvetica-41" d="M 2844 1881 
L 2147 3909 
L 1406 1881 
L 2844 1881 
z
M 1822 4591 
L 2525 4591 
L 4191 0 
L 3509 0 
L 3044 1375 
L 1228 1375 
L 731 0 
L 94 0 
L 1822 4591 
z
" transform="scale(0.015625)"/>
       </defs>
       <use xlink:href="#Helvetica-4d"/>
       <use xlink:href="#Helvetica-41" transform="translate(83.300781 0)"/>
       <use xlink:href="#Helvetica-4c" transform="translate(150 0)"/>
       <use xlink:href="#Helvetica-44" transform="translate(205.615234 0)"/>
       <use xlink:href="#Helvetica-49" transform="translate(277.832031 0)"/>
      </g>
     </g>
    </g>
    <g id="ytick_12">
     <g id="line2d_20">
      <g>
       <use xlink:href="#m2cf1abf9ef" x="261.9" y="264.634407" style="stroke: #000000; stroke-width: 0.8"/>
      </g>
     </g>
     <g id="text_21">
      <!-- 10X Multiome -->
      <g transform="translate(169.311875 269.655814) scale(0.14 -0.14)">
       <defs>
        <path id="Helvetica-58" d="M 881 0 
L 131 0 
L 1775 2353 
L 234 4591 
L 1013 4591 
L 2184 2834 
L 3347 4591 
L 4088 4591 
L 2547 2353 
L 4163 0 
L 3391 0 
L 2153 1888 
L 881 0 
z
" transform="scale(0.015625)"/>
        <path id="Helvetica-6d" d="M 413 3347 
L 969 3347 
L 969 2872 
Q 1169 3119 1331 3231 
Q 1609 3422 1963 3422 
Q 2363 3422 2606 3225 
Q 2744 3113 2856 2894 
Q 3044 3163 3297 3292 
Q 3550 3422 3866 3422 
Q 4541 3422 4784 2934 
Q 4916 2672 4916 2228 
L 4916 0 
L 4331 0 
L 4331 2325 
Q 4331 2659 4164 2784 
Q 3997 2909 3756 2909 
Q 3425 2909 3186 2687 
Q 2947 2466 2947 1947 
L 2947 0 
L 2375 0 
L 2375 2184 
Q 2375 2525 2294 2681 
Q 2166 2916 1816 2916 
Q 1497 2916 1236 2669 
Q 975 2422 975 1775 
L 975 0 
L 413 0 
L 413 3347 
z
" transform="scale(0.015625)"/>
       </defs>
       <use xlink:href="#Helvetica-31"/>
       <use xlink:href="#Helvetica-30" transform="translate(55.615234 0)"/>
       <use xlink:href="#Helvetica-58" transform="translate(111.230469 0)"/>
       <use xlink:href="#Helvetica-20" transform="translate(177.929688 0)"/>
       <use xlink:href="#Helvetica-4d" transform="translate(205.712891 0)"/>
       <use xlink:href="#Helvetica-75" transform="translate(289.013672 0)"/>
       <use xlink:href="#Helvetica-6c" transform="translate(344.628906 0)"/>
       <use xlink:href="#Helvetica-74" transform="translate(366.845703 0)"/>
       <use xlink:href="#Helvetica-69" transform="translate(394.628906 0)"/>
       <use xlink:href="#Helvetica-6f" transform="translate(416.845703 0)"/>
       <use xlink:href="#Helvetica-6d" transform="translate(472.460938 0)"/>
       <use xlink:href="#Helvetica-65" transform="translate(555.761719 0)"/>
      </g>
     </g>
    </g>
    <g id="ytick_13">
     <g id="line2d_21">
      <g>
       <use xlink:href="#m2cf1abf9ef" x="261.9" y="243.712182" style="stroke: #000000; stroke-width: 0.8"/>
      </g>
     </g>
     <g id="text_22">
      <!-- Visium (no probes) -->
      <g transform="translate(137.418125 248.815619) scale(0.14 -0.14)">
       <defs>
        <path id="Helvetica-28" d="M 1894 4666 
Q 1403 3713 1256 3263 
Q 1034 2578 1034 1681 
Q 1034 775 1288 25 
Q 1444 -438 1903 -1306 
L 1525 -1306 
Q 1069 -594 959 -397 
Q 850 -200 722 138 
Q 547 600 478 1125 
Q 444 1397 444 1644 
Q 444 2569 734 3291 
Q 919 3750 1503 4666 
L 1894 4666 
z
" transform="scale(0.015625)"/>
        <path id="Helvetica-70" d="M 1825 378 
Q 2219 378 2480 708 
Q 2741 1038 2741 1694 
Q 2741 2094 2625 2381 
Q 2406 2934 1825 2934 
Q 1241 2934 1025 2350 
Q 909 2038 909 1556 
Q 909 1169 1025 897 
Q 1244 378 1825 378 
z
M 369 3331 
L 916 3331 
L 916 2888 
Q 1084 3116 1284 3241 
Q 1569 3428 1953 3428 
Q 2522 3428 2919 2992 
Q 3316 2556 3316 1747 
Q 3316 653 2744 184 
Q 2381 -113 1900 -113 
Q 1522 -113 1266 53 
Q 1116 147 931 375 
L 931 -1334 
L 369 -1334 
L 369 3331 
z
" transform="scale(0.015625)"/>
        <path id="Helvetica-62" d="M 369 4606 
L 916 4606 
L 916 2941 
Q 1100 3181 1356 3307 
Q 1613 3434 1913 3434 
Q 2538 3434 2927 3004 
Q 3316 2575 3316 1738 
Q 3316 944 2931 419 
Q 2547 -106 1866 -106 
Q 1484 -106 1222 78 
Q 1066 188 888 428 
L 888 0 
L 369 0 
L 369 4606 
z
M 1831 391 
Q 2288 391 2514 753 
Q 2741 1116 2741 1709 
Q 2741 2238 2514 2584 
Q 2288 2931 1847 2931 
Q 1463 2931 1173 2647 
Q 884 2363 884 1709 
Q 884 1238 1003 944 
Q 1225 391 1831 391 
z
" transform="scale(0.015625)"/>
        <path id="Helvetica-29" d="M 222 -1306 
Q 719 -338 863 106 
Q 1081 778 1081 1681 
Q 1081 2584 828 3334 
Q 672 3797 213 4666 
L 591 4666 
Q 1072 3897 1173 3717 
Q 1275 3538 1394 3222 
Q 1544 2831 1608 2450 
Q 1672 2069 1672 1716 
Q 1672 791 1378 66 
Q 1194 -400 613 -1306 
L 222 -1306 
z
" transform="scale(0.015625)"/>
       </defs>
       <use xlink:href="#Helvetica-56"/>
       <use xlink:href="#Helvetica-69" transform="translate(66.699219 0)"/>
       <use xlink:href="#Helvetica-73" transform="translate(88.916016 0)"/>
       <use xlink:href="#Helvetica-69" transform="translate(138.916016 0)"/>
       <use xlink:href="#Helvetica-75" transform="translate(161.132812 0)"/>
       <use xlink:href="#Helvetica-6d" transform="translate(216.748047 0)"/>
       <use xlink:href="#Helvetica-20" transform="translate(300.048828 0)"/>
       <use xlink:href="#Helvetica-28" transform="translate(327.832031 0)"/>
       <use xlink:href="#Helvetica-6e" transform="translate(361.132812 0)"/>
       <use xlink:href="#Helvetica-6f" transform="translate(416.748047 0)"/>
       <use xlink:href="#Helvetica-20" transform="translate(472.363281 0)"/>
       <use xlink:href="#Helvetica-70" transform="translate(500.146484 0)"/>
       <use xlink:href="#Helvetica-72" transform="translate(555.761719 0)"/>
       <use xlink:href="#Helvetica-6f" transform="translate(589.0625 0)"/>
       <use xlink:href="#Helvetica-62" transform="translate(644.677734 0)"/>
       <use xlink:href="#Helvetica-65" transform="translate(700.292969 0)"/>
       <use xlink:href="#Helvetica-73" transform="translate(755.908203 0)"/>
       <use xlink:href="#Helvetica-29" transform="translate(805.908203 0)"/>
      </g>
     </g>
    </g>
    <g id="ytick_14">
     <g id="line2d_22">
      <g>
       <use xlink:href="#m2cf1abf9ef" x="261.9" y="222.789956" style="stroke: #000000; stroke-width: 0.8"/>
      </g>
     </g>
     <g id="text_23">
      <!-- Slide-seq -->
      <g transform="translate(196.5375 227.948081) scale(0.14 -0.14)">
       <defs>
        <path id="Helvetica-64" d="M 769 1634 
Q 769 1097 997 734 
Q 1225 372 1728 372 
Q 2119 372 2370 708 
Q 2622 1044 2622 1672 
Q 2622 2306 2362 2611 
Q 2103 2916 1722 2916 
Q 1297 2916 1033 2591 
Q 769 2266 769 1634 
z
M 1616 3406 
Q 2000 3406 2259 3244 
Q 2409 3150 2600 2916 
L 2600 4606 
L 3141 4606 
L 3141 0 
L 2634 0 
L 2634 466 
Q 2438 156 2169 18 
Q 1900 -119 1553 -119 
Q 994 -119 584 351 
Q 175 822 175 1603 
Q 175 2334 548 2870 
Q 922 3406 1616 3406 
z
" transform="scale(0.015625)"/>
        <path id="Helvetica-2d" d="M 266 2072 
L 1834 2072 
L 1834 1494 
L 266 1494 
L 266 2072 
z
" transform="scale(0.015625)"/>
       </defs>
       <use xlink:href="#Helvetica-53"/>
       <use xlink:href="#Helvetica-6c" transform="translate(66.699219 0)"/>
       <use xlink:href="#Helvetica-69" transform="translate(88.916016 0)"/>
       <use xlink:href="#Helvetica-64" transform="translate(111.132812 0)"/>
       <use xlink:href="#Helvetica-65" transform="translate(166.748047 0)"/>
       <use xlink:href="#Helvetica-2d" transform="translate(222.363281 0)"/>
       <use xlink:href="#Helvetica-73" transform="translate(255.664062 0)"/>
       <use xlink:href="#Helvetica-65" transform="translate(305.664062 0)"/>
       <use xlink:href="#Helvetica-71" transform="translate(361.279297 0)"/>
      </g>
     </g>
    </g>
    <g id="ytick_15">
     <g id="line2d_23">
      <g>
       <use xlink:href="#m2cf1abf9ef" x="261.9" y="201.867731" style="stroke: #000000; stroke-width: 0.8"/>
      </g>
     </g>
     <g id="text_24">
      <!-- MIBI -->
      <g transform="translate(226.12125 206.889137) scale(0.14 -0.14)">
       <defs>
        <path id="Helvetica-42" d="M 2213 2650 
Q 2606 2650 2825 2759 
Q 3169 2931 3169 3378 
Q 3169 3828 2803 3984 
Q 2597 4072 2191 4072 
L 1081 4072 
L 1081 2650 
L 2213 2650 
z
M 2422 531 
Q 2994 531 3238 863 
Q 3391 1072 3391 1369 
Q 3391 1869 2944 2050 
Q 2706 2147 2316 2147 
L 1081 2147 
L 1081 531 
L 2422 531 
z
M 472 4591 
L 2444 4591 
Q 3250 4591 3591 4109 
Q 3791 3825 3791 3453 
Q 3791 3019 3544 2741 
Q 3416 2594 3175 2472 
Q 3528 2338 3703 2169 
Q 4013 1869 4013 1341 
Q 4013 897 3734 538 
Q 3319 0 2413 0 
L 472 0 
L 472 4591 
z
" transform="scale(0.015625)"/>
       </defs>
       <use xlink:href="#Helvetica-4d"/>
       <use xlink:href="#Helvetica-49" transform="translate(83.300781 0)"/>
       <use xlink:href="#Helvetica-42" transform="translate(111.083984 0)"/>
       <use xlink:href="#Helvetica-49" transform="translate(177.783203 0)"/>
      </g>
     </g>
    </g>
    <g id="ytick_16">
     <g id="line2d_24">
      <g>
       <use xlink:href="#m2cf1abf9ef" x="261.9" y="180.945505" style="stroke: #000000; stroke-width: 0.8"/>
      </g>
     </g>
     <g id="text_25">
      <!-- Auto-fluorescence -->
      <g transform="translate(142.066563 185.966912) scale(0.14 -0.14)">
       <defs>
        <path id="Helvetica-66" d="M 553 3856 
Q 566 4206 675 4369 
Q 872 4656 1434 4656 
Q 1488 4656 1544 4653 
Q 1600 4650 1672 4644 
L 1672 4131 
Q 1584 4138 1545 4139 
Q 1506 4141 1472 4141 
Q 1216 4141 1166 4008 
Q 1116 3875 1116 3331 
L 1672 3331 
L 1672 2888 
L 1109 2888 
L 1109 0 
L 553 0 
L 553 2888 
L 88 2888 
L 88 3331 
L 553 3331 
L 553 3856 
z
" transform="scale(0.015625)"/>
       </defs>
       <use xlink:href="#Helvetica-41"/>
       <use xlink:href="#Helvetica-75" transform="translate(66.699219 0)"/>
       <use xlink:href="#Helvetica-74" transform="translate(122.314453 0)"/>
       <use xlink:href="#Helvetica-6f" transform="translate(150.097656 0)"/>
       <use xlink:href="#Helvetica-2d" transform="translate(205.712891 0)"/>
       <use xlink:href="#Helvetica-66" transform="translate(239.013672 0)"/>
       <use xlink:href="#Helvetica-6c" transform="translate(266.796875 0)"/>
       <use xlink:href="#Helvetica-75" transform="translate(289.013672 0)"/>
       <use xlink:href="#Helvetica-6f" transform="translate(344.628906 0)"/>
       <use xlink:href="#Helvetica-72" transform="translate(400.244141 0)"/>
       <use xlink:href="#Helvetica-65" transform="translate(433.544922 0)"/>
       <use xlink:href="#Helvetica-73" transform="translate(489.160156 0)"/>
       <use xlink:href="#Helvetica-63" transform="translate(539.160156 0)"/>
       <use xlink:href="#Helvetica-65" transform="translate(589.160156 0)"/>
       <use xlink:href="#Helvetica-6e" transform="translate(644.775391 0)"/>
       <use xlink:href="#Helvetica-63" transform="translate(700.390625 0)"/>
       <use xlink:href="#Helvetica-65" transform="translate(750.390625 0)"/>
      </g>
     </g>
    </g>
    <g id="ytick_17">
     <g id="line2d_25">
      <g>
       <use xlink:href="#m2cf1abf9ef" x="261.9" y="160.02328" style="stroke: #000000; stroke-width: 0.8"/>
      </g>
     </g>
     <g id="text_26">
      <!-- CODEX -->
      <g transform="translate(205.1125 165.044686) scale(0.14 -0.14)">
       <use xlink:href="#Helvetica-43"/>
       <use xlink:href="#Helvetica-4f" transform="translate(72.216797 0)"/>
       <use xlink:href="#Helvetica-44" transform="translate(150 0)"/>
       <use xlink:href="#Helvetica-45" transform="translate(222.216797 0)"/>
       <use xlink:href="#Helvetica-58" transform="translate(288.916016 0)"/>
      </g>
     </g>
    </g>
    <g id="ytick_18">
     <g id="line2d_26">
      <g>
       <use xlink:href="#m2cf1abf9ef" x="261.9" y="139.101055" style="stroke: #000000; stroke-width: 0.8"/>
      </g>
     </g>
     <g id="text_27">
      <!-- SNARE-seq2 -->
      <g transform="translate(171.645938 144.25918) scale(0.14 -0.14)">
       <defs>
        <path id="Helvetica-4e" d="M 488 4591 
L 1222 4591 
L 3541 872 
L 3541 4591 
L 4131 4591 
L 4131 0 
L 3434 0 
L 1081 3716 
L 1081 0 
L 488 0 
L 488 4591 
z
M 2269 4591 
L 2269 4591 
z
" transform="scale(0.015625)"/>
        <path id="Helvetica-52" d="M 2622 2488 
Q 3059 2488 3314 2663 
Q 3569 2838 3569 3294 
Q 3569 3784 3213 3963 
Q 3022 4056 2703 4056 
L 1184 4056 
L 1184 2488 
L 2622 2488 
z
M 563 4591 
L 2688 4591 
Q 3213 4591 3553 4438 
Q 4200 4144 4200 3353 
Q 4200 2941 4029 2678 
Q 3859 2416 3553 2256 
Q 3822 2147 3958 1969 
Q 4094 1791 4109 1391 
L 4131 775 
Q 4141 513 4175 384 
Q 4231 166 4375 103 
L 4375 0 
L 3613 0 
Q 3581 59 3562 153 
Q 3544 247 3531 516 
L 3494 1281 
Q 3472 1731 3159 1884 
Q 2981 1969 2600 1969 
L 1184 1969 
L 1184 0 
L 563 0 
L 563 4591 
z
" transform="scale(0.015625)"/>
       </defs>
       <use xlink:href="#Helvetica-53"/>
       <use xlink:href="#Helvetica-4e" transform="translate(66.699219 0)"/>
       <use xlink:href="#Helvetica-41" transform="translate(138.916016 0)"/>
       <use xlink:href="#Helvetica-52" transform="translate(205.615234 0)"/>
       <use xlink:href="#Helvetica-45" transform="translate(277.832031 0)"/>
       <use xlink:href="#Helvetica-2d" transform="translate(344.53125 0)"/>
       <use xlink:href="#Helvetica-73" transform="translate(377.832031 0)"/>
       <use xlink:href="#Helvetica-65" transform="translate(427.832031 0)"/>
       <use xlink:href="#Helvetica-71" transform="translate(483.447266 0)"/>
       <use xlink:href="#Helvetica-32" transform="translate(539.0625 0)"/>
      </g>
     </g>
    </g>
    <g id="ytick_19">
     <g id="line2d_27">
      <g>
       <use xlink:href="#m2cf1abf9ef" x="261.9" y="118.178829" style="stroke: #000000; stroke-width: 0.8"/>
      </g>
     </g>
     <g id="text_28">
      <!-- LC-MS -->
      <g transform="translate(211.3425 123.200235) scale(0.14 -0.14)">
       <use xlink:href="#Helvetica-4c"/>
       <use xlink:href="#Helvetica-43" transform="translate(55.615234 0)"/>
       <use xlink:href="#Helvetica-2d" transform="translate(127.832031 0)"/>
       <use xlink:href="#Helvetica-4d" transform="translate(161.132812 0)"/>
       <use xlink:href="#Helvetica-53" transform="translate(244.433594 0)"/>
      </g>
     </g>
    </g>
    <g id="ytick_20">
     <g id="line2d_28">
      <g>
       <use xlink:href="#m2cf1abf9ef" x="261.9" y="97.256604" style="stroke: #000000; stroke-width: 0.8"/>
      </g>
     </g>
     <g id="text_29">
      <!-- Histology -->
      <g transform="translate(197.322813 102.27801) scale(0.14 -0.14)">
       <use xlink:href="#Helvetica-48"/>
       <use xlink:href="#Helvetica-69" transform="translate(72.216797 0)"/>
       <use xlink:href="#Helvetica-73" transform="translate(94.433594 0)"/>
       <use xlink:href="#Helvetica-74" transform="translate(144.433594 0)"/>
       <use xlink:href="#Helvetica-6f" transform="translate(172.216797 0)"/>
       <use xlink:href="#Helvetica-6c" transform="translate(227.832031 0)"/>
       <use xlink:href="#Helvetica-6f" transform="translate(250.048828 0)"/>
       <use xlink:href="#Helvetica-67" transform="translate(305.664062 0)"/>
       <use xlink:href="#Helvetica-79" transform="translate(361.279297 0)"/>
      </g>
     </g>
    </g>
    <g id="ytick_21">
     <g id="line2d_29">
      <g>
       <use xlink:href="#m2cf1abf9ef" x="261.9" y="76.334378" style="stroke: #000000; stroke-width: 0.8"/>
      </g>
     </g>
     <g id="text_30">
      <!-- ATACseq -->
      <g transform="translate(194.990938 81.492503) scale(0.14 -0.14)">
       <use xlink:href="#Helvetica-41"/>
       <use xlink:href="#Helvetica-54" transform="translate(66.699219 0)"/>
       <use xlink:href="#Helvetica-41" transform="translate(127.783203 0)"/>
       <use xlink:href="#Helvetica-43" transform="translate(194.482422 0)"/>
       <use xlink:href="#Helvetica-73" transform="translate(266.699219 0)"/>
       <use xlink:href="#Helvetica-65" transform="translate(316.699219 0)"/>
       <use xlink:href="#Helvetica-71" transform="translate(372.314453 0)"/>
      </g>
     </g>
    </g>
    <g id="ytick_22">
     <g id="line2d_30">
      <g>
       <use xlink:href="#m2cf1abf9ef" x="261.9" y="55.412153" style="stroke: #000000; stroke-width: 0.8"/>
      </g>
     </g>
     <g id="text_31">
      <!-- RNAseq -->
      <g transform="translate(202.769688 60.433559) scale(0.14 -0.14)">
       <use xlink:href="#Helvetica-52"/>
       <use xlink:href="#Helvetica-4e" transform="translate(72.216797 0)"/>
       <use xlink:href="#Helvetica-41" transform="translate(144.433594 0)"/>
       <use xlink:href="#Helvetica-73" transform="translate(211.132812 0)"/>
       <use xlink:href="#Helvetica-65" transform="translate(261.132812 0)"/>
       <use xlink:href="#Helvetica-71" transform="translate(316.748047 0)"/>
      </g>
     </g>
    </g>
    <g id="text_32">
     <!-- Data Type -->
     <g transform="translate(130.416875 307.386301) rotate(-90) scale(0.14 -0.14)">
      <use xlink:href="#Helvetica-44"/>
      <use xlink:href="#Helvetica-61" transform="translate(72.216797 0)"/>
      <use xlink:href="#Helvetica-74" transform="translate(127.832031 0)"/>
      <use xlink:href="#Helvetica-61" transform="translate(155.615234 0)"/>
      <use xlink:href="#Helvetica-20" transform="translate(211.230469 0)"/>
      <use xlink:href="#Helvetica-54" transform="translate(239.013672 0)"/>
      <use xlink:href="#Helvetica-79" transform="translate(300.097656 0)"/>
      <use xlink:href="#Helvetica-70" transform="translate(350.097656 0)"/>
      <use xlink:href="#Helvetica-65" transform="translate(405.712891 0)"/>
     </g>
    </g>
   </g>
   <g id="patch_14">
    <path d="M 261.9 505.24 
L 261.9 44.95104 
" style="fill: none; stroke: #000000; stroke-width: 0.8; stroke-linejoin: miter; stroke-linecap: square"/>
   </g>
   <g id="patch_15">
    <path d="M 709.2 505.24 
L 709.2 44.95104 
" style="fill: none; stroke: #000000; stroke-width: 0.8; stroke-linejoin: miter; stroke-linecap: square"/>
   </g>
   <g id="patch_16">
    <path d="M 261.9 505.24 
L 709.2 505.24 
" style="fill: none; stroke: #000000; stroke-width: 0.8; stroke-linejoin: miter; stroke-linecap: square"/>
   </g>
   <g id="patch_17">
    <path d="M 261.9 44.95104 
L 709.2 44.95104 
" style="fill: none; stroke: #000000; stroke-width: 0.8; stroke-linejoin: miter; stroke-linecap: square"/>
   </g>
   <g id="patch_18">
    <path d="M 261.9 503.147777 
L 262.76998 503.147777 
L 262.76998 486.409997 
L 261.9 486.409997 
z
" clip-path="url(#p185657cb2e)" style="fill: #4682b4"/>
   </g>
   <g id="patch_19">
    <path d="M 261.9 482.225552 
L 263.059973 482.225552 
L 263.059973 465.487772 
L 261.9 465.487772 
z
" clip-path="url(#p185657cb2e)" style="fill: #4682b4"/>
   </g>
   <g id="patch_20">
    <path d="M 261.9 461.303327 
L 265.089925 461.303327 
L 265.089925 444.565546 
L 261.9 444.565546 
z
" clip-path="url(#p185657cb2e)" style="fill: #4682b4"/>
   </g>
   <g id="patch_21">
    <path d="M 261.9 440.381101 
L 265.669912 440.381101 
L 265.669912 423.643321 
L 261.9 423.643321 
z
" clip-path="url(#p185657cb2e)" style="fill: #4682b4"/>
   </g>
   <g id="patch_22">
    <path d="M 261.9 419.458876 
L 265.959905 419.458876 
L 265.959905 402.721095 
L 261.9 402.721095 
z
" clip-path="url(#p185657cb2e)" style="fill: #4682b4"/>
   </g>
   <g id="patch_23">
    <path d="M 261.9 398.53665 
L 266.249898 398.53665 
L 266.249898 381.79887 
L 261.9 381.79887 
z
" clip-path="url(#p185657cb2e)" style="fill: #4682b4"/>
   </g>
   <g id="patch_24">
    <path d="M 261.9 377.614425 
L 266.829884 377.614425 
L 266.829884 360.876644 
L 261.9 360.876644 
z
" clip-path="url(#p185657cb2e)" style="fill: #4682b4"/>
   </g>
   <g id="patch_25">
    <path d="M 261.9 356.692199 
L 267.119877 356.692199 
L 267.119877 339.954419 
L 261.9 339.954419 
z
" clip-path="url(#p185657cb2e)" style="fill: #4682b4"/>
   </g>
   <g id="patch_26">
    <path d="M 261.9 335.769974 
L 267.409871 335.769974 
L 267.409871 319.032193 
L 261.9 319.032193 
z
" clip-path="url(#p185657cb2e)" style="fill: #4682b4"/>
   </g>
   <g id="patch_27">
    <path d="M 261.9 314.847748 
L 267.699864 314.847748 
L 267.699864 298.109968 
L 261.9 298.109968 
z
" clip-path="url(#p185657cb2e)" style="fill: #4682b4"/>
   </g>
   <g id="patch_28">
    <path d="M 261.9 293.925523 
L 287.709394 293.925523 
L 287.709394 277.187743 
L 261.9 277.187743 
z
" clip-path="url(#p185657cb2e)" style="fill: #4682b4"/>
   </g>
   <g id="patch_29">
    <path d="M 261.9 273.003297 
L 300.179101 273.003297 
L 300.179101 256.265517 
L 261.9 256.265517 
z
" clip-path="url(#p185657cb2e)" style="fill: #4682b4"/>
   </g>
   <g id="patch_30">
    <path d="M 261.9 252.081072 
L 304.818993 252.081072 
L 304.818993 235.343292 
L 261.9 235.343292 
z
" clip-path="url(#p185657cb2e)" style="fill: #4682b4"/>
   </g>
   <g id="patch_31">
    <path d="M 261.9 231.158847 
L 306.558952 231.158847 
L 306.558952 214.421066 
L 261.9 214.421066 
z
" clip-path="url(#p185657cb2e)" style="fill: #4682b4"/>
   </g>
   <g id="patch_32">
    <path d="M 261.9 210.236621 
L 323.088564 210.236621 
L 323.088564 193.498841 
L 261.9 193.498841 
z
" clip-path="url(#p185657cb2e)" style="fill: #4682b4"/>
   </g>
   <g id="patch_33">
    <path d="M 261.9 189.314396 
L 324.248536 189.314396 
L 324.248536 172.576615 
L 261.9 172.576615 
z
" clip-path="url(#p185657cb2e)" style="fill: #4682b4"/>
   </g>
   <g id="patch_34">
    <path d="M 261.9 168.39217 
L 348.897958 168.39217 
L 348.897958 151.65439 
L 261.9 151.65439 
z
" clip-path="url(#p185657cb2e)" style="fill: #4682b4"/>
   </g>
   <g id="patch_35">
    <path d="M 261.9 147.469945 
L 350.057931 147.469945 
L 350.057931 130.732164 
L 261.9 130.732164 
z
" clip-path="url(#p185657cb2e)" style="fill: #4682b4"/>
   </g>
   <g id="patch_36">
    <path d="M 261.9 126.547719 
L 354.407828 126.547719 
L 354.407828 109.809939 
L 261.9 109.809939 
z
" clip-path="url(#p185657cb2e)" style="fill: #4682b4"/>
   </g>
   <g id="patch_37">
    <path d="M 261.9 105.625494 
L 417.916338 105.625494 
L 417.916338 88.887713 
L 261.9 88.887713 
z
" clip-path="url(#p185657cb2e)" style="fill: #4682b4"/>
   </g>
   <g id="patch_38">
    <path d="M 261.9 84.703268 
L 558.563036 84.703268 
L 558.563036 67.965488 
L 261.9 67.965488 
z
" clip-path="url(#p185657cb2e)" style="fill: #4682b4"/>
   </g>
   <g id="patch_39">
    <path d="M 261.9 63.781043 
L 687.9 63.781043 
L 687.9 47.043263 
L 261.9 47.043263 
z
" clip-path="url(#p185657cb2e)" style="fill: #4682b4"/>
   </g>
   <g id="text_33">
    <!-- 3 -->
    <g transform="translate(268.13758 497.832325) scale(0.12 -0.12)">
     <use xlink:href="#Helvetica-33"/>
    </g>
   </g>
   <g id="text_34">
    <!-- 4 -->
    <g transform="translate(268.427573 476.910099) scale(0.12 -0.12)">
     <use xlink:href="#Helvetica-34"/>
    </g>
   </g>
   <g id="text_35">
    <!-- 11 -->
    <g transform="translate(270.457525 455.987874) scale(0.12 -0.12)">
     <use xlink:href="#Helvetica-31"/>
     <use xlink:href="#Helvetica-31" transform="translate(55.615234 0)"/>
    </g>
   </g>
   <g id="text_36">
    <!-- 13 -->
    <g transform="translate(271.037512 435.065648) scale(0.12 -0.12)">
     <use xlink:href="#Helvetica-31"/>
     <use xlink:href="#Helvetica-33" transform="translate(55.615234 0)"/>
    </g>
   </g>
   <g id="text_37">
    <!-- 14 -->
    <g transform="translate(271.327505 414.143423) scale(0.12 -0.12)">
     <use xlink:href="#Helvetica-31"/>
     <use xlink:href="#Helvetica-34" transform="translate(55.615234 0)"/>
    </g>
   </g>
   <g id="text_38">
    <!-- 15 -->
    <g transform="translate(271.617498 393.221198) scale(0.12 -0.12)">
     <defs>
      <path id="Helvetica-35" d="M 791 1141 
Q 847 659 1238 475 
Q 1438 381 1700 381 
Q 2200 381 2440 700 
Q 2681 1019 2681 1406 
Q 2681 1875 2395 2131 
Q 2109 2388 1709 2388 
Q 1419 2388 1211 2275 
Q 1003 2163 856 1963 
L 369 1991 
L 709 4400 
L 3034 4400 
L 3034 3856 
L 1131 3856 
L 941 2613 
Q 1097 2731 1238 2791 
Q 1488 2894 1816 2894 
Q 2431 2894 2859 2497 
Q 3288 2100 3288 1491 
Q 3288 856 2895 371 
Q 2503 -113 1644 -113 
Q 1097 -113 676 195 
Q 256 503 206 1141 
L 791 1141 
z
" transform="scale(0.015625)"/>
     </defs>
     <use xlink:href="#Helvetica-31"/>
     <use xlink:href="#Helvetica-35" transform="translate(55.615234 0)"/>
    </g>
   </g>
   <g id="text_39">
    <!-- 17 -->
    <g transform="translate(272.197484 372.298972) scale(0.12 -0.12)">
     <defs>
      <path id="Helvetica-37" d="M 3347 4400 
L 3347 3909 
Q 3131 3700 2773 3181 
Q 2416 2663 2141 2063 
Q 1869 1478 1728 997 
Q 1638 688 1494 0 
L 872 0 
Q 1084 1281 1809 2550 
Q 2238 3294 2709 3834 
L 234 3834 
L 234 4400 
L 3347 4400 
z
" transform="scale(0.015625)"/>
     </defs>
     <use xlink:href="#Helvetica-31"/>
     <use xlink:href="#Helvetica-37" transform="translate(55.615234 0)"/>
    </g>
   </g>
   <g id="text_40">
    <!-- 18 -->
    <g transform="translate(272.487477 351.376747) scale(0.12 -0.12)">
     <use xlink:href="#Helvetica-31"/>
     <use xlink:href="#Helvetica-38" transform="translate(55.615234 0)"/>
    </g>
   </g>
   <g id="text_41">
    <!-- 19 -->
    <g transform="translate(272.777471 330.454521) scale(0.12 -0.12)">
     <defs>
      <path id="Helvetica-39" d="M 850 1081 
Q 875 616 1209 438 
Q 1381 344 1597 344 
Q 2000 344 2284 680 
Q 2569 1016 2688 2044 
Q 2500 1747 2223 1626 
Q 1947 1506 1628 1506 
Q 981 1506 604 1909 
Q 228 2313 228 2947 
Q 228 3556 600 4018 
Q 972 4481 1697 4481 
Q 2675 4481 3047 3600 
Q 3253 3116 3253 2388 
Q 3253 1566 3006 931 
Q 2597 -125 1619 -125 
Q 963 -125 622 219 
Q 281 563 281 1081 
L 850 1081 
z
M 1703 2000 
Q 2038 2000 2314 2220 
Q 2591 2441 2591 2991 
Q 2591 3484 2342 3726 
Q 2094 3969 1709 3969 
Q 1297 3969 1055 3692 
Q 813 3416 813 2953 
Q 813 2516 1025 2258 
Q 1238 2000 1703 2000 
z
" transform="scale(0.015625)"/>
     </defs>
     <use xlink:href="#Helvetica-31"/>
     <use xlink:href="#Helvetica-39" transform="translate(55.615234 0)"/>
    </g>
   </g>
   <g id="text_42">
    <!-- 20 -->
    <g transform="translate(273.067464 309.532296) scale(0.12 -0.12)">
     <use xlink:href="#Helvetica-32"/>
     <use xlink:href="#Helvetica-30" transform="translate(55.615234 0)"/>
    </g>
   </g>
   <g id="text_43">
    <!-- 89 -->
    <g transform="translate(293.076994 288.61007) scale(0.12 -0.12)">
     <use xlink:href="#Helvetica-38"/>
     <use xlink:href="#Helvetica-39" transform="translate(55.615234 0)"/>
    </g>
   </g>
   <g id="text_44">
    <!-- 132 -->
    <g transform="translate(305.546701 267.687845) scale(0.12 -0.12)">
     <use xlink:href="#Helvetica-31"/>
     <use xlink:href="#Helvetica-33" transform="translate(55.615234 0)"/>
     <use xlink:href="#Helvetica-32" transform="translate(111.230469 0)"/>
    </g>
   </g>
   <g id="text_45">
    <!-- 148 -->
    <g transform="translate(310.186593 246.765619) scale(0.12 -0.12)">
     <use xlink:href="#Helvetica-31"/>
     <use xlink:href="#Helvetica-34" transform="translate(55.615234 0)"/>
     <use xlink:href="#Helvetica-38" transform="translate(111.230469 0)"/>
    </g>
   </g>
   <g id="text_46">
    <!-- 154 -->
    <g transform="translate(311.926552 225.843394) scale(0.12 -0.12)">
     <use xlink:href="#Helvetica-31"/>
     <use xlink:href="#Helvetica-35" transform="translate(55.615234 0)"/>
     <use xlink:href="#Helvetica-34" transform="translate(111.230469 0)"/>
    </g>
   </g>
   <g id="text_47">
    <!-- 211 -->
    <g transform="translate(328.456164 204.921168) scale(0.12 -0.12)">
     <use xlink:href="#Helvetica-32"/>
     <use xlink:href="#Helvetica-31" transform="translate(55.615234 0)"/>
     <use xlink:href="#Helvetica-31" transform="translate(111.230469 0)"/>
    </g>
   </g>
   <g id="text_48">
    <!-- 215 -->
    <g transform="translate(329.616136 183.998943) scale(0.12 -0.12)">
     <use xlink:href="#Helvetica-32"/>
     <use xlink:href="#Helvetica-31" transform="translate(55.615234 0)"/>
     <use xlink:href="#Helvetica-35" transform="translate(111.230469 0)"/>
    </g>
   </g>
   <g id="text_49">
    <!-- 300 -->
    <g transform="translate(354.265558 163.076717) scale(0.12 -0.12)">
     <use xlink:href="#Helvetica-33"/>
     <use xlink:href="#Helvetica-30" transform="translate(55.615234 0)"/>
     <use xlink:href="#Helvetica-30" transform="translate(111.230469 0)"/>
    </g>
   </g>
   <g id="text_50">
    <!-- 304 -->
    <g transform="translate(355.425531 142.154492) scale(0.12 -0.12)">
     <use xlink:href="#Helvetica-33"/>
     <use xlink:href="#Helvetica-30" transform="translate(55.615234 0)"/>
     <use xlink:href="#Helvetica-34" transform="translate(111.230469 0)"/>
    </g>
   </g>
   <g id="text_51">
    <!-- 319 -->
    <g transform="translate(359.775428 121.232267) scale(0.12 -0.12)">
     <use xlink:href="#Helvetica-33"/>
     <use xlink:href="#Helvetica-31" transform="translate(55.615234 0)"/>
     <use xlink:href="#Helvetica-39" transform="translate(111.230469 0)"/>
    </g>
   </g>
   <g id="text_52">
    <!-- 538 -->
    <g transform="translate(423.283938 100.310041) scale(0.12 -0.12)">
     <use xlink:href="#Helvetica-35"/>
     <use xlink:href="#Helvetica-33" transform="translate(55.615234 0)"/>
     <use xlink:href="#Helvetica-38" transform="translate(111.230469 0)"/>
    </g>
   </g>
   <g id="text_53">
    <!-- 1,023 -->
    <g transform="translate(563.930636 79.387816) scale(0.12 -0.12)">
     <defs>
      <path id="Helvetica-2c" d="M 531 -653 
Q 747 -616 834 -350 
Q 881 -209 881 -78 
Q 881 -56 879 -39 
Q 878 -22 872 0 
L 531 0 
L 531 681 
L 1200 681 
L 1200 50 
Q 1200 -322 1050 -603 
Q 900 -884 531 -950 
L 531 -653 
z
" transform="scale(0.015625)"/>
     </defs>
     <use xlink:href="#Helvetica-31"/>
     <use xlink:href="#Helvetica-2c" transform="translate(55.615234 0)"/>
     <use xlink:href="#Helvetica-30" transform="translate(83.398438 0)"/>
     <use xlink:href="#Helvetica-32" transform="translate(139.013672 0)"/>
     <use xlink:href="#Helvetica-33" transform="translate(194.628906 0)"/>
    </g>
   </g>
   <g id="text_54">
    <!-- 1,469 -->
    <g style="fill: #ffffff" transform="translate(652.50615 58.46559) scale(0.12 -0.12)">
     <use xlink:href="#Helvetica-31"/>
     <use xlink:href="#Helvetica-2c" transform="translate(55.615234 0)"/>
     <use xlink:href="#Helvetica-34" transform="translate(83.398438 0)"/>
     <use xlink:href="#Helvetica-36" transform="translate(139.013672 0)"/>
     <use xlink:href="#Helvetica-39" transform="translate(194.628906 0)"/>
    </g>
   </g>
   <g id="text_55">
    <!-- h -->
    <g transform="translate(60.615 31.082923) scale(0.32 -0.32)">
     <use xlink:href="#Helvetica-68"/>
    </g>
   </g>
  </g>
 </g>
 <defs>
  <clipPath id="p185657cb2e">
   <rect x="261.9" y="44.95104" width="447.3" height="460.28896"/>
  </clipPath>
 </defs>
</svg>
