<?xml version="1.0" encoding="utf-8" standalone="no"?>
<!DOCTYPE svg PUBLIC "-//W3C//DTD SVG 1.1//EN"
  "http://www.w3.org/Graphics/SVG/1.1/DTD/svg11.dtd">
<svg xmlns:xlink="http://www.w3.org/1999/xlink" width="731.39976pt" height="817.79976pt" viewBox="0 0 731.39976 817.79976" xmlns="http://www.w3.org/2000/svg" version="1.1">
 <metadata>
  <rdf:RDF xmlns:dc="http://purl.org/dc/elements/1.1/" xmlns:cc="http://creativecommons.org/ns#" xmlns:rdf="http://www.w3.org/1999/02/22-rdf-syntax-ns#">
   <cc:Work>
    <dc:type rdf:resource="http://purl.org/dc/dcmitype/StillImage"/>
    <dc:date>2025-09-02T18:01:21.523663</dc:date>
    <dc:format>image/svg+xml</dc:format>
    <dc:creator>
     <cc:Agent>
      <dc:title>Matplotlib v3.10.5, https://matplotlib.org/</dc:title>
     </cc:Agent>
    </dc:creator>
   </cc:Work>
  </rdf:RDF>
 </metadata>
 <defs>
  <style type="text/css">*{stroke-linejoin: round; stroke-linecap: butt}</style>
 </defs>
 <g id="figure_1">
  <g id="patch_1">
   <path d="M 0 817.79976 
L 731.39976 817.79976 
L 731.39976 0 
L 0 0 
z
" style="fill: #ffffff"/>
  </g>
  <g id="axes_1">
   <g id="patch_2">
    <path d="M 12.980709 781.084135 
L 244.19976 781.084135 
L 244.19976 48.058845 
L 12.980709 48.058845 
z
" style="fill: #ffffff"/>
   </g>
   <g id="patch_3">
    <path d="M 12.980709 778.466188 
L 15.571398 778.466188 
L 15.571398 757.522608 
L 12.980709 757.522608 
z
" clip-path="url(#pa2f15eade0)" style="fill: #4682b4"/>
   </g>
   <g id="patch_4">
    <path d="M 12.980709 752.286713 
L 15.571398 752.286713 
L 15.571398 731.343133 
L 12.980709 731.343133 
z
" clip-path="url(#pa2f15eade0)" style="fill: #4682b4"/>
   </g>
   <g id="patch_5">
    <path d="M 12.980709 726.107238 
L 38.887605 726.107238 
L 38.887605 705.163659 
L 12.980709 705.163659 
z
" clip-path="url(#pa2f15eade0)" style="fill: #4682b4"/>
   </g>
   <g id="patch_6">
    <path d="M 12.980709 699.927764 
L 31.115536 699.927764 
L 31.115536 678.984184 
L 12.980709 678.984184 
z
" clip-path="url(#pa2f15eade0)" style="fill: #4682b4"/>
   </g>
   <g id="patch_7">
    <path d="M 12.980709 673.748289 
L 20.752778 673.748289 
L 20.752778 652.804709 
L 12.980709 652.804709 
z
" clip-path="url(#pa2f15eade0)" style="fill: #4682b4"/>
   </g>
   <g id="patch_8">
    <path d="M 12.980709 647.568814 
L 49.250364 647.568814 
L 49.250364 626.625235 
L 12.980709 626.625235 
z
" clip-path="url(#pa2f15eade0)" style="fill: #4682b4"/>
   </g>
   <g id="patch_9">
    <path d="M 12.980709 621.38934 
L 33.706226 621.38934 
L 33.706226 600.44576 
L 12.980709 600.44576 
z
" clip-path="url(#pa2f15eade0)" style="fill: #4682b4"/>
   </g>
   <g id="patch_10">
    <path d="M 12.980709 595.209865 
L 25.934157 595.209865 
L 25.934157 574.266285 
L 12.980709 574.266285 
z
" clip-path="url(#pa2f15eade0)" style="fill: #4682b4"/>
   </g>
   <g id="patch_11">
    <path d="M 12.980709 569.03039 
L 46.659674 569.03039 
L 46.659674 548.086811 
L 12.980709 548.086811 
z
" clip-path="url(#pa2f15eade0)" style="fill: #4682b4"/>
   </g>
   <g id="patch_12">
    <path d="M 12.980709 542.850916 
L 44.068985 542.850916 
L 44.068985 521.907336 
L 12.980709 521.907336 
z
" clip-path="url(#pa2f15eade0)" style="fill: #4682b4"/>
   </g>
   <g id="patch_13">
    <path d="M 12.980709 516.671441 
L 59.613122 516.671441 
L 59.613122 495.727861 
L 12.980709 495.727861 
z
" clip-path="url(#pa2f15eade0)" style="fill: #4682b4"/>
   </g>
   <g id="patch_14">
    <path d="M 12.980709 490.491966 
L 31.115536 490.491966 
L 31.115536 469.548387 
L 12.980709 469.548387 
z
" clip-path="url(#pa2f15eade0)" style="fill: #4682b4"/>
   </g>
   <g id="patch_15">
    <path d="M 12.980709 464.312492 
L 25.934157 464.312492 
L 25.934157 443.368912 
L 12.980709 443.368912 
z
" clip-path="url(#pa2f15eade0)" style="fill: #4682b4"/>
   </g>
   <g id="patch_16">
    <path d="M 12.980709 438.133017 
L 41.478295 438.133017 
L 41.478295 417.189437 
L 12.980709 417.189437 
z
" clip-path="url(#pa2f15eade0)" style="fill: #4682b4"/>
   </g>
   <g id="patch_17">
    <path d="M 12.980709 411.953543 
L 49.250364 411.953543 
L 49.250364 391.009963 
L 12.980709 391.009963 
z
" clip-path="url(#pa2f15eade0)" style="fill: #4682b4"/>
   </g>
   <g id="patch_18">
    <path d="M 12.980709 385.774068 
L 28.524847 385.774068 
L 28.524847 364.830488 
L 12.980709 364.830488 
z
" clip-path="url(#pa2f15eade0)" style="fill: #4682b4"/>
   </g>
   <g id="patch_19">
    <path d="M 12.980709 359.594593 
L 49.250364 359.594593 
L 49.250364 338.651014 
L 12.980709 338.651014 
z
" clip-path="url(#pa2f15eade0)" style="fill: #4682b4"/>
   </g>
   <g id="patch_20">
    <path d="M 12.980709 333.415119 
L 62.203812 333.415119 
L 62.203812 312.471539 
L 12.980709 312.471539 
z
" clip-path="url(#pa2f15eade0)" style="fill: #4682b4"/>
   </g>
   <g id="patch_21">
    <path d="M 12.980709 307.235644 
L 18.162088 307.235644 
L 18.162088 286.292064 
L 12.980709 286.292064 
z
" clip-path="url(#pa2f15eade0)" style="fill: #4682b4"/>
   </g>
   <g id="patch_22">
    <path d="M 12.980709 281.056169 
L 44.068985 281.056169 
L 44.068985 260.11259 
L 12.980709 260.11259 
z
" clip-path="url(#pa2f15eade0)" style="fill: #4682b4"/>
   </g>
   <g id="patch_23">
    <path d="M 12.980709 254.876695 
L 36.296916 254.876695 
L 36.296916 233.933115 
L 12.980709 233.933115 
z
" clip-path="url(#pa2f15eade0)" style="fill: #4682b4"/>
   </g>
   <g id="patch_24">
    <path d="M 12.980709 228.69722 
L 38.887605 228.69722 
L 38.887605 207.75364 
L 12.980709 207.75364 
z
" clip-path="url(#pa2f15eade0)" style="fill: #4682b4"/>
   </g>
   <g id="patch_25">
    <path d="M 12.980709 202.517745 
L 233.189329 202.517745 
L 233.189329 181.574166 
L 12.980709 181.574166 
z
" clip-path="url(#pa2f15eade0)" style="fill: #4682b4"/>
   </g>
   <g id="patch_26">
    <path d="M 12.980709 176.338271 
L 93.292088 176.338271 
L 93.292088 155.394691 
L 12.980709 155.394691 
z
" clip-path="url(#pa2f15eade0)" style="fill: #4682b4"/>
   </g>
   <g id="patch_27">
    <path d="M 12.980709 150.158796 
L 126.971053 150.158796 
L 126.971053 129.215216 
L 12.980709 129.215216 
z
" clip-path="url(#pa2f15eade0)" style="fill: #4682b4"/>
   </g>
   <g id="patch_28">
    <path d="M 12.980709 123.979321 
L 28.524847 123.979321 
L 28.524847 103.035742 
L 12.980709 103.035742 
z
" clip-path="url(#pa2f15eade0)" style="fill: #4682b4"/>
   </g>
   <g id="patch_29">
    <path d="M 12.980709 97.799847 
L 54.431743 97.799847 
L 54.431743 76.856267 
L 12.980709 76.856267 
z
" clip-path="url(#pa2f15eade0)" style="fill: #4682b4"/>
   </g>
   <g id="matplotlib.axis_1">
    <g id="xtick_1">
     <g id="line2d_1">
      <path d="M 12.980709 781.084135 
L 12.980709 48.058845 
" clip-path="url(#pa2f15eade0)" style="fill: none; stroke-dasharray: 0.8,1.32; stroke-dashoffset: 0; stroke: #b0b0b0; stroke-opacity: 0.4; stroke-width: 0.8"/>
     </g>
     <g id="line2d_2">
      <defs>
       <path id="m622ddb4850" d="M 0 0 
L 0 3.5 
" style="stroke: #000000; stroke-width: 0.8"/>
      </defs>
      <g>
       <use xlink:href="#m622ddb4850" x="12.980709" y="781.084135" style="stroke: #000000; stroke-width: 0.8"/>
      </g>
     </g>
     <g id="text_1">
      <!-- 0 -->
      <g transform="translate(10.20024 795.257573) scale(0.1 -0.1)">
       <defs>
        <path id="Helvetica-30" d="M 1731 4475 
Q 2600 4475 2988 3759 
Q 3288 3206 3288 2244 
Q 3288 1331 3016 734 
Q 2622 -122 1728 -122 
Q 922 -122 528 578 
Q 200 1163 200 2147 
Q 200 2909 397 3456 
Q 766 4475 1731 4475 
z
M 1725 391 
Q 2163 391 2422 778 
Q 2681 1166 2681 2222 
Q 2681 2984 2493 3476 
Q 2306 3969 1766 3969 
Q 1269 3969 1039 3501 
Q 809 3034 809 2125 
Q 809 1441 956 1025 
Q 1181 391 1725 391 
z
" transform="scale(0.015625)"/>
       </defs>
       <use xlink:href="#Helvetica-30"/>
      </g>
     </g>
    </g>
    <g id="xtick_2">
     <g id="line2d_3">
      <path d="M 64.794502 781.084135 
L 64.794502 48.058845 
" clip-path="url(#pa2f15eade0)" style="fill: none; stroke-dasharray: 0.8,1.32; stroke-dashoffset: 0; stroke: #b0b0b0; stroke-opacity: 0.4; stroke-width: 0.8"/>
     </g>
     <g id="line2d_4">
      <g>
       <use xlink:href="#m622ddb4850" x="64.794502" y="781.084135" style="stroke: #000000; stroke-width: 0.8"/>
      </g>
     </g>
     <g id="text_2">
      <!-- 20 -->
      <g transform="translate(59.233564 795.257573) scale(0.1 -0.1)">
       <defs>
        <path id="Helvetica-32" d="M 200 0 
Q 231 578 439 1006 
Q 647 1434 1250 1784 
L 1850 2131 
Q 2253 2366 2416 2531 
Q 2672 2791 2672 3125 
Q 2672 3516 2437 3745 
Q 2203 3975 1813 3975 
Q 1234 3975 1013 3538 
Q 894 3303 881 2888 
L 309 2888 
Q 319 3472 525 3841 
Q 891 4491 1816 4491 
Q 2584 4491 2939 4075 
Q 3294 3659 3294 3150 
Q 3294 2613 2916 2231 
Q 2697 2009 2131 1694 
L 1703 1456 
Q 1397 1288 1222 1134 
Q 909 863 828 531 
L 3272 531 
L 3272 0 
L 200 0 
z
" transform="scale(0.015625)"/>
       </defs>
       <use xlink:href="#Helvetica-32"/>
       <use xlink:href="#Helvetica-30" transform="translate(55.615234 0)"/>
      </g>
     </g>
    </g>
    <g id="xtick_3">
     <g id="line2d_5">
      <path d="M 116.608295 781.084135 
L 116.608295 48.058845 
" clip-path="url(#pa2f15eade0)" style="fill: none; stroke-dasharray: 0.8,1.32; stroke-dashoffset: 0; stroke: #b0b0b0; stroke-opacity: 0.4; stroke-width: 0.8"/>
     </g>
     <g id="line2d_6">
      <g>
       <use xlink:href="#m622ddb4850" x="116.608295" y="781.084135" style="stroke: #000000; stroke-width: 0.8"/>
      </g>
     </g>
     <g id="text_3">
      <!-- 40 -->
      <g transform="translate(111.047357 795.257573) scale(0.1 -0.1)">
       <defs>
        <path id="Helvetica-34" d="M 2116 1584 
L 2116 3613 
L 681 1584 
L 2116 1584 
z
M 2125 0 
L 2125 1094 
L 163 1094 
L 163 1644 
L 2213 4488 
L 2688 4488 
L 2688 1584 
L 3347 1584 
L 3347 1094 
L 2688 1094 
L 2688 0 
L 2125 0 
z
" transform="scale(0.015625)"/>
       </defs>
       <use xlink:href="#Helvetica-34"/>
       <use xlink:href="#Helvetica-30" transform="translate(55.615234 0)"/>
      </g>
     </g>
    </g>
    <g id="xtick_4">
     <g id="line2d_7">
      <path d="M 168.422088 781.084135 
L 168.422088 48.058845 
" clip-path="url(#pa2f15eade0)" style="fill: none; stroke-dasharray: 0.8,1.32; stroke-dashoffset: 0; stroke: #b0b0b0; stroke-opacity: 0.4; stroke-width: 0.8"/>
     </g>
     <g id="line2d_8">
      <g>
       <use xlink:href="#m622ddb4850" x="168.422088" y="781.084135" style="stroke: #000000; stroke-width: 0.8"/>
      </g>
     </g>
     <g id="text_4">
      <!-- 60 -->
      <g transform="translate(162.86115 795.257573) scale(0.1 -0.1)">
       <defs>
        <path id="Helvetica-36" d="M 1872 4494 
Q 2622 4494 2917 4105 
Q 3213 3716 3213 3303 
L 2656 3303 
Q 2606 3569 2497 3719 
Q 2294 4000 1881 4000 
Q 1409 4000 1131 3564 
Q 853 3128 822 2316 
Q 1016 2600 1309 2741 
Q 1578 2866 1909 2866 
Q 2472 2866 2890 2506 
Q 3309 2147 3309 1434 
Q 3309 825 2912 354 
Q 2516 -116 1781 -116 
Q 1153 -116 697 361 
Q 241 838 241 1966 
Q 241 2800 444 3381 
Q 834 4494 1872 4494 
z
M 1831 384 
Q 2275 384 2495 682 
Q 2716 981 2716 1388 
Q 2716 1731 2519 2042 
Q 2322 2353 1803 2353 
Q 1441 2353 1167 2112 
Q 894 1872 894 1388 
Q 894 963 1142 673 
Q 1391 384 1831 384 
z
" transform="scale(0.015625)"/>
       </defs>
       <use xlink:href="#Helvetica-36"/>
       <use xlink:href="#Helvetica-30" transform="translate(55.615234 0)"/>
      </g>
     </g>
    </g>
    <g id="xtick_5">
     <g id="line2d_9">
      <path d="M 220.235881 781.084135 
L 220.235881 48.058845 
" clip-path="url(#pa2f15eade0)" style="fill: none; stroke-dasharray: 0.8,1.32; stroke-dashoffset: 0; stroke: #b0b0b0; stroke-opacity: 0.4; stroke-width: 0.8"/>
     </g>
     <g id="line2d_10">
      <g>
       <use xlink:href="#m622ddb4850" x="220.235881" y="781.084135" style="stroke: #000000; stroke-width: 0.8"/>
      </g>
     </g>
     <g id="text_5">
      <!-- 80 -->
      <g transform="translate(214.674943 795.257573) scale(0.1 -0.1)">
       <defs>
        <path id="Helvetica-38" d="M 1741 2600 
Q 2113 2600 2322 2808 
Q 2531 3016 2531 3303 
Q 2531 3553 2331 3762 
Q 2131 3972 1722 3972 
Q 1316 3972 1134 3762 
Q 953 3553 953 3272 
Q 953 2956 1187 2778 
Q 1422 2600 1741 2600 
z
M 1775 384 
Q 2166 384 2423 595 
Q 2681 806 2681 1225 
Q 2681 1659 2415 1884 
Q 2150 2109 1734 2109 
Q 1331 2109 1076 1879 
Q 822 1650 822 1244 
Q 822 894 1055 639 
Q 1288 384 1775 384 
z
M 975 2384 
Q 741 2484 609 2619 
Q 363 2869 363 3269 
Q 363 3769 725 4128 
Q 1088 4488 1753 4488 
Q 2397 4488 2762 4148 
Q 3128 3809 3128 3356 
Q 3128 2938 2916 2678 
Q 2797 2531 2547 2391 
Q 2825 2263 2984 2097 
Q 3281 1784 3281 1284 
Q 3281 694 2884 283 
Q 2488 -128 1763 -128 
Q 1109 -128 657 226 
Q 206 581 206 1256 
Q 206 1653 400 1942 
Q 594 2231 975 2384 
z
" transform="scale(0.015625)"/>
       </defs>
       <use xlink:href="#Helvetica-38"/>
       <use xlink:href="#Helvetica-30" transform="translate(55.615234 0)"/>
      </g>
     </g>
    </g>
    <g id="text_6">
     <!-- Count -->
     <g transform="translate(115.248828 808.515385) scale(0.1 -0.1)">
      <defs>
       <path id="Helvetica-43" d="M 2422 4716 
Q 3294 4716 3775 4256 
Q 4256 3797 4309 3213 
L 3703 3213 
Q 3600 3656 3292 3915 
Q 2984 4175 2428 4175 
Q 1750 4175 1333 3698 
Q 916 3222 916 2238 
Q 916 1431 1292 929 
Q 1669 428 2416 428 
Q 3103 428 3463 956 
Q 3653 1234 3747 1688 
L 4353 1688 
Q 4272 963 3816 472 
Q 3269 -119 2341 -119 
Q 1541 -119 997 366 
Q 281 1006 281 2344 
Q 281 3359 819 4009 
Q 1400 4716 2422 4716 
z
M 2297 4716 
L 2297 4716 
z
" transform="scale(0.015625)"/>
       <path id="Helvetica-6f" d="M 1741 363 
Q 2300 363 2508 786 
Q 2716 1209 2716 1728 
Q 2716 2197 2566 2491 
Q 2328 2953 1747 2953 
Q 1231 2953 997 2559 
Q 763 2166 763 1609 
Q 763 1075 997 719 
Q 1231 363 1741 363 
z
M 1763 3444 
Q 2409 3444 2856 3012 
Q 3303 2581 3303 1744 
Q 3303 934 2909 406 
Q 2516 -122 1688 -122 
Q 997 -122 590 345 
Q 184 813 184 1600 
Q 184 2444 612 2944 
Q 1041 3444 1763 3444 
z
M 1744 3428 
L 1744 3428 
z
" transform="scale(0.015625)"/>
       <path id="Helvetica-75" d="M 975 3347 
L 975 1125 
Q 975 869 1056 706 
Q 1206 406 1616 406 
Q 2203 406 2416 931 
Q 2531 1213 2531 1703 
L 2531 3347 
L 3094 3347 
L 3094 0 
L 2563 0 
L 2569 494 
Q 2459 303 2297 172 
Q 1975 -91 1516 -91 
Q 800 -91 541 388 
Q 400 644 400 1072 
L 400 3347 
L 975 3347 
z
M 1747 3428 
L 1747 3428 
z
" transform="scale(0.015625)"/>
       <path id="Helvetica-6e" d="M 413 3347 
L 947 3347 
L 947 2872 
Q 1184 3166 1450 3294 
Q 1716 3422 2041 3422 
Q 2753 3422 3003 2925 
Q 3141 2653 3141 2147 
L 3141 0 
L 2569 0 
L 2569 2109 
Q 2569 2416 2478 2603 
Q 2328 2916 1934 2916 
Q 1734 2916 1606 2875 
Q 1375 2806 1200 2600 
Q 1059 2434 1017 2257 
Q 975 2081 975 1753 
L 975 0 
L 413 0 
L 413 3347 
z
M 1734 3428 
L 1734 3428 
z
" transform="scale(0.015625)"/>
       <path id="Helvetica-74" d="M 525 4281 
L 1094 4281 
L 1094 3347 
L 1628 3347 
L 1628 2888 
L 1094 2888 
L 1094 703 
Q 1094 528 1213 469 
Q 1278 434 1431 434 
Q 1472 434 1519 436 
Q 1566 438 1628 444 
L 1628 0 
Q 1531 -28 1426 -40 
Q 1322 -53 1200 -53 
Q 806 -53 665 148 
Q 525 350 525 672 
L 525 2888 
L 72 2888 
L 72 3347 
L 525 3347 
L 525 4281 
z
" transform="scale(0.015625)"/>
      </defs>
      <use xlink:href="#Helvetica-43"/>
      <use xlink:href="#Helvetica-6f" transform="translate(72.216797 0)"/>
      <use xlink:href="#Helvetica-75" transform="translate(127.832031 0)"/>
      <use xlink:href="#Helvetica-6e" transform="translate(183.447266 0)"/>
      <use xlink:href="#Helvetica-74" transform="translate(239.0625 0)"/>
     </g>
    </g>
   </g>
   <g id="matplotlib.axis_2">
    <g id="ytick_1"/>
    <g id="ytick_2"/>
    <g id="ytick_3"/>
    <g id="ytick_4"/>
    <g id="ytick_5"/>
    <g id="ytick_6"/>
    <g id="ytick_7"/>
    <g id="ytick_8"/>
    <g id="ytick_9"/>
    <g id="ytick_10"/>
    <g id="ytick_11"/>
    <g id="ytick_12"/>
    <g id="ytick_13"/>
    <g id="ytick_14"/>
    <g id="ytick_15"/>
    <g id="ytick_16"/>
    <g id="ytick_17"/>
    <g id="ytick_18"/>
    <g id="ytick_19"/>
    <g id="ytick_20"/>
    <g id="ytick_21"/>
    <g id="ytick_22"/>
    <g id="ytick_23"/>
    <g id="ytick_24"/>
    <g id="ytick_25"/>
    <g id="ytick_26"/>
    <g id="ytick_27"/>
    <g id="ytick_28"/>
   </g>
   <g id="line2d_11">
    <path d="M 12.980709 74.23832 
L 244.19976 74.23832 
" clip-path="url(#pa2f15eade0)" style="fill: none; stroke: #000000; stroke-width: 1.2; stroke-linecap: square"/>
   </g>
   <g id="patch_30">
    <path d="M 12.980709 781.084135 
L 12.980709 48.058845 
" style="fill: none; stroke: #000000; stroke-width: 0.8; stroke-linejoin: miter; stroke-linecap: square"/>
   </g>
   <g id="patch_31">
    <path d="M 244.19976 781.084135 
L 244.19976 48.058845 
" style="fill: none; stroke: #000000; stroke-width: 0.8; stroke-linejoin: miter; stroke-linecap: square"/>
   </g>
   <g id="patch_32">
    <path d="M 12.980709 781.084135 
L 244.19976 781.084135 
" style="fill: none; stroke: #000000; stroke-width: 0.8; stroke-linejoin: miter; stroke-linecap: square"/>
   </g>
   <g id="patch_33">
    <path d="M 12.980709 48.058845 
L 244.19976 48.058845 
" style="fill: none; stroke: #000000; stroke-width: 0.8; stroke-linejoin: miter; stroke-linecap: square"/>
   </g>
   <g id="text_7">
    <!-- 383 -->
    <g transform="translate(24.541661 63.947567) scale(0.11 -0.11)">
     <defs>
      <path id="Helvetica-33" d="M 1663 -122 
Q 869 -122 511 314 
Q 153 750 153 1375 
L 741 1375 
Q 778 941 903 744 
Q 1122 391 1694 391 
Q 2138 391 2406 628 
Q 2675 866 2675 1241 
Q 2675 1703 2392 1887 
Q 2109 2072 1606 2072 
Q 1550 2072 1492 2070 
Q 1434 2069 1375 2066 
L 1375 2563 
Q 1463 2553 1522 2550 
Q 1581 2547 1650 2547 
Q 1966 2547 2169 2647 
Q 2525 2822 2525 3272 
Q 2525 3606 2287 3787 
Q 2050 3969 1734 3969 
Q 1172 3969 956 3594 
Q 838 3388 822 3006 
L 266 3006 
Q 266 3506 466 3856 
Q 809 4481 1675 4481 
Q 2359 4481 2734 4176 
Q 3109 3872 3109 3294 
Q 3109 2881 2888 2625 
Q 2750 2466 2531 2375 
Q 2884 2278 3082 2001 
Q 3281 1725 3281 1325 
Q 3281 684 2859 281 
Q 2438 -122 1663 -122 
z
" transform="scale(0.015625)"/>
     </defs>
     <use xlink:href="#Helvetica-33"/>
     <use xlink:href="#Helvetica-38" transform="translate(55.615234 0)"/>
     <use xlink:href="#Helvetica-33" transform="translate(111.230469 0)"/>
    </g>
   </g>
   <g id="text_8">
    <!-- Unique Donor Organs -->
    <g transform="translate(70.228984 42.058845) scale(0.12 -0.12)">
     <defs>
      <path id="Helvetica-55" d="M 1163 4591 
L 1163 1753 
Q 1163 1253 1350 922 
Q 1628 422 2288 422 
Q 3078 422 3363 963 
Q 3516 1256 3516 1753 
L 3516 4591 
L 4147 4591 
L 4147 2013 
Q 4147 1166 3919 709 
Q 3500 -122 2338 -122 
Q 1175 -122 759 709 
Q 531 1166 531 2013 
L 531 4591 
L 1163 4591 
z
M 2341 4591 
L 2341 4591 
z
" transform="scale(0.015625)"/>
      <path id="Helvetica-69" d="M 413 3331 
L 984 3331 
L 984 0 
L 413 0 
L 413 3331 
z
M 413 4591 
L 984 4591 
L 984 3953 
L 413 3953 
L 413 4591 
z
" transform="scale(0.015625)"/>
      <path id="Helvetica-71" d="M 775 1628 
Q 775 1194 897 900 
Q 1113 378 1669 378 
Q 2256 378 2478 928 
Q 2600 1231 2600 1703 
Q 2600 2138 2466 2428 
Q 2238 2925 1663 2925 
Q 1297 2925 1036 2608 
Q 775 2291 775 1628 
z
M 1606 3422 
Q 2022 3422 2306 3213 
Q 2463 3100 2606 2881 
L 2606 3347 
L 3141 3347 
L 3141 -1334 
L 2575 -1334 
L 2575 384 
Q 2434 159 2186 26 
Q 1938 -106 1566 -106 
Q 1031 -106 609 312 
Q 188 731 188 1588 
Q 188 2391 583 2906 
Q 978 3422 1606 3422 
z
" transform="scale(0.015625)"/>
      <path id="Helvetica-65" d="M 1806 3422 
Q 2163 3422 2497 3255 
Q 2831 3088 3006 2822 
Q 3175 2569 3231 2231 
Q 3281 2000 3281 1494 
L 828 1494 
Q 844 984 1069 676 
Q 1294 369 1766 369 
Q 2206 369 2469 659 
Q 2619 828 2681 1050 
L 3234 1050 
Q 3213 866 3089 639 
Q 2966 413 2813 269 
Q 2556 19 2178 -69 
Q 1975 -119 1719 -119 
Q 1094 -119 659 336 
Q 225 791 225 1609 
Q 225 2416 662 2919 
Q 1100 3422 1806 3422 
z
M 2703 1941 
Q 2669 2306 2544 2525 
Q 2313 2931 1772 2931 
Q 1384 2931 1121 2651 
Q 859 2372 844 1941 
L 2703 1941 
z
M 1753 3428 
L 1753 3428 
z
" transform="scale(0.015625)"/>
      <path id="Helvetica-20" transform="scale(0.015625)"/>
      <path id="Helvetica-44" d="M 2250 531 
Q 2566 531 2769 597 
Q 3131 719 3363 1066 
Q 3547 1344 3628 1778 
Q 3675 2038 3675 2259 
Q 3675 3113 3336 3584 
Q 2997 4056 2244 4056 
L 1141 4056 
L 1141 531 
L 2250 531 
z
M 516 4591 
L 2375 4591 
Q 3322 4591 3844 3919 
Q 4309 3313 4309 2366 
Q 4309 1634 4034 1044 
Q 3550 0 2369 0 
L 516 0 
L 516 4591 
z
" transform="scale(0.015625)"/>
      <path id="Helvetica-72" d="M 428 3347 
L 963 3347 
L 963 2769 
Q 1028 2938 1284 3180 
Q 1541 3422 1875 3422 
Q 1891 3422 1928 3419 
Q 1966 3416 2056 3406 
L 2056 2813 
Q 2006 2822 1964 2825 
Q 1922 2828 1872 2828 
Q 1447 2828 1219 2554 
Q 991 2281 991 1925 
L 991 0 
L 428 0 
L 428 3347 
z
" transform="scale(0.015625)"/>
      <path id="Helvetica-4f" d="M 2469 4716 
Q 3684 4716 4269 3934 
Q 4725 3325 4725 2375 
Q 4725 1347 4203 666 
Q 3591 -134 2456 -134 
Q 1397 -134 791 566 
Q 250 1241 250 2272 
Q 250 3203 713 3866 
Q 1306 4716 2469 4716 
z
M 2531 422 
Q 3353 422 3720 1011 
Q 4088 1600 4088 2366 
Q 4088 3175 3664 3669 
Q 3241 4163 2506 4163 
Q 1794 4163 1344 3673 
Q 894 3184 894 2231 
Q 894 1469 1280 945 
Q 1666 422 2531 422 
z
M 2488 4716 
L 2488 4716 
z
" transform="scale(0.015625)"/>
      <path id="Helvetica-67" d="M 1594 3406 
Q 1988 3406 2281 3213 
Q 2441 3103 2606 2894 
L 2606 3316 
L 3125 3316 
L 3125 272 
Q 3125 -366 2938 -734 
Q 2588 -1416 1616 -1416 
Q 1075 -1416 706 -1173 
Q 338 -931 294 -416 
L 866 -416 
Q 906 -641 1028 -763 
Q 1219 -950 1628 -950 
Q 2275 -950 2475 -494 
Q 2594 -225 2584 466 
Q 2416 209 2178 84 
Q 1941 -41 1550 -41 
Q 1006 -41 598 345 
Q 191 731 191 1622 
Q 191 2463 602 2934 
Q 1013 3406 1594 3406 
z
M 2606 1688 
Q 2606 2309 2350 2609 
Q 2094 2909 1697 2909 
Q 1103 2909 884 2353 
Q 769 2056 769 1575 
Q 769 1009 998 714 
Q 1228 419 1616 419 
Q 2222 419 2469 966 
Q 2606 1275 2606 1688 
z
M 1659 3428 
L 1659 3428 
z
" transform="scale(0.015625)"/>
      <path id="Helvetica-61" d="M 844 891 
Q 844 647 1022 506 
Q 1200 366 1444 366 
Q 1741 366 2019 503 
Q 2488 731 2488 1250 
L 2488 1703 
Q 2384 1638 2221 1594 
Q 2059 1550 1903 1531 
L 1563 1488 
Q 1256 1447 1103 1359 
Q 844 1213 844 891 
z
M 2206 2028 
Q 2400 2053 2466 2191 
Q 2503 2266 2503 2406 
Q 2503 2694 2298 2823 
Q 2094 2953 1713 2953 
Q 1272 2953 1088 2716 
Q 984 2584 953 2325 
L 428 2325 
Q 444 2944 830 3186 
Q 1216 3428 1725 3428 
Q 2316 3428 2684 3203 
Q 3050 2978 3050 2503 
L 3050 575 
Q 3050 488 3086 434 
Q 3122 381 3238 381 
Q 3275 381 3322 386 
Q 3369 391 3422 400 
L 3422 -16 
Q 3291 -53 3222 -62 
Q 3153 -72 3034 -72 
Q 2744 -72 2613 134 
Q 2544 244 2516 444 
Q 2344 219 2022 53 
Q 1700 -113 1313 -113 
Q 847 -113 551 170 
Q 256 453 256 878 
Q 256 1344 547 1600 
Q 838 1856 1309 1916 
L 2206 2028 
z
M 1741 3428 
L 1741 3428 
z
" transform="scale(0.015625)"/>
      <path id="Helvetica-73" d="M 747 1050 
Q 772 769 888 619 
Q 1100 347 1625 347 
Q 1938 347 2175 483 
Q 2413 619 2413 903 
Q 2413 1119 2222 1231 
Q 2100 1300 1741 1391 
L 1294 1503 
Q 866 1609 663 1741 
Q 300 1969 300 2372 
Q 300 2847 642 3140 
Q 984 3434 1563 3434 
Q 2319 3434 2653 2991 
Q 2863 2709 2856 2384 
L 2325 2384 
Q 2309 2575 2191 2731 
Q 1997 2953 1519 2953 
Q 1200 2953 1036 2831 
Q 872 2709 872 2509 
Q 872 2291 1088 2159 
Q 1213 2081 1456 2022 
L 1828 1931 
Q 2434 1784 2641 1647 
Q 2969 1431 2969 969 
Q 2969 522 2630 197 
Q 2291 -128 1597 -128 
Q 850 -128 539 211 
Q 228 550 206 1050 
L 747 1050 
z
M 1578 3428 
L 1578 3428 
z
" transform="scale(0.015625)"/>
     </defs>
     <use xlink:href="#Helvetica-55"/>
     <use xlink:href="#Helvetica-6e" transform="translate(72.216797 0)"/>
     <use xlink:href="#Helvetica-69" transform="translate(127.832031 0)"/>
     <use xlink:href="#Helvetica-71" transform="translate(150.048828 0)"/>
     <use xlink:href="#Helvetica-75" transform="translate(205.664062 0)"/>
     <use xlink:href="#Helvetica-65" transform="translate(261.279297 0)"/>
     <use xlink:href="#Helvetica-20" transform="translate(316.894531 0)"/>
     <use xlink:href="#Helvetica-44" transform="translate(344.677734 0)"/>
     <use xlink:href="#Helvetica-6f" transform="translate(416.894531 0)"/>
     <use xlink:href="#Helvetica-6e" transform="translate(472.509766 0)"/>
     <use xlink:href="#Helvetica-6f" transform="translate(528.125 0)"/>
     <use xlink:href="#Helvetica-72" transform="translate(583.740234 0)"/>
     <use xlink:href="#Helvetica-20" transform="translate(617.041016 0)"/>
     <use xlink:href="#Helvetica-4f" transform="translate(644.824219 0)"/>
     <use xlink:href="#Helvetica-72" transform="translate(722.607422 0)"/>
     <use xlink:href="#Helvetica-67" transform="translate(755.908203 0)"/>
     <use xlink:href="#Helvetica-61" transform="translate(811.523438 0)"/>
     <use xlink:href="#Helvetica-6e" transform="translate(867.138672 0)"/>
     <use xlink:href="#Helvetica-73" transform="translate(922.753906 0)"/>
    </g>
   </g>
  </g>
  <g id="axes_2">
   <g id="patch_34">
    <path d="M 252.980709 781.084135 
L 484.19976 781.084135 
L 484.19976 48.058845 
L 252.980709 48.058845 
z
" style="fill: #ffffff"/>
   </g>
   <g id="patch_35">
    <path d="M 252.980709 778.466188 
L 257.365394 778.466188 
L 257.365394 757.522608 
L 252.980709 757.522608 
z
" clip-path="url(#p360f22f610)" style="fill: #ff8c00"/>
   </g>
   <g id="patch_36">
    <path d="M 252.980709 752.286713 
L 254.44227 752.286713 
L 254.44227 731.343133 
L 252.980709 731.343133 
z
" clip-path="url(#p360f22f610)" style="fill: #ff8c00"/>
   </g>
   <g id="patch_37">
    <path d="M 252.980709 726.107238 
L 262.724453 726.107238 
L 262.724453 705.163659 
L 252.980709 705.163659 
z
" clip-path="url(#p360f22f610)" style="fill: #ff8c00"/>
   </g>
   <g id="patch_38">
    <path d="M 252.980709 699.927764 
L 259.80133 699.927764 
L 259.80133 678.984184 
L 252.980709 678.984184 
z
" clip-path="url(#p360f22f610)" style="fill: #ff8c00"/>
   </g>
   <g id="patch_39">
    <path d="M 252.980709 673.748289 
L 266.134763 673.748289 
L 266.134763 652.804709 
L 252.980709 652.804709 
z
" clip-path="url(#p360f22f610)" style="fill: #ff8c00"/>
   </g>
   <g id="patch_40">
    <path d="M 252.980709 647.568814 
L 273.442572 647.568814 
L 273.442572 626.625235 
L 252.980709 626.625235 
z
" clip-path="url(#p360f22f610)" style="fill: #ff8c00"/>
   </g>
   <g id="patch_41">
    <path d="M 252.980709 621.38934 
L 260.775704 621.38934 
L 260.775704 600.44576 
L 252.980709 600.44576 
z
" clip-path="url(#p360f22f610)" style="fill: #ff8c00"/>
   </g>
   <g id="patch_42">
    <path d="M 252.980709 595.209865 
L 260.288517 595.209865 
L 260.288517 574.266285 
L 252.980709 574.266285 
z
" clip-path="url(#p360f22f610)" style="fill: #ff8c00"/>
   </g>
   <g id="patch_43">
    <path d="M 252.980709 569.03039 
L 278.801631 569.03039 
L 278.801631 548.086811 
L 252.980709 548.086811 
z
" clip-path="url(#p360f22f610)" style="fill: #ff8c00"/>
   </g>
   <g id="patch_44">
    <path d="M 252.980709 542.850916 
L 279.288818 542.850916 
L 279.288818 521.907336 
L 252.980709 521.907336 
z
" clip-path="url(#p360f22f610)" style="fill: #ff8c00"/>
   </g>
   <g id="patch_45">
    <path d="M 252.980709 516.671441 
L 431.291229 516.671441 
L 431.291229 495.727861 
L 252.980709 495.727861 
z
" clip-path="url(#p360f22f610)" style="fill: #ff8c00"/>
   </g>
   <g id="patch_46">
    <path d="M 252.980709 490.491966 
L 278.801631 490.491966 
L 278.801631 469.548387 
L 252.980709 469.548387 
z
" clip-path="url(#p360f22f610)" style="fill: #ff8c00"/>
   </g>
   <g id="patch_47">
    <path d="M 252.980709 464.312492 
L 268.083512 464.312492 
L 268.083512 443.368912 
L 252.980709 443.368912 
z
" clip-path="url(#p360f22f610)" style="fill: #ff8c00"/>
   </g>
   <g id="patch_48">
    <path d="M 252.980709 438.133017 
L 292.93006 438.133017 
L 292.93006 417.189437 
L 252.980709 417.189437 
z
" clip-path="url(#p360f22f610)" style="fill: #ff8c00"/>
   </g>
   <g id="patch_49">
    <path d="M 252.980709 411.953543 
L 275.391321 411.953543 
L 275.391321 391.009963 
L 252.980709 391.009963 
z
" clip-path="url(#p360f22f610)" style="fill: #ff8c00"/>
   </g>
   <g id="patch_50">
    <path d="M 252.980709 385.774068 
L 275.391321 385.774068 
L 275.391321 364.830488 
L 252.980709 364.830488 
z
" clip-path="url(#p360f22f610)" style="fill: #ff8c00"/>
   </g>
   <g id="patch_51">
    <path d="M 252.980709 359.594593 
L 302.673804 359.594593 
L 302.673804 338.651014 
L 252.980709 338.651014 
z
" clip-path="url(#p360f22f610)" style="fill: #ff8c00"/>
   </g>
   <g id="patch_52">
    <path d="M 252.980709 333.415119 
L 292.93006 333.415119 
L 292.93006 312.471539 
L 252.980709 312.471539 
z
" clip-path="url(#p360f22f610)" style="fill: #ff8c00"/>
   </g>
   <g id="patch_53">
    <path d="M 252.980709 307.235644 
L 289.51975 307.235644 
L 289.51975 286.292064 
L 252.980709 286.292064 
z
" clip-path="url(#p360f22f610)" style="fill: #ff8c00"/>
   </g>
   <g id="patch_54">
    <path d="M 252.980709 281.056169 
L 328.981914 281.056169 
L 328.981914 260.11259 
L 252.980709 260.11259 
z
" clip-path="url(#p360f22f610)" style="fill: #ff8c00"/>
   </g>
   <g id="patch_55">
    <path d="M 252.980709 254.876695 
L 298.28912 254.876695 
L 298.28912 233.933115 
L 252.980709 233.933115 
z
" clip-path="url(#p360f22f610)" style="fill: #ff8c00"/>
   </g>
   <g id="patch_56">
    <path d="M 252.980709 228.69722 
L 302.673804 228.69722 
L 302.673804 207.75364 
L 252.980709 207.75364 
z
" clip-path="url(#p360f22f610)" style="fill: #ff8c00"/>
   </g>
   <g id="patch_57">
    <path d="M 252.980709 202.517745 
L 442.009347 202.517745 
L 442.009347 181.574166 
L 252.980709 181.574166 
z
" clip-path="url(#p360f22f610)" style="fill: #ff8c00"/>
   </g>
   <g id="patch_58">
    <path d="M 252.980709 176.338271 
L 409.854991 176.338271 
L 409.854991 155.394691 
L 252.980709 155.394691 
z
" clip-path="url(#p360f22f610)" style="fill: #ff8c00"/>
   </g>
   <g id="patch_59">
    <path d="M 252.980709 150.158796 
L 473.189329 150.158796 
L 473.189329 129.215216 
L 252.980709 129.215216 
z
" clip-path="url(#p360f22f610)" style="fill: #ff8c00"/>
   </g>
   <g id="patch_60">
    <path d="M 252.980709 123.979321 
L 388.418754 123.979321 
L 388.418754 103.035742 
L 252.980709 103.035742 
z
" clip-path="url(#p360f22f610)" style="fill: #ff8c00"/>
   </g>
   <g id="patch_61">
    <path d="M 252.980709 97.799847 
L 349.930964 97.799847 
L 349.930964 76.856267 
L 252.980709 76.856267 
z
" clip-path="url(#p360f22f610)" style="fill: #ff8c00"/>
   </g>
   <g id="matplotlib.axis_3">
    <g id="xtick_6">
     <g id="line2d_12">
      <path d="M 252.980709 781.084135 
L 252.980709 48.058845 
" clip-path="url(#p360f22f610)" style="fill: none; stroke-dasharray: 0.8,1.32; stroke-dashoffset: 0; stroke: #b0b0b0; stroke-opacity: 0.4; stroke-width: 0.8"/>
     </g>
     <g id="line2d_13">
      <g>
       <use xlink:href="#m622ddb4850" x="252.980709" y="781.084135" style="stroke: #000000; stroke-width: 0.8"/>
      </g>
     </g>
     <g id="text_9">
      <!-- 0 -->
      <g transform="translate(250.20024 795.257573) scale(0.1 -0.1)">
       <use xlink:href="#Helvetica-30"/>
      </g>
     </g>
    </g>
    <g id="xtick_7">
     <g id="line2d_14">
      <path d="M 301.69943 781.084135 
L 301.69943 48.058845 
" clip-path="url(#p360f22f610)" style="fill: none; stroke-dasharray: 0.8,1.32; stroke-dashoffset: 0; stroke: #b0b0b0; stroke-opacity: 0.4; stroke-width: 0.8"/>
     </g>
     <g id="line2d_15">
      <g>
       <use xlink:href="#m622ddb4850" x="301.69943" y="781.084135" style="stroke: #000000; stroke-width: 0.8"/>
      </g>
     </g>
     <g id="text_10">
      <!-- 100 -->
      <g transform="translate(293.358024 795.257573) scale(0.1 -0.1)">
       <defs>
        <path id="Helvetica-31" d="M 613 3169 
L 613 3600 
Q 1222 3659 1462 3798 
Q 1703 3938 1822 4456 
L 2266 4456 
L 2266 0 
L 1666 0 
L 1666 3169 
L 613 3169 
z
" transform="scale(0.015625)"/>
       </defs>
       <use xlink:href="#Helvetica-31"/>
       <use xlink:href="#Helvetica-30" transform="translate(55.615234 0)"/>
       <use xlink:href="#Helvetica-30" transform="translate(111.230469 0)"/>
      </g>
     </g>
    </g>
    <g id="xtick_8">
     <g id="line2d_16">
      <path d="M 350.418151 781.084135 
L 350.418151 48.058845 
" clip-path="url(#p360f22f610)" style="fill: none; stroke-dasharray: 0.8,1.32; stroke-dashoffset: 0; stroke: #b0b0b0; stroke-opacity: 0.4; stroke-width: 0.8"/>
     </g>
     <g id="line2d_17">
      <g>
       <use xlink:href="#m622ddb4850" x="350.418151" y="781.084135" style="stroke: #000000; stroke-width: 0.8"/>
      </g>
     </g>
     <g id="text_11">
      <!-- 200 -->
      <g transform="translate(342.076745 795.257573) scale(0.1 -0.1)">
       <use xlink:href="#Helvetica-32"/>
       <use xlink:href="#Helvetica-30" transform="translate(55.615234 0)"/>
       <use xlink:href="#Helvetica-30" transform="translate(111.230469 0)"/>
      </g>
     </g>
    </g>
    <g id="xtick_9">
     <g id="line2d_18">
      <path d="M 399.136873 781.084135 
L 399.136873 48.058845 
" clip-path="url(#p360f22f610)" style="fill: none; stroke-dasharray: 0.8,1.32; stroke-dashoffset: 0; stroke: #b0b0b0; stroke-opacity: 0.4; stroke-width: 0.8"/>
     </g>
     <g id="line2d_19">
      <g>
       <use xlink:href="#m622ddb4850" x="399.136873" y="781.084135" style="stroke: #000000; stroke-width: 0.8"/>
      </g>
     </g>
     <g id="text_12">
      <!-- 300 -->
      <g transform="translate(390.795466 795.257573) scale(0.1 -0.1)">
       <use xlink:href="#Helvetica-33"/>
       <use xlink:href="#Helvetica-30" transform="translate(55.615234 0)"/>
       <use xlink:href="#Helvetica-30" transform="translate(111.230469 0)"/>
      </g>
     </g>
    </g>
    <g id="xtick_10">
     <g id="line2d_20">
      <path d="M 447.855594 781.084135 
L 447.855594 48.058845 
" clip-path="url(#p360f22f610)" style="fill: none; stroke-dasharray: 0.8,1.32; stroke-dashoffset: 0; stroke: #b0b0b0; stroke-opacity: 0.4; stroke-width: 0.8"/>
     </g>
     <g id="line2d_21">
      <g>
       <use xlink:href="#m622ddb4850" x="447.855594" y="781.084135" style="stroke: #000000; stroke-width: 0.8"/>
      </g>
     </g>
     <g id="text_13">
      <!-- 400 -->
      <g transform="translate(439.514188 795.257573) scale(0.1 -0.1)">
       <use xlink:href="#Helvetica-34"/>
       <use xlink:href="#Helvetica-30" transform="translate(55.615234 0)"/>
       <use xlink:href="#Helvetica-30" transform="translate(111.230469 0)"/>
      </g>
     </g>
    </g>
    <g id="text_14">
     <!-- Count -->
     <g transform="translate(355.248828 808.515385) scale(0.1 -0.1)">
      <use xlink:href="#Helvetica-43"/>
      <use xlink:href="#Helvetica-6f" transform="translate(72.216797 0)"/>
      <use xlink:href="#Helvetica-75" transform="translate(127.832031 0)"/>
      <use xlink:href="#Helvetica-6e" transform="translate(183.447266 0)"/>
      <use xlink:href="#Helvetica-74" transform="translate(239.0625 0)"/>
     </g>
    </g>
   </g>
   <g id="matplotlib.axis_4">
    <g id="ytick_29"/>
    <g id="ytick_30"/>
    <g id="ytick_31"/>
    <g id="ytick_32"/>
    <g id="ytick_33"/>
    <g id="ytick_34"/>
    <g id="ytick_35"/>
    <g id="ytick_36"/>
    <g id="ytick_37"/>
    <g id="ytick_38"/>
    <g id="ytick_39"/>
    <g id="ytick_40"/>
    <g id="ytick_41"/>
    <g id="ytick_42"/>
    <g id="ytick_43"/>
    <g id="ytick_44"/>
    <g id="ytick_45"/>
    <g id="ytick_46"/>
    <g id="ytick_47"/>
    <g id="ytick_48"/>
    <g id="ytick_49"/>
    <g id="ytick_50"/>
    <g id="ytick_51"/>
    <g id="ytick_52"/>
    <g id="ytick_53"/>
    <g id="ytick_54"/>
    <g id="ytick_55"/>
    <g id="ytick_56"/>
   </g>
   <g id="line2d_22">
    <path d="M 252.980709 74.23832 
L 484.19976 74.23832 
" clip-path="url(#p360f22f610)" style="fill: none; stroke: #000000; stroke-width: 1.2; stroke-linecap: square"/>
   </g>
   <g id="patch_62">
    <path d="M 252.980709 781.084135 
L 252.980709 48.058845 
" style="fill: none; stroke: #000000; stroke-width: 0.8; stroke-linejoin: miter; stroke-linecap: square"/>
   </g>
   <g id="patch_63">
    <path d="M 484.19976 781.084135 
L 484.19976 48.058845 
" style="fill: none; stroke: #000000; stroke-width: 0.8; stroke-linejoin: miter; stroke-linecap: square"/>
   </g>
   <g id="patch_64">
    <path d="M 252.980709 781.084135 
L 484.19976 781.084135 
" style="fill: none; stroke: #000000; stroke-width: 0.8; stroke-linejoin: miter; stroke-linecap: square"/>
   </g>
   <g id="patch_65">
    <path d="M 252.980709 48.058845 
L 484.19976 48.058845 
" style="fill: none; stroke: #000000; stroke-width: 0.8; stroke-linejoin: miter; stroke-linecap: square"/>
   </g>
   <g id="text_15">
    <!-- 3,126 -->
    <g transform="translate(264.541661 63.947567) scale(0.11 -0.11)">
     <defs>
      <path id="Helvetica-2c" d="M 531 -653 
Q 747 -616 834 -350 
Q 881 -209 881 -78 
Q 881 -56 879 -39 
Q 878 -22 872 0 
L 531 0 
L 531 681 
L 1200 681 
L 1200 50 
Q 1200 -322 1050 -603 
Q 900 -884 531 -950 
L 531 -653 
z
" transform="scale(0.015625)"/>
     </defs>
     <use xlink:href="#Helvetica-33"/>
     <use xlink:href="#Helvetica-2c" transform="translate(55.615234 0)"/>
     <use xlink:href="#Helvetica-31" transform="translate(83.398438 0)"/>
     <use xlink:href="#Helvetica-32" transform="translate(139.013672 0)"/>
     <use xlink:href="#Helvetica-36" transform="translate(194.628906 0)"/>
    </g>
   </g>
   <g id="text_16">
    <!-- Number of Samples -->
    <g transform="translate(315.571797 42.058845) scale(0.12 -0.12)">
     <defs>
      <path id="Helvetica-4e" d="M 488 4591 
L 1222 4591 
L 3541 872 
L 3541 4591 
L 4131 4591 
L 4131 0 
L 3434 0 
L 1081 3716 
L 1081 0 
L 488 0 
L 488 4591 
z
M 2269 4591 
L 2269 4591 
z
" transform="scale(0.015625)"/>
      <path id="Helvetica-6d" d="M 413 3347 
L 969 3347 
L 969 2872 
Q 1169 3119 1331 3231 
Q 1609 3422 1963 3422 
Q 2363 3422 2606 3225 
Q 2744 3113 2856 2894 
Q 3044 3163 3297 3292 
Q 3550 3422 3866 3422 
Q 4541 3422 4784 2934 
Q 4916 2672 4916 2228 
L 4916 0 
L 4331 0 
L 4331 2325 
Q 4331 2659 4164 2784 
Q 3997 2909 3756 2909 
Q 3425 2909 3186 2687 
Q 2947 2466 2947 1947 
L 2947 0 
L 2375 0 
L 2375 2184 
Q 2375 2525 2294 2681 
Q 2166 2916 1816 2916 
Q 1497 2916 1236 2669 
Q 975 2422 975 1775 
L 975 0 
L 413 0 
L 413 3347 
z
" transform="scale(0.015625)"/>
      <path id="Helvetica-62" d="M 369 4606 
L 916 4606 
L 916 2941 
Q 1100 3181 1356 3307 
Q 1613 3434 1913 3434 
Q 2538 3434 2927 3004 
Q 3316 2575 3316 1738 
Q 3316 944 2931 419 
Q 2547 -106 1866 -106 
Q 1484 -106 1222 78 
Q 1066 188 888 428 
L 888 0 
L 369 0 
L 369 4606 
z
M 1831 391 
Q 2288 391 2514 753 
Q 2741 1116 2741 1709 
Q 2741 2238 2514 2584 
Q 2288 2931 1847 2931 
Q 1463 2931 1173 2647 
Q 884 2363 884 1709 
Q 884 1238 1003 944 
Q 1225 391 1831 391 
z
" transform="scale(0.015625)"/>
      <path id="Helvetica-66" d="M 553 3856 
Q 566 4206 675 4369 
Q 872 4656 1434 4656 
Q 1488 4656 1544 4653 
Q 1600 4650 1672 4644 
L 1672 4131 
Q 1584 4138 1545 4139 
Q 1506 4141 1472 4141 
Q 1216 4141 1166 4008 
Q 1116 3875 1116 3331 
L 1672 3331 
L 1672 2888 
L 1109 2888 
L 1109 0 
L 553 0 
L 553 2888 
L 88 2888 
L 88 3331 
L 553 3331 
L 553 3856 
z
" transform="scale(0.015625)"/>
      <path id="Helvetica-53" d="M 894 1481 
Q 916 1091 1078 847 
Q 1388 391 2169 391 
Q 2519 391 2806 491 
Q 3363 684 3363 1184 
Q 3363 1559 3128 1719 
Q 2891 1875 2384 1991 
L 1763 2131 
Q 1153 2269 900 2434 
Q 463 2722 463 3294 
Q 463 3913 891 4309 
Q 1319 4706 2103 4706 
Q 2825 4706 3329 4357 
Q 3834 4009 3834 3244 
L 3250 3244 
Q 3203 3613 3050 3809 
Q 2766 4169 2084 4169 
Q 1534 4169 1293 3937 
Q 1053 3706 1053 3400 
Q 1053 3063 1334 2906 
Q 1519 2806 2169 2656 
L 2813 2509 
Q 3278 2403 3531 2219 
Q 3969 1897 3969 1284 
Q 3969 522 3414 194 
Q 2859 -134 2125 -134 
Q 1269 -134 784 303 
Q 300 738 309 1481 
L 894 1481 
z
M 2150 4716 
L 2150 4716 
z
" transform="scale(0.015625)"/>
      <path id="Helvetica-70" d="M 1825 378 
Q 2219 378 2480 708 
Q 2741 1038 2741 1694 
Q 2741 2094 2625 2381 
Q 2406 2934 1825 2934 
Q 1241 2934 1025 2350 
Q 909 2038 909 1556 
Q 909 1169 1025 897 
Q 1244 378 1825 378 
z
M 369 3331 
L 916 3331 
L 916 2888 
Q 1084 3116 1284 3241 
Q 1569 3428 1953 3428 
Q 2522 3428 2919 2992 
Q 3316 2556 3316 1747 
Q 3316 653 2744 184 
Q 2381 -113 1900 -113 
Q 1522 -113 1266 53 
Q 1116 147 931 375 
L 931 -1334 
L 369 -1334 
L 369 3331 
z
" transform="scale(0.015625)"/>
      <path id="Helvetica-6c" d="M 428 4591 
L 991 4591 
L 991 0 
L 428 0 
L 428 4591 
z
" transform="scale(0.015625)"/>
     </defs>
     <use xlink:href="#Helvetica-4e"/>
     <use xlink:href="#Helvetica-75" transform="translate(72.216797 0)"/>
     <use xlink:href="#Helvetica-6d" transform="translate(127.832031 0)"/>
     <use xlink:href="#Helvetica-62" transform="translate(211.132812 0)"/>
     <use xlink:href="#Helvetica-65" transform="translate(266.748047 0)"/>
     <use xlink:href="#Helvetica-72" transform="translate(322.363281 0)"/>
     <use xlink:href="#Helvetica-20" transform="translate(355.664062 0)"/>
     <use xlink:href="#Helvetica-6f" transform="translate(383.447266 0)"/>
     <use xlink:href="#Helvetica-66" transform="translate(439.0625 0)"/>
     <use xlink:href="#Helvetica-20" transform="translate(466.845703 0)"/>
     <use xlink:href="#Helvetica-53" transform="translate(494.628906 0)"/>
     <use xlink:href="#Helvetica-61" transform="translate(561.328125 0)"/>
     <use xlink:href="#Helvetica-6d" transform="translate(616.943359 0)"/>
     <use xlink:href="#Helvetica-70" transform="translate(700.244141 0)"/>
     <use xlink:href="#Helvetica-6c" transform="translate(755.859375 0)"/>
     <use xlink:href="#Helvetica-65" transform="translate(778.076172 0)"/>
     <use xlink:href="#Helvetica-73" transform="translate(833.691406 0)"/>
    </g>
   </g>
  </g>
  <g id="axes_3">
   <g id="patch_66">
    <path d="M 492.980709 781.084135 
L 724.19976 781.084135 
L 724.19976 48.058845 
L 492.980709 48.058845 
z
" style="fill: #ffffff"/>
   </g>
   <g id="patch_67">
    <path d="M 492.980709 778.466188 
L 535.755045 778.466188 
L 535.755045 757.522608 
L 492.980709 757.522608 
z
" clip-path="url(#pde9dd974d9)" style="fill: #228b22"/>
   </g>
   <g id="patch_68">
    <path d="M 492.980709 752.286713 
L 507.238821 752.286713 
L 507.238821 731.343133 
L 492.980709 731.343133 
z
" clip-path="url(#pde9dd974d9)" style="fill: #228b22"/>
   </g>
   <g id="patch_69">
    <path d="M 492.980709 726.107238 
L 502.486117 726.107238 
L 502.486117 705.163659 
L 492.980709 705.163659 
z
" clip-path="url(#pde9dd974d9)" style="fill: #228b22"/>
   </g>
   <g id="patch_70">
    <path d="M 492.980709 699.927764 
L 502.486117 699.927764 
L 502.486117 678.984184 
L 492.980709 678.984184 
z
" clip-path="url(#pde9dd974d9)" style="fill: #228b22"/>
   </g>
   <g id="patch_71">
    <path d="M 492.980709 673.748289 
L 535.755045 673.748289 
L 535.755045 652.804709 
L 492.980709 652.804709 
z
" clip-path="url(#pde9dd974d9)" style="fill: #228b22"/>
   </g>
   <g id="patch_72">
    <path d="M 492.980709 647.568814 
L 507.238821 647.568814 
L 507.238821 626.625235 
L 492.980709 626.625235 
z
" clip-path="url(#pde9dd974d9)" style="fill: #228b22"/>
   </g>
   <g id="patch_73">
    <path d="M 492.980709 621.38934 
L 502.486117 621.38934 
L 502.486117 600.44576 
L 492.980709 600.44576 
z
" clip-path="url(#pde9dd974d9)" style="fill: #228b22"/>
   </g>
   <g id="patch_74">
    <path d="M 492.980709 595.209865 
L 507.238821 595.209865 
L 507.238821 574.266285 
L 492.980709 574.266285 
z
" clip-path="url(#pde9dd974d9)" style="fill: #228b22"/>
   </g>
   <g id="patch_75">
    <path d="M 492.980709 569.03039 
L 512.357118 569.03039 
L 512.357118 548.086811 
L 492.980709 548.086811 
z
" clip-path="url(#pde9dd974d9)" style="fill: #228b22"/>
   </g>
   <g id="patch_76">
    <path d="M 492.980709 542.850916 
L 514.367877 542.850916 
L 514.367877 521.907336 
L 492.980709 521.907336 
z
" clip-path="url(#pde9dd974d9)" style="fill: #228b22"/>
   </g>
   <g id="patch_77">
    <path d="M 492.980709 516.671441 
L 589.619024 516.671441 
L 589.619024 495.727861 
L 492.980709 495.727861 
z
" clip-path="url(#pde9dd974d9)" style="fill: #228b22"/>
   </g>
   <g id="patch_78">
    <path d="M 492.980709 490.491966 
L 528.965468 490.491966 
L 528.965468 469.548387 
L 492.980709 469.548387 
z
" clip-path="url(#pde9dd974d9)" style="fill: #228b22"/>
   </g>
   <g id="patch_79">
    <path d="M 492.980709 464.312492 
L 522.447474 464.312492 
L 522.447474 443.368912 
L 492.980709 443.368912 
z
" clip-path="url(#pde9dd974d9)" style="fill: #228b22"/>
   </g>
   <g id="patch_80">
    <path d="M 492.980709 438.133017 
L 528.409957 438.133017 
L 528.409957 417.189437 
L 492.980709 417.189437 
z
" clip-path="url(#pde9dd974d9)" style="fill: #228b22"/>
   </g>
   <g id="patch_81">
    <path d="M 492.980709 411.953543 
L 508.596736 411.953543 
L 508.596736 391.009963 
L 492.980709 391.009963 
z
" clip-path="url(#pde9dd974d9)" style="fill: #228b22"/>
   </g>
   <g id="patch_82">
    <path d="M 492.980709 385.774068 
L 529.418106 385.774068 
L 529.418106 364.830488 
L 492.980709 364.830488 
z
" clip-path="url(#pde9dd974d9)" style="fill: #228b22"/>
   </g>
   <g id="patch_83">
    <path d="M 492.980709 359.594593 
L 527.607552 359.594593 
L 527.607552 338.651014 
L 492.980709 338.651014 
z
" clip-path="url(#pde9dd974d9)" style="fill: #228b22"/>
   </g>
   <g id="patch_84">
    <path d="M 492.980709 333.415119 
L 513.492379 333.415119 
L 513.492379 312.471539 
L 492.980709 312.471539 
z
" clip-path="url(#pde9dd974d9)" style="fill: #228b22"/>
   </g>
   <g id="patch_85">
    <path d="M 492.980709 307.235644 
L 671.20711 307.235644 
L 671.20711 286.292064 
L 492.980709 286.292064 
z
" clip-path="url(#pde9dd974d9)" style="fill: #228b22"/>
   </g>
   <g id="patch_86">
    <path d="M 492.980709 281.056169 
L 554.765861 281.056169 
L 554.765861 260.11259 
L 492.980709 260.11259 
z
" clip-path="url(#pde9dd974d9)" style="fill: #228b22"/>
   </g>
   <g id="patch_87">
    <path d="M 492.980709 254.876695 
L 542.091984 254.876695 
L 542.091984 233.933115 
L 492.980709 233.933115 
z
" clip-path="url(#pde9dd974d9)" style="fill: #228b22"/>
   </g>
   <g id="patch_88">
    <path d="M 492.980709 228.69722 
L 541.45829 228.69722 
L 541.45829 207.75364 
L 492.980709 207.75364 
z
" clip-path="url(#pde9dd974d9)" style="fill: #228b22"/>
   </g>
   <g id="patch_89">
    <path d="M 492.980709 202.517745 
L 514.675405 202.517745 
L 514.675405 181.574166 
L 492.980709 181.574166 
z
" clip-path="url(#pde9dd974d9)" style="fill: #228b22"/>
   </g>
   <g id="patch_90">
    <path d="M 492.980709 176.338271 
L 542.347505 176.338271 
L 542.347505 155.394691 
L 492.980709 155.394691 
z
" clip-path="url(#pde9dd974d9)" style="fill: #228b22"/>
   </g>
   <g id="patch_91">
    <path d="M 492.980709 150.158796 
L 541.803941 150.158796 
L 541.803941 129.215216 
L 492.980709 129.215216 
z
" clip-path="url(#pde9dd974d9)" style="fill: #228b22"/>
   </g>
   <g id="patch_92">
    <path d="M 492.980709 123.979321 
L 713.189329 123.979321 
L 713.189329 103.035742 
L 492.980709 103.035742 
z
" clip-path="url(#pde9dd974d9)" style="fill: #228b22"/>
   </g>
   <g id="patch_93">
    <path d="M 492.980709 97.799847 
L 552.092465 97.799847 
L 552.092465 76.856267 
L 492.980709 76.856267 
z
" clip-path="url(#pde9dd974d9)" style="fill: #228b22"/>
   </g>
   <g id="matplotlib.axis_5">
    <g id="xtick_11">
     <g id="line2d_23">
      <path d="M 492.980709 781.084135 
L 492.980709 48.058845 
" clip-path="url(#pde9dd974d9)" style="fill: none; stroke-dasharray: 0.8,1.32; stroke-dashoffset: 0; stroke: #b0b0b0; stroke-opacity: 0.4; stroke-width: 0.8"/>
     </g>
     <g id="line2d_24">
      <g>
       <use xlink:href="#m622ddb4850" x="492.980709" y="781.084135" style="stroke: #000000; stroke-width: 0.8"/>
      </g>
     </g>
     <g id="text_17">
      <!-- 0 -->
      <g transform="translate(490.20024 795.257573) scale(0.1 -0.1)">
       <use xlink:href="#Helvetica-30"/>
      </g>
     </g>
    </g>
    <g id="xtick_12">
     <g id="line2d_25">
      <path d="M 540.507749 781.084135 
L 540.507749 48.058845 
" clip-path="url(#pde9dd974d9)" style="fill: none; stroke-dasharray: 0.8,1.32; stroke-dashoffset: 0; stroke: #b0b0b0; stroke-opacity: 0.4; stroke-width: 0.8"/>
     </g>
     <g id="line2d_26">
      <g>
       <use xlink:href="#m622ddb4850" x="540.507749" y="781.084135" style="stroke: #000000; stroke-width: 0.8"/>
      </g>
     </g>
     <g id="text_18">
      <!-- 10 -->
      <g transform="translate(534.946812 795.257573) scale(0.1 -0.1)">
       <use xlink:href="#Helvetica-31"/>
       <use xlink:href="#Helvetica-30" transform="translate(55.615234 0)"/>
      </g>
     </g>
    </g>
    <g id="xtick_13">
     <g id="line2d_27">
      <path d="M 588.034789 781.084135 
L 588.034789 48.058845 
" clip-path="url(#pde9dd974d9)" style="fill: none; stroke-dasharray: 0.8,1.32; stroke-dashoffset: 0; stroke: #b0b0b0; stroke-opacity: 0.4; stroke-width: 0.8"/>
     </g>
     <g id="line2d_28">
      <g>
       <use xlink:href="#m622ddb4850" x="588.034789" y="781.084135" style="stroke: #000000; stroke-width: 0.8"/>
      </g>
     </g>
     <g id="text_19">
      <!-- 20 -->
      <g transform="translate(582.473852 795.257573) scale(0.1 -0.1)">
       <use xlink:href="#Helvetica-32"/>
       <use xlink:href="#Helvetica-30" transform="translate(55.615234 0)"/>
      </g>
     </g>
    </g>
    <g id="xtick_14">
     <g id="line2d_29">
      <path d="M 635.56183 781.084135 
L 635.56183 48.058845 
" clip-path="url(#pde9dd974d9)" style="fill: none; stroke-dasharray: 0.8,1.32; stroke-dashoffset: 0; stroke: #b0b0b0; stroke-opacity: 0.4; stroke-width: 0.8"/>
     </g>
     <g id="line2d_30">
      <g>
       <use xlink:href="#m622ddb4850" x="635.56183" y="781.084135" style="stroke: #000000; stroke-width: 0.8"/>
      </g>
     </g>
     <g id="text_20">
      <!-- 30 -->
      <g transform="translate(630.000892 795.257573) scale(0.1 -0.1)">
       <use xlink:href="#Helvetica-33"/>
       <use xlink:href="#Helvetica-30" transform="translate(55.615234 0)"/>
      </g>
     </g>
    </g>
    <g id="xtick_15">
     <g id="line2d_31">
      <path d="M 683.08887 781.084135 
L 683.08887 48.058845 
" clip-path="url(#pde9dd974d9)" style="fill: none; stroke-dasharray: 0.8,1.32; stroke-dashoffset: 0; stroke: #b0b0b0; stroke-opacity: 0.4; stroke-width: 0.8"/>
     </g>
     <g id="line2d_32">
      <g>
       <use xlink:href="#m622ddb4850" x="683.08887" y="781.084135" style="stroke: #000000; stroke-width: 0.8"/>
      </g>
     </g>
     <g id="text_21">
      <!-- 40 -->
      <g transform="translate(677.527933 795.257573) scale(0.1 -0.1)">
       <use xlink:href="#Helvetica-34"/>
       <use xlink:href="#Helvetica-30" transform="translate(55.615234 0)"/>
      </g>
     </g>
    </g>
    <g id="text_22">
     <!-- Mean -->
     <g transform="translate(596.083984 808.515385) scale(0.1 -0.1)">
      <defs>
       <path id="Helvetica-4d" d="M 472 4591 
L 1363 4591 
L 2681 709 
L 3991 4591 
L 4872 4591 
L 4872 0 
L 4281 0 
L 4281 2709 
Q 4281 2850 4287 3175 
Q 4294 3500 4294 3872 
L 2984 0 
L 2369 0 
L 1050 3872 
L 1050 3731 
Q 1050 3563 1058 3217 
Q 1066 2872 1066 2709 
L 1066 0 
L 472 0 
L 472 4591 
z
" transform="scale(0.015625)"/>
      </defs>
      <use xlink:href="#Helvetica-4d"/>
      <use xlink:href="#Helvetica-65" transform="translate(83.300781 0)"/>
      <use xlink:href="#Helvetica-61" transform="translate(138.916016 0)"/>
      <use xlink:href="#Helvetica-6e" transform="translate(194.53125 0)"/>
     </g>
    </g>
   </g>
   <g id="matplotlib.axis_6">
    <g id="ytick_57"/>
    <g id="ytick_58"/>
    <g id="ytick_59"/>
    <g id="ytick_60"/>
    <g id="ytick_61"/>
    <g id="ytick_62"/>
    <g id="ytick_63"/>
    <g id="ytick_64"/>
    <g id="ytick_65"/>
    <g id="ytick_66"/>
    <g id="ytick_67"/>
    <g id="ytick_68"/>
    <g id="ytick_69"/>
    <g id="ytick_70"/>
    <g id="ytick_71"/>
    <g id="ytick_72"/>
    <g id="ytick_73"/>
    <g id="ytick_74"/>
    <g id="ytick_75"/>
    <g id="ytick_76"/>
    <g id="ytick_77"/>
    <g id="ytick_78"/>
    <g id="ytick_79"/>
    <g id="ytick_80"/>
    <g id="ytick_81"/>
    <g id="ytick_82"/>
    <g id="ytick_83"/>
    <g id="ytick_84"/>
   </g>
   <g id="line2d_33">
    <path d="M 492.980709 74.23832 
L 724.19976 74.23832 
" clip-path="url(#pde9dd974d9)" style="fill: none; stroke: #000000; stroke-width: 1.2; stroke-linecap: square"/>
   </g>
   <g id="patch_94">
    <path d="M 492.980709 781.084135 
L 492.980709 48.058845 
" style="fill: none; stroke: #000000; stroke-width: 0.8; stroke-linejoin: miter; stroke-linecap: square"/>
   </g>
   <g id="patch_95">
    <path d="M 724.19976 781.084135 
L 724.19976 48.058845 
" style="fill: none; stroke: #000000; stroke-width: 0.8; stroke-linejoin: miter; stroke-linecap: square"/>
   </g>
   <g id="patch_96">
    <path d="M 492.980709 781.084135 
L 724.19976 781.084135 
" style="fill: none; stroke: #000000; stroke-width: 0.8; stroke-linejoin: miter; stroke-linecap: square"/>
   </g>
   <g id="patch_97">
    <path d="M 492.980709 48.058845 
L 724.19976 48.058845 
" style="fill: none; stroke: #000000; stroke-width: 0.8; stroke-linejoin: miter; stroke-linecap: square"/>
   </g>
   <g id="text_23">
    <!-- 8.2 -->
    <g transform="translate(504.541661 63.947567) scale(0.11 -0.11)">
     <defs>
      <path id="Helvetica-2e" d="M 547 681 
L 1200 681 
L 1200 0 
L 547 0 
L 547 681 
z
" transform="scale(0.015625)"/>
     </defs>
     <use xlink:href="#Helvetica-38"/>
     <use xlink:href="#Helvetica-2e" transform="translate(55.615234 0)"/>
     <use xlink:href="#Helvetica-32" transform="translate(83.398438 0)"/>
    </g>
   </g>
   <g id="text_24">
    <!-- Mean Samples / Donor -->
    <g transform="translate(547.231797 42.058845) scale(0.12 -0.12)">
     <defs>
      <path id="Helvetica-2f" d="M 1456 4591 
L 1931 4591 
L 475 0 
L 0 0 
L 1456 4591 
z
" transform="scale(0.015625)"/>
     </defs>
     <use xlink:href="#Helvetica-4d"/>
     <use xlink:href="#Helvetica-65" transform="translate(83.300781 0)"/>
     <use xlink:href="#Helvetica-61" transform="translate(138.916016 0)"/>
     <use xlink:href="#Helvetica-6e" transform="translate(194.53125 0)"/>
     <use xlink:href="#Helvetica-20" transform="translate(250.146484 0)"/>
     <use xlink:href="#Helvetica-53" transform="translate(277.929688 0)"/>
     <use xlink:href="#Helvetica-61" transform="translate(344.628906 0)"/>
     <use xlink:href="#Helvetica-6d" transform="translate(400.244141 0)"/>
     <use xlink:href="#Helvetica-70" transform="translate(483.544922 0)"/>
     <use xlink:href="#Helvetica-6c" transform="translate(539.160156 0)"/>
     <use xlink:href="#Helvetica-65" transform="translate(561.376953 0)"/>
     <use xlink:href="#Helvetica-73" transform="translate(616.992188 0)"/>
     <use xlink:href="#Helvetica-20" transform="translate(666.992188 0)"/>
     <use xlink:href="#Helvetica-2f" transform="translate(694.775391 0)"/>
     <use xlink:href="#Helvetica-20" transform="translate(722.558594 0)"/>
     <use xlink:href="#Helvetica-44" transform="translate(750.341797 0)"/>
     <use xlink:href="#Helvetica-6f" transform="translate(822.558594 0)"/>
     <use xlink:href="#Helvetica-6e" transform="translate(878.173828 0)"/>
     <use xlink:href="#Helvetica-6f" transform="translate(933.789062 0)"/>
     <use xlink:href="#Helvetica-72" transform="translate(989.404297 0)"/>
    </g>
   </g>
  </g>
  <g id="text_25">
   <!-- Samples -->
   <g transform="translate(332.185781 23.46399) scale(0.18 -0.18)">
    <use xlink:href="#Helvetica-53"/>
    <use xlink:href="#Helvetica-61" transform="translate(66.699219 0)"/>
    <use xlink:href="#Helvetica-6d" transform="translate(122.314453 0)"/>
    <use xlink:href="#Helvetica-70" transform="translate(205.615234 0)"/>
    <use xlink:href="#Helvetica-6c" transform="translate(261.230469 0)"/>
    <use xlink:href="#Helvetica-65" transform="translate(283.447266 0)"/>
    <use xlink:href="#Helvetica-73" transform="translate(339.0625 0)"/>
   </g>
  </g>
  <g id="text_26">
   <!-- c -->
   <g transform="translate(7.2 24.41625) scale(0.24 -0.24)">
    <defs>
     <path id="Helvetica-63" d="M 1703 3444 
Q 2269 3444 2623 3169 
Q 2978 2894 3050 2222 
L 2503 2222 
Q 2453 2531 2275 2736 
Q 2097 2941 1703 2941 
Q 1166 2941 934 2416 
Q 784 2075 784 1575 
Q 784 1072 996 728 
Q 1209 384 1666 384 
Q 2016 384 2220 598 
Q 2425 813 2503 1184 
L 3050 1184 
Q 2956 519 2581 211 
Q 2206 -97 1622 -97 
Q 966 -97 575 383 
Q 184 863 184 1581 
Q 184 2463 612 2953 
Q 1041 3444 1703 3444 
z
M 1616 3428 
L 1616 3428 
z
" transform="scale(0.015625)"/>
    </defs>
    <use xlink:href="#Helvetica-63"/>
   </g>
  </g>
 </g>
 <defs>
  <clipPath id="pa2f15eade0">
   <rect x="12.980709" y="48.058845" width="231.219051" height="733.02529"/>
  </clipPath>
  <clipPath id="p360f22f610">
   <rect x="252.980709" y="48.058845" width="231.219051" height="733.02529"/>
  </clipPath>
  <clipPath id="pde9dd974d9">
   <rect x="492.980709" y="48.058845" width="231.219051" height="733.02529"/>
  </clipPath>
 </defs>
</svg>
