<?xml version="1.0" encoding="utf-8" standalone="no"?>
<!DOCTYPE svg PUBLIC "-//W3C//DTD SVG 1.1//EN"
  "http://www.w3.org/Graphics/SVG/1.1/DTD/svg11.dtd">
<svg xmlns:xlink="http://www.w3.org/1999/xlink" width="705.6pt" height="432pt" viewBox="0 0 705.6 432" xmlns="http://www.w3.org/2000/svg" version="1.1">
 <metadata>
  <rdf:RDF xmlns:dc="http://purl.org/dc/elements/1.1/" xmlns:cc="http://creativecommons.org/ns#" xmlns:rdf="http://www.w3.org/1999/02/22-rdf-syntax-ns#">
   <cc:Work>
    <dc:type rdf:resource="http://purl.org/dc/dcmitype/StillImage"/>
    <dc:date>2026-04-02T10:15:56.914446</dc:date>
    <dc:format>image/svg+xml</dc:format>
    <dc:creator>
     <cc:Agent>
      <dc:title>Matplotlib v3.10.7, https://matplotlib.org/</dc:title>
     </cc:Agent>
    </dc:creator>
   </cc:Work>
  </rdf:RDF>
 </metadata>
 <defs>
  <style type="text/css">*{stroke-linejoin: round; stroke-linecap: butt}</style>
 </defs>
 <g id="figure_1">
  <g id="patch_1">
   <path d="M 0 432 
L 705.6 432 
L 705.6 0 
L 0 0 
z
" style="fill: #ffffff"/>
  </g>
  <g id="axes_1">
   <g id="patch_2">
    <path d="M 32.6736 384.28 
L 691.150426 384.28 
L 691.150426 10.8 
L 32.6736 10.8 
z
" style="fill: #ffffff"/>
   </g>
   <g id="patch_3">
    <path d="M 32.6736 10.8 
L 691.150426 10.8 
L 691.150426 25.7392 
L 32.6736 25.7392 
z
" clip-path="url(#p01c222c4f6)" style="fill: #d3d3d3; opacity: 0.2"/>
   </g>
   <g id="patch_4">
    <path d="M 32.6736 40.6784 
L 691.150426 40.6784 
L 691.150426 55.6176 
L 32.6736 55.6176 
z
" clip-path="url(#p01c222c4f6)" style="fill: #d3d3d3; opacity: 0.2"/>
   </g>
   <g id="patch_5">
    <path d="M 32.6736 70.5568 
L 691.150426 70.5568 
L 691.150426 85.496 
L 32.6736 85.496 
z
" clip-path="url(#p01c222c4f6)" style="fill: #d3d3d3; opacity: 0.2"/>
   </g>
   <g id="patch_6">
    <path d="M 32.6736 100.4352 
L 691.150426 100.4352 
L 691.150426 115.3744 
L 32.6736 115.3744 
z
" clip-path="url(#p01c222c4f6)" style="fill: #d3d3d3; opacity: 0.2"/>
   </g>
   <g id="patch_7">
    <path d="M 32.6736 130.3136 
L 691.150426 130.3136 
L 691.150426 145.2528 
L 32.6736 145.2528 
z
" clip-path="url(#p01c222c4f6)" style="fill: #d3d3d3; opacity: 0.2"/>
   </g>
   <g id="patch_8">
    <path d="M 32.6736 160.192 
L 691.150426 160.192 
L 691.150426 175.1312 
L 32.6736 175.1312 
z
" clip-path="url(#p01c222c4f6)" style="fill: #d3d3d3; opacity: 0.2"/>
   </g>
   <g id="patch_9">
    <path d="M 32.6736 190.0704 
L 691.150426 190.0704 
L 691.150426 205.0096 
L 32.6736 205.0096 
z
" clip-path="url(#p01c222c4f6)" style="fill: #d3d3d3; opacity: 0.2"/>
   </g>
   <g id="patch_10">
    <path d="M 32.6736 219.9488 
L 691.150426 219.9488 
L 691.150426 234.888 
L 32.6736 234.888 
z
" clip-path="url(#p01c222c4f6)" style="fill: #d3d3d3; opacity: 0.2"/>
   </g>
   <g id="patch_11">
    <path d="M 32.6736 249.8272 
L 691.150426 249.8272 
L 691.150426 264.7664 
L 32.6736 264.7664 
z
" clip-path="url(#p01c222c4f6)" style="fill: #d3d3d3; opacity: 0.2"/>
   </g>
   <g id="patch_12">
    <path d="M 32.6736 279.7056 
L 691.150426 279.7056 
L 691.150426 294.6448 
L 32.6736 294.6448 
z
" clip-path="url(#p01c222c4f6)" style="fill: #d3d3d3; opacity: 0.2"/>
   </g>
   <g id="patch_13">
    <path d="M 32.6736 309.584 
L 691.150426 309.584 
L 691.150426 324.5232 
L 32.6736 324.5232 
z
" clip-path="url(#p01c222c4f6)" style="fill: #d3d3d3; opacity: 0.2"/>
   </g>
   <g id="patch_14">
    <path d="M 32.6736 339.4624 
L 691.150426 339.4624 
L 691.150426 354.4016 
L 32.6736 354.4016 
z
" clip-path="url(#p01c222c4f6)" style="fill: #d3d3d3; opacity: 0.2"/>
   </g>
   <g id="patch_15">
    <path d="M 32.6736 369.3408 
L 691.150426 369.3408 
L 691.150426 384.28 
L 32.6736 384.28 
z
" clip-path="url(#p01c222c4f6)" style="fill: #d3d3d3; opacity: 0.2"/>
   </g>
   <g id="matplotlib.axis_1">
    <g id="xtick_1">
     <g id="line2d_1">
      <defs>
       <path id="m6ce094a5ef" d="M 0 0 
L 0 3.5 
" style="stroke: #000000; stroke-width: 0.8"/>
      </defs>
      <g>
       <use xlink:href="#m6ce094a5ef" x="32.6736" y="384.28" style="stroke: #000000; stroke-width: 0.8"/>
      </g>
     </g>
     <g id="text_1">
      <!-- 0 -->
      <g transform="translate(28.537975 401.157969) scale(0.13 -0.13)">
       <defs>
        <path id="DejaVuSans-30" d="M 2034 4250 
Q 1547 4250 1301 3770 
Q 1056 3291 1056 2328 
Q 1056 1369 1301 889 
Q 1547 409 2034 409 
Q 2525 409 2770 889 
Q 3016 1369 3016 2328 
Q 3016 3291 2770 3770 
Q 2525 4250 2034 4250 
z
M 2034 4750 
Q 2819 4750 3233 4129 
Q 3647 3509 3647 2328 
Q 3647 1150 3233 529 
Q 2819 -91 2034 -91 
Q 1250 -91 836 529 
Q 422 1150 422 2328 
Q 422 3509 836 4129 
Q 1250 4750 2034 4750 
z
" transform="scale(0.015625)"/>
       </defs>
       <use xlink:href="#DejaVuSans-30"/>
      </g>
     </g>
    </g>
    <g id="xtick_2">
     <g id="line2d_2">
      <g>
       <use xlink:href="#m6ce094a5ef" x="113.696957" y="384.28" style="stroke: #000000; stroke-width: 0.8"/>
      </g>
     </g>
     <g id="text_2">
      <!-- 100 -->
      <g transform="translate(101.290082 401.157969) scale(0.13 -0.13)">
       <defs>
        <path id="DejaVuSans-31" d="M 794 531 
L 1825 531 
L 1825 4091 
L 703 3866 
L 703 4441 
L 1819 4666 
L 2450 4666 
L 2450 531 
L 3481 531 
L 3481 0 
L 794 0 
L 794 531 
z
" transform="scale(0.015625)"/>
       </defs>
       <use xlink:href="#DejaVuSans-31"/>
       <use xlink:href="#DejaVuSans-30" transform="translate(63.623047 0)"/>
       <use xlink:href="#DejaVuSans-30" transform="translate(127.246094 0)"/>
      </g>
     </g>
    </g>
    <g id="xtick_3">
     <g id="line2d_3">
      <g>
       <use xlink:href="#m6ce094a5ef" x="194.720315" y="384.28" style="stroke: #000000; stroke-width: 0.8"/>
      </g>
     </g>
     <g id="text_3">
      <!-- 200 -->
      <g transform="translate(182.31344 401.157969) scale(0.13 -0.13)">
       <defs>
        <path id="DejaVuSans-32" d="M 1228 531 
L 3431 531 
L 3431 0 
L 469 0 
L 469 531 
Q 828 903 1448 1529 
Q 2069 2156 2228 2338 
Q 2531 2678 2651 2914 
Q 2772 3150 2772 3378 
Q 2772 3750 2511 3984 
Q 2250 4219 1831 4219 
Q 1534 4219 1204 4116 
Q 875 4013 500 3803 
L 500 4441 
Q 881 4594 1212 4672 
Q 1544 4750 1819 4750 
Q 2544 4750 2975 4387 
Q 3406 4025 3406 3419 
Q 3406 3131 3298 2873 
Q 3191 2616 2906 2266 
Q 2828 2175 2409 1742 
Q 1991 1309 1228 531 
z
" transform="scale(0.015625)"/>
       </defs>
       <use xlink:href="#DejaVuSans-32"/>
       <use xlink:href="#DejaVuSans-30" transform="translate(63.623047 0)"/>
       <use xlink:href="#DejaVuSans-30" transform="translate(127.246094 0)"/>
      </g>
     </g>
    </g>
    <g id="xtick_4">
     <g id="line2d_4">
      <g>
       <use xlink:href="#m6ce094a5ef" x="275.743672" y="384.28" style="stroke: #000000; stroke-width: 0.8"/>
      </g>
     </g>
     <g id="text_4">
      <!-- 300 -->
      <g transform="translate(263.336797 401.157969) scale(0.13 -0.13)">
       <defs>
        <path id="DejaVuSans-33" d="M 2597 2516 
Q 3050 2419 3304 2112 
Q 3559 1806 3559 1356 
Q 3559 666 3084 287 
Q 2609 -91 1734 -91 
Q 1441 -91 1130 -33 
Q 819 25 488 141 
L 488 750 
Q 750 597 1062 519 
Q 1375 441 1716 441 
Q 2309 441 2620 675 
Q 2931 909 2931 1356 
Q 2931 1769 2642 2001 
Q 2353 2234 1838 2234 
L 1294 2234 
L 1294 2753 
L 1863 2753 
Q 2328 2753 2575 2939 
Q 2822 3125 2822 3475 
Q 2822 3834 2567 4026 
Q 2313 4219 1838 4219 
Q 1578 4219 1281 4162 
Q 984 4106 628 3988 
L 628 4550 
Q 988 4650 1302 4700 
Q 1616 4750 1894 4750 
Q 2613 4750 3031 4423 
Q 3450 4097 3450 3541 
Q 3450 3153 3228 2886 
Q 3006 2619 2597 2516 
z
" transform="scale(0.015625)"/>
       </defs>
       <use xlink:href="#DejaVuSans-33"/>
       <use xlink:href="#DejaVuSans-30" transform="translate(63.623047 0)"/>
       <use xlink:href="#DejaVuSans-30" transform="translate(127.246094 0)"/>
      </g>
     </g>
    </g>
    <g id="xtick_5">
     <g id="line2d_5">
      <g>
       <use xlink:href="#m6ce094a5ef" x="356.76703" y="384.28" style="stroke: #000000; stroke-width: 0.8"/>
      </g>
     </g>
     <g id="text_5">
      <!-- 400 -->
      <g transform="translate(344.360155 401.157969) scale(0.13 -0.13)">
       <defs>
        <path id="DejaVuSans-34" d="M 2419 4116 
L 825 1625 
L 2419 1625 
L 2419 4116 
z
M 2253 4666 
L 3047 4666 
L 3047 1625 
L 3713 1625 
L 3713 1100 
L 3047 1100 
L 3047 0 
L 2419 0 
L 2419 1100 
L 313 1100 
L 313 1709 
L 2253 4666 
z
" transform="scale(0.015625)"/>
       </defs>
       <use xlink:href="#DejaVuSans-34"/>
       <use xlink:href="#DejaVuSans-30" transform="translate(63.623047 0)"/>
       <use xlink:href="#DejaVuSans-30" transform="translate(127.246094 0)"/>
      </g>
     </g>
    </g>
    <g id="xtick_6">
     <g id="line2d_6">
      <g>
       <use xlink:href="#m6ce094a5ef" x="437.790387" y="384.28" style="stroke: #000000; stroke-width: 0.8"/>
      </g>
     </g>
     <g id="text_6">
      <!-- 500 -->
      <g transform="translate(425.383512 401.157969) scale(0.13 -0.13)">
       <defs>
        <path id="DejaVuSans-35" d="M 691 4666 
L 3169 4666 
L 3169 4134 
L 1269 4134 
L 1269 2991 
Q 1406 3038 1543 3061 
Q 1681 3084 1819 3084 
Q 2600 3084 3056 2656 
Q 3513 2228 3513 1497 
Q 3513 744 3044 326 
Q 2575 -91 1722 -91 
Q 1428 -91 1123 -41 
Q 819 9 494 109 
L 494 744 
Q 775 591 1075 516 
Q 1375 441 1709 441 
Q 2250 441 2565 725 
Q 2881 1009 2881 1497 
Q 2881 1984 2565 2268 
Q 2250 2553 1709 2553 
Q 1456 2553 1204 2497 
Q 953 2441 691 2322 
L 691 4666 
z
" transform="scale(0.015625)"/>
       </defs>
       <use xlink:href="#DejaVuSans-35"/>
       <use xlink:href="#DejaVuSans-30" transform="translate(63.623047 0)"/>
       <use xlink:href="#DejaVuSans-30" transform="translate(127.246094 0)"/>
      </g>
     </g>
    </g>
    <g id="xtick_7">
     <g id="line2d_7">
      <g>
       <use xlink:href="#m6ce094a5ef" x="518.813745" y="384.28" style="stroke: #000000; stroke-width: 0.8"/>
      </g>
     </g>
     <g id="text_7">
      <!-- 600 -->
      <g transform="translate(506.40687 401.157969) scale(0.13 -0.13)">
       <defs>
        <path id="DejaVuSans-36" d="M 2113 2584 
Q 1688 2584 1439 2293 
Q 1191 2003 1191 1497 
Q 1191 994 1439 701 
Q 1688 409 2113 409 
Q 2538 409 2786 701 
Q 3034 994 3034 1497 
Q 3034 2003 2786 2293 
Q 2538 2584 2113 2584 
z
M 3366 4563 
L 3366 3988 
Q 3128 4100 2886 4159 
Q 2644 4219 2406 4219 
Q 1781 4219 1451 3797 
Q 1122 3375 1075 2522 
Q 1259 2794 1537 2939 
Q 1816 3084 2150 3084 
Q 2853 3084 3261 2657 
Q 3669 2231 3669 1497 
Q 3669 778 3244 343 
Q 2819 -91 2113 -91 
Q 1303 -91 875 529 
Q 447 1150 447 2328 
Q 447 3434 972 4092 
Q 1497 4750 2381 4750 
Q 2619 4750 2861 4703 
Q 3103 4656 3366 4563 
z
" transform="scale(0.015625)"/>
       </defs>
       <use xlink:href="#DejaVuSans-36"/>
       <use xlink:href="#DejaVuSans-30" transform="translate(63.623047 0)"/>
       <use xlink:href="#DejaVuSans-30" transform="translate(127.246094 0)"/>
      </g>
     </g>
    </g>
    <g id="xtick_8">
     <g id="line2d_8">
      <g>
       <use xlink:href="#m6ce094a5ef" x="599.837102" y="384.28" style="stroke: #000000; stroke-width: 0.8"/>
      </g>
     </g>
     <g id="text_8">
      <!-- 700 -->
      <g transform="translate(587.430227 401.157969) scale(0.13 -0.13)">
       <defs>
        <path id="DejaVuSans-37" d="M 525 4666 
L 3525 4666 
L 3525 4397 
L 1831 0 
L 1172 0 
L 2766 4134 
L 525 4134 
L 525 4666 
z
" transform="scale(0.015625)"/>
       </defs>
       <use xlink:href="#DejaVuSans-37"/>
       <use xlink:href="#DejaVuSans-30" transform="translate(63.623047 0)"/>
       <use xlink:href="#DejaVuSans-30" transform="translate(127.246094 0)"/>
      </g>
     </g>
    </g>
    <g id="xtick_9">
     <g id="line2d_9">
      <g>
       <use xlink:href="#m6ce094a5ef" x="680.86046" y="384.28" style="stroke: #000000; stroke-width: 0.8"/>
      </g>
     </g>
     <g id="text_9">
      <!-- 800 -->
      <g transform="translate(668.453585 401.157969) scale(0.13 -0.13)">
       <defs>
        <path id="DejaVuSans-38" d="M 2034 2216 
Q 1584 2216 1326 1975 
Q 1069 1734 1069 1313 
Q 1069 891 1326 650 
Q 1584 409 2034 409 
Q 2484 409 2743 651 
Q 3003 894 3003 1313 
Q 3003 1734 2745 1975 
Q 2488 2216 2034 2216 
z
M 1403 2484 
Q 997 2584 770 2862 
Q 544 3141 544 3541 
Q 544 4100 942 4425 
Q 1341 4750 2034 4750 
Q 2731 4750 3128 4425 
Q 3525 4100 3525 3541 
Q 3525 3141 3298 2862 
Q 3072 2584 2669 2484 
Q 3125 2378 3379 2068 
Q 3634 1759 3634 1313 
Q 3634 634 3220 271 
Q 2806 -91 2034 -91 
Q 1263 -91 848 271 
Q 434 634 434 1313 
Q 434 1759 690 2068 
Q 947 2378 1403 2484 
z
M 1172 3481 
Q 1172 3119 1398 2916 
Q 1625 2713 2034 2713 
Q 2441 2713 2670 2916 
Q 2900 3119 2900 3481 
Q 2900 3844 2670 4047 
Q 2441 4250 2034 4250 
Q 1625 4250 1398 4047 
Q 1172 3844 1172 3481 
z
" transform="scale(0.015625)"/>
       </defs>
       <use xlink:href="#DejaVuSans-38"/>
       <use xlink:href="#DejaVuSans-30" transform="translate(63.623047 0)"/>
       <use xlink:href="#DejaVuSans-30" transform="translate(127.246094 0)"/>
      </g>
     </g>
    </g>
    <g id="text_10">
     <!-- Visualization Count -->
     <g transform="translate(290.970607 417.739531) scale(0.13 -0.13)">
      <defs>
       <path id="DejaVuSans-Bold-56" d="M 31 4666 
L 1241 4666 
L 2478 1222 
L 3713 4666 
L 4922 4666 
L 3194 0 
L 1759 0 
L 31 4666 
z
" transform="scale(0.015625)"/>
       <path id="DejaVuSans-Bold-69" d="M 538 3500 
L 1656 3500 
L 1656 0 
L 538 0 
L 538 3500 
z
M 538 4863 
L 1656 4863 
L 1656 3950 
L 538 3950 
L 538 4863 
z
" transform="scale(0.015625)"/>
       <path id="DejaVuSans-Bold-73" d="M 3272 3391 
L 3272 2541 
Q 2913 2691 2578 2766 
Q 2244 2841 1947 2841 
Q 1628 2841 1473 2761 
Q 1319 2681 1319 2516 
Q 1319 2381 1436 2309 
Q 1553 2238 1856 2203 
L 2053 2175 
Q 2913 2066 3209 1816 
Q 3506 1566 3506 1031 
Q 3506 472 3093 190 
Q 2681 -91 1863 -91 
Q 1516 -91 1145 -36 
Q 775 19 384 128 
L 384 978 
Q 719 816 1070 734 
Q 1422 653 1784 653 
Q 2113 653 2278 743 
Q 2444 834 2444 1013 
Q 2444 1163 2330 1236 
Q 2216 1309 1875 1350 
L 1678 1375 
Q 931 1469 631 1722 
Q 331 1975 331 2491 
Q 331 3047 712 3315 
Q 1094 3584 1881 3584 
Q 2191 3584 2531 3537 
Q 2872 3491 3272 3391 
z
" transform="scale(0.015625)"/>
       <path id="DejaVuSans-Bold-75" d="M 500 1363 
L 500 3500 
L 1625 3500 
L 1625 3150 
Q 1625 2866 1622 2436 
Q 1619 2006 1619 1863 
Q 1619 1441 1641 1255 
Q 1663 1069 1716 984 
Q 1784 875 1895 815 
Q 2006 756 2150 756 
Q 2500 756 2700 1025 
Q 2900 1294 2900 1772 
L 2900 3500 
L 4019 3500 
L 4019 0 
L 2900 0 
L 2900 506 
Q 2647 200 2364 54 
Q 2081 -91 1741 -91 
Q 1134 -91 817 281 
Q 500 653 500 1363 
z
" transform="scale(0.015625)"/>
       <path id="DejaVuSans-Bold-61" d="M 2106 1575 
Q 1756 1575 1579 1456 
Q 1403 1338 1403 1106 
Q 1403 894 1545 773 
Q 1688 653 1941 653 
Q 2256 653 2472 879 
Q 2688 1106 2688 1447 
L 2688 1575 
L 2106 1575 
z
M 3816 1997 
L 3816 0 
L 2688 0 
L 2688 519 
Q 2463 200 2181 54 
Q 1900 -91 1497 -91 
Q 953 -91 614 226 
Q 275 544 275 1050 
Q 275 1666 698 1953 
Q 1122 2241 2028 2241 
L 2688 2241 
L 2688 2328 
Q 2688 2594 2478 2717 
Q 2269 2841 1825 2841 
Q 1466 2841 1156 2769 
Q 847 2697 581 2553 
L 581 3406 
Q 941 3494 1303 3539 
Q 1666 3584 2028 3584 
Q 2975 3584 3395 3211 
Q 3816 2838 3816 1997 
z
" transform="scale(0.015625)"/>
       <path id="DejaVuSans-Bold-6c" d="M 538 4863 
L 1656 4863 
L 1656 0 
L 538 0 
L 538 4863 
z
" transform="scale(0.015625)"/>
       <path id="DejaVuSans-Bold-7a" d="M 366 3500 
L 3419 3500 
L 3419 2719 
L 1575 800 
L 3419 800 
L 3419 0 
L 288 0 
L 288 781 
L 2131 2700 
L 366 2700 
L 366 3500 
z
" transform="scale(0.015625)"/>
       <path id="DejaVuSans-Bold-74" d="M 1759 4494 
L 1759 3500 
L 2913 3500 
L 2913 2700 
L 1759 2700 
L 1759 1216 
Q 1759 972 1856 886 
Q 1953 800 2241 800 
L 2816 800 
L 2816 0 
L 1856 0 
Q 1194 0 917 276 
Q 641 553 641 1216 
L 641 2700 
L 84 2700 
L 84 3500 
L 641 3500 
L 641 4494 
L 1759 4494 
z
" transform="scale(0.015625)"/>
       <path id="DejaVuSans-Bold-6f" d="M 2203 2784 
Q 1831 2784 1636 2517 
Q 1441 2250 1441 1747 
Q 1441 1244 1636 976 
Q 1831 709 2203 709 
Q 2569 709 2762 976 
Q 2956 1244 2956 1747 
Q 2956 2250 2762 2517 
Q 2569 2784 2203 2784 
z
M 2203 3584 
Q 3106 3584 3614 3096 
Q 4122 2609 4122 1747 
Q 4122 884 3614 396 
Q 3106 -91 2203 -91 
Q 1297 -91 786 396 
Q 275 884 275 1747 
Q 275 2609 786 3096 
Q 1297 3584 2203 3584 
z
" transform="scale(0.015625)"/>
       <path id="DejaVuSans-Bold-6e" d="M 4056 2131 
L 4056 0 
L 2931 0 
L 2931 347 
L 2931 1631 
Q 2931 2084 2911 2256 
Q 2891 2428 2841 2509 
Q 2775 2619 2662 2680 
Q 2550 2741 2406 2741 
Q 2056 2741 1856 2470 
Q 1656 2200 1656 1722 
L 1656 0 
L 538 0 
L 538 3500 
L 1656 3500 
L 1656 2988 
Q 1909 3294 2193 3439 
Q 2478 3584 2822 3584 
Q 3428 3584 3742 3212 
Q 4056 2841 4056 2131 
z
" transform="scale(0.015625)"/>
       <path id="DejaVuSans-Bold-20" transform="scale(0.015625)"/>
       <path id="DejaVuSans-Bold-43" d="M 4288 256 
Q 3956 84 3597 -3 
Q 3238 -91 2847 -91 
Q 1681 -91 1000 561 
Q 319 1213 319 2328 
Q 319 3447 1000 4098 
Q 1681 4750 2847 4750 
Q 3238 4750 3597 4662 
Q 3956 4575 4288 4403 
L 4288 3438 
Q 3953 3666 3628 3772 
Q 3303 3878 2944 3878 
Q 2300 3878 1931 3465 
Q 1563 3053 1563 2328 
Q 1563 1606 1931 1193 
Q 2300 781 2944 781 
Q 3303 781 3628 887 
Q 3953 994 4288 1222 
L 4288 256 
z
" transform="scale(0.015625)"/>
      </defs>
      <use xlink:href="#DejaVuSans-Bold-56"/>
      <use xlink:href="#DejaVuSans-Bold-69" transform="translate(75.642578 0)"/>
      <use xlink:href="#DejaVuSans-Bold-73" transform="translate(109.919922 0)"/>
      <use xlink:href="#DejaVuSans-Bold-75" transform="translate(169.441406 0)"/>
      <use xlink:href="#DejaVuSans-Bold-61" transform="translate(240.632812 0)"/>
      <use xlink:href="#DejaVuSans-Bold-6c" transform="translate(308.113281 0)"/>
      <use xlink:href="#DejaVuSans-Bold-69" transform="translate(342.390625 0)"/>
      <use xlink:href="#DejaVuSans-Bold-7a" transform="translate(376.667969 0)"/>
      <use xlink:href="#DejaVuSans-Bold-61" transform="translate(434.871094 0)"/>
      <use xlink:href="#DejaVuSans-Bold-74" transform="translate(502.351562 0)"/>
      <use xlink:href="#DejaVuSans-Bold-69" transform="translate(550.154297 0)"/>
      <use xlink:href="#DejaVuSans-Bold-6f" transform="translate(584.431641 0)"/>
      <use xlink:href="#DejaVuSans-Bold-6e" transform="translate(653.132812 0)"/>
      <use xlink:href="#DejaVuSans-Bold-20" transform="translate(724.324219 0)"/>
      <use xlink:href="#DejaVuSans-Bold-43" transform="translate(759.138672 0)"/>
      <use xlink:href="#DejaVuSans-Bold-6f" transform="translate(832.527344 0)"/>
      <use xlink:href="#DejaVuSans-Bold-75" transform="translate(901.228516 0)"/>
      <use xlink:href="#DejaVuSans-Bold-6e" transform="translate(972.419922 0)"/>
      <use xlink:href="#DejaVuSans-Bold-74" transform="translate(1043.611328 0)"/>
     </g>
    </g>
   </g>
   <g id="matplotlib.axis_2">
    <g id="ytick_1">
     <g id="line2d_10">
      <defs>
       <path id="m4c814b5c87" d="M 0 0 
L -3.5 0 
" style="stroke: #000000; stroke-width: 0.8"/>
      </defs>
      <g>
       <use xlink:href="#m4c814b5c87" x="32.6736" y="18.2696" style="stroke: #000000; stroke-width: 0.8"/>
      </g>
     </g>
    </g>
    <g id="ytick_2">
     <g id="line2d_11">
      <g>
       <use xlink:href="#m4c814b5c87" x="32.6736" y="33.2088" style="stroke: #000000; stroke-width: 0.8"/>
      </g>
     </g>
    </g>
    <g id="ytick_3">
     <g id="line2d_12">
      <g>
       <use xlink:href="#m4c814b5c87" x="32.6736" y="48.148" style="stroke: #000000; stroke-width: 0.8"/>
      </g>
     </g>
    </g>
    <g id="ytick_4">
     <g id="line2d_13">
      <g>
       <use xlink:href="#m4c814b5c87" x="32.6736" y="63.0872" style="stroke: #000000; stroke-width: 0.8"/>
      </g>
     </g>
    </g>
    <g id="ytick_5">
     <g id="line2d_14">
      <g>
       <use xlink:href="#m4c814b5c87" x="32.6736" y="78.0264" style="stroke: #000000; stroke-width: 0.8"/>
      </g>
     </g>
    </g>
    <g id="ytick_6">
     <g id="line2d_15">
      <g>
       <use xlink:href="#m4c814b5c87" x="32.6736" y="92.9656" style="stroke: #000000; stroke-width: 0.8"/>
      </g>
     </g>
    </g>
    <g id="ytick_7">
     <g id="line2d_16">
      <g>
       <use xlink:href="#m4c814b5c87" x="32.6736" y="107.9048" style="stroke: #000000; stroke-width: 0.8"/>
      </g>
     </g>
    </g>
    <g id="ytick_8">
     <g id="line2d_17">
      <g>
       <use xlink:href="#m4c814b5c87" x="32.6736" y="122.844" style="stroke: #000000; stroke-width: 0.8"/>
      </g>
     </g>
    </g>
    <g id="ytick_9">
     <g id="line2d_18">
      <g>
       <use xlink:href="#m4c814b5c87" x="32.6736" y="137.7832" style="stroke: #000000; stroke-width: 0.8"/>
      </g>
     </g>
    </g>
    <g id="ytick_10">
     <g id="line2d_19">
      <g>
       <use xlink:href="#m4c814b5c87" x="32.6736" y="152.7224" style="stroke: #000000; stroke-width: 0.8"/>
      </g>
     </g>
    </g>
    <g id="ytick_11">
     <g id="line2d_20">
      <g>
       <use xlink:href="#m4c814b5c87" x="32.6736" y="167.6616" style="stroke: #000000; stroke-width: 0.8"/>
      </g>
     </g>
    </g>
    <g id="ytick_12">
     <g id="line2d_21">
      <g>
       <use xlink:href="#m4c814b5c87" x="32.6736" y="182.6008" style="stroke: #000000; stroke-width: 0.8"/>
      </g>
     </g>
    </g>
    <g id="ytick_13">
     <g id="line2d_22">
      <g>
       <use xlink:href="#m4c814b5c87" x="32.6736" y="197.54" style="stroke: #000000; stroke-width: 0.8"/>
      </g>
     </g>
    </g>
    <g id="ytick_14">
     <g id="line2d_23">
      <g>
       <use xlink:href="#m4c814b5c87" x="32.6736" y="212.4792" style="stroke: #000000; stroke-width: 0.8"/>
      </g>
     </g>
    </g>
    <g id="ytick_15">
     <g id="line2d_24">
      <g>
       <use xlink:href="#m4c814b5c87" x="32.6736" y="227.4184" style="stroke: #000000; stroke-width: 0.8"/>
      </g>
     </g>
    </g>
    <g id="ytick_16">
     <g id="line2d_25">
      <g>
       <use xlink:href="#m4c814b5c87" x="32.6736" y="242.3576" style="stroke: #000000; stroke-width: 0.8"/>
      </g>
     </g>
    </g>
    <g id="ytick_17">
     <g id="line2d_26">
      <g>
       <use xlink:href="#m4c814b5c87" x="32.6736" y="257.2968" style="stroke: #000000; stroke-width: 0.8"/>
      </g>
     </g>
    </g>
    <g id="ytick_18">
     <g id="line2d_27">
      <g>
       <use xlink:href="#m4c814b5c87" x="32.6736" y="272.236" style="stroke: #000000; stroke-width: 0.8"/>
      </g>
     </g>
    </g>
    <g id="ytick_19">
     <g id="line2d_28">
      <g>
       <use xlink:href="#m4c814b5c87" x="32.6736" y="287.1752" style="stroke: #000000; stroke-width: 0.8"/>
      </g>
     </g>
    </g>
    <g id="ytick_20">
     <g id="line2d_29">
      <g>
       <use xlink:href="#m4c814b5c87" x="32.6736" y="302.1144" style="stroke: #000000; stroke-width: 0.8"/>
      </g>
     </g>
    </g>
    <g id="ytick_21">
     <g id="line2d_30">
      <g>
       <use xlink:href="#m4c814b5c87" x="32.6736" y="317.0536" style="stroke: #000000; stroke-width: 0.8"/>
      </g>
     </g>
    </g>
    <g id="ytick_22">
     <g id="line2d_31">
      <g>
       <use xlink:href="#m4c814b5c87" x="32.6736" y="331.9928" style="stroke: #000000; stroke-width: 0.8"/>
      </g>
     </g>
    </g>
    <g id="ytick_23">
     <g id="line2d_32">
      <g>
       <use xlink:href="#m4c814b5c87" x="32.6736" y="346.932" style="stroke: #000000; stroke-width: 0.8"/>
      </g>
     </g>
    </g>
    <g id="ytick_24">
     <g id="line2d_33">
      <g>
       <use xlink:href="#m4c814b5c87" x="32.6736" y="361.8712" style="stroke: #000000; stroke-width: 0.8"/>
      </g>
     </g>
    </g>
    <g id="ytick_25">
     <g id="line2d_34">
      <g>
       <use xlink:href="#m4c814b5c87" x="32.6736" y="376.8104" style="stroke: #000000; stroke-width: 0.8"/>
      </g>
     </g>
    </g>
   </g>
   <g id="patch_16">
    <path d="M 32.6736 384.28 
L 32.6736 10.8 
" style="fill: none; stroke: #000000; stroke-width: 0.8; stroke-linejoin: miter; stroke-linecap: square"/>
   </g>
   <g id="patch_17">
    <path d="M 691.150426 384.28 
L 691.150426 10.8 
" style="fill: none; stroke: #000000; stroke-width: 0.8; stroke-linejoin: miter; stroke-linecap: square"/>
   </g>
   <g id="patch_18">
    <path d="M 32.6736 384.28 
L 691.150426 384.28 
" style="fill: none; stroke: #000000; stroke-width: 0.8; stroke-linejoin: miter; stroke-linecap: square"/>
   </g>
   <g id="patch_19">
    <path d="M 32.6736 10.8 
L 691.150426 10.8 
" style="fill: none; stroke: #000000; stroke-width: 0.8; stroke-linejoin: miter; stroke-linecap: square"/>
   </g>
   <g id="patch_20">
    <path d="M 32.6736 12.29392 
L 659.794387 12.29392 
L 659.794387 24.24528 
L 32.6736 24.24528 
z
" clip-path="url(#p01c222c4f6)" style="fill: #4682b4"/>
   </g>
   <g id="patch_21">
    <path d="M 32.6736 27.23312 
L 338.131658 27.23312 
L 338.131658 39.18448 
L 32.6736 39.18448 
z
" clip-path="url(#p01c222c4f6)" style="fill: #4682b4"/>
   </g>
   <g id="patch_22">
    <path d="M 32.6736 42.17232 
L 422.39595 42.17232 
L 422.39595 54.12368 
L 32.6736 54.12368 
z
" clip-path="url(#p01c222c4f6)" style="fill: #4682b4"/>
   </g>
   <g id="patch_23">
    <path d="M 32.6736 57.11152 
L 32.6736 57.11152 
L 32.6736 69.06288 
L 32.6736 69.06288 
z
" clip-path="url(#p01c222c4f6)" style="fill: #4682b4"/>
   </g>
   <g id="patch_24">
    <path d="M 32.6736 72.05072 
L 311.39395 72.05072 
L 311.39395 84.00208 
L 32.6736 84.00208 
z
" clip-path="url(#p01c222c4f6)" style="fill: #4682b4"/>
   </g>
   <g id="patch_25">
    <path d="M 32.6736 86.98992 
L 144.485833 86.98992 
L 144.485833 98.94128 
L 32.6736 98.94128 
z
" clip-path="url(#p01c222c4f6)" style="fill: #4682b4"/>
   </g>
   <g id="patch_26">
    <path d="M 32.6736 101.92912 
L 274.933439 101.92912 
L 274.933439 113.88048 
L 32.6736 113.88048 
z
" clip-path="url(#p01c222c4f6)" style="fill: #4682b4"/>
   </g>
   <g id="patch_27">
    <path d="M 32.6736 116.86832 
L 233.611527 116.86832 
L 233.611527 128.81968 
L 32.6736 128.81968 
z
" clip-path="url(#p01c222c4f6)" style="fill: #4682b4"/>
   </g>
   <g id="patch_28">
    <path d="M 32.6736 131.80752 
L 219.837556 131.80752 
L 219.837556 143.75888 
L 32.6736 143.75888 
z
" clip-path="url(#p01c222c4f6)" style="fill: #4682b4"/>
   </g>
   <g id="patch_29">
    <path d="M 32.6736 146.74672 
L 163.931439 146.74672 
L 163.931439 158.69808 
L 32.6736 158.69808 
z
" clip-path="url(#p01c222c4f6)" style="fill: #4682b4"/>
   </g>
   <g id="patch_30">
    <path d="M 32.6736 161.68592 
L 157.449571 161.68592 
L 157.449571 173.63728 
L 32.6736 173.63728 
z
" clip-path="url(#p01c222c4f6)" style="fill: #4682b4"/>
   </g>
   <g id="patch_31">
    <path d="M 32.6736 176.62512 
L 44.827104 176.62512 
L 44.827104 188.57648 
L 32.6736 188.57648 
z
" clip-path="url(#p01c222c4f6)" style="fill: #4682b4"/>
   </g>
   <g id="patch_32">
    <path d="M 32.6736 191.56432 
L 123.41976 191.56432 
L 123.41976 203.51568 
L 32.6736 203.51568 
z
" clip-path="url(#p01c222c4f6)" style="fill: #4682b4"/>
   </g>
   <g id="patch_33">
    <path d="M 32.6736 206.50352 
L 56.980607 206.50352 
L 56.980607 218.45488 
L 32.6736 218.45488 
z
" clip-path="url(#p01c222c4f6)" style="fill: #4682b4"/>
   </g>
   <g id="patch_34">
    <path d="M 32.6736 221.44272 
L 32.6736 221.44272 
L 32.6736 233.39408 
L 32.6736 233.39408 
z
" clip-path="url(#p01c222c4f6)" style="fill: #4682b4"/>
   </g>
   <g id="patch_35">
    <path d="M 32.6736 236.38192 
L 39.965702 236.38192 
L 39.965702 248.33328 
L 32.6736 248.33328 
z
" clip-path="url(#p01c222c4f6)" style="fill: #4682b4"/>
   </g>
   <g id="patch_36">
    <path d="M 32.6736 251.32112 
L 32.6736 251.32112 
L 32.6736 263.27248 
L 32.6736 263.27248 
z
" clip-path="url(#p01c222c4f6)" style="fill: #4682b4"/>
   </g>
   <g id="patch_37">
    <path d="M 32.6736 266.26032 
L 44.827104 266.26032 
L 44.827104 278.21168 
L 32.6736 278.21168 
z
" clip-path="url(#p01c222c4f6)" style="fill: #4682b4"/>
   </g>
   <g id="patch_38">
    <path d="M 32.6736 281.19952 
L 32.6736 281.19952 
L 32.6736 293.15088 
L 32.6736 293.15088 
z
" clip-path="url(#p01c222c4f6)" style="fill: #4682b4"/>
   </g>
   <g id="patch_39">
    <path d="M 32.6736 296.13872 
L 32.6736 296.13872 
L 32.6736 308.09008 
L 32.6736 308.09008 
z
" clip-path="url(#p01c222c4f6)" style="fill: #4682b4"/>
   </g>
   <g id="patch_40">
    <path d="M 32.6736 311.07792 
L 32.6736 311.07792 
L 32.6736 323.02928 
L 32.6736 323.02928 
z
" clip-path="url(#p01c222c4f6)" style="fill: #4682b4"/>
   </g>
   <g id="patch_41">
    <path d="M 32.6736 326.01712 
L 41.586169 326.01712 
L 41.586169 337.96848 
L 32.6736 337.96848 
z
" clip-path="url(#p01c222c4f6)" style="fill: #4682b4"/>
   </g>
   <g id="patch_42">
    <path d="M 32.6736 340.95632 
L 32.6736 340.95632 
L 32.6736 352.90768 
L 32.6736 352.90768 
z
" clip-path="url(#p01c222c4f6)" style="fill: #4682b4"/>
   </g>
   <g id="patch_43">
    <path d="M 32.6736 355.89552 
L 43.206636 355.89552 
L 43.206636 367.84688 
L 32.6736 367.84688 
z
" clip-path="url(#p01c222c4f6)" style="fill: #4682b4"/>
   </g>
   <g id="patch_44">
    <path d="M 32.6736 370.83472 
L 35.104301 370.83472 
L 35.104301 382.78608 
L 32.6736 382.78608 
z
" clip-path="url(#p01c222c4f6)" style="fill: #4682b4"/>
   </g>
   <g id="text_11">
    <!-- 774 -->
    <g style="fill: #ffffff" transform="translate(624.757196 21.856788) scale(0.13 -0.13)">
     <defs>
      <path id="DejaVuSans-Bold-37" d="M 428 4666 
L 3944 4666 
L 3944 3988 
L 2125 0 
L 953 0 
L 2675 3781 
L 428 3781 
L 428 4666 
z
" transform="scale(0.015625)"/>
      <path id="DejaVuSans-Bold-34" d="M 2356 3675 
L 1038 1722 
L 2356 1722 
L 2356 3675 
z
M 2156 4666 
L 3494 4666 
L 3494 1722 
L 4159 1722 
L 4159 850 
L 3494 850 
L 3494 0 
L 2356 0 
L 2356 850 
L 288 850 
L 288 1881 
L 2156 4666 
z
" transform="scale(0.015625)"/>
     </defs>
     <use xlink:href="#DejaVuSans-Bold-37"/>
     <use xlink:href="#DejaVuSans-Bold-37" transform="translate(69.580078 0)"/>
     <use xlink:href="#DejaVuSans-Bold-34" transform="translate(139.160156 0)"/>
    </g>
   </g>
   <g id="text_12">
    <!-- 377 -->
    <g transform="translate(346.03338 36.795988) scale(0.13 -0.13)">
     <use xlink:href="#DejaVuSans-33"/>
     <use xlink:href="#DejaVuSans-37" transform="translate(63.623047 0)"/>
     <use xlink:href="#DejaVuSans-37" transform="translate(127.246094 0)"/>
    </g>
   </g>
   <g id="text_13">
    <!-- 481 -->
    <g transform="translate(430.297671 51.735188) scale(0.13 -0.13)">
     <use xlink:href="#DejaVuSans-34"/>
     <use xlink:href="#DejaVuSans-38" transform="translate(63.623047 0)"/>
     <use xlink:href="#DejaVuSans-31" transform="translate(127.246094 0)"/>
    </g>
   </g>
   <g id="text_14">
    <!-- 0 -->
    <g transform="translate(40.575322 66.674388) scale(0.13 -0.13)">
     <use xlink:href="#DejaVuSans-30"/>
    </g>
   </g>
   <g id="text_15">
    <!-- 344 -->
    <g transform="translate(319.295672 81.613588) scale(0.13 -0.13)">
     <use xlink:href="#DejaVuSans-33"/>
     <use xlink:href="#DejaVuSans-34" transform="translate(63.623047 0)"/>
     <use xlink:href="#DejaVuSans-34" transform="translate(127.246094 0)"/>
    </g>
   </g>
   <g id="text_16">
    <!-- 138 -->
    <g transform="translate(152.387555 96.552788) scale(0.13 -0.13)">
     <use xlink:href="#DejaVuSans-31"/>
     <use xlink:href="#DejaVuSans-33" transform="translate(63.623047 0)"/>
     <use xlink:href="#DejaVuSans-38" transform="translate(127.246094 0)"/>
    </g>
   </g>
   <g id="text_17">
    <!-- 299 -->
    <g transform="translate(282.835161 111.491988) scale(0.13 -0.13)">
     <defs>
      <path id="DejaVuSans-39" d="M 703 97 
L 703 672 
Q 941 559 1184 500 
Q 1428 441 1663 441 
Q 2288 441 2617 861 
Q 2947 1281 2994 2138 
Q 2813 1869 2534 1725 
Q 2256 1581 1919 1581 
Q 1219 1581 811 2004 
Q 403 2428 403 3163 
Q 403 3881 828 4315 
Q 1253 4750 1959 4750 
Q 2769 4750 3195 4129 
Q 3622 3509 3622 2328 
Q 3622 1225 3098 567 
Q 2575 -91 1691 -91 
Q 1453 -91 1209 -44 
Q 966 3 703 97 
z
M 1959 2075 
Q 2384 2075 2632 2365 
Q 2881 2656 2881 3163 
Q 2881 3666 2632 3958 
Q 2384 4250 1959 4250 
Q 1534 4250 1286 3958 
Q 1038 3666 1038 3163 
Q 1038 2656 1286 2365 
Q 1534 2075 1959 2075 
z
" transform="scale(0.015625)"/>
     </defs>
     <use xlink:href="#DejaVuSans-32"/>
     <use xlink:href="#DejaVuSans-39" transform="translate(63.623047 0)"/>
     <use xlink:href="#DejaVuSans-39" transform="translate(127.246094 0)"/>
    </g>
   </g>
   <g id="text_18">
    <!-- 248 -->
    <g transform="translate(241.513249 126.431188) scale(0.13 -0.13)">
     <use xlink:href="#DejaVuSans-32"/>
     <use xlink:href="#DejaVuSans-34" transform="translate(63.623047 0)"/>
     <use xlink:href="#DejaVuSans-38" transform="translate(127.246094 0)"/>
    </g>
   </g>
   <g id="text_19">
    <!-- 231 -->
    <g transform="translate(227.739278 141.370388) scale(0.13 -0.13)">
     <use xlink:href="#DejaVuSans-32"/>
     <use xlink:href="#DejaVuSans-33" transform="translate(63.623047 0)"/>
     <use xlink:href="#DejaVuSans-31" transform="translate(127.246094 0)"/>
    </g>
   </g>
   <g id="text_20">
    <!-- 162 -->
    <g transform="translate(171.833161 156.309588) scale(0.13 -0.13)">
     <use xlink:href="#DejaVuSans-31"/>
     <use xlink:href="#DejaVuSans-36" transform="translate(63.623047 0)"/>
     <use xlink:href="#DejaVuSans-32" transform="translate(127.246094 0)"/>
    </g>
   </g>
   <g id="text_21">
    <!-- 154 -->
    <g transform="translate(165.351292 171.248788) scale(0.13 -0.13)">
     <use xlink:href="#DejaVuSans-31"/>
     <use xlink:href="#DejaVuSans-35" transform="translate(63.623047 0)"/>
     <use xlink:href="#DejaVuSans-34" transform="translate(127.246094 0)"/>
    </g>
   </g>
   <g id="text_22">
    <!-- 15 -->
    <g transform="translate(52.728826 186.187988) scale(0.13 -0.13)">
     <use xlink:href="#DejaVuSans-31"/>
     <use xlink:href="#DejaVuSans-35" transform="translate(63.623047 0)"/>
    </g>
   </g>
   <g id="text_23">
    <!-- 112 -->
    <g transform="translate(131.321482 201.127188) scale(0.13 -0.13)">
     <use xlink:href="#DejaVuSans-31"/>
     <use xlink:href="#DejaVuSans-31" transform="translate(63.623047 0)"/>
     <use xlink:href="#DejaVuSans-32" transform="translate(127.246094 0)"/>
    </g>
   </g>
   <g id="text_24">
    <!-- 30 -->
    <g transform="translate(64.882329 216.066388) scale(0.13 -0.13)">
     <use xlink:href="#DejaVuSans-33"/>
     <use xlink:href="#DejaVuSans-30" transform="translate(63.623047 0)"/>
    </g>
   </g>
   <g id="text_25">
    <!-- 0 -->
    <g transform="translate(40.575322 231.005588) scale(0.13 -0.13)">
     <use xlink:href="#DejaVuSans-30"/>
    </g>
   </g>
   <g id="text_26">
    <!-- 9 -->
    <g transform="translate(47.867424 245.944788) scale(0.13 -0.13)">
     <use xlink:href="#DejaVuSans-39"/>
    </g>
   </g>
   <g id="text_27">
    <!-- 0 -->
    <g transform="translate(40.575322 260.883987) scale(0.13 -0.13)">
     <use xlink:href="#DejaVuSans-30"/>
    </g>
   </g>
   <g id="text_28">
    <!-- 15 -->
    <g transform="translate(52.728826 275.823188) scale(0.13 -0.13)">
     <use xlink:href="#DejaVuSans-31"/>
     <use xlink:href="#DejaVuSans-35" transform="translate(63.623047 0)"/>
    </g>
   </g>
   <g id="text_29">
    <!-- 0 -->
    <g transform="translate(40.575322 290.762388) scale(0.13 -0.13)">
     <use xlink:href="#DejaVuSans-30"/>
    </g>
   </g>
   <g id="text_30">
    <!-- 0 -->
    <g transform="translate(40.575322 305.701587) scale(0.13 -0.13)">
     <use xlink:href="#DejaVuSans-30"/>
    </g>
   </g>
   <g id="text_31">
    <!-- 0 -->
    <g transform="translate(40.575322 320.640787) scale(0.13 -0.13)">
     <use xlink:href="#DejaVuSans-30"/>
    </g>
   </g>
   <g id="text_32">
    <!-- 11 -->
    <g transform="translate(49.487891 335.579988) scale(0.13 -0.13)">
     <use xlink:href="#DejaVuSans-31"/>
     <use xlink:href="#DejaVuSans-31" transform="translate(63.623047 0)"/>
    </g>
   </g>
   <g id="text_33">
    <!-- 0 -->
    <g transform="translate(40.575322 350.519188) scale(0.13 -0.13)">
     <use xlink:href="#DejaVuSans-30"/>
    </g>
   </g>
   <g id="text_34">
    <!-- 13 -->
    <g transform="translate(51.108358 365.458387) scale(0.13 -0.13)">
     <use xlink:href="#DejaVuSans-31"/>
     <use xlink:href="#DejaVuSans-33" transform="translate(63.623047 0)"/>
    </g>
   </g>
   <g id="text_35">
    <!-- 3 -->
    <g transform="translate(43.006023 380.397587) scale(0.13 -0.13)">
     <use xlink:href="#DejaVuSans-33"/>
    </g>
   </g>
   <g id="text_36">
    <!-- i -->
    <g transform="translate(6.334527 25.996875) scale(0.2 -0.2)">
     <use xlink:href="#DejaVuSans-Bold-69"/>
    </g>
   </g>
  </g>
 </g>
 <defs>
  <clipPath id="p01c222c4f6">
   <rect x="32.6736" y="10.8" width="658.476826" height="373.48"/>
  </clipPath>
 </defs>
</svg>
