<?xml version="1.0" encoding="utf-8" standalone="no"?>
<!DOCTYPE svg PUBLIC "-//W3C//DTD SVG 1.1//EN"
  "http://www.w3.org/Graphics/SVG/1.1/DTD/svg11.dtd">
<svg xmlns:xlink="http://www.w3.org/1999/xlink" width="1461.214286pt" height="1016.510937pt" viewBox="0 0 1461.214286 1016.510937" xmlns="http://www.w3.org/2000/svg" version="1.1">
 <metadata>
  <rdf:RDF xmlns:dc="http://purl.org/dc/elements/1.1/" xmlns:cc="http://creativecommons.org/ns#" xmlns:rdf="http://www.w3.org/1999/02/22-rdf-syntax-ns#">
   <cc:Work>
    <dc:type rdf:resource="http://purl.org/dc/dcmitype/StillImage"/>
    <dc:date>2025-09-05T15:30:35.179964</dc:date>
    <dc:format>image/svg+xml</dc:format>
    <dc:creator>
     <cc:Agent>
      <dc:title>Matplotlib v3.10.5, https://matplotlib.org/</dc:title>
     </cc:Agent>
    </dc:creator>
   </cc:Work>
  </rdf:RDF>
 </metadata>
 <defs>
  <style type="text/css">*{stroke-linejoin: round; stroke-linecap: butt}</style>
 </defs>
 <g id="figure_1">
  <g id="patch_1">
   <path d="M 0 1016.510937 
L 1461.214286 1016.510937 
L 1461.214286 0 
L 0 0 
z
" style="fill: #ffffff"/>
  </g>
  <g id="axes_1">
   <g id="patch_2">
    <path d="M 59.014286 932.544 
L 457.585714 932.544 
L 457.585714 7.2 
L 59.014286 7.2 
z
" style="fill: #ffffff"/>
   </g>
   <g id="patch_3">
    <path d="M 59.014286 932.544 
L 457.585714 932.544 
L 457.585714 898.272 
L 59.014286 898.272 
z
" clip-path="url(#p674ab900d4)" style="fill: #d3d3d3; opacity: 0.2"/>
   </g>
   <g id="patch_4">
    <path d="M 59.014286 864 
L 457.585714 864 
L 457.585714 829.728 
L 59.014286 829.728 
z
" clip-path="url(#p674ab900d4)" style="fill: #d3d3d3; opacity: 0.2"/>
   </g>
   <g id="patch_5">
    <path d="M 59.014286 795.456 
L 457.585714 795.456 
L 457.585714 761.184 
L 59.014286 761.184 
z
" clip-path="url(#p674ab900d4)" style="fill: #d3d3d3; opacity: 0.2"/>
   </g>
   <g id="patch_6">
    <path d="M 59.014286 726.912 
L 457.585714 726.912 
L 457.585714 692.64 
L 59.014286 692.64 
z
" clip-path="url(#p674ab900d4)" style="fill: #d3d3d3; opacity: 0.2"/>
   </g>
   <g id="patch_7">
    <path d="M 59.014286 658.368 
L 457.585714 658.368 
L 457.585714 624.096 
L 59.014286 624.096 
z
" clip-path="url(#p674ab900d4)" style="fill: #d3d3d3; opacity: 0.2"/>
   </g>
   <g id="patch_8">
    <path d="M 59.014286 589.824 
L 457.585714 589.824 
L 457.585714 555.552 
L 59.014286 555.552 
z
" clip-path="url(#p674ab900d4)" style="fill: #d3d3d3; opacity: 0.2"/>
   </g>
   <g id="patch_9">
    <path d="M 59.014286 521.28 
L 457.585714 521.28 
L 457.585714 487.008 
L 59.014286 487.008 
z
" clip-path="url(#p674ab900d4)" style="fill: #d3d3d3; opacity: 0.2"/>
   </g>
   <g id="patch_10">
    <path d="M 59.014286 452.736 
L 457.585714 452.736 
L 457.585714 418.464 
L 59.014286 418.464 
z
" clip-path="url(#p674ab900d4)" style="fill: #d3d3d3; opacity: 0.2"/>
   </g>
   <g id="patch_11">
    <path d="M 59.014286 384.192 
L 457.585714 384.192 
L 457.585714 349.92 
L 59.014286 349.92 
z
" clip-path="url(#p674ab900d4)" style="fill: #d3d3d3; opacity: 0.2"/>
   </g>
   <g id="patch_12">
    <path d="M 59.014286 315.648 
L 457.585714 315.648 
L 457.585714 281.376 
L 59.014286 281.376 
z
" clip-path="url(#p674ab900d4)" style="fill: #d3d3d3; opacity: 0.2"/>
   </g>
   <g id="patch_13">
    <path d="M 59.014286 247.104 
L 457.585714 247.104 
L 457.585714 212.832 
L 59.014286 212.832 
z
" clip-path="url(#p674ab900d4)" style="fill: #d3d3d3; opacity: 0.2"/>
   </g>
   <g id="patch_14">
    <path d="M 59.014286 178.56 
L 457.585714 178.56 
L 457.585714 144.288 
L 59.014286 144.288 
z
" clip-path="url(#p674ab900d4)" style="fill: #d3d3d3; opacity: 0.2"/>
   </g>
   <g id="patch_15">
    <path d="M 59.014286 110.016 
L 457.585714 110.016 
L 457.585714 75.744 
L 59.014286 75.744 
z
" clip-path="url(#p674ab900d4)" style="fill: #d3d3d3; opacity: 0.2"/>
   </g>
   <g id="patch_16">
    <path d="M 59.014286 41.472 
L 457.585714 41.472 
L 457.585714 7.2 
L 59.014286 7.2 
z
" clip-path="url(#p674ab900d4)" style="fill: #d3d3d3; opacity: 0.2"/>
   </g>
   <g id="matplotlib.axis_1">
    <g id="xtick_1">
     <g id="line2d_1">
      <defs>
       <path id="m906268c38b" d="M 0 0 
L 0 3.5 
" style="stroke: #000000; stroke-width: 0.8"/>
      </defs>
      <g>
       <use xlink:href="#m906268c38b" x="59.014286" y="932.544" style="stroke: #000000; stroke-width: 0.8"/>
      </g>
     </g>
     <g id="text_1">
      <!-- 0 -->
      <g transform="translate(52.897254 955.325562) scale(0.22 -0.22)">
       <defs>
        <path id="Helvetica-30" d="M 1731 4475 
Q 2600 4475 2988 3759 
Q 3288 3206 3288 2244 
Q 3288 1331 3016 734 
Q 2622 -122 1728 -122 
Q 922 -122 528 578 
Q 200 1163 200 2147 
Q 200 2909 397 3456 
Q 766 4475 1731 4475 
z
M 1725 391 
Q 2163 391 2422 778 
Q 2681 1166 2681 2222 
Q 2681 2984 2493 3476 
Q 2306 3969 1766 3969 
Q 1269 3969 1039 3501 
Q 809 3034 809 2125 
Q 809 1441 956 1025 
Q 1181 391 1725 391 
z
" transform="scale(0.015625)"/>
       </defs>
       <use xlink:href="#Helvetica-30"/>
      </g>
     </g>
    </g>
    <g id="xtick_2">
     <g id="line2d_2">
      <g>
       <use xlink:href="#m906268c38b" x="142.994781" y="932.544" style="stroke: #000000; stroke-width: 0.8"/>
      </g>
     </g>
     <g id="text_2">
      <!-- 100 -->
      <g transform="translate(124.643687 955.325562) scale(0.22 -0.22)">
       <defs>
        <path id="Helvetica-31" d="M 613 3169 
L 613 3600 
Q 1222 3659 1462 3798 
Q 1703 3938 1822 4456 
L 2266 4456 
L 2266 0 
L 1666 0 
L 1666 3169 
L 613 3169 
z
" transform="scale(0.015625)"/>
       </defs>
       <use xlink:href="#Helvetica-31"/>
       <use xlink:href="#Helvetica-30" transform="translate(55.615234 0)"/>
       <use xlink:href="#Helvetica-30" transform="translate(111.230469 0)"/>
      </g>
     </g>
    </g>
    <g id="xtick_3">
     <g id="line2d_3">
      <g>
       <use xlink:href="#m906268c38b" x="226.975275" y="932.544" style="stroke: #000000; stroke-width: 0.8"/>
      </g>
     </g>
     <g id="text_3">
      <!-- 200 -->
      <g transform="translate(208.624182 955.325562) scale(0.22 -0.22)">
       <defs>
        <path id="Helvetica-32" d="M 200 0 
Q 231 578 439 1006 
Q 647 1434 1250 1784 
L 1850 2131 
Q 2253 2366 2416 2531 
Q 2672 2791 2672 3125 
Q 2672 3516 2437 3745 
Q 2203 3975 1813 3975 
Q 1234 3975 1013 3538 
Q 894 3303 881 2888 
L 309 2888 
Q 319 3472 525 3841 
Q 891 4491 1816 4491 
Q 2584 4491 2939 4075 
Q 3294 3659 3294 3150 
Q 3294 2613 2916 2231 
Q 2697 2009 2131 1694 
L 1703 1456 
Q 1397 1288 1222 1134 
Q 909 863 828 531 
L 3272 531 
L 3272 0 
L 200 0 
z
" transform="scale(0.015625)"/>
       </defs>
       <use xlink:href="#Helvetica-32"/>
       <use xlink:href="#Helvetica-30" transform="translate(55.615234 0)"/>
       <use xlink:href="#Helvetica-30" transform="translate(111.230469 0)"/>
      </g>
     </g>
    </g>
    <g id="xtick_4">
     <g id="line2d_4">
      <g>
       <use xlink:href="#m906268c38b" x="310.95577" y="932.544" style="stroke: #000000; stroke-width: 0.8"/>
      </g>
     </g>
     <g id="text_4">
      <!-- 300 -->
      <g transform="translate(292.604677 955.325562) scale(0.22 -0.22)">
       <defs>
        <path id="Helvetica-33" d="M 1663 -122 
Q 869 -122 511 314 
Q 153 750 153 1375 
L 741 1375 
Q 778 941 903 744 
Q 1122 391 1694 391 
Q 2138 391 2406 628 
Q 2675 866 2675 1241 
Q 2675 1703 2392 1887 
Q 2109 2072 1606 2072 
Q 1550 2072 1492 2070 
Q 1434 2069 1375 2066 
L 1375 2563 
Q 1463 2553 1522 2550 
Q 1581 2547 1650 2547 
Q 1966 2547 2169 2647 
Q 2525 2822 2525 3272 
Q 2525 3606 2287 3787 
Q 2050 3969 1734 3969 
Q 1172 3969 956 3594 
Q 838 3388 822 3006 
L 266 3006 
Q 266 3506 466 3856 
Q 809 4481 1675 4481 
Q 2359 4481 2734 4176 
Q 3109 3872 3109 3294 
Q 3109 2881 2888 2625 
Q 2750 2466 2531 2375 
Q 2884 2278 3082 2001 
Q 3281 1725 3281 1325 
Q 3281 684 2859 281 
Q 2438 -122 1663 -122 
z
" transform="scale(0.015625)"/>
       </defs>
       <use xlink:href="#Helvetica-33"/>
       <use xlink:href="#Helvetica-30" transform="translate(55.615234 0)"/>
       <use xlink:href="#Helvetica-30" transform="translate(111.230469 0)"/>
      </g>
     </g>
    </g>
    <g id="xtick_5">
     <g id="line2d_5">
      <g>
       <use xlink:href="#m906268c38b" x="394.936265" y="932.544" style="stroke: #000000; stroke-width: 0.8"/>
      </g>
     </g>
     <g id="text_5">
      <!-- 400 -->
      <g transform="translate(376.585171 955.325562) scale(0.22 -0.22)">
       <defs>
        <path id="Helvetica-34" d="M 2116 1584 
L 2116 3613 
L 681 1584 
L 2116 1584 
z
M 2125 0 
L 2125 1094 
L 163 1094 
L 163 1644 
L 2213 4488 
L 2688 4488 
L 2688 1584 
L 3347 1584 
L 3347 1094 
L 2688 1094 
L 2688 0 
L 2125 0 
z
" transform="scale(0.015625)"/>
       </defs>
       <use xlink:href="#Helvetica-34"/>
       <use xlink:href="#Helvetica-30" transform="translate(55.615234 0)"/>
       <use xlink:href="#Helvetica-30" transform="translate(111.230469 0)"/>
      </g>
     </g>
    </g>
    <g id="text_6">
     <!-- Sample Count -->
     <g transform="translate(188.597813 980.122437) scale(0.22 -0.22)">
      <defs>
       <path id="Helvetica-53" d="M 894 1481 
Q 916 1091 1078 847 
Q 1388 391 2169 391 
Q 2519 391 2806 491 
Q 3363 684 3363 1184 
Q 3363 1559 3128 1719 
Q 2891 1875 2384 1991 
L 1763 2131 
Q 1153 2269 900 2434 
Q 463 2722 463 3294 
Q 463 3913 891 4309 
Q 1319 4706 2103 4706 
Q 2825 4706 3329 4357 
Q 3834 4009 3834 3244 
L 3250 3244 
Q 3203 3613 3050 3809 
Q 2766 4169 2084 4169 
Q 1534 4169 1293 3937 
Q 1053 3706 1053 3400 
Q 1053 3063 1334 2906 
Q 1519 2806 2169 2656 
L 2813 2509 
Q 3278 2403 3531 2219 
Q 3969 1897 3969 1284 
Q 3969 522 3414 194 
Q 2859 -134 2125 -134 
Q 1269 -134 784 303 
Q 300 738 309 1481 
L 894 1481 
z
M 2150 4716 
L 2150 4716 
z
" transform="scale(0.015625)"/>
       <path id="Helvetica-61" d="M 844 891 
Q 844 647 1022 506 
Q 1200 366 1444 366 
Q 1741 366 2019 503 
Q 2488 731 2488 1250 
L 2488 1703 
Q 2384 1638 2221 1594 
Q 2059 1550 1903 1531 
L 1563 1488 
Q 1256 1447 1103 1359 
Q 844 1213 844 891 
z
M 2206 2028 
Q 2400 2053 2466 2191 
Q 2503 2266 2503 2406 
Q 2503 2694 2298 2823 
Q 2094 2953 1713 2953 
Q 1272 2953 1088 2716 
Q 984 2584 953 2325 
L 428 2325 
Q 444 2944 830 3186 
Q 1216 3428 1725 3428 
Q 2316 3428 2684 3203 
Q 3050 2978 3050 2503 
L 3050 575 
Q 3050 488 3086 434 
Q 3122 381 3238 381 
Q 3275 381 3322 386 
Q 3369 391 3422 400 
L 3422 -16 
Q 3291 -53 3222 -62 
Q 3153 -72 3034 -72 
Q 2744 -72 2613 134 
Q 2544 244 2516 444 
Q 2344 219 2022 53 
Q 1700 -113 1313 -113 
Q 847 -113 551 170 
Q 256 453 256 878 
Q 256 1344 547 1600 
Q 838 1856 1309 1916 
L 2206 2028 
z
M 1741 3428 
L 1741 3428 
z
" transform="scale(0.015625)"/>
       <path id="Helvetica-6d" d="M 413 3347 
L 969 3347 
L 969 2872 
Q 1169 3119 1331 3231 
Q 1609 3422 1963 3422 
Q 2363 3422 2606 3225 
Q 2744 3113 2856 2894 
Q 3044 3163 3297 3292 
Q 3550 3422 3866 3422 
Q 4541 3422 4784 2934 
Q 4916 2672 4916 2228 
L 4916 0 
L 4331 0 
L 4331 2325 
Q 4331 2659 4164 2784 
Q 3997 2909 3756 2909 
Q 3425 2909 3186 2687 
Q 2947 2466 2947 1947 
L 2947 0 
L 2375 0 
L 2375 2184 
Q 2375 2525 2294 2681 
Q 2166 2916 1816 2916 
Q 1497 2916 1236 2669 
Q 975 2422 975 1775 
L 975 0 
L 413 0 
L 413 3347 
z
" transform="scale(0.015625)"/>
       <path id="Helvetica-70" d="M 1825 378 
Q 2219 378 2480 708 
Q 2741 1038 2741 1694 
Q 2741 2094 2625 2381 
Q 2406 2934 1825 2934 
Q 1241 2934 1025 2350 
Q 909 2038 909 1556 
Q 909 1169 1025 897 
Q 1244 378 1825 378 
z
M 369 3331 
L 916 3331 
L 916 2888 
Q 1084 3116 1284 3241 
Q 1569 3428 1953 3428 
Q 2522 3428 2919 2992 
Q 3316 2556 3316 1747 
Q 3316 653 2744 184 
Q 2381 -113 1900 -113 
Q 1522 -113 1266 53 
Q 1116 147 931 375 
L 931 -1334 
L 369 -1334 
L 369 3331 
z
" transform="scale(0.015625)"/>
       <path id="Helvetica-6c" d="M 428 4591 
L 991 4591 
L 991 0 
L 428 0 
L 428 4591 
z
" transform="scale(0.015625)"/>
       <path id="Helvetica-65" d="M 1806 3422 
Q 2163 3422 2497 3255 
Q 2831 3088 3006 2822 
Q 3175 2569 3231 2231 
Q 3281 2000 3281 1494 
L 828 1494 
Q 844 984 1069 676 
Q 1294 369 1766 369 
Q 2206 369 2469 659 
Q 2619 828 2681 1050 
L 3234 1050 
Q 3213 866 3089 639 
Q 2966 413 2813 269 
Q 2556 19 2178 -69 
Q 1975 -119 1719 -119 
Q 1094 -119 659 336 
Q 225 791 225 1609 
Q 225 2416 662 2919 
Q 1100 3422 1806 3422 
z
M 2703 1941 
Q 2669 2306 2544 2525 
Q 2313 2931 1772 2931 
Q 1384 2931 1121 2651 
Q 859 2372 844 1941 
L 2703 1941 
z
M 1753 3428 
L 1753 3428 
z
" transform="scale(0.015625)"/>
       <path id="Helvetica-20" transform="scale(0.015625)"/>
       <path id="Helvetica-43" d="M 2422 4716 
Q 3294 4716 3775 4256 
Q 4256 3797 4309 3213 
L 3703 3213 
Q 3600 3656 3292 3915 
Q 2984 4175 2428 4175 
Q 1750 4175 1333 3698 
Q 916 3222 916 2238 
Q 916 1431 1292 929 
Q 1669 428 2416 428 
Q 3103 428 3463 956 
Q 3653 1234 3747 1688 
L 4353 1688 
Q 4272 963 3816 472 
Q 3269 -119 2341 -119 
Q 1541 -119 997 366 
Q 281 1006 281 2344 
Q 281 3359 819 4009 
Q 1400 4716 2422 4716 
z
M 2297 4716 
L 2297 4716 
z
" transform="scale(0.015625)"/>
       <path id="Helvetica-6f" d="M 1741 363 
Q 2300 363 2508 786 
Q 2716 1209 2716 1728 
Q 2716 2197 2566 2491 
Q 2328 2953 1747 2953 
Q 1231 2953 997 2559 
Q 763 2166 763 1609 
Q 763 1075 997 719 
Q 1231 363 1741 363 
z
M 1763 3444 
Q 2409 3444 2856 3012 
Q 3303 2581 3303 1744 
Q 3303 934 2909 406 
Q 2516 -122 1688 -122 
Q 997 -122 590 345 
Q 184 813 184 1600 
Q 184 2444 612 2944 
Q 1041 3444 1763 3444 
z
M 1744 3428 
L 1744 3428 
z
" transform="scale(0.015625)"/>
       <path id="Helvetica-75" d="M 975 3347 
L 975 1125 
Q 975 869 1056 706 
Q 1206 406 1616 406 
Q 2203 406 2416 931 
Q 2531 1213 2531 1703 
L 2531 3347 
L 3094 3347 
L 3094 0 
L 2563 0 
L 2569 494 
Q 2459 303 2297 172 
Q 1975 -91 1516 -91 
Q 800 -91 541 388 
Q 400 644 400 1072 
L 400 3347 
L 975 3347 
z
M 1747 3428 
L 1747 3428 
z
" transform="scale(0.015625)"/>
       <path id="Helvetica-6e" d="M 413 3347 
L 947 3347 
L 947 2872 
Q 1184 3166 1450 3294 
Q 1716 3422 2041 3422 
Q 2753 3422 3003 2925 
Q 3141 2653 3141 2147 
L 3141 0 
L 2569 0 
L 2569 2109 
Q 2569 2416 2478 2603 
Q 2328 2916 1934 2916 
Q 1734 2916 1606 2875 
Q 1375 2806 1200 2600 
Q 1059 2434 1017 2257 
Q 975 2081 975 1753 
L 975 0 
L 413 0 
L 413 3347 
z
M 1734 3428 
L 1734 3428 
z
" transform="scale(0.015625)"/>
       <path id="Helvetica-74" d="M 525 4281 
L 1094 4281 
L 1094 3347 
L 1628 3347 
L 1628 2888 
L 1094 2888 
L 1094 703 
Q 1094 528 1213 469 
Q 1278 434 1431 434 
Q 1472 434 1519 436 
Q 1566 438 1628 444 
L 1628 0 
Q 1531 -28 1426 -40 
Q 1322 -53 1200 -53 
Q 806 -53 665 148 
Q 525 350 525 672 
L 525 2888 
L 72 2888 
L 72 3347 
L 525 3347 
L 525 4281 
z
" transform="scale(0.015625)"/>
      </defs>
      <use xlink:href="#Helvetica-53"/>
      <use xlink:href="#Helvetica-61" transform="translate(66.699219 0)"/>
      <use xlink:href="#Helvetica-6d" transform="translate(122.314453 0)"/>
      <use xlink:href="#Helvetica-70" transform="translate(205.615234 0)"/>
      <use xlink:href="#Helvetica-6c" transform="translate(261.230469 0)"/>
      <use xlink:href="#Helvetica-65" transform="translate(283.447266 0)"/>
      <use xlink:href="#Helvetica-20" transform="translate(339.0625 0)"/>
      <use xlink:href="#Helvetica-43" transform="translate(366.845703 0)"/>
      <use xlink:href="#Helvetica-6f" transform="translate(439.0625 0)"/>
      <use xlink:href="#Helvetica-75" transform="translate(494.677734 0)"/>
      <use xlink:href="#Helvetica-6e" transform="translate(550.292969 0)"/>
      <use xlink:href="#Helvetica-74" transform="translate(605.908203 0)"/>
     </g>
    </g>
   </g>
   <g id="matplotlib.axis_2"/>
   <g id="patch_17">
    <path d="M 59.014286 932.544 
L 59.014286 7.2 
" style="fill: none; stroke: #000000; stroke-width: 0.8; stroke-linejoin: miter; stroke-linecap: square"/>
   </g>
   <g id="patch_18">
    <path d="M 457.585714 932.544 
L 457.585714 7.2 
" style="fill: none; stroke: #000000; stroke-width: 0.8; stroke-linejoin: miter; stroke-linecap: square"/>
   </g>
   <g id="patch_19">
    <path d="M 59.014286 932.544 
L 457.585714 932.544 
" style="fill: none; stroke: #000000; stroke-width: 0.8; stroke-linejoin: miter; stroke-linecap: square"/>
   </g>
   <g id="patch_20">
    <path d="M 59.014286 7.2 
L 457.585714 7.2 
" style="fill: none; stroke: #000000; stroke-width: 0.8; stroke-linejoin: miter; stroke-linecap: square"/>
   </g>
   <g id="patch_21">
    <path d="M 59.014286 929.1168 
L 66.57253 929.1168 
L 66.57253 901.6992 
L 59.014286 901.6992 
z
" clip-path="url(#p674ab900d4)" style="fill: #4682b4"/>
   </g>
   <g id="patch_22">
    <path d="M 59.014286 894.8448 
L 61.533701 894.8448 
L 61.533701 867.4272 
L 59.014286 867.4272 
z
" clip-path="url(#p674ab900d4)" style="fill: #4682b4"/>
   </g>
   <g id="patch_23">
    <path d="M 59.014286 860.5728 
L 75.810385 860.5728 
L 75.810385 833.1552 
L 59.014286 833.1552 
z
" clip-path="url(#p674ab900d4)" style="fill: #4682b4"/>
   </g>
   <g id="patch_24">
    <path d="M 59.014286 826.3008 
L 70.771555 826.3008 
L 70.771555 798.8832 
L 59.014286 798.8832 
z
" clip-path="url(#p674ab900d4)" style="fill: #4682b4"/>
   </g>
   <g id="patch_25">
    <path d="M 59.014286 792.0288 
L 81.689019 792.0288 
L 81.689019 764.6112 
L 59.014286 764.6112 
z
" clip-path="url(#p674ab900d4)" style="fill: #4682b4"/>
   </g>
   <g id="patch_26">
    <path d="M 59.014286 757.7568 
L 94.286094 757.7568 
L 94.286094 730.3392 
L 59.014286 730.3392 
z
" clip-path="url(#p674ab900d4)" style="fill: #4682b4"/>
   </g>
   <g id="patch_27">
    <path d="M 59.014286 723.4848 
L 72.451165 723.4848 
L 72.451165 696.0672 
L 59.014286 696.0672 
z
" clip-path="url(#p674ab900d4)" style="fill: #4682b4"/>
   </g>
   <g id="patch_28">
    <path d="M 59.014286 689.2128 
L 71.61136 689.2128 
L 71.61136 661.7952 
L 59.014286 661.7952 
z
" clip-path="url(#p674ab900d4)" style="fill: #4682b4"/>
   </g>
   <g id="patch_29">
    <path d="M 59.014286 654.9408 
L 103.523948 654.9408 
L 103.523948 627.5232 
L 59.014286 627.5232 
z
" clip-path="url(#p674ab900d4)" style="fill: #4682b4"/>
   </g>
   <g id="patch_30">
    <path d="M 59.014286 620.6688 
L 104.363753 620.6688 
L 104.363753 593.2512 
L 59.014286 593.2512 
z
" clip-path="url(#p674ab900d4)" style="fill: #4682b4"/>
   </g>
   <g id="patch_31">
    <path d="M 59.014286 586.3968 
L 366.382897 586.3968 
L 366.382897 558.9792 
L 59.014286 558.9792 
z
" clip-path="url(#p674ab900d4)" style="fill: #4682b4"/>
   </g>
   <g id="patch_32">
    <path d="M 59.014286 552.1248 
L 103.523948 552.1248 
L 103.523948 524.7072 
L 59.014286 524.7072 
z
" clip-path="url(#p674ab900d4)" style="fill: #4682b4"/>
   </g>
   <g id="patch_33">
    <path d="M 59.014286 517.8528 
L 85.048239 517.8528 
L 85.048239 490.4352 
L 59.014286 490.4352 
z
" clip-path="url(#p674ab900d4)" style="fill: #4682b4"/>
   </g>
   <g id="patch_34">
    <path d="M 59.014286 483.5808 
L 127.878291 483.5808 
L 127.878291 456.1632 
L 59.014286 456.1632 
z
" clip-path="url(#p674ab900d4)" style="fill: #4682b4"/>
   </g>
   <g id="patch_35">
    <path d="M 59.014286 449.3088 
L 97.645313 449.3088 
L 97.645313 421.8912 
L 59.014286 421.8912 
z
" clip-path="url(#p674ab900d4)" style="fill: #4682b4"/>
   </g>
   <g id="patch_36">
    <path d="M 59.014286 415.0368 
L 97.645313 415.0368 
L 97.645313 387.6192 
L 59.014286 387.6192 
z
" clip-path="url(#p674ab900d4)" style="fill: #4682b4"/>
   </g>
   <g id="patch_37">
    <path d="M 59.014286 380.7648 
L 144.67439 380.7648 
L 144.67439 353.3472 
L 59.014286 353.3472 
z
" clip-path="url(#p674ab900d4)" style="fill: #4682b4"/>
   </g>
   <g id="patch_38">
    <path d="M 59.014286 346.4928 
L 127.878291 346.4928 
L 127.878291 319.0752 
L 59.014286 319.0752 
z
" clip-path="url(#p674ab900d4)" style="fill: #4682b4"/>
   </g>
   <g id="patch_39">
    <path d="M 59.014286 312.2208 
L 121.999657 312.2208 
L 121.999657 284.8032 
L 59.014286 284.8032 
z
" clip-path="url(#p674ab900d4)" style="fill: #4682b4"/>
   </g>
   <g id="patch_40">
    <path d="M 59.014286 277.9488 
L 190.023858 277.9488 
L 190.023858 250.5312 
L 59.014286 250.5312 
z
" clip-path="url(#p674ab900d4)" style="fill: #4682b4"/>
   </g>
   <g id="patch_41">
    <path d="M 59.014286 243.6768 
L 137.116146 243.6768 
L 137.116146 216.2592 
L 59.014286 216.2592 
z
" clip-path="url(#p674ab900d4)" style="fill: #4682b4"/>
   </g>
   <g id="patch_42">
    <path d="M 59.014286 209.4048 
L 144.67439 209.4048 
L 144.67439 181.9872 
L 59.014286 181.9872 
z
" clip-path="url(#p674ab900d4)" style="fill: #4682b4"/>
   </g>
   <g id="patch_43">
    <path d="M 59.014286 175.1328 
L 384.858606 175.1328 
L 384.858606 147.7152 
L 59.014286 147.7152 
z
" clip-path="url(#p674ab900d4)" style="fill: #4682b4"/>
   </g>
   <g id="patch_44">
    <path d="M 59.014286 140.8608 
L 329.431479 140.8608 
L 329.431479 113.4432 
L 59.014286 113.4432 
z
" clip-path="url(#p674ab900d4)" style="fill: #4682b4"/>
   </g>
   <g id="patch_45">
    <path d="M 59.014286 106.5888 
L 438.606122 106.5888 
L 438.606122 79.1712 
L 59.014286 79.1712 
z
" clip-path="url(#p674ab900d4)" style="fill: #4682b4"/>
   </g>
   <g id="patch_46">
    <path d="M 59.014286 72.3168 
L 292.480061 72.3168 
L 292.480061 44.8992 
L 59.014286 44.8992 
z
" clip-path="url(#p674ab900d4)" style="fill: #4682b4"/>
   </g>
   <g id="patch_47">
    <path d="M 59.014286 38.0448 
L 226.13547 38.0448 
L 226.13547 10.6272 
L 59.014286 10.6272 
z
" clip-path="url(#p674ab900d4)" style="fill: #4682b4"/>
   </g>
   <g id="text_7">
    <!-- 9 -->
    <g transform="translate(71.355387 921.005969) scale(0.22 -0.22)">
     <defs>
      <path id="Helvetica-39" d="M 850 1081 
Q 875 616 1209 438 
Q 1381 344 1597 344 
Q 2000 344 2284 680 
Q 2569 1016 2688 2044 
Q 2500 1747 2223 1626 
Q 1947 1506 1628 1506 
Q 981 1506 604 1909 
Q 228 2313 228 2947 
Q 228 3556 600 4018 
Q 972 4481 1697 4481 
Q 2675 4481 3047 3600 
Q 3253 3116 3253 2388 
Q 3253 1566 3006 931 
Q 2597 -125 1619 -125 
Q 963 -125 622 219 
Q 281 563 281 1081 
L 850 1081 
z
M 1703 2000 
Q 2038 2000 2314 2220 
Q 2591 2441 2591 2991 
Q 2591 3484 2342 3726 
Q 2094 3969 1709 3969 
Q 1297 3969 1055 3692 
Q 813 3416 813 2953 
Q 813 2516 1025 2258 
Q 1238 2000 1703 2000 
z
" transform="scale(0.015625)"/>
     </defs>
     <use xlink:href="#Helvetica-39"/>
    </g>
   </g>
   <g id="text_8">
    <!-- 3 -->
    <g transform="translate(66.316558 886.733969) scale(0.22 -0.22)">
     <use xlink:href="#Helvetica-33"/>
    </g>
   </g>
   <g id="text_9">
    <!-- 20 -->
    <g transform="translate(80.593242 852.461969) scale(0.22 -0.22)">
     <use xlink:href="#Helvetica-32"/>
     <use xlink:href="#Helvetica-30" transform="translate(55.615234 0)"/>
    </g>
   </g>
   <g id="text_10">
    <!-- 14 -->
    <g transform="translate(75.554412 818.189969) scale(0.22 -0.22)">
     <use xlink:href="#Helvetica-31"/>
     <use xlink:href="#Helvetica-34" transform="translate(55.615234 0)"/>
    </g>
   </g>
   <g id="text_11">
    <!-- 27 -->
    <g transform="translate(86.471876 783.917969) scale(0.22 -0.22)">
     <defs>
      <path id="Helvetica-37" d="M 3347 4400 
L 3347 3909 
Q 3131 3700 2773 3181 
Q 2416 2663 2141 2063 
Q 1869 1478 1728 997 
Q 1638 688 1494 0 
L 872 0 
Q 1084 1281 1809 2550 
Q 2238 3294 2709 3834 
L 234 3834 
L 234 4400 
L 3347 4400 
z
" transform="scale(0.015625)"/>
     </defs>
     <use xlink:href="#Helvetica-32"/>
     <use xlink:href="#Helvetica-37" transform="translate(55.615234 0)"/>
    </g>
   </g>
   <g id="text_12">
    <!-- 42 -->
    <g transform="translate(99.068951 749.645969) scale(0.22 -0.22)">
     <use xlink:href="#Helvetica-34"/>
     <use xlink:href="#Helvetica-32" transform="translate(55.615234 0)"/>
    </g>
   </g>
   <g id="text_13">
    <!-- 16 -->
    <g transform="translate(77.234022 715.373969) scale(0.22 -0.22)">
     <defs>
      <path id="Helvetica-36" d="M 1872 4494 
Q 2622 4494 2917 4105 
Q 3213 3716 3213 3303 
L 2656 3303 
Q 2606 3569 2497 3719 
Q 2294 4000 1881 4000 
Q 1409 4000 1131 3564 
Q 853 3128 822 2316 
Q 1016 2600 1309 2741 
Q 1578 2866 1909 2866 
Q 2472 2866 2890 2506 
Q 3309 2147 3309 1434 
Q 3309 825 2912 354 
Q 2516 -116 1781 -116 
Q 1153 -116 697 361 
Q 241 838 241 1966 
Q 241 2800 444 3381 
Q 834 4494 1872 4494 
z
M 1831 384 
Q 2275 384 2495 682 
Q 2716 981 2716 1388 
Q 2716 1731 2519 2042 
Q 2322 2353 1803 2353 
Q 1441 2353 1167 2112 
Q 894 1872 894 1388 
Q 894 963 1142 673 
Q 1391 384 1831 384 
z
" transform="scale(0.015625)"/>
     </defs>
     <use xlink:href="#Helvetica-31"/>
     <use xlink:href="#Helvetica-36" transform="translate(55.615234 0)"/>
    </g>
   </g>
   <g id="text_14">
    <!-- 15 -->
    <g transform="translate(76.394217 681.101969) scale(0.22 -0.22)">
     <defs>
      <path id="Helvetica-35" d="M 791 1141 
Q 847 659 1238 475 
Q 1438 381 1700 381 
Q 2200 381 2440 700 
Q 2681 1019 2681 1406 
Q 2681 1875 2395 2131 
Q 2109 2388 1709 2388 
Q 1419 2388 1211 2275 
Q 1003 2163 856 1963 
L 369 1991 
L 709 4400 
L 3034 4400 
L 3034 3856 
L 1131 3856 
L 941 2613 
Q 1097 2731 1238 2791 
Q 1488 2894 1816 2894 
Q 2431 2894 2859 2497 
Q 3288 2100 3288 1491 
Q 3288 856 2895 371 
Q 2503 -113 1644 -113 
Q 1097 -113 676 195 
Q 256 503 206 1141 
L 791 1141 
z
" transform="scale(0.015625)"/>
     </defs>
     <use xlink:href="#Helvetica-31"/>
     <use xlink:href="#Helvetica-35" transform="translate(55.615234 0)"/>
    </g>
   </g>
   <g id="text_15">
    <!-- 53 -->
    <g transform="translate(108.306805 646.829969) scale(0.22 -0.22)">
     <use xlink:href="#Helvetica-35"/>
     <use xlink:href="#Helvetica-33" transform="translate(55.615234 0)"/>
    </g>
   </g>
   <g id="text_16">
    <!-- 54 -->
    <g transform="translate(109.14661 612.557969) scale(0.22 -0.22)">
     <use xlink:href="#Helvetica-35"/>
     <use xlink:href="#Helvetica-34" transform="translate(55.615234 0)"/>
    </g>
   </g>
   <g id="text_17">
    <!-- 366 -->
    <g transform="translate(371.165754 578.285969) scale(0.22 -0.22)">
     <use xlink:href="#Helvetica-33"/>
     <use xlink:href="#Helvetica-36" transform="translate(55.615234 0)"/>
     <use xlink:href="#Helvetica-36" transform="translate(111.230469 0)"/>
    </g>
   </g>
   <g id="text_18">
    <!-- 53 -->
    <g transform="translate(108.306805 544.013969) scale(0.22 -0.22)">
     <use xlink:href="#Helvetica-35"/>
     <use xlink:href="#Helvetica-33" transform="translate(55.615234 0)"/>
    </g>
   </g>
   <g id="text_19">
    <!-- 31 -->
    <g transform="translate(89.831096 509.741969) scale(0.22 -0.22)">
     <use xlink:href="#Helvetica-33"/>
     <use xlink:href="#Helvetica-31" transform="translate(55.615234 0)"/>
    </g>
   </g>
   <g id="text_20">
    <!-- 82 -->
    <g transform="translate(132.661149 475.469969) scale(0.22 -0.22)">
     <defs>
      <path id="Helvetica-38" d="M 1741 2600 
Q 2113 2600 2322 2808 
Q 2531 3016 2531 3303 
Q 2531 3553 2331 3762 
Q 2131 3972 1722 3972 
Q 1316 3972 1134 3762 
Q 953 3553 953 3272 
Q 953 2956 1187 2778 
Q 1422 2600 1741 2600 
z
M 1775 384 
Q 2166 384 2423 595 
Q 2681 806 2681 1225 
Q 2681 1659 2415 1884 
Q 2150 2109 1734 2109 
Q 1331 2109 1076 1879 
Q 822 1650 822 1244 
Q 822 894 1055 639 
Q 1288 384 1775 384 
z
M 975 2384 
Q 741 2484 609 2619 
Q 363 2869 363 3269 
Q 363 3769 725 4128 
Q 1088 4488 1753 4488 
Q 2397 4488 2762 4148 
Q 3128 3809 3128 3356 
Q 3128 2938 2916 2678 
Q 2797 2531 2547 2391 
Q 2825 2263 2984 2097 
Q 3281 1784 3281 1284 
Q 3281 694 2884 283 
Q 2488 -128 1763 -128 
Q 1109 -128 657 226 
Q 206 581 206 1256 
Q 206 1653 400 1942 
Q 594 2231 975 2384 
z
" transform="scale(0.015625)"/>
     </defs>
     <use xlink:href="#Helvetica-38"/>
     <use xlink:href="#Helvetica-32" transform="translate(55.615234 0)"/>
    </g>
   </g>
   <g id="text_21">
    <!-- 46 -->
    <g transform="translate(102.42817 441.197969) scale(0.22 -0.22)">
     <use xlink:href="#Helvetica-34"/>
     <use xlink:href="#Helvetica-36" transform="translate(55.615234 0)"/>
    </g>
   </g>
   <g id="text_22">
    <!-- 46 -->
    <g transform="translate(102.42817 406.925969) scale(0.22 -0.22)">
     <use xlink:href="#Helvetica-34"/>
     <use xlink:href="#Helvetica-36" transform="translate(55.615234 0)"/>
    </g>
   </g>
   <g id="text_23">
    <!-- 102 -->
    <g transform="translate(149.457248 372.653969) scale(0.22 -0.22)">
     <use xlink:href="#Helvetica-31"/>
     <use xlink:href="#Helvetica-30" transform="translate(55.615234 0)"/>
     <use xlink:href="#Helvetica-32" transform="translate(111.230469 0)"/>
    </g>
   </g>
   <g id="text_24">
    <!-- 82 -->
    <g transform="translate(132.661149 338.381969) scale(0.22 -0.22)">
     <use xlink:href="#Helvetica-38"/>
     <use xlink:href="#Helvetica-32" transform="translate(55.615234 0)"/>
    </g>
   </g>
   <g id="text_25">
    <!-- 75 -->
    <g transform="translate(126.782514 304.109969) scale(0.22 -0.22)">
     <use xlink:href="#Helvetica-37"/>
     <use xlink:href="#Helvetica-35" transform="translate(55.615234 0)"/>
    </g>
   </g>
   <g id="text_26">
    <!-- 156 -->
    <g transform="translate(194.806715 269.837969) scale(0.22 -0.22)">
     <use xlink:href="#Helvetica-31"/>
     <use xlink:href="#Helvetica-35" transform="translate(55.615234 0)"/>
     <use xlink:href="#Helvetica-36" transform="translate(111.230469 0)"/>
    </g>
   </g>
   <g id="text_27">
    <!-- 93 -->
    <g transform="translate(141.899003 235.565969) scale(0.22 -0.22)">
     <use xlink:href="#Helvetica-39"/>
     <use xlink:href="#Helvetica-33" transform="translate(55.615234 0)"/>
    </g>
   </g>
   <g id="text_28">
    <!-- 102 -->
    <g transform="translate(149.457248 201.293969) scale(0.22 -0.22)">
     <use xlink:href="#Helvetica-31"/>
     <use xlink:href="#Helvetica-30" transform="translate(55.615234 0)"/>
     <use xlink:href="#Helvetica-32" transform="translate(111.230469 0)"/>
    </g>
   </g>
   <g id="text_29">
    <!-- 388 -->
    <g transform="translate(389.641463 167.021969) scale(0.22 -0.22)">
     <use xlink:href="#Helvetica-33"/>
     <use xlink:href="#Helvetica-38" transform="translate(55.615234 0)"/>
     <use xlink:href="#Helvetica-38" transform="translate(111.230469 0)"/>
    </g>
   </g>
   <g id="text_30">
    <!-- 322 -->
    <g transform="translate(334.214336 132.749969) scale(0.22 -0.22)">
     <use xlink:href="#Helvetica-33"/>
     <use xlink:href="#Helvetica-32" transform="translate(55.615234 0)"/>
     <use xlink:href="#Helvetica-32" transform="translate(111.230469 0)"/>
    </g>
   </g>
   <g id="text_31">
    <!-- 452 -->
    <g style="fill: #ffffff" transform="translate(397.121078 98.477969) scale(0.22 -0.22)">
     <use xlink:href="#Helvetica-34"/>
     <use xlink:href="#Helvetica-35" transform="translate(55.615234 0)"/>
     <use xlink:href="#Helvetica-32" transform="translate(111.230469 0)"/>
    </g>
   </g>
   <g id="text_32">
    <!-- 278 -->
    <g transform="translate(297.262919 64.205969) scale(0.22 -0.22)">
     <use xlink:href="#Helvetica-32"/>
     <use xlink:href="#Helvetica-37" transform="translate(55.615234 0)"/>
     <use xlink:href="#Helvetica-38" transform="translate(111.230469 0)"/>
    </g>
   </g>
   <g id="text_33">
    <!-- 199 -->
    <g transform="translate(230.918328 29.933969) scale(0.22 -0.22)">
     <use xlink:href="#Helvetica-31"/>
     <use xlink:href="#Helvetica-39" transform="translate(55.615234 0)"/>
     <use xlink:href="#Helvetica-39" transform="translate(111.230469 0)"/>
    </g>
   </g>
   <g id="text_34">
    <!-- e -->
    <g transform="translate(7.2 31.589688) scale(0.34 -0.34)">
     <use xlink:href="#Helvetica-65"/>
    </g>
   </g>
  </g>
  <g id="axes_2">
   <g id="patch_48">
    <path d="M 557.228571 932.544 
L 955.8 932.544 
L 955.8 7.2 
L 557.228571 7.2 
z
" style="fill: #ffffff"/>
   </g>
   <g id="patch_49">
    <path d="M 557.228571 932.544 
L 955.8 932.544 
L 955.8 898.272 
L 557.228571 898.272 
z
" clip-path="url(#pcd7444570a)" style="fill: #d3d3d3; opacity: 0.2"/>
   </g>
   <g id="patch_50">
    <path d="M 557.228571 864 
L 955.8 864 
L 955.8 829.728 
L 557.228571 829.728 
z
" clip-path="url(#pcd7444570a)" style="fill: #d3d3d3; opacity: 0.2"/>
   </g>
   <g id="patch_51">
    <path d="M 557.228571 795.456 
L 955.8 795.456 
L 955.8 761.184 
L 557.228571 761.184 
z
" clip-path="url(#pcd7444570a)" style="fill: #d3d3d3; opacity: 0.2"/>
   </g>
   <g id="patch_52">
    <path d="M 557.228571 726.912 
L 955.8 726.912 
L 955.8 692.64 
L 557.228571 692.64 
z
" clip-path="url(#pcd7444570a)" style="fill: #d3d3d3; opacity: 0.2"/>
   </g>
   <g id="patch_53">
    <path d="M 557.228571 658.368 
L 955.8 658.368 
L 955.8 624.096 
L 557.228571 624.096 
z
" clip-path="url(#pcd7444570a)" style="fill: #d3d3d3; opacity: 0.2"/>
   </g>
   <g id="patch_54">
    <path d="M 557.228571 589.824 
L 955.8 589.824 
L 955.8 555.552 
L 557.228571 555.552 
z
" clip-path="url(#pcd7444570a)" style="fill: #d3d3d3; opacity: 0.2"/>
   </g>
   <g id="patch_55">
    <path d="M 557.228571 521.28 
L 955.8 521.28 
L 955.8 487.008 
L 557.228571 487.008 
z
" clip-path="url(#pcd7444570a)" style="fill: #d3d3d3; opacity: 0.2"/>
   </g>
   <g id="patch_56">
    <path d="M 557.228571 452.736 
L 955.8 452.736 
L 955.8 418.464 
L 557.228571 418.464 
z
" clip-path="url(#pcd7444570a)" style="fill: #d3d3d3; opacity: 0.2"/>
   </g>
   <g id="patch_57">
    <path d="M 557.228571 384.192 
L 955.8 384.192 
L 955.8 349.92 
L 557.228571 349.92 
z
" clip-path="url(#pcd7444570a)" style="fill: #d3d3d3; opacity: 0.2"/>
   </g>
   <g id="patch_58">
    <path d="M 557.228571 315.648 
L 955.8 315.648 
L 955.8 281.376 
L 557.228571 281.376 
z
" clip-path="url(#pcd7444570a)" style="fill: #d3d3d3; opacity: 0.2"/>
   </g>
   <g id="patch_59">
    <path d="M 557.228571 247.104 
L 955.8 247.104 
L 955.8 212.832 
L 557.228571 212.832 
z
" clip-path="url(#pcd7444570a)" style="fill: #d3d3d3; opacity: 0.2"/>
   </g>
   <g id="patch_60">
    <path d="M 557.228571 178.56 
L 955.8 178.56 
L 955.8 144.288 
L 557.228571 144.288 
z
" clip-path="url(#pcd7444570a)" style="fill: #d3d3d3; opacity: 0.2"/>
   </g>
   <g id="patch_61">
    <path d="M 557.228571 110.016 
L 955.8 110.016 
L 955.8 75.744 
L 557.228571 75.744 
z
" clip-path="url(#pcd7444570a)" style="fill: #d3d3d3; opacity: 0.2"/>
   </g>
   <g id="patch_62">
    <path d="M 557.228571 41.472 
L 955.8 41.472 
L 955.8 7.2 
L 557.228571 7.2 
z
" clip-path="url(#pcd7444570a)" style="fill: #d3d3d3; opacity: 0.2"/>
   </g>
   <g id="matplotlib.axis_3">
    <g id="xtick_6">
     <g id="line2d_6">
      <g>
       <use xlink:href="#m906268c38b" x="557.228571" y="932.544" style="stroke: #000000; stroke-width: 0.8"/>
      </g>
     </g>
     <g id="text_35">
      <!-- 0 -->
      <g transform="translate(551.11154 955.325562) scale(0.22 -0.22)">
       <use xlink:href="#Helvetica-30"/>
      </g>
     </g>
    </g>
    <g id="xtick_7">
     <g id="line2d_7">
      <g>
       <use xlink:href="#m906268c38b" x="646.544298" y="932.544" style="stroke: #000000; stroke-width: 0.8"/>
      </g>
     </g>
     <g id="text_36">
      <!-- 20 -->
      <g transform="translate(634.310235 955.325562) scale(0.22 -0.22)">
       <use xlink:href="#Helvetica-32"/>
       <use xlink:href="#Helvetica-30" transform="translate(55.615234 0)"/>
      </g>
     </g>
    </g>
    <g id="xtick_8">
     <g id="line2d_8">
      <g>
       <use xlink:href="#m906268c38b" x="735.860024" y="932.544" style="stroke: #000000; stroke-width: 0.8"/>
      </g>
     </g>
     <g id="text_37">
      <!-- 40 -->
      <g transform="translate(723.625962 955.325562) scale(0.22 -0.22)">
       <use xlink:href="#Helvetica-34"/>
       <use xlink:href="#Helvetica-30" transform="translate(55.615234 0)"/>
      </g>
     </g>
    </g>
    <g id="xtick_9">
     <g id="line2d_9">
      <g>
       <use xlink:href="#m906268c38b" x="825.17575" y="932.544" style="stroke: #000000; stroke-width: 0.8"/>
      </g>
     </g>
     <g id="text_38">
      <!-- 60 -->
      <g transform="translate(812.941688 955.325562) scale(0.22 -0.22)">
       <use xlink:href="#Helvetica-36"/>
       <use xlink:href="#Helvetica-30" transform="translate(55.615234 0)"/>
      </g>
     </g>
    </g>
    <g id="xtick_10">
     <g id="line2d_10">
      <g>
       <use xlink:href="#m906268c38b" x="914.491477" y="932.544" style="stroke: #000000; stroke-width: 0.8"/>
      </g>
     </g>
     <g id="text_39">
      <!-- 80 -->
      <g transform="translate(902.257414 955.325562) scale(0.22 -0.22)">
       <use xlink:href="#Helvetica-38"/>
       <use xlink:href="#Helvetica-30" transform="translate(55.615234 0)"/>
      </g>
     </g>
    </g>
    <g id="text_40">
     <!-- Unique Donor Organs -->
     <g transform="translate(649.518661 980.122437) scale(0.22 -0.22)">
      <defs>
       <path id="Helvetica-55" d="M 1163 4591 
L 1163 1753 
Q 1163 1253 1350 922 
Q 1628 422 2288 422 
Q 3078 422 3363 963 
Q 3516 1256 3516 1753 
L 3516 4591 
L 4147 4591 
L 4147 2013 
Q 4147 1166 3919 709 
Q 3500 -122 2338 -122 
Q 1175 -122 759 709 
Q 531 1166 531 2013 
L 531 4591 
L 1163 4591 
z
M 2341 4591 
L 2341 4591 
z
" transform="scale(0.015625)"/>
       <path id="Helvetica-69" d="M 413 3331 
L 984 3331 
L 984 0 
L 413 0 
L 413 3331 
z
M 413 4591 
L 984 4591 
L 984 3953 
L 413 3953 
L 413 4591 
z
" transform="scale(0.015625)"/>
       <path id="Helvetica-71" d="M 775 1628 
Q 775 1194 897 900 
Q 1113 378 1669 378 
Q 2256 378 2478 928 
Q 2600 1231 2600 1703 
Q 2600 2138 2466 2428 
Q 2238 2925 1663 2925 
Q 1297 2925 1036 2608 
Q 775 2291 775 1628 
z
M 1606 3422 
Q 2022 3422 2306 3213 
Q 2463 3100 2606 2881 
L 2606 3347 
L 3141 3347 
L 3141 -1334 
L 2575 -1334 
L 2575 384 
Q 2434 159 2186 26 
Q 1938 -106 1566 -106 
Q 1031 -106 609 312 
Q 188 731 188 1588 
Q 188 2391 583 2906 
Q 978 3422 1606 3422 
z
" transform="scale(0.015625)"/>
       <path id="Helvetica-44" d="M 2250 531 
Q 2566 531 2769 597 
Q 3131 719 3363 1066 
Q 3547 1344 3628 1778 
Q 3675 2038 3675 2259 
Q 3675 3113 3336 3584 
Q 2997 4056 2244 4056 
L 1141 4056 
L 1141 531 
L 2250 531 
z
M 516 4591 
L 2375 4591 
Q 3322 4591 3844 3919 
Q 4309 3313 4309 2366 
Q 4309 1634 4034 1044 
Q 3550 0 2369 0 
L 516 0 
L 516 4591 
z
" transform="scale(0.015625)"/>
       <path id="Helvetica-72" d="M 428 3347 
L 963 3347 
L 963 2769 
Q 1028 2938 1284 3180 
Q 1541 3422 1875 3422 
Q 1891 3422 1928 3419 
Q 1966 3416 2056 3406 
L 2056 2813 
Q 2006 2822 1964 2825 
Q 1922 2828 1872 2828 
Q 1447 2828 1219 2554 
Q 991 2281 991 1925 
L 991 0 
L 428 0 
L 428 3347 
z
" transform="scale(0.015625)"/>
       <path id="Helvetica-4f" d="M 2469 4716 
Q 3684 4716 4269 3934 
Q 4725 3325 4725 2375 
Q 4725 1347 4203 666 
Q 3591 -134 2456 -134 
Q 1397 -134 791 566 
Q 250 1241 250 2272 
Q 250 3203 713 3866 
Q 1306 4716 2469 4716 
z
M 2531 422 
Q 3353 422 3720 1011 
Q 4088 1600 4088 2366 
Q 4088 3175 3664 3669 
Q 3241 4163 2506 4163 
Q 1794 4163 1344 3673 
Q 894 3184 894 2231 
Q 894 1469 1280 945 
Q 1666 422 2531 422 
z
M 2488 4716 
L 2488 4716 
z
" transform="scale(0.015625)"/>
       <path id="Helvetica-67" d="M 1594 3406 
Q 1988 3406 2281 3213 
Q 2441 3103 2606 2894 
L 2606 3316 
L 3125 3316 
L 3125 272 
Q 3125 -366 2938 -734 
Q 2588 -1416 1616 -1416 
Q 1075 -1416 706 -1173 
Q 338 -931 294 -416 
L 866 -416 
Q 906 -641 1028 -763 
Q 1219 -950 1628 -950 
Q 2275 -950 2475 -494 
Q 2594 -225 2584 466 
Q 2416 209 2178 84 
Q 1941 -41 1550 -41 
Q 1006 -41 598 345 
Q 191 731 191 1622 
Q 191 2463 602 2934 
Q 1013 3406 1594 3406 
z
M 2606 1688 
Q 2606 2309 2350 2609 
Q 2094 2909 1697 2909 
Q 1103 2909 884 2353 
Q 769 2056 769 1575 
Q 769 1009 998 714 
Q 1228 419 1616 419 
Q 2222 419 2469 966 
Q 2606 1275 2606 1688 
z
M 1659 3428 
L 1659 3428 
z
" transform="scale(0.015625)"/>
       <path id="Helvetica-73" d="M 747 1050 
Q 772 769 888 619 
Q 1100 347 1625 347 
Q 1938 347 2175 483 
Q 2413 619 2413 903 
Q 2413 1119 2222 1231 
Q 2100 1300 1741 1391 
L 1294 1503 
Q 866 1609 663 1741 
Q 300 1969 300 2372 
Q 300 2847 642 3140 
Q 984 3434 1563 3434 
Q 2319 3434 2653 2991 
Q 2863 2709 2856 2384 
L 2325 2384 
Q 2309 2575 2191 2731 
Q 1997 2953 1519 2953 
Q 1200 2953 1036 2831 
Q 872 2709 872 2509 
Q 872 2291 1088 2159 
Q 1213 2081 1456 2022 
L 1828 1931 
Q 2434 1784 2641 1647 
Q 2969 1431 2969 969 
Q 2969 522 2630 197 
Q 2291 -128 1597 -128 
Q 850 -128 539 211 
Q 228 550 206 1050 
L 747 1050 
z
M 1578 3428 
L 1578 3428 
z
" transform="scale(0.015625)"/>
      </defs>
      <use xlink:href="#Helvetica-55"/>
      <use xlink:href="#Helvetica-6e" transform="translate(72.216797 0)"/>
      <use xlink:href="#Helvetica-69" transform="translate(127.832031 0)"/>
      <use xlink:href="#Helvetica-71" transform="translate(150.048828 0)"/>
      <use xlink:href="#Helvetica-75" transform="translate(205.664062 0)"/>
      <use xlink:href="#Helvetica-65" transform="translate(261.279297 0)"/>
      <use xlink:href="#Helvetica-20" transform="translate(316.894531 0)"/>
      <use xlink:href="#Helvetica-44" transform="translate(344.677734 0)"/>
      <use xlink:href="#Helvetica-6f" transform="translate(416.894531 0)"/>
      <use xlink:href="#Helvetica-6e" transform="translate(472.509766 0)"/>
      <use xlink:href="#Helvetica-6f" transform="translate(528.125 0)"/>
      <use xlink:href="#Helvetica-72" transform="translate(583.740234 0)"/>
      <use xlink:href="#Helvetica-20" transform="translate(617.041016 0)"/>
      <use xlink:href="#Helvetica-4f" transform="translate(644.824219 0)"/>
      <use xlink:href="#Helvetica-72" transform="translate(722.607422 0)"/>
      <use xlink:href="#Helvetica-67" transform="translate(755.908203 0)"/>
      <use xlink:href="#Helvetica-61" transform="translate(811.523438 0)"/>
      <use xlink:href="#Helvetica-6e" transform="translate(867.138672 0)"/>
      <use xlink:href="#Helvetica-73" transform="translate(922.753906 0)"/>
     </g>
    </g>
   </g>
   <g id="matplotlib.axis_4"/>
   <g id="patch_63">
    <path d="M 557.228571 932.544 
L 557.228571 7.2 
" style="fill: none; stroke: #000000; stroke-width: 0.8; stroke-linejoin: miter; stroke-linecap: square"/>
   </g>
   <g id="patch_64">
    <path d="M 955.8 932.544 
L 955.8 7.2 
" style="fill: none; stroke: #000000; stroke-width: 0.8; stroke-linejoin: miter; stroke-linecap: square"/>
   </g>
   <g id="patch_65">
    <path d="M 557.228571 932.544 
L 955.8 932.544 
" style="fill: none; stroke: #000000; stroke-width: 0.8; stroke-linejoin: miter; stroke-linecap: square"/>
   </g>
   <g id="patch_66">
    <path d="M 557.228571 7.2 
L 955.8 7.2 
" style="fill: none; stroke: #000000; stroke-width: 0.8; stroke-linejoin: miter; stroke-linecap: square"/>
   </g>
   <g id="patch_67">
    <path d="M 557.228571 929.1168 
L 561.694358 929.1168 
L 561.694358 901.6992 
L 557.228571 901.6992 
z
" clip-path="url(#pcd7444570a)" style="fill: #4682b4"/>
   </g>
   <g id="patch_68">
    <path d="M 557.228571 894.8448 
L 561.694358 894.8448 
L 561.694358 867.4272 
L 557.228571 867.4272 
z
" clip-path="url(#pcd7444570a)" style="fill: #4682b4"/>
   </g>
   <g id="patch_69">
    <path d="M 557.228571 860.5728 
L 601.886435 860.5728 
L 601.886435 833.1552 
L 557.228571 833.1552 
z
" clip-path="url(#pcd7444570a)" style="fill: #4682b4"/>
   </g>
   <g id="patch_70">
    <path d="M 557.228571 826.3008 
L 588.489076 826.3008 
L 588.489076 798.8832 
L 557.228571 798.8832 
z
" clip-path="url(#pcd7444570a)" style="fill: #4682b4"/>
   </g>
   <g id="patch_71">
    <path d="M 557.228571 792.0288 
L 570.62593 792.0288 
L 570.62593 764.6112 
L 557.228571 764.6112 
z
" clip-path="url(#pcd7444570a)" style="fill: #4682b4"/>
   </g>
   <g id="patch_72">
    <path d="M 557.228571 757.7568 
L 619.74958 757.7568 
L 619.74958 730.3392 
L 557.228571 730.3392 
z
" clip-path="url(#pcd7444570a)" style="fill: #4682b4"/>
   </g>
   <g id="patch_73">
    <path d="M 557.228571 723.4848 
L 592.954862 723.4848 
L 592.954862 696.0672 
L 557.228571 696.0672 
z
" clip-path="url(#pcd7444570a)" style="fill: #4682b4"/>
   </g>
   <g id="patch_74">
    <path d="M 557.228571 689.2128 
L 579.557503 689.2128 
L 579.557503 661.7952 
L 557.228571 661.7952 
z
" clip-path="url(#pcd7444570a)" style="fill: #4682b4"/>
   </g>
   <g id="patch_75">
    <path d="M 557.228571 654.9408 
L 615.283794 654.9408 
L 615.283794 627.5232 
L 557.228571 627.5232 
z
" clip-path="url(#pcd7444570a)" style="fill: #4682b4"/>
   </g>
   <g id="patch_76">
    <path d="M 557.228571 620.6688 
L 610.818007 620.6688 
L 610.818007 593.2512 
L 557.228571 593.2512 
z
" clip-path="url(#pcd7444570a)" style="fill: #4682b4"/>
   </g>
   <g id="patch_77">
    <path d="M 557.228571 586.3968 
L 637.612725 586.3968 
L 637.612725 558.9792 
L 557.228571 558.9792 
z
" clip-path="url(#pcd7444570a)" style="fill: #4682b4"/>
   </g>
   <g id="patch_78">
    <path d="M 557.228571 552.1248 
L 588.489076 552.1248 
L 588.489076 524.7072 
L 557.228571 524.7072 
z
" clip-path="url(#pcd7444570a)" style="fill: #4682b4"/>
   </g>
   <g id="patch_79">
    <path d="M 557.228571 517.8528 
L 579.557503 517.8528 
L 579.557503 490.4352 
L 557.228571 490.4352 
z
" clip-path="url(#pcd7444570a)" style="fill: #4682b4"/>
   </g>
   <g id="patch_80">
    <path d="M 557.228571 483.5808 
L 606.352221 483.5808 
L 606.352221 456.1632 
L 557.228571 456.1632 
z
" clip-path="url(#pcd7444570a)" style="fill: #4682b4"/>
   </g>
   <g id="patch_81">
    <path d="M 557.228571 449.3088 
L 619.74958 449.3088 
L 619.74958 421.8912 
L 557.228571 421.8912 
z
" clip-path="url(#pcd7444570a)" style="fill: #4682b4"/>
   </g>
   <g id="patch_82">
    <path d="M 557.228571 415.0368 
L 584.023289 415.0368 
L 584.023289 387.6192 
L 557.228571 387.6192 
z
" clip-path="url(#pcd7444570a)" style="fill: #4682b4"/>
   </g>
   <g id="patch_83">
    <path d="M 557.228571 380.7648 
L 619.74958 380.7648 
L 619.74958 353.3472 
L 557.228571 353.3472 
z
" clip-path="url(#pcd7444570a)" style="fill: #4682b4"/>
   </g>
   <g id="patch_84">
    <path d="M 557.228571 346.4928 
L 642.078511 346.4928 
L 642.078511 319.0752 
L 557.228571 319.0752 
z
" clip-path="url(#pcd7444570a)" style="fill: #4682b4"/>
   </g>
   <g id="patch_85">
    <path d="M 557.228571 312.2208 
L 566.160144 312.2208 
L 566.160144 284.8032 
L 557.228571 284.8032 
z
" clip-path="url(#pcd7444570a)" style="fill: #4682b4"/>
   </g>
   <g id="patch_86">
    <path d="M 557.228571 277.9488 
L 610.818007 277.9488 
L 610.818007 250.5312 
L 557.228571 250.5312 
z
" clip-path="url(#pcd7444570a)" style="fill: #4682b4"/>
   </g>
   <g id="patch_87">
    <path d="M 557.228571 243.6768 
L 597.420648 243.6768 
L 597.420648 216.2592 
L 557.228571 216.2592 
z
" clip-path="url(#pcd7444570a)" style="fill: #4682b4"/>
   </g>
   <g id="patch_88">
    <path d="M 557.228571 209.4048 
L 601.886435 209.4048 
L 601.886435 181.9872 
L 557.228571 181.9872 
z
" clip-path="url(#pcd7444570a)" style="fill: #4682b4"/>
   </g>
   <g id="patch_89">
    <path d="M 557.228571 175.1328 
L 936.820408 175.1328 
L 936.820408 147.7152 
L 557.228571 147.7152 
z
" clip-path="url(#pcd7444570a)" style="fill: #4682b4"/>
   </g>
   <g id="patch_90">
    <path d="M 557.228571 140.8608 
L 695.667947 140.8608 
L 695.667947 113.4432 
L 557.228571 113.4432 
z
" clip-path="url(#pcd7444570a)" style="fill: #4682b4"/>
   </g>
   <g id="patch_91">
    <path d="M 557.228571 106.5888 
L 753.723169 106.5888 
L 753.723169 79.1712 
L 557.228571 79.1712 
z
" clip-path="url(#pcd7444570a)" style="fill: #4682b4"/>
   </g>
   <g id="patch_92">
    <path d="M 557.228571 72.3168 
L 584.023289 72.3168 
L 584.023289 44.8992 
L 557.228571 44.8992 
z
" clip-path="url(#pcd7444570a)" style="fill: #4682b4"/>
   </g>
   <g id="patch_93">
    <path d="M 557.228571 38.0448 
L 628.681152 38.0448 
L 628.681152 10.6272 
L 557.228571 10.6272 
z
" clip-path="url(#pcd7444570a)" style="fill: #4682b4"/>
   </g>
   <g id="text_41">
    <!-- 1 -->
    <g transform="translate(566.477215 921.005969) scale(0.22 -0.22)">
     <use xlink:href="#Helvetica-31"/>
    </g>
   </g>
   <g id="text_42">
    <!-- 1 -->
    <g transform="translate(566.477215 886.733969) scale(0.22 -0.22)">
     <use xlink:href="#Helvetica-31"/>
    </g>
   </g>
   <g id="text_43">
    <!-- 10 -->
    <g transform="translate(606.669292 852.461969) scale(0.22 -0.22)">
     <use xlink:href="#Helvetica-31"/>
     <use xlink:href="#Helvetica-30" transform="translate(55.615234 0)"/>
    </g>
   </g>
   <g id="text_44">
    <!-- 7 -->
    <g transform="translate(593.271933 818.189969) scale(0.22 -0.22)">
     <use xlink:href="#Helvetica-37"/>
    </g>
   </g>
   <g id="text_45">
    <!-- 3 -->
    <g transform="translate(575.408788 783.917969) scale(0.22 -0.22)">
     <use xlink:href="#Helvetica-33"/>
    </g>
   </g>
   <g id="text_46">
    <!-- 14 -->
    <g transform="translate(624.532437 749.645969) scale(0.22 -0.22)">
     <use xlink:href="#Helvetica-31"/>
     <use xlink:href="#Helvetica-34" transform="translate(55.615234 0)"/>
    </g>
   </g>
   <g id="text_47">
    <!-- 8 -->
    <g transform="translate(597.737719 715.373969) scale(0.22 -0.22)">
     <use xlink:href="#Helvetica-38"/>
    </g>
   </g>
   <g id="text_48">
    <!-- 5 -->
    <g transform="translate(584.34036 681.101969) scale(0.22 -0.22)">
     <use xlink:href="#Helvetica-35"/>
    </g>
   </g>
   <g id="text_49">
    <!-- 13 -->
    <g transform="translate(620.066651 646.829969) scale(0.22 -0.22)">
     <use xlink:href="#Helvetica-31"/>
     <use xlink:href="#Helvetica-33" transform="translate(55.615234 0)"/>
    </g>
   </g>
   <g id="text_50">
    <!-- 12 -->
    <g transform="translate(615.600864 612.557969) scale(0.22 -0.22)">
     <use xlink:href="#Helvetica-31"/>
     <use xlink:href="#Helvetica-32" transform="translate(55.615234 0)"/>
    </g>
   </g>
   <g id="text_51">
    <!-- 18 -->
    <g transform="translate(642.395582 578.285969) scale(0.22 -0.22)">
     <use xlink:href="#Helvetica-31"/>
     <use xlink:href="#Helvetica-38" transform="translate(55.615234 0)"/>
    </g>
   </g>
   <g id="text_52">
    <!-- 7 -->
    <g transform="translate(593.271933 544.013969) scale(0.22 -0.22)">
     <use xlink:href="#Helvetica-37"/>
    </g>
   </g>
   <g id="text_53">
    <!-- 5 -->
    <g transform="translate(584.34036 509.741969) scale(0.22 -0.22)">
     <use xlink:href="#Helvetica-35"/>
    </g>
   </g>
   <g id="text_54">
    <!-- 11 -->
    <g transform="translate(611.135078 475.469969) scale(0.22 -0.22)">
     <use xlink:href="#Helvetica-31"/>
     <use xlink:href="#Helvetica-31" transform="translate(55.615234 0)"/>
    </g>
   </g>
   <g id="text_55">
    <!-- 14 -->
    <g transform="translate(624.532437 441.197969) scale(0.22 -0.22)">
     <use xlink:href="#Helvetica-31"/>
     <use xlink:href="#Helvetica-34" transform="translate(55.615234 0)"/>
    </g>
   </g>
   <g id="text_56">
    <!-- 6 -->
    <g transform="translate(588.806146 406.925969) scale(0.22 -0.22)">
     <use xlink:href="#Helvetica-36"/>
    </g>
   </g>
   <g id="text_57">
    <!-- 14 -->
    <g transform="translate(624.532437 372.653969) scale(0.22 -0.22)">
     <use xlink:href="#Helvetica-31"/>
     <use xlink:href="#Helvetica-34" transform="translate(55.615234 0)"/>
    </g>
   </g>
   <g id="text_58">
    <!-- 19 -->
    <g transform="translate(646.861369 338.381969) scale(0.22 -0.22)">
     <use xlink:href="#Helvetica-31"/>
     <use xlink:href="#Helvetica-39" transform="translate(55.615234 0)"/>
    </g>
   </g>
   <g id="text_59">
    <!-- 2 -->
    <g transform="translate(570.943001 304.109969) scale(0.22 -0.22)">
     <use xlink:href="#Helvetica-32"/>
    </g>
   </g>
   <g id="text_60">
    <!-- 12 -->
    <g transform="translate(615.600864 269.837969) scale(0.22 -0.22)">
     <use xlink:href="#Helvetica-31"/>
     <use xlink:href="#Helvetica-32" transform="translate(55.615234 0)"/>
    </g>
   </g>
   <g id="text_61">
    <!-- 9 -->
    <g transform="translate(602.203505 235.565969) scale(0.22 -0.22)">
     <use xlink:href="#Helvetica-39"/>
    </g>
   </g>
   <g id="text_62">
    <!-- 10 -->
    <g transform="translate(606.669292 201.293969) scale(0.22 -0.22)">
     <use xlink:href="#Helvetica-31"/>
     <use xlink:href="#Helvetica-30" transform="translate(55.615234 0)"/>
    </g>
   </g>
   <g id="text_63">
    <!-- 85 -->
    <g style="fill: #ffffff" transform="translate(907.569426 167.021969) scale(0.22 -0.22)">
     <use xlink:href="#Helvetica-38"/>
     <use xlink:href="#Helvetica-35" transform="translate(55.615234 0)"/>
    </g>
   </g>
   <g id="text_64">
    <!-- 31 -->
    <g transform="translate(700.450804 132.749969) scale(0.22 -0.22)">
     <use xlink:href="#Helvetica-33"/>
     <use xlink:href="#Helvetica-31" transform="translate(55.615234 0)"/>
    </g>
   </g>
   <g id="text_65">
    <!-- 44 -->
    <g transform="translate(758.506026 98.477969) scale(0.22 -0.22)">
     <use xlink:href="#Helvetica-34"/>
     <use xlink:href="#Helvetica-34" transform="translate(55.615234 0)"/>
    </g>
   </g>
   <g id="text_66">
    <!-- 6 -->
    <g transform="translate(588.806146 64.205969) scale(0.22 -0.22)">
     <use xlink:href="#Helvetica-36"/>
    </g>
   </g>
   <g id="text_67">
    <!-- 16 -->
    <g transform="translate(633.46401 29.933969) scale(0.22 -0.22)">
     <use xlink:href="#Helvetica-31"/>
     <use xlink:href="#Helvetica-36" transform="translate(55.615234 0)"/>
    </g>
   </g>
   <g id="text_68">
    <!-- f -->
    <g transform="translate(505.414286 31.589688) scale(0.34 -0.34)">
     <defs>
      <path id="Helvetica-66" d="M 553 3856 
Q 566 4206 675 4369 
Q 872 4656 1434 4656 
Q 1488 4656 1544 4653 
Q 1600 4650 1672 4644 
L 1672 4131 
Q 1584 4138 1545 4139 
Q 1506 4141 1472 4141 
Q 1216 4141 1166 4008 
Q 1116 3875 1116 3331 
L 1672 3331 
L 1672 2888 
L 1109 2888 
L 1109 0 
L 553 0 
L 553 2888 
L 88 2888 
L 88 3331 
L 553 3331 
L 553 3856 
z
" transform="scale(0.015625)"/>
     </defs>
     <use xlink:href="#Helvetica-66"/>
    </g>
   </g>
  </g>
  <g id="axes_3">
   <g id="patch_94">
    <path d="M 1055.442857 932.544 
L 1454.014286 932.544 
L 1454.014286 7.2 
L 1055.442857 7.2 
z
" style="fill: #ffffff"/>
   </g>
   <g id="patch_95">
    <path d="M 1055.442857 932.544 
L 1454.014286 932.544 
L 1454.014286 898.272 
L 1055.442857 898.272 
z
" clip-path="url(#p5a6f6525ca)" style="fill: #d3d3d3; opacity: 0.2"/>
   </g>
   <g id="patch_96">
    <path d="M 1055.442857 864 
L 1454.014286 864 
L 1454.014286 829.728 
L 1055.442857 829.728 
z
" clip-path="url(#p5a6f6525ca)" style="fill: #d3d3d3; opacity: 0.2"/>
   </g>
   <g id="patch_97">
    <path d="M 1055.442857 795.456 
L 1454.014286 795.456 
L 1454.014286 761.184 
L 1055.442857 761.184 
z
" clip-path="url(#p5a6f6525ca)" style="fill: #d3d3d3; opacity: 0.2"/>
   </g>
   <g id="patch_98">
    <path d="M 1055.442857 726.912 
L 1454.014286 726.912 
L 1454.014286 692.64 
L 1055.442857 692.64 
z
" clip-path="url(#p5a6f6525ca)" style="fill: #d3d3d3; opacity: 0.2"/>
   </g>
   <g id="patch_99">
    <path d="M 1055.442857 658.368 
L 1454.014286 658.368 
L 1454.014286 624.096 
L 1055.442857 624.096 
z
" clip-path="url(#p5a6f6525ca)" style="fill: #d3d3d3; opacity: 0.2"/>
   </g>
   <g id="patch_100">
    <path d="M 1055.442857 589.824 
L 1454.014286 589.824 
L 1454.014286 555.552 
L 1055.442857 555.552 
z
" clip-path="url(#p5a6f6525ca)" style="fill: #d3d3d3; opacity: 0.2"/>
   </g>
   <g id="patch_101">
    <path d="M 1055.442857 521.28 
L 1454.014286 521.28 
L 1454.014286 487.008 
L 1055.442857 487.008 
z
" clip-path="url(#p5a6f6525ca)" style="fill: #d3d3d3; opacity: 0.2"/>
   </g>
   <g id="patch_102">
    <path d="M 1055.442857 452.736 
L 1454.014286 452.736 
L 1454.014286 418.464 
L 1055.442857 418.464 
z
" clip-path="url(#p5a6f6525ca)" style="fill: #d3d3d3; opacity: 0.2"/>
   </g>
   <g id="patch_103">
    <path d="M 1055.442857 384.192 
L 1454.014286 384.192 
L 1454.014286 349.92 
L 1055.442857 349.92 
z
" clip-path="url(#p5a6f6525ca)" style="fill: #d3d3d3; opacity: 0.2"/>
   </g>
   <g id="patch_104">
    <path d="M 1055.442857 315.648 
L 1454.014286 315.648 
L 1454.014286 281.376 
L 1055.442857 281.376 
z
" clip-path="url(#p5a6f6525ca)" style="fill: #d3d3d3; opacity: 0.2"/>
   </g>
   <g id="patch_105">
    <path d="M 1055.442857 247.104 
L 1454.014286 247.104 
L 1454.014286 212.832 
L 1055.442857 212.832 
z
" clip-path="url(#p5a6f6525ca)" style="fill: #d3d3d3; opacity: 0.2"/>
   </g>
   <g id="patch_106">
    <path d="M 1055.442857 178.56 
L 1454.014286 178.56 
L 1454.014286 144.288 
L 1055.442857 144.288 
z
" clip-path="url(#p5a6f6525ca)" style="fill: #d3d3d3; opacity: 0.2"/>
   </g>
   <g id="patch_107">
    <path d="M 1055.442857 110.016 
L 1454.014286 110.016 
L 1454.014286 75.744 
L 1055.442857 75.744 
z
" clip-path="url(#p5a6f6525ca)" style="fill: #d3d3d3; opacity: 0.2"/>
   </g>
   <g id="patch_108">
    <path d="M 1055.442857 41.472 
L 1454.014286 41.472 
L 1454.014286 7.2 
L 1055.442857 7.2 
z
" clip-path="url(#p5a6f6525ca)" style="fill: #d3d3d3; opacity: 0.2"/>
   </g>
   <g id="matplotlib.axis_5">
    <g id="xtick_11">
     <g id="line2d_11">
      <g>
       <use xlink:href="#m906268c38b" x="1055.442857" y="932.544" style="stroke: #000000; stroke-width: 0.8"/>
      </g>
     </g>
     <g id="text_69">
      <!-- 0 -->
      <g transform="translate(1049.325826 955.325562) scale(0.22 -0.22)">
       <use xlink:href="#Helvetica-30"/>
      </g>
     </g>
    </g>
    <g id="xtick_12">
     <g id="line2d_12">
      <g>
       <use xlink:href="#m906268c38b" x="1137.369153" y="932.544" style="stroke: #000000; stroke-width: 0.8"/>
      </g>
     </g>
     <g id="text_70">
      <!-- 10 -->
      <g transform="translate(1125.13509 955.325562) scale(0.22 -0.22)">
       <use xlink:href="#Helvetica-31"/>
       <use xlink:href="#Helvetica-30" transform="translate(55.615234 0)"/>
      </g>
     </g>
    </g>
    <g id="xtick_13">
     <g id="line2d_13">
      <g>
       <use xlink:href="#m906268c38b" x="1219.295449" y="932.544" style="stroke: #000000; stroke-width: 0.8"/>
      </g>
     </g>
     <g id="text_71">
      <!-- 20 -->
      <g transform="translate(1207.061386 955.325562) scale(0.22 -0.22)">
       <use xlink:href="#Helvetica-32"/>
       <use xlink:href="#Helvetica-30" transform="translate(55.615234 0)"/>
      </g>
     </g>
    </g>
    <g id="xtick_14">
     <g id="line2d_14">
      <g>
       <use xlink:href="#m906268c38b" x="1301.221744" y="932.544" style="stroke: #000000; stroke-width: 0.8"/>
      </g>
     </g>
     <g id="text_72">
      <!-- 30 -->
      <g transform="translate(1288.987682 955.325562) scale(0.22 -0.22)">
       <use xlink:href="#Helvetica-33"/>
       <use xlink:href="#Helvetica-30" transform="translate(55.615234 0)"/>
      </g>
     </g>
    </g>
    <g id="xtick_15">
     <g id="line2d_15">
      <g>
       <use xlink:href="#m906268c38b" x="1383.14804" y="932.544" style="stroke: #000000; stroke-width: 0.8"/>
      </g>
     </g>
     <g id="text_73">
      <!-- 40 -->
      <g transform="translate(1370.913977 955.325562) scale(0.22 -0.22)">
       <use xlink:href="#Helvetica-34"/>
       <use xlink:href="#Helvetica-30" transform="translate(55.615234 0)"/>
      </g>
     </g>
    </g>
    <g id="text_74">
     <!-- Average Sample Number -->
     <g transform="translate(1131.232946 980.122437) scale(0.22 -0.22)">
      <defs>
       <path id="Helvetica-41" d="M 2844 1881 
L 2147 3909 
L 1406 1881 
L 2844 1881 
z
M 1822 4591 
L 2525 4591 
L 4191 0 
L 3509 0 
L 3044 1375 
L 1228 1375 
L 731 0 
L 94 0 
L 1822 4591 
z
" transform="scale(0.015625)"/>
       <path id="Helvetica-76" d="M 688 3347 
L 1581 622 
L 2516 3347 
L 3131 3347 
L 1869 0 
L 1269 0 
L 34 3347 
L 688 3347 
z
" transform="scale(0.015625)"/>
       <path id="Helvetica-4e" d="M 488 4591 
L 1222 4591 
L 3541 872 
L 3541 4591 
L 4131 4591 
L 4131 0 
L 3434 0 
L 1081 3716 
L 1081 0 
L 488 0 
L 488 4591 
z
M 2269 4591 
L 2269 4591 
z
" transform="scale(0.015625)"/>
       <path id="Helvetica-62" d="M 369 4606 
L 916 4606 
L 916 2941 
Q 1100 3181 1356 3307 
Q 1613 3434 1913 3434 
Q 2538 3434 2927 3004 
Q 3316 2575 3316 1738 
Q 3316 944 2931 419 
Q 2547 -106 1866 -106 
Q 1484 -106 1222 78 
Q 1066 188 888 428 
L 888 0 
L 369 0 
L 369 4606 
z
M 1831 391 
Q 2288 391 2514 753 
Q 2741 1116 2741 1709 
Q 2741 2238 2514 2584 
Q 2288 2931 1847 2931 
Q 1463 2931 1173 2647 
Q 884 2363 884 1709 
Q 884 1238 1003 944 
Q 1225 391 1831 391 
z
" transform="scale(0.015625)"/>
      </defs>
      <use xlink:href="#Helvetica-41"/>
      <use xlink:href="#Helvetica-76" transform="translate(66.699219 0)"/>
      <use xlink:href="#Helvetica-65" transform="translate(116.699219 0)"/>
      <use xlink:href="#Helvetica-72" transform="translate(172.314453 0)"/>
      <use xlink:href="#Helvetica-61" transform="translate(205.615234 0)"/>
      <use xlink:href="#Helvetica-67" transform="translate(261.230469 0)"/>
      <use xlink:href="#Helvetica-65" transform="translate(316.845703 0)"/>
      <use xlink:href="#Helvetica-20" transform="translate(372.460938 0)"/>
      <use xlink:href="#Helvetica-53" transform="translate(400.244141 0)"/>
      <use xlink:href="#Helvetica-61" transform="translate(466.943359 0)"/>
      <use xlink:href="#Helvetica-6d" transform="translate(522.558594 0)"/>
      <use xlink:href="#Helvetica-70" transform="translate(605.859375 0)"/>
      <use xlink:href="#Helvetica-6c" transform="translate(661.474609 0)"/>
      <use xlink:href="#Helvetica-65" transform="translate(683.691406 0)"/>
      <use xlink:href="#Helvetica-20" transform="translate(739.306641 0)"/>
      <use xlink:href="#Helvetica-4e" transform="translate(767.089844 0)"/>
      <use xlink:href="#Helvetica-75" transform="translate(839.306641 0)"/>
      <use xlink:href="#Helvetica-6d" transform="translate(894.921875 0)"/>
      <use xlink:href="#Helvetica-62" transform="translate(978.222656 0)"/>
      <use xlink:href="#Helvetica-65" transform="translate(1033.837891 0)"/>
      <use xlink:href="#Helvetica-72" transform="translate(1089.453125 0)"/>
     </g>
     <!-- per Donor Organ -->
     <g transform="translate(1172.192478 1004.443437) scale(0.22 -0.22)">
      <use xlink:href="#Helvetica-70"/>
      <use xlink:href="#Helvetica-65" transform="translate(55.615234 0)"/>
      <use xlink:href="#Helvetica-72" transform="translate(111.230469 0)"/>
      <use xlink:href="#Helvetica-20" transform="translate(144.53125 0)"/>
      <use xlink:href="#Helvetica-44" transform="translate(172.314453 0)"/>
      <use xlink:href="#Helvetica-6f" transform="translate(244.53125 0)"/>
      <use xlink:href="#Helvetica-6e" transform="translate(300.146484 0)"/>
      <use xlink:href="#Helvetica-6f" transform="translate(355.761719 0)"/>
      <use xlink:href="#Helvetica-72" transform="translate(411.376953 0)"/>
      <use xlink:href="#Helvetica-20" transform="translate(444.677734 0)"/>
      <use xlink:href="#Helvetica-4f" transform="translate(472.460938 0)"/>
      <use xlink:href="#Helvetica-72" transform="translate(550.244141 0)"/>
      <use xlink:href="#Helvetica-67" transform="translate(583.544922 0)"/>
      <use xlink:href="#Helvetica-61" transform="translate(639.160156 0)"/>
      <use xlink:href="#Helvetica-6e" transform="translate(694.775391 0)"/>
     </g>
    </g>
   </g>
   <g id="matplotlib.axis_6"/>
   <g id="patch_109">
    <path d="M 1055.442857 932.544 
L 1055.442857 7.2 
" style="fill: none; stroke: #000000; stroke-width: 0.8; stroke-linejoin: miter; stroke-linecap: square"/>
   </g>
   <g id="patch_110">
    <path d="M 1454.014286 932.544 
L 1454.014286 7.2 
" style="fill: none; stroke: #000000; stroke-width: 0.8; stroke-linejoin: miter; stroke-linecap: square"/>
   </g>
   <g id="patch_111">
    <path d="M 1055.442857 932.544 
L 1454.014286 932.544 
" style="fill: none; stroke: #000000; stroke-width: 0.8; stroke-linejoin: miter; stroke-linecap: square"/>
   </g>
   <g id="patch_112">
    <path d="M 1055.442857 7.2 
L 1454.014286 7.2 
" style="fill: none; stroke: #000000; stroke-width: 0.8; stroke-linejoin: miter; stroke-linecap: square"/>
   </g>
   <g id="patch_113">
    <path d="M 1055.442857 929.1168 
L 1129.176523 929.1168 
L 1129.176523 901.6992 
L 1055.442857 901.6992 
z
" clip-path="url(#p5a6f6525ca)" style="fill: #4682b4"/>
   </g>
   <g id="patch_114">
    <path d="M 1055.442857 894.8448 
L 1080.020746 894.8448 
L 1080.020746 867.4272 
L 1055.442857 867.4272 
z
" clip-path="url(#p5a6f6525ca)" style="fill: #4682b4"/>
   </g>
   <g id="patch_115">
    <path d="M 1055.442857 860.5728 
L 1071.828116 860.5728 
L 1071.828116 833.1552 
L 1055.442857 833.1552 
z
" clip-path="url(#p5a6f6525ca)" style="fill: #4682b4"/>
   </g>
   <g id="patch_116">
    <path d="M 1055.442857 826.3008 
L 1071.828116 826.3008 
L 1071.828116 798.8832 
L 1055.442857 798.8832 
z
" clip-path="url(#p5a6f6525ca)" style="fill: #4682b4"/>
   </g>
   <g id="patch_117">
    <path d="M 1055.442857 792.0288 
L 1129.176523 792.0288 
L 1129.176523 764.6112 
L 1055.442857 764.6112 
z
" clip-path="url(#p5a6f6525ca)" style="fill: #4682b4"/>
   </g>
   <g id="patch_118">
    <path d="M 1055.442857 757.7568 
L 1080.020746 757.7568 
L 1080.020746 730.3392 
L 1055.442857 730.3392 
z
" clip-path="url(#p5a6f6525ca)" style="fill: #4682b4"/>
   </g>
   <g id="patch_119">
    <path d="M 1055.442857 723.4848 
L 1071.828116 723.4848 
L 1071.828116 696.0672 
L 1055.442857 696.0672 
z
" clip-path="url(#p5a6f6525ca)" style="fill: #4682b4"/>
   </g>
   <g id="patch_120">
    <path d="M 1055.442857 689.2128 
L 1080.020746 689.2128 
L 1080.020746 661.7952 
L 1055.442857 661.7952 
z
" clip-path="url(#p5a6f6525ca)" style="fill: #4682b4"/>
   </g>
   <g id="patch_121">
    <path d="M 1055.442857 654.9408 
L 1088.843578 654.9408 
L 1088.843578 627.5232 
L 1055.442857 627.5232 
z
" clip-path="url(#p5a6f6525ca)" style="fill: #4682b4"/>
   </g>
   <g id="patch_122">
    <path d="M 1055.442857 620.6688 
L 1092.30969 620.6688 
L 1092.30969 593.2512 
L 1055.442857 593.2512 
z
" clip-path="url(#p5a6f6525ca)" style="fill: #4682b4"/>
   </g>
   <g id="patch_123">
    <path d="M 1055.442857 586.3968 
L 1222.026325 586.3968 
L 1222.026325 558.9792 
L 1055.442857 558.9792 
z
" clip-path="url(#p5a6f6525ca)" style="fill: #4682b4"/>
   </g>
   <g id="patch_124">
    <path d="M 1055.442857 552.1248 
L 1117.472767 552.1248 
L 1117.472767 524.7072 
L 1055.442857 524.7072 
z
" clip-path="url(#p5a6f6525ca)" style="fill: #4682b4"/>
   </g>
   <g id="patch_125">
    <path d="M 1055.442857 517.8528 
L 1106.23716 517.8528 
L 1106.23716 490.4352 
L 1055.442857 490.4352 
z
" clip-path="url(#p5a6f6525ca)" style="fill: #4682b4"/>
   </g>
   <g id="patch_126">
    <path d="M 1055.442857 483.5808 
L 1116.515187 483.5808 
L 1116.515187 456.1632 
L 1055.442857 456.1632 
z
" clip-path="url(#p5a6f6525ca)" style="fill: #4682b4"/>
   </g>
   <g id="patch_127">
    <path d="M 1055.442857 449.3088 
L 1082.361497 449.3088 
L 1082.361497 421.8912 
L 1055.442857 421.8912 
z
" clip-path="url(#p5a6f6525ca)" style="fill: #4682b4"/>
   </g>
   <g id="patch_128">
    <path d="M 1055.442857 415.0368 
L 1118.253017 415.0368 
L 1118.253017 387.6192 
L 1055.442857 387.6192 
z
" clip-path="url(#p5a6f6525ca)" style="fill: #4682b4"/>
   </g>
   <g id="patch_129">
    <path d="M 1055.442857 380.7648 
L 1115.132015 380.7648 
L 1115.132015 353.3472 
L 1055.442857 353.3472 
z
" clip-path="url(#p5a6f6525ca)" style="fill: #4682b4"/>
   </g>
   <g id="patch_130">
    <path d="M 1055.442857 346.4928 
L 1090.800522 346.4928 
L 1090.800522 319.0752 
L 1055.442857 319.0752 
z
" clip-path="url(#p5a6f6525ca)" style="fill: #4682b4"/>
   </g>
   <g id="patch_131">
    <path d="M 1055.442857 312.2208 
L 1362.666466 312.2208 
L 1362.666466 284.8032 
L 1055.442857 284.8032 
z
" clip-path="url(#p5a6f6525ca)" style="fill: #4682b4"/>
   </g>
   <g id="patch_132">
    <path d="M 1055.442857 277.9488 
L 1161.947042 277.9488 
L 1161.947042 250.5312 
L 1055.442857 250.5312 
z
" clip-path="url(#p5a6f6525ca)" style="fill: #4682b4"/>
   </g>
   <g id="patch_133">
    <path d="M 1055.442857 243.6768 
L 1140.100029 243.6768 
L 1140.100029 216.2592 
L 1055.442857 216.2592 
z
" clip-path="url(#p5a6f6525ca)" style="fill: #4682b4"/>
   </g>
   <g id="patch_134">
    <path d="M 1055.442857 209.4048 
L 1139.007679 209.4048 
L 1139.007679 181.9872 
L 1055.442857 181.9872 
z
" clip-path="url(#p5a6f6525ca)" style="fill: #4682b4"/>
   </g>
   <g id="patch_135">
    <path d="M 1055.442857 175.1328 
L 1092.839802 175.1328 
L 1092.839802 147.7152 
L 1055.442857 147.7152 
z
" clip-path="url(#p5a6f6525ca)" style="fill: #4682b4"/>
   </g>
   <g id="patch_136">
    <path d="M 1055.442857 140.8608 
L 1140.540493 140.8608 
L 1140.540493 113.4432 
L 1055.442857 113.4432 
z
" clip-path="url(#p5a6f6525ca)" style="fill: #4682b4"/>
   </g>
   <g id="patch_137">
    <path d="M 1055.442857 106.5888 
L 1139.603506 106.5888 
L 1139.603506 79.1712 
L 1055.442857 79.1712 
z
" clip-path="url(#p5a6f6525ca)" style="fill: #4682b4"/>
   </g>
   <g id="patch_138">
    <path d="M 1055.442857 72.3168 
L 1435.034694 72.3168 
L 1435.034694 44.8992 
L 1055.442857 44.8992 
z
" clip-path="url(#p5a6f6525ca)" style="fill: #4682b4"/>
   </g>
   <g id="patch_139">
    <path d="M 1055.442857 38.0448 
L 1157.338687 38.0448 
L 1157.338687 10.6272 
L 1055.442857 10.6272 
z
" clip-path="url(#p5a6f6525ca)" style="fill: #4682b4"/>
   </g>
   <g id="text_75">
    <!-- 9.0 -->
    <g transform="translate(1133.95938 921.005969) scale(0.22 -0.22)">
     <defs>
      <path id="Helvetica-2e" d="M 547 681 
L 1200 681 
L 1200 0 
L 547 0 
L 547 681 
z
" transform="scale(0.015625)"/>
     </defs>
     <use xlink:href="#Helvetica-39"/>
     <use xlink:href="#Helvetica-2e" transform="translate(55.615234 0)"/>
     <use xlink:href="#Helvetica-30" transform="translate(83.398438 0)"/>
    </g>
   </g>
   <g id="text_76">
    <!-- 3.0 -->
    <g transform="translate(1084.803603 886.733969) scale(0.22 -0.22)">
     <use xlink:href="#Helvetica-33"/>
     <use xlink:href="#Helvetica-2e" transform="translate(55.615234 0)"/>
     <use xlink:href="#Helvetica-30" transform="translate(83.398438 0)"/>
    </g>
   </g>
   <g id="text_77">
    <!-- 2.0 -->
    <g transform="translate(1076.610973 852.461969) scale(0.22 -0.22)">
     <use xlink:href="#Helvetica-32"/>
     <use xlink:href="#Helvetica-2e" transform="translate(55.615234 0)"/>
     <use xlink:href="#Helvetica-30" transform="translate(83.398438 0)"/>
    </g>
   </g>
   <g id="text_78">
    <!-- 2.0 -->
    <g transform="translate(1076.610973 818.189969) scale(0.22 -0.22)">
     <use xlink:href="#Helvetica-32"/>
     <use xlink:href="#Helvetica-2e" transform="translate(55.615234 0)"/>
     <use xlink:href="#Helvetica-30" transform="translate(83.398438 0)"/>
    </g>
   </g>
   <g id="text_79">
    <!-- 9.0 -->
    <g transform="translate(1133.95938 783.917969) scale(0.22 -0.22)">
     <use xlink:href="#Helvetica-39"/>
     <use xlink:href="#Helvetica-2e" transform="translate(55.615234 0)"/>
     <use xlink:href="#Helvetica-30" transform="translate(83.398438 0)"/>
    </g>
   </g>
   <g id="text_80">
    <!-- 3.0 -->
    <g transform="translate(1084.803603 749.645969) scale(0.22 -0.22)">
     <use xlink:href="#Helvetica-33"/>
     <use xlink:href="#Helvetica-2e" transform="translate(55.615234 0)"/>
     <use xlink:href="#Helvetica-30" transform="translate(83.398438 0)"/>
    </g>
   </g>
   <g id="text_81">
    <!-- 2.0 -->
    <g transform="translate(1076.610973 715.373969) scale(0.22 -0.22)">
     <use xlink:href="#Helvetica-32"/>
     <use xlink:href="#Helvetica-2e" transform="translate(55.615234 0)"/>
     <use xlink:href="#Helvetica-30" transform="translate(83.398438 0)"/>
    </g>
   </g>
   <g id="text_82">
    <!-- 3.0 -->
    <g transform="translate(1084.803603 681.101969) scale(0.22 -0.22)">
     <use xlink:href="#Helvetica-33"/>
     <use xlink:href="#Helvetica-2e" transform="translate(55.615234 0)"/>
     <use xlink:href="#Helvetica-30" transform="translate(83.398438 0)"/>
    </g>
   </g>
   <g id="text_83">
    <!-- 4.1 -->
    <g transform="translate(1093.626435 646.829969) scale(0.22 -0.22)">
     <use xlink:href="#Helvetica-34"/>
     <use xlink:href="#Helvetica-2e" transform="translate(55.615234 0)"/>
     <use xlink:href="#Helvetica-31" transform="translate(83.398438 0)"/>
    </g>
   </g>
   <g id="text_84">
    <!-- 4.5 -->
    <g transform="translate(1097.092547 612.557969) scale(0.22 -0.22)">
     <use xlink:href="#Helvetica-34"/>
     <use xlink:href="#Helvetica-2e" transform="translate(55.615234 0)"/>
     <use xlink:href="#Helvetica-35" transform="translate(83.398438 0)"/>
    </g>
   </g>
   <g id="text_85">
    <!-- 20.3 -->
    <g transform="translate(1226.809182 578.285969) scale(0.22 -0.22)">
     <use xlink:href="#Helvetica-32"/>
     <use xlink:href="#Helvetica-30" transform="translate(55.615234 0)"/>
     <use xlink:href="#Helvetica-2e" transform="translate(111.230469 0)"/>
     <use xlink:href="#Helvetica-33" transform="translate(139.013672 0)"/>
    </g>
   </g>
   <g id="text_86">
    <!-- 7.6 -->
    <g transform="translate(1122.255624 544.013969) scale(0.22 -0.22)">
     <use xlink:href="#Helvetica-37"/>
     <use xlink:href="#Helvetica-2e" transform="translate(55.615234 0)"/>
     <use xlink:href="#Helvetica-36" transform="translate(83.398438 0)"/>
    </g>
   </g>
   <g id="text_87">
    <!-- 6.2 -->
    <g transform="translate(1111.020018 509.741969) scale(0.22 -0.22)">
     <use xlink:href="#Helvetica-36"/>
     <use xlink:href="#Helvetica-2e" transform="translate(55.615234 0)"/>
     <use xlink:href="#Helvetica-32" transform="translate(83.398438 0)"/>
    </g>
   </g>
   <g id="text_88">
    <!-- 7.5 -->
    <g transform="translate(1121.298044 475.469969) scale(0.22 -0.22)">
     <use xlink:href="#Helvetica-37"/>
     <use xlink:href="#Helvetica-2e" transform="translate(55.615234 0)"/>
     <use xlink:href="#Helvetica-35" transform="translate(83.398438 0)"/>
    </g>
   </g>
   <g id="text_89">
    <!-- 3.3 -->
    <g transform="translate(1087.144354 441.197969) scale(0.22 -0.22)">
     <use xlink:href="#Helvetica-33"/>
     <use xlink:href="#Helvetica-2e" transform="translate(55.615234 0)"/>
     <use xlink:href="#Helvetica-33" transform="translate(83.398438 0)"/>
    </g>
   </g>
   <g id="text_90">
    <!-- 7.7 -->
    <g transform="translate(1123.035874 406.925969) scale(0.22 -0.22)">
     <use xlink:href="#Helvetica-37"/>
     <use xlink:href="#Helvetica-2e" transform="translate(55.615234 0)"/>
     <use xlink:href="#Helvetica-37" transform="translate(83.398438 0)"/>
    </g>
   </g>
   <g id="text_91">
    <!-- 7.3 -->
    <g transform="translate(1119.914873 372.653969) scale(0.22 -0.22)">
     <use xlink:href="#Helvetica-37"/>
     <use xlink:href="#Helvetica-2e" transform="translate(55.615234 0)"/>
     <use xlink:href="#Helvetica-33" transform="translate(83.398438 0)"/>
    </g>
   </g>
   <g id="text_92">
    <!-- 4.3 -->
    <g transform="translate(1095.583379 338.381969) scale(0.22 -0.22)">
     <use xlink:href="#Helvetica-34"/>
     <use xlink:href="#Helvetica-2e" transform="translate(55.615234 0)"/>
     <use xlink:href="#Helvetica-33" transform="translate(83.398438 0)"/>
    </g>
   </g>
   <g id="text_93">
    <!-- 37.5 -->
    <g transform="translate(1367.449323 304.109969) scale(0.22 -0.22)">
     <use xlink:href="#Helvetica-33"/>
     <use xlink:href="#Helvetica-37" transform="translate(55.615234 0)"/>
     <use xlink:href="#Helvetica-2e" transform="translate(111.230469 0)"/>
     <use xlink:href="#Helvetica-35" transform="translate(139.013672 0)"/>
    </g>
   </g>
   <g id="text_94">
    <!-- 13.0 -->
    <g transform="translate(1166.729899 269.837969) scale(0.22 -0.22)">
     <use xlink:href="#Helvetica-31"/>
     <use xlink:href="#Helvetica-33" transform="translate(55.615234 0)"/>
     <use xlink:href="#Helvetica-2e" transform="translate(111.230469 0)"/>
     <use xlink:href="#Helvetica-30" transform="translate(139.013672 0)"/>
    </g>
   </g>
   <g id="text_95">
    <!-- 10.3 -->
    <g transform="translate(1144.882887 235.565969) scale(0.22 -0.22)">
     <use xlink:href="#Helvetica-31"/>
     <use xlink:href="#Helvetica-30" transform="translate(55.615234 0)"/>
     <use xlink:href="#Helvetica-2e" transform="translate(111.230469 0)"/>
     <use xlink:href="#Helvetica-33" transform="translate(139.013672 0)"/>
    </g>
   </g>
   <g id="text_96">
    <!-- 10.2 -->
    <g transform="translate(1143.790536 201.293969) scale(0.22 -0.22)">
     <use xlink:href="#Helvetica-31"/>
     <use xlink:href="#Helvetica-30" transform="translate(55.615234 0)"/>
     <use xlink:href="#Helvetica-2e" transform="translate(111.230469 0)"/>
     <use xlink:href="#Helvetica-32" transform="translate(139.013672 0)"/>
    </g>
   </g>
   <g id="text_97">
    <!-- 4.6 -->
    <g transform="translate(1097.622659 167.021969) scale(0.22 -0.22)">
     <use xlink:href="#Helvetica-34"/>
     <use xlink:href="#Helvetica-2e" transform="translate(55.615234 0)"/>
     <use xlink:href="#Helvetica-36" transform="translate(83.398438 0)"/>
    </g>
   </g>
   <g id="text_98">
    <!-- 10.4 -->
    <g transform="translate(1145.32335 132.749969) scale(0.22 -0.22)">
     <use xlink:href="#Helvetica-31"/>
     <use xlink:href="#Helvetica-30" transform="translate(55.615234 0)"/>
     <use xlink:href="#Helvetica-2e" transform="translate(111.230469 0)"/>
     <use xlink:href="#Helvetica-34" transform="translate(139.013672 0)"/>
    </g>
   </g>
   <g id="text_99">
    <!-- 10.3 -->
    <g transform="translate(1144.386364 98.477969) scale(0.22 -0.22)">
     <use xlink:href="#Helvetica-31"/>
     <use xlink:href="#Helvetica-30" transform="translate(55.615234 0)"/>
     <use xlink:href="#Helvetica-2e" transform="translate(111.230469 0)"/>
     <use xlink:href="#Helvetica-33" transform="translate(139.013672 0)"/>
    </g>
   </g>
   <g id="text_100">
    <!-- 46.3 -->
    <g style="fill: #ffffff" transform="translate(1387.437774 64.205969) scale(0.22 -0.22)">
     <use xlink:href="#Helvetica-34"/>
     <use xlink:href="#Helvetica-36" transform="translate(55.615234 0)"/>
     <use xlink:href="#Helvetica-2e" transform="translate(111.230469 0)"/>
     <use xlink:href="#Helvetica-33" transform="translate(139.013672 0)"/>
    </g>
   </g>
   <g id="text_101">
    <!-- 12.4 -->
    <g transform="translate(1162.121545 29.933969) scale(0.22 -0.22)">
     <use xlink:href="#Helvetica-31"/>
     <use xlink:href="#Helvetica-32" transform="translate(55.615234 0)"/>
     <use xlink:href="#Helvetica-2e" transform="translate(111.230469 0)"/>
     <use xlink:href="#Helvetica-34" transform="translate(139.013672 0)"/>
    </g>
   </g>
   <g id="text_102">
    <!-- g -->
    <g transform="translate(1003.628571 31.154063) scale(0.34 -0.34)">
     <use xlink:href="#Helvetica-67"/>
    </g>
   </g>
  </g>
 </g>
 <defs>
  <clipPath id="p674ab900d4">
   <rect x="59.014286" y="7.2" width="398.571429" height="925.344"/>
  </clipPath>
  <clipPath id="pcd7444570a">
   <rect x="557.228571" y="7.2" width="398.571429" height="925.344"/>
  </clipPath>
  <clipPath id="p5a6f6525ca">
   <rect x="1055.442857" y="7.2" width="398.571429" height="925.344"/>
  </clipPath>
 </defs>
</svg>
