<?xml version="1.0" encoding="utf-8" standalone="no"?>
<!DOCTYPE svg PUBLIC "-//W3C//DTD SVG 1.1//EN"
  "http://www.w3.org/Graphics/SVG/1.1/DTD/svg11.dtd">
<svg xmlns:xlink="http://www.w3.org/1999/xlink" width="1252.873029pt" height="884.318937pt" viewBox="0 0 1252.873029 884.318937" xmlns="http://www.w3.org/2000/svg" version="1.1">
 <metadata>
  <rdf:RDF xmlns:dc="http://purl.org/dc/elements/1.1/" xmlns:cc="http://creativecommons.org/ns#" xmlns:rdf="http://www.w3.org/1999/02/22-rdf-syntax-ns#">
   <cc:Work>
    <dc:type rdf:resource="http://purl.org/dc/dcmitype/StillImage"/>
    <dc:date>2025-09-04T23:08:20.374100</dc:date>
    <dc:format>image/svg+xml</dc:format>
    <dc:creator>
     <cc:Agent>
      <dc:title>Matplotlib v3.10.5, https://matplotlib.org/</dc:title>
     </cc:Agent>
    </dc:creator>
   </cc:Work>
  </rdf:RDF>
 </metadata>
 <defs>
  <style type="text/css">*{stroke-linejoin: round; stroke-linecap: butt}</style>
 </defs>
 <g id="figure_1">
  <g id="patch_1">
   <path d="M 0 884.318937 
L 1252.873029 884.318937 
L 1252.873029 0 
L 0 0 
z
" style="fill: #ffffff"/>
  </g>
  <g id="axes_1">
   <g id="patch_2">
    <path d="M 51.553029 800.352 
L 392.730171 800.352 
L 392.730171 7.2 
L 51.553029 7.2 
z
" style="fill: #ffffff"/>
   </g>
   <g id="patch_3">
    <path d="M 51.553029 800.352 
L 392.730171 800.352 
L 392.730171 770.976 
L 51.553029 770.976 
z
" clip-path="url(#p4638c787a9)" style="fill: #d3d3d3; opacity: 0.2"/>
   </g>
   <g id="patch_4">
    <path d="M 51.553029 741.6 
L 392.730171 741.6 
L 392.730171 712.224 
L 51.553029 712.224 
z
" clip-path="url(#p4638c787a9)" style="fill: #d3d3d3; opacity: 0.2"/>
   </g>
   <g id="patch_5">
    <path d="M 51.553029 682.848 
L 392.730171 682.848 
L 392.730171 653.472 
L 51.553029 653.472 
z
" clip-path="url(#p4638c787a9)" style="fill: #d3d3d3; opacity: 0.2"/>
   </g>
   <g id="patch_6">
    <path d="M 51.553029 624.096 
L 392.730171 624.096 
L 392.730171 594.72 
L 51.553029 594.72 
z
" clip-path="url(#p4638c787a9)" style="fill: #d3d3d3; opacity: 0.2"/>
   </g>
   <g id="patch_7">
    <path d="M 51.553029 565.344 
L 392.730171 565.344 
L 392.730171 535.968 
L 51.553029 535.968 
z
" clip-path="url(#p4638c787a9)" style="fill: #d3d3d3; opacity: 0.2"/>
   </g>
   <g id="patch_8">
    <path d="M 51.553029 506.592 
L 392.730171 506.592 
L 392.730171 477.216 
L 51.553029 477.216 
z
" clip-path="url(#p4638c787a9)" style="fill: #d3d3d3; opacity: 0.2"/>
   </g>
   <g id="patch_9">
    <path d="M 51.553029 447.84 
L 392.730171 447.84 
L 392.730171 418.464 
L 51.553029 418.464 
z
" clip-path="url(#p4638c787a9)" style="fill: #d3d3d3; opacity: 0.2"/>
   </g>
   <g id="patch_10">
    <path d="M 51.553029 389.088 
L 392.730171 389.088 
L 392.730171 359.712 
L 51.553029 359.712 
z
" clip-path="url(#p4638c787a9)" style="fill: #d3d3d3; opacity: 0.2"/>
   </g>
   <g id="patch_11">
    <path d="M 51.553029 330.336 
L 392.730171 330.336 
L 392.730171 300.96 
L 51.553029 300.96 
z
" clip-path="url(#p4638c787a9)" style="fill: #d3d3d3; opacity: 0.2"/>
   </g>
   <g id="patch_12">
    <path d="M 51.553029 271.584 
L 392.730171 271.584 
L 392.730171 242.208 
L 51.553029 242.208 
z
" clip-path="url(#p4638c787a9)" style="fill: #d3d3d3; opacity: 0.2"/>
   </g>
   <g id="patch_13">
    <path d="M 51.553029 212.832 
L 392.730171 212.832 
L 392.730171 183.456 
L 51.553029 183.456 
z
" clip-path="url(#p4638c787a9)" style="fill: #d3d3d3; opacity: 0.2"/>
   </g>
   <g id="patch_14">
    <path d="M 51.553029 154.08 
L 392.730171 154.08 
L 392.730171 124.704 
L 51.553029 124.704 
z
" clip-path="url(#p4638c787a9)" style="fill: #d3d3d3; opacity: 0.2"/>
   </g>
   <g id="patch_15">
    <path d="M 51.553029 95.328 
L 392.730171 95.328 
L 392.730171 65.952 
L 51.553029 65.952 
z
" clip-path="url(#p4638c787a9)" style="fill: #d3d3d3; opacity: 0.2"/>
   </g>
   <g id="patch_16">
    <path d="M 51.553029 36.576 
L 392.730171 36.576 
L 392.730171 7.2 
L 51.553029 7.2 
z
" clip-path="url(#p4638c787a9)" style="fill: #d3d3d3; opacity: 0.2"/>
   </g>
   <g id="matplotlib.axis_1">
    <g id="xtick_1">
     <g id="line2d_1">
      <defs>
       <path id="mfa6b936049" d="M 0 0 
L 0 3.5 
" style="stroke: #000000; stroke-width: 0.8"/>
      </defs>
      <g>
       <use xlink:href="#mfa6b936049" x="51.553029" y="800.352" style="stroke: #000000; stroke-width: 0.8"/>
      </g>
     </g>
     <g id="text_1">
      <!-- 0 -->
      <g transform="translate(45.435997 823.133562) scale(0.22 -0.22)">
       <defs>
        <path id="Helvetica-30" d="M 1731 4475 
Q 2600 4475 2988 3759 
Q 3288 3206 3288 2244 
Q 3288 1331 3016 734 
Q 2622 -122 1728 -122 
Q 922 -122 528 578 
Q 200 1163 200 2147 
Q 200 2909 397 3456 
Q 766 4475 1731 4475 
z
M 1725 391 
Q 2163 391 2422 778 
Q 2681 1166 2681 2222 
Q 2681 2984 2493 3476 
Q 2306 3969 1766 3969 
Q 1269 3969 1039 3501 
Q 809 3034 809 2125 
Q 809 1441 956 1025 
Q 1181 391 1725 391 
z
" transform="scale(0.015625)"/>
       </defs>
       <use xlink:href="#Helvetica-30"/>
      </g>
     </g>
    </g>
    <g id="xtick_2">
     <g id="line2d_2">
      <g>
       <use xlink:href="#mfa6b936049" x="123.440332" y="800.352" style="stroke: #000000; stroke-width: 0.8"/>
      </g>
     </g>
     <g id="text_2">
      <!-- 100 -->
      <g transform="translate(105.089238 823.133562) scale(0.22 -0.22)">
       <defs>
        <path id="Helvetica-31" d="M 613 3169 
L 613 3600 
Q 1222 3659 1462 3798 
Q 1703 3938 1822 4456 
L 2266 4456 
L 2266 0 
L 1666 0 
L 1666 3169 
L 613 3169 
z
" transform="scale(0.015625)"/>
       </defs>
       <use xlink:href="#Helvetica-31"/>
       <use xlink:href="#Helvetica-30" transform="translate(55.615234 0)"/>
       <use xlink:href="#Helvetica-30" transform="translate(111.230469 0)"/>
      </g>
     </g>
    </g>
    <g id="xtick_3">
     <g id="line2d_3">
      <g>
       <use xlink:href="#mfa6b936049" x="195.327636" y="800.352" style="stroke: #000000; stroke-width: 0.8"/>
      </g>
     </g>
     <g id="text_3">
      <!-- 200 -->
      <g transform="translate(176.976542 823.133562) scale(0.22 -0.22)">
       <defs>
        <path id="Helvetica-32" d="M 200 0 
Q 231 578 439 1006 
Q 647 1434 1250 1784 
L 1850 2131 
Q 2253 2366 2416 2531 
Q 2672 2791 2672 3125 
Q 2672 3516 2437 3745 
Q 2203 3975 1813 3975 
Q 1234 3975 1013 3538 
Q 894 3303 881 2888 
L 309 2888 
Q 319 3472 525 3841 
Q 891 4491 1816 4491 
Q 2584 4491 2939 4075 
Q 3294 3659 3294 3150 
Q 3294 2613 2916 2231 
Q 2697 2009 2131 1694 
L 1703 1456 
Q 1397 1288 1222 1134 
Q 909 863 828 531 
L 3272 531 
L 3272 0 
L 200 0 
z
" transform="scale(0.015625)"/>
       </defs>
       <use xlink:href="#Helvetica-32"/>
       <use xlink:href="#Helvetica-30" transform="translate(55.615234 0)"/>
       <use xlink:href="#Helvetica-30" transform="translate(111.230469 0)"/>
      </g>
     </g>
    </g>
    <g id="xtick_4">
     <g id="line2d_4">
      <g>
       <use xlink:href="#mfa6b936049" x="267.214939" y="800.352" style="stroke: #000000; stroke-width: 0.8"/>
      </g>
     </g>
     <g id="text_4">
      <!-- 300 -->
      <g transform="translate(248.863846 823.133562) scale(0.22 -0.22)">
       <defs>
        <path id="Helvetica-33" d="M 1663 -122 
Q 869 -122 511 314 
Q 153 750 153 1375 
L 741 1375 
Q 778 941 903 744 
Q 1122 391 1694 391 
Q 2138 391 2406 628 
Q 2675 866 2675 1241 
Q 2675 1703 2392 1887 
Q 2109 2072 1606 2072 
Q 1550 2072 1492 2070 
Q 1434 2069 1375 2066 
L 1375 2563 
Q 1463 2553 1522 2550 
Q 1581 2547 1650 2547 
Q 1966 2547 2169 2647 
Q 2525 2822 2525 3272 
Q 2525 3606 2287 3787 
Q 2050 3969 1734 3969 
Q 1172 3969 956 3594 
Q 838 3388 822 3006 
L 266 3006 
Q 266 3506 466 3856 
Q 809 4481 1675 4481 
Q 2359 4481 2734 4176 
Q 3109 3872 3109 3294 
Q 3109 2881 2888 2625 
Q 2750 2466 2531 2375 
Q 2884 2278 3082 2001 
Q 3281 1725 3281 1325 
Q 3281 684 2859 281 
Q 2438 -122 1663 -122 
z
" transform="scale(0.015625)"/>
       </defs>
       <use xlink:href="#Helvetica-33"/>
       <use xlink:href="#Helvetica-30" transform="translate(55.615234 0)"/>
       <use xlink:href="#Helvetica-30" transform="translate(111.230469 0)"/>
      </g>
     </g>
    </g>
    <g id="xtick_5">
     <g id="line2d_5">
      <g>
       <use xlink:href="#mfa6b936049" x="339.102243" y="800.352" style="stroke: #000000; stroke-width: 0.8"/>
      </g>
     </g>
     <g id="text_5">
      <!-- 400 -->
      <g transform="translate(320.751149 823.133562) scale(0.22 -0.22)">
       <defs>
        <path id="Helvetica-34" d="M 2116 1584 
L 2116 3613 
L 681 1584 
L 2116 1584 
z
M 2125 0 
L 2125 1094 
L 163 1094 
L 163 1644 
L 2213 4488 
L 2688 4488 
L 2688 1584 
L 3347 1584 
L 3347 1094 
L 2688 1094 
L 2688 0 
L 2125 0 
z
" transform="scale(0.015625)"/>
       </defs>
       <use xlink:href="#Helvetica-34"/>
       <use xlink:href="#Helvetica-30" transform="translate(55.615234 0)"/>
       <use xlink:href="#Helvetica-30" transform="translate(111.230469 0)"/>
      </g>
     </g>
    </g>
    <g id="text_6">
     <!-- Sample Count -->
     <g transform="translate(152.439413 847.930437) scale(0.22 -0.22)">
      <defs>
       <path id="Helvetica-53" d="M 894 1481 
Q 916 1091 1078 847 
Q 1388 391 2169 391 
Q 2519 391 2806 491 
Q 3363 684 3363 1184 
Q 3363 1559 3128 1719 
Q 2891 1875 2384 1991 
L 1763 2131 
Q 1153 2269 900 2434 
Q 463 2722 463 3294 
Q 463 3913 891 4309 
Q 1319 4706 2103 4706 
Q 2825 4706 3329 4357 
Q 3834 4009 3834 3244 
L 3250 3244 
Q 3203 3613 3050 3809 
Q 2766 4169 2084 4169 
Q 1534 4169 1293 3937 
Q 1053 3706 1053 3400 
Q 1053 3063 1334 2906 
Q 1519 2806 2169 2656 
L 2813 2509 
Q 3278 2403 3531 2219 
Q 3969 1897 3969 1284 
Q 3969 522 3414 194 
Q 2859 -134 2125 -134 
Q 1269 -134 784 303 
Q 300 738 309 1481 
L 894 1481 
z
M 2150 4716 
L 2150 4716 
z
" transform="scale(0.015625)"/>
       <path id="Helvetica-61" d="M 844 891 
Q 844 647 1022 506 
Q 1200 366 1444 366 
Q 1741 366 2019 503 
Q 2488 731 2488 1250 
L 2488 1703 
Q 2384 1638 2221 1594 
Q 2059 1550 1903 1531 
L 1563 1488 
Q 1256 1447 1103 1359 
Q 844 1213 844 891 
z
M 2206 2028 
Q 2400 2053 2466 2191 
Q 2503 2266 2503 2406 
Q 2503 2694 2298 2823 
Q 2094 2953 1713 2953 
Q 1272 2953 1088 2716 
Q 984 2584 953 2325 
L 428 2325 
Q 444 2944 830 3186 
Q 1216 3428 1725 3428 
Q 2316 3428 2684 3203 
Q 3050 2978 3050 2503 
L 3050 575 
Q 3050 488 3086 434 
Q 3122 381 3238 381 
Q 3275 381 3322 386 
Q 3369 391 3422 400 
L 3422 -16 
Q 3291 -53 3222 -62 
Q 3153 -72 3034 -72 
Q 2744 -72 2613 134 
Q 2544 244 2516 444 
Q 2344 219 2022 53 
Q 1700 -113 1313 -113 
Q 847 -113 551 170 
Q 256 453 256 878 
Q 256 1344 547 1600 
Q 838 1856 1309 1916 
L 2206 2028 
z
M 1741 3428 
L 1741 3428 
z
" transform="scale(0.015625)"/>
       <path id="Helvetica-6d" d="M 413 3347 
L 969 3347 
L 969 2872 
Q 1169 3119 1331 3231 
Q 1609 3422 1963 3422 
Q 2363 3422 2606 3225 
Q 2744 3113 2856 2894 
Q 3044 3163 3297 3292 
Q 3550 3422 3866 3422 
Q 4541 3422 4784 2934 
Q 4916 2672 4916 2228 
L 4916 0 
L 4331 0 
L 4331 2325 
Q 4331 2659 4164 2784 
Q 3997 2909 3756 2909 
Q 3425 2909 3186 2687 
Q 2947 2466 2947 1947 
L 2947 0 
L 2375 0 
L 2375 2184 
Q 2375 2525 2294 2681 
Q 2166 2916 1816 2916 
Q 1497 2916 1236 2669 
Q 975 2422 975 1775 
L 975 0 
L 413 0 
L 413 3347 
z
" transform="scale(0.015625)"/>
       <path id="Helvetica-70" d="M 1825 378 
Q 2219 378 2480 708 
Q 2741 1038 2741 1694 
Q 2741 2094 2625 2381 
Q 2406 2934 1825 2934 
Q 1241 2934 1025 2350 
Q 909 2038 909 1556 
Q 909 1169 1025 897 
Q 1244 378 1825 378 
z
M 369 3331 
L 916 3331 
L 916 2888 
Q 1084 3116 1284 3241 
Q 1569 3428 1953 3428 
Q 2522 3428 2919 2992 
Q 3316 2556 3316 1747 
Q 3316 653 2744 184 
Q 2381 -113 1900 -113 
Q 1522 -113 1266 53 
Q 1116 147 931 375 
L 931 -1334 
L 369 -1334 
L 369 3331 
z
" transform="scale(0.015625)"/>
       <path id="Helvetica-6c" d="M 428 4591 
L 991 4591 
L 991 0 
L 428 0 
L 428 4591 
z
" transform="scale(0.015625)"/>
       <path id="Helvetica-65" d="M 1806 3422 
Q 2163 3422 2497 3255 
Q 2831 3088 3006 2822 
Q 3175 2569 3231 2231 
Q 3281 2000 3281 1494 
L 828 1494 
Q 844 984 1069 676 
Q 1294 369 1766 369 
Q 2206 369 2469 659 
Q 2619 828 2681 1050 
L 3234 1050 
Q 3213 866 3089 639 
Q 2966 413 2813 269 
Q 2556 19 2178 -69 
Q 1975 -119 1719 -119 
Q 1094 -119 659 336 
Q 225 791 225 1609 
Q 225 2416 662 2919 
Q 1100 3422 1806 3422 
z
M 2703 1941 
Q 2669 2306 2544 2525 
Q 2313 2931 1772 2931 
Q 1384 2931 1121 2651 
Q 859 2372 844 1941 
L 2703 1941 
z
M 1753 3428 
L 1753 3428 
z
" transform="scale(0.015625)"/>
       <path id="Helvetica-20" transform="scale(0.015625)"/>
       <path id="Helvetica-43" d="M 2422 4716 
Q 3294 4716 3775 4256 
Q 4256 3797 4309 3213 
L 3703 3213 
Q 3600 3656 3292 3915 
Q 2984 4175 2428 4175 
Q 1750 4175 1333 3698 
Q 916 3222 916 2238 
Q 916 1431 1292 929 
Q 1669 428 2416 428 
Q 3103 428 3463 956 
Q 3653 1234 3747 1688 
L 4353 1688 
Q 4272 963 3816 472 
Q 3269 -119 2341 -119 
Q 1541 -119 997 366 
Q 281 1006 281 2344 
Q 281 3359 819 4009 
Q 1400 4716 2422 4716 
z
M 2297 4716 
L 2297 4716 
z
" transform="scale(0.015625)"/>
       <path id="Helvetica-6f" d="M 1741 363 
Q 2300 363 2508 786 
Q 2716 1209 2716 1728 
Q 2716 2197 2566 2491 
Q 2328 2953 1747 2953 
Q 1231 2953 997 2559 
Q 763 2166 763 1609 
Q 763 1075 997 719 
Q 1231 363 1741 363 
z
M 1763 3444 
Q 2409 3444 2856 3012 
Q 3303 2581 3303 1744 
Q 3303 934 2909 406 
Q 2516 -122 1688 -122 
Q 997 -122 590 345 
Q 184 813 184 1600 
Q 184 2444 612 2944 
Q 1041 3444 1763 3444 
z
M 1744 3428 
L 1744 3428 
z
" transform="scale(0.015625)"/>
       <path id="Helvetica-75" d="M 975 3347 
L 975 1125 
Q 975 869 1056 706 
Q 1206 406 1616 406 
Q 2203 406 2416 931 
Q 2531 1213 2531 1703 
L 2531 3347 
L 3094 3347 
L 3094 0 
L 2563 0 
L 2569 494 
Q 2459 303 2297 172 
Q 1975 -91 1516 -91 
Q 800 -91 541 388 
Q 400 644 400 1072 
L 400 3347 
L 975 3347 
z
M 1747 3428 
L 1747 3428 
z
" transform="scale(0.015625)"/>
       <path id="Helvetica-6e" d="M 413 3347 
L 947 3347 
L 947 2872 
Q 1184 3166 1450 3294 
Q 1716 3422 2041 3422 
Q 2753 3422 3003 2925 
Q 3141 2653 3141 2147 
L 3141 0 
L 2569 0 
L 2569 2109 
Q 2569 2416 2478 2603 
Q 2328 2916 1934 2916 
Q 1734 2916 1606 2875 
Q 1375 2806 1200 2600 
Q 1059 2434 1017 2257 
Q 975 2081 975 1753 
L 975 0 
L 413 0 
L 413 3347 
z
M 1734 3428 
L 1734 3428 
z
" transform="scale(0.015625)"/>
       <path id="Helvetica-74" d="M 525 4281 
L 1094 4281 
L 1094 3347 
L 1628 3347 
L 1628 2888 
L 1094 2888 
L 1094 703 
Q 1094 528 1213 469 
Q 1278 434 1431 434 
Q 1472 434 1519 436 
Q 1566 438 1628 444 
L 1628 0 
Q 1531 -28 1426 -40 
Q 1322 -53 1200 -53 
Q 806 -53 665 148 
Q 525 350 525 672 
L 525 2888 
L 72 2888 
L 72 3347 
L 525 3347 
L 525 4281 
z
" transform="scale(0.015625)"/>
      </defs>
      <use xlink:href="#Helvetica-53"/>
      <use xlink:href="#Helvetica-61" transform="translate(66.699219 0)"/>
      <use xlink:href="#Helvetica-6d" transform="translate(122.314453 0)"/>
      <use xlink:href="#Helvetica-70" transform="translate(205.615234 0)"/>
      <use xlink:href="#Helvetica-6c" transform="translate(261.230469 0)"/>
      <use xlink:href="#Helvetica-65" transform="translate(283.447266 0)"/>
      <use xlink:href="#Helvetica-20" transform="translate(339.0625 0)"/>
      <use xlink:href="#Helvetica-43" transform="translate(366.845703 0)"/>
      <use xlink:href="#Helvetica-6f" transform="translate(439.0625 0)"/>
      <use xlink:href="#Helvetica-75" transform="translate(494.677734 0)"/>
      <use xlink:href="#Helvetica-6e" transform="translate(550.292969 0)"/>
      <use xlink:href="#Helvetica-74" transform="translate(605.908203 0)"/>
     </g>
    </g>
   </g>
   <g id="matplotlib.axis_2"/>
   <g id="patch_17">
    <path d="M 51.553029 800.352 
L 51.553029 7.2 
" style="fill: none; stroke: #000000; stroke-width: 0.8; stroke-linejoin: miter; stroke-linecap: square"/>
   </g>
   <g id="patch_18">
    <path d="M 392.730171 800.352 
L 392.730171 7.2 
" style="fill: none; stroke: #000000; stroke-width: 0.8; stroke-linejoin: miter; stroke-linecap: square"/>
   </g>
   <g id="patch_19">
    <path d="M 51.553029 800.352 
L 392.730171 800.352 
" style="fill: none; stroke: #000000; stroke-width: 0.8; stroke-linejoin: miter; stroke-linecap: square"/>
   </g>
   <g id="patch_20">
    <path d="M 51.553029 7.2 
L 392.730171 7.2 
" style="fill: none; stroke: #000000; stroke-width: 0.8; stroke-linejoin: miter; stroke-linecap: square"/>
   </g>
   <g id="patch_21">
    <path d="M 51.553029 797.4144 
L 58.022886 797.4144 
L 58.022886 773.9136 
L 51.553029 773.9136 
z
" clip-path="url(#p4638c787a9)" style="fill: #4682b4"/>
   </g>
   <g id="patch_22">
    <path d="M 51.553029 768.0384 
L 53.709648 768.0384 
L 53.709648 744.5376 
L 51.553029 744.5376 
z
" clip-path="url(#p4638c787a9)" style="fill: #4682b4"/>
   </g>
   <g id="patch_23">
    <path d="M 51.553029 738.6624 
L 65.930489 738.6624 
L 65.930489 715.1616 
L 51.553029 715.1616 
z
" clip-path="url(#p4638c787a9)" style="fill: #4682b4"/>
   </g>
   <g id="patch_24">
    <path d="M 51.553029 709.2864 
L 61.617251 709.2864 
L 61.617251 685.7856 
L 51.553029 685.7856 
z
" clip-path="url(#p4638c787a9)" style="fill: #4682b4"/>
   </g>
   <g id="patch_25">
    <path d="M 51.553029 679.9104 
L 70.962601 679.9104 
L 70.962601 656.4096 
L 51.553029 656.4096 
z
" clip-path="url(#p4638c787a9)" style="fill: #4682b4"/>
   </g>
   <g id="patch_26">
    <path d="M 51.553029 650.5344 
L 81.745696 650.5344 
L 81.745696 627.0336 
L 51.553029 627.0336 
z
" clip-path="url(#p4638c787a9)" style="fill: #4682b4"/>
   </g>
   <g id="patch_27">
    <path d="M 51.553029 621.1584 
L 63.054997 621.1584 
L 63.054997 597.6576 
L 51.553029 597.6576 
z
" clip-path="url(#p4638c787a9)" style="fill: #4682b4"/>
   </g>
   <g id="patch_28">
    <path d="M 51.553029 591.7824 
L 62.336124 591.7824 
L 62.336124 568.2816 
L 51.553029 568.2816 
z
" clip-path="url(#p4638c787a9)" style="fill: #4682b4"/>
   </g>
   <g id="patch_29">
    <path d="M 51.553029 562.4064 
L 89.653299 562.4064 
L 89.653299 538.9056 
L 51.553029 538.9056 
z
" clip-path="url(#p4638c787a9)" style="fill: #4682b4"/>
   </g>
   <g id="patch_30">
    <path d="M 51.553029 533.0304 
L 90.372173 533.0304 
L 90.372173 509.5296 
L 51.553029 509.5296 
z
" clip-path="url(#p4638c787a9)" style="fill: #4682b4"/>
   </g>
   <g id="patch_31">
    <path d="M 51.553029 503.6544 
L 314.66056 503.6544 
L 314.66056 480.1536 
L 51.553029 480.1536 
z
" clip-path="url(#p4638c787a9)" style="fill: #4682b4"/>
   </g>
   <g id="patch_32">
    <path d="M 51.553029 474.2784 
L 89.653299 474.2784 
L 89.653299 450.7776 
L 51.553029 450.7776 
z
" clip-path="url(#p4638c787a9)" style="fill: #4682b4"/>
   </g>
   <g id="patch_33">
    <path d="M 51.553029 444.9024 
L 73.838093 444.9024 
L 73.838093 421.4016 
L 51.553029 421.4016 
z
" clip-path="url(#p4638c787a9)" style="fill: #4682b4"/>
   </g>
   <g id="patch_34">
    <path d="M 51.553029 415.5264 
L 110.500618 415.5264 
L 110.500618 392.0256 
L 51.553029 392.0256 
z
" clip-path="url(#p4638c787a9)" style="fill: #4682b4"/>
   </g>
   <g id="patch_35">
    <path d="M 51.553029 386.1504 
L 84.621188 386.1504 
L 84.621188 362.6496 
L 51.553029 362.6496 
z
" clip-path="url(#p4638c787a9)" style="fill: #4682b4"/>
   </g>
   <g id="patch_36">
    <path d="M 51.553029 356.7744 
L 84.621188 356.7744 
L 84.621188 333.2736 
L 51.553029 333.2736 
z
" clip-path="url(#p4638c787a9)" style="fill: #4682b4"/>
   </g>
   <g id="patch_37">
    <path d="M 51.553029 327.3984 
L 124.878078 327.3984 
L 124.878078 303.8976 
L 51.553029 303.8976 
z
" clip-path="url(#p4638c787a9)" style="fill: #4682b4"/>
   </g>
   <g id="patch_38">
    <path d="M 51.553029 298.0224 
L 110.500618 298.0224 
L 110.500618 274.5216 
L 51.553029 274.5216 
z
" clip-path="url(#p4638c787a9)" style="fill: #4682b4"/>
   </g>
   <g id="patch_39">
    <path d="M 51.553029 268.6464 
L 105.468506 268.6464 
L 105.468506 245.1456 
L 51.553029 245.1456 
z
" clip-path="url(#p4638c787a9)" style="fill: #4682b4"/>
   </g>
   <g id="patch_40">
    <path d="M 51.553029 239.2704 
L 163.697222 239.2704 
L 163.697222 215.7696 
L 51.553029 215.7696 
z
" clip-path="url(#p4638c787a9)" style="fill: #4682b4"/>
   </g>
   <g id="patch_41">
    <path d="M 51.553029 209.8944 
L 118.408221 209.8944 
L 118.408221 186.3936 
L 51.553029 186.3936 
z
" clip-path="url(#p4638c787a9)" style="fill: #4682b4"/>
   </g>
   <g id="patch_42">
    <path d="M 51.553029 180.5184 
L 124.878078 180.5184 
L 124.878078 157.0176 
L 51.553029 157.0176 
z
" clip-path="url(#p4638c787a9)" style="fill: #4682b4"/>
   </g>
   <g id="patch_43">
    <path d="M 51.553029 151.1424 
L 330.475767 151.1424 
L 330.475767 127.6416 
L 51.553029 127.6416 
z
" clip-path="url(#p4638c787a9)" style="fill: #4682b4"/>
   </g>
   <g id="patch_44">
    <path d="M 51.553029 121.7664 
L 283.030146 121.7664 
L 283.030146 98.2656 
L 51.553029 98.2656 
z
" clip-path="url(#p4638c787a9)" style="fill: #4682b4"/>
   </g>
   <g id="patch_45">
    <path d="M 51.553029 92.3904 
L 376.483641 92.3904 
L 376.483641 68.8896 
L 51.553029 68.8896 
z
" clip-path="url(#p4638c787a9)" style="fill: #4682b4"/>
   </g>
   <g id="patch_46">
    <path d="M 51.553029 63.0144 
L 251.399733 63.0144 
L 251.399733 39.5136 
L 51.553029 39.5136 
z
" clip-path="url(#p4638c787a9)" style="fill: #4682b4"/>
   </g>
   <g id="patch_47">
    <path d="M 51.553029 33.6384 
L 194.608763 33.6384 
L 194.608763 10.1376 
L 51.553029 10.1376 
z
" clip-path="url(#p4638c787a9)" style="fill: #4682b4"/>
   </g>
   <g id="text_7">
    <!-- 9 -->
    <g transform="translate(62.117012 791.261969) scale(0.22 -0.22)">
     <defs>
      <path id="Helvetica-39" d="M 850 1081 
Q 875 616 1209 438 
Q 1381 344 1597 344 
Q 2000 344 2284 680 
Q 2569 1016 2688 2044 
Q 2500 1747 2223 1626 
Q 1947 1506 1628 1506 
Q 981 1506 604 1909 
Q 228 2313 228 2947 
Q 228 3556 600 4018 
Q 972 4481 1697 4481 
Q 2675 4481 3047 3600 
Q 3253 3116 3253 2388 
Q 3253 1566 3006 931 
Q 2597 -125 1619 -125 
Q 963 -125 622 219 
Q 281 563 281 1081 
L 850 1081 
z
M 1703 2000 
Q 2038 2000 2314 2220 
Q 2591 2441 2591 2991 
Q 2591 3484 2342 3726 
Q 2094 3969 1709 3969 
Q 1297 3969 1055 3692 
Q 813 3416 813 2953 
Q 813 2516 1025 2258 
Q 1238 2000 1703 2000 
z
" transform="scale(0.015625)"/>
     </defs>
     <use xlink:href="#Helvetica-39"/>
    </g>
   </g>
   <g id="text_8">
    <!-- 3 -->
    <g transform="translate(57.803773 761.885969) scale(0.22 -0.22)">
     <use xlink:href="#Helvetica-33"/>
    </g>
   </g>
   <g id="text_9">
    <!-- 20 -->
    <g transform="translate(70.024615 732.509969) scale(0.22 -0.22)">
     <use xlink:href="#Helvetica-32"/>
     <use xlink:href="#Helvetica-30" transform="translate(55.615234 0)"/>
    </g>
   </g>
   <g id="text_10">
    <!-- 14 -->
    <g transform="translate(65.711377 703.133969) scale(0.22 -0.22)">
     <use xlink:href="#Helvetica-31"/>
     <use xlink:href="#Helvetica-34" transform="translate(55.615234 0)"/>
    </g>
   </g>
   <g id="text_11">
    <!-- 27 -->
    <g transform="translate(75.056726 673.757969) scale(0.22 -0.22)">
     <defs>
      <path id="Helvetica-37" d="M 3347 4400 
L 3347 3909 
Q 3131 3700 2773 3181 
Q 2416 2663 2141 2063 
Q 1869 1478 1728 997 
Q 1638 688 1494 0 
L 872 0 
Q 1084 1281 1809 2550 
Q 2238 3294 2709 3834 
L 234 3834 
L 234 4400 
L 3347 4400 
z
" transform="scale(0.015625)"/>
     </defs>
     <use xlink:href="#Helvetica-32"/>
     <use xlink:href="#Helvetica-37" transform="translate(55.615234 0)"/>
    </g>
   </g>
   <g id="text_12">
    <!-- 42 -->
    <g transform="translate(85.839822 644.381969) scale(0.22 -0.22)">
     <use xlink:href="#Helvetica-34"/>
     <use xlink:href="#Helvetica-32" transform="translate(55.615234 0)"/>
    </g>
   </g>
   <g id="text_13">
    <!-- 16 -->
    <g transform="translate(67.149123 615.005969) scale(0.22 -0.22)">
     <defs>
      <path id="Helvetica-36" d="M 1872 4494 
Q 2622 4494 2917 4105 
Q 3213 3716 3213 3303 
L 2656 3303 
Q 2606 3569 2497 3719 
Q 2294 4000 1881 4000 
Q 1409 4000 1131 3564 
Q 853 3128 822 2316 
Q 1016 2600 1309 2741 
Q 1578 2866 1909 2866 
Q 2472 2866 2890 2506 
Q 3309 2147 3309 1434 
Q 3309 825 2912 354 
Q 2516 -116 1781 -116 
Q 1153 -116 697 361 
Q 241 838 241 1966 
Q 241 2800 444 3381 
Q 834 4494 1872 4494 
z
M 1831 384 
Q 2275 384 2495 682 
Q 2716 981 2716 1388 
Q 2716 1731 2519 2042 
Q 2322 2353 1803 2353 
Q 1441 2353 1167 2112 
Q 894 1872 894 1388 
Q 894 963 1142 673 
Q 1391 384 1831 384 
z
" transform="scale(0.015625)"/>
     </defs>
     <use xlink:href="#Helvetica-31"/>
     <use xlink:href="#Helvetica-36" transform="translate(55.615234 0)"/>
    </g>
   </g>
   <g id="text_14">
    <!-- 15 -->
    <g transform="translate(66.43025 585.629969) scale(0.22 -0.22)">
     <defs>
      <path id="Helvetica-35" d="M 791 1141 
Q 847 659 1238 475 
Q 1438 381 1700 381 
Q 2200 381 2440 700 
Q 2681 1019 2681 1406 
Q 2681 1875 2395 2131 
Q 2109 2388 1709 2388 
Q 1419 2388 1211 2275 
Q 1003 2163 856 1963 
L 369 1991 
L 709 4400 
L 3034 4400 
L 3034 3856 
L 1131 3856 
L 941 2613 
Q 1097 2731 1238 2791 
Q 1488 2894 1816 2894 
Q 2431 2894 2859 2497 
Q 3288 2100 3288 1491 
Q 3288 856 2895 371 
Q 2503 -113 1644 -113 
Q 1097 -113 676 195 
Q 256 503 206 1141 
L 791 1141 
z
" transform="scale(0.015625)"/>
     </defs>
     <use xlink:href="#Helvetica-31"/>
     <use xlink:href="#Helvetica-35" transform="translate(55.615234 0)"/>
    </g>
   </g>
   <g id="text_15">
    <!-- 53 -->
    <g transform="translate(93.747425 556.253969) scale(0.22 -0.22)">
     <use xlink:href="#Helvetica-35"/>
     <use xlink:href="#Helvetica-33" transform="translate(55.615234 0)"/>
    </g>
   </g>
   <g id="text_16">
    <!-- 54 -->
    <g transform="translate(94.466298 526.877969) scale(0.22 -0.22)">
     <use xlink:href="#Helvetica-35"/>
     <use xlink:href="#Helvetica-34" transform="translate(55.615234 0)"/>
    </g>
   </g>
   <g id="text_17">
    <!-- 366 -->
    <g transform="translate(318.754685 497.501969) scale(0.22 -0.22)">
     <use xlink:href="#Helvetica-33"/>
     <use xlink:href="#Helvetica-36" transform="translate(55.615234 0)"/>
     <use xlink:href="#Helvetica-36" transform="translate(111.230469 0)"/>
    </g>
   </g>
   <g id="text_18">
    <!-- 53 -->
    <g transform="translate(93.747425 468.125969) scale(0.22 -0.22)">
     <use xlink:href="#Helvetica-35"/>
     <use xlink:href="#Helvetica-33" transform="translate(55.615234 0)"/>
    </g>
   </g>
   <g id="text_19">
    <!-- 31 -->
    <g transform="translate(77.932218 438.749969) scale(0.22 -0.22)">
     <use xlink:href="#Helvetica-33"/>
     <use xlink:href="#Helvetica-31" transform="translate(55.615234 0)"/>
    </g>
   </g>
   <g id="text_20">
    <!-- 82 -->
    <g transform="translate(114.594743 409.373969) scale(0.22 -0.22)">
     <defs>
      <path id="Helvetica-38" d="M 1741 2600 
Q 2113 2600 2322 2808 
Q 2531 3016 2531 3303 
Q 2531 3553 2331 3762 
Q 2131 3972 1722 3972 
Q 1316 3972 1134 3762 
Q 953 3553 953 3272 
Q 953 2956 1187 2778 
Q 1422 2600 1741 2600 
z
M 1775 384 
Q 2166 384 2423 595 
Q 2681 806 2681 1225 
Q 2681 1659 2415 1884 
Q 2150 2109 1734 2109 
Q 1331 2109 1076 1879 
Q 822 1650 822 1244 
Q 822 894 1055 639 
Q 1288 384 1775 384 
z
M 975 2384 
Q 741 2484 609 2619 
Q 363 2869 363 3269 
Q 363 3769 725 4128 
Q 1088 4488 1753 4488 
Q 2397 4488 2762 4148 
Q 3128 3809 3128 3356 
Q 3128 2938 2916 2678 
Q 2797 2531 2547 2391 
Q 2825 2263 2984 2097 
Q 3281 1784 3281 1284 
Q 3281 694 2884 283 
Q 2488 -128 1763 -128 
Q 1109 -128 657 226 
Q 206 581 206 1256 
Q 206 1653 400 1942 
Q 594 2231 975 2384 
z
" transform="scale(0.015625)"/>
     </defs>
     <use xlink:href="#Helvetica-38"/>
     <use xlink:href="#Helvetica-32" transform="translate(55.615234 0)"/>
    </g>
   </g>
   <g id="text_21">
    <!-- 46 -->
    <g transform="translate(88.715314 379.997969) scale(0.22 -0.22)">
     <use xlink:href="#Helvetica-34"/>
     <use xlink:href="#Helvetica-36" transform="translate(55.615234 0)"/>
    </g>
   </g>
   <g id="text_22">
    <!-- 46 -->
    <g transform="translate(88.715314 350.621969) scale(0.22 -0.22)">
     <use xlink:href="#Helvetica-34"/>
     <use xlink:href="#Helvetica-36" transform="translate(55.615234 0)"/>
    </g>
   </g>
   <g id="text_23">
    <!-- 102 -->
    <g transform="translate(128.972204 321.245969) scale(0.22 -0.22)">
     <use xlink:href="#Helvetica-31"/>
     <use xlink:href="#Helvetica-30" transform="translate(55.615234 0)"/>
     <use xlink:href="#Helvetica-32" transform="translate(111.230469 0)"/>
    </g>
   </g>
   <g id="text_24">
    <!-- 82 -->
    <g transform="translate(114.594743 291.869969) scale(0.22 -0.22)">
     <use xlink:href="#Helvetica-38"/>
     <use xlink:href="#Helvetica-32" transform="translate(55.615234 0)"/>
    </g>
   </g>
   <g id="text_25">
    <!-- 75 -->
    <g transform="translate(109.562632 262.493969) scale(0.22 -0.22)">
     <use xlink:href="#Helvetica-37"/>
     <use xlink:href="#Helvetica-35" transform="translate(55.615234 0)"/>
    </g>
   </g>
   <g id="text_26">
    <!-- 156 -->
    <g transform="translate(167.791348 233.117969) scale(0.22 -0.22)">
     <use xlink:href="#Helvetica-31"/>
     <use xlink:href="#Helvetica-35" transform="translate(55.615234 0)"/>
     <use xlink:href="#Helvetica-36" transform="translate(111.230469 0)"/>
    </g>
   </g>
   <g id="text_27">
    <!-- 93 -->
    <g transform="translate(122.502347 203.741969) scale(0.22 -0.22)">
     <use xlink:href="#Helvetica-39"/>
     <use xlink:href="#Helvetica-33" transform="translate(55.615234 0)"/>
    </g>
   </g>
   <g id="text_28">
    <!-- 102 -->
    <g transform="translate(128.972204 174.365969) scale(0.22 -0.22)">
     <use xlink:href="#Helvetica-31"/>
     <use xlink:href="#Helvetica-30" transform="translate(55.615234 0)"/>
     <use xlink:href="#Helvetica-32" transform="translate(111.230469 0)"/>
    </g>
   </g>
   <g id="text_29">
    <!-- 388 -->
    <g transform="translate(334.569892 144.989969) scale(0.22 -0.22)">
     <use xlink:href="#Helvetica-33"/>
     <use xlink:href="#Helvetica-38" transform="translate(55.615234 0)"/>
     <use xlink:href="#Helvetica-38" transform="translate(111.230469 0)"/>
    </g>
   </g>
   <g id="text_30">
    <!-- 322 -->
    <g transform="translate(287.124272 115.613969) scale(0.22 -0.22)">
     <use xlink:href="#Helvetica-33"/>
     <use xlink:href="#Helvetica-32" transform="translate(55.615234 0)"/>
     <use xlink:href="#Helvetica-32" transform="translate(111.230469 0)"/>
    </g>
   </g>
   <g id="text_31">
    <!-- 452 -->
    <g style="fill: #ffffff" transform="translate(335.687328 86.237969) scale(0.22 -0.22)">
     <use xlink:href="#Helvetica-34"/>
     <use xlink:href="#Helvetica-35" transform="translate(55.615234 0)"/>
     <use xlink:href="#Helvetica-32" transform="translate(111.230469 0)"/>
    </g>
   </g>
   <g id="text_32">
    <!-- 278 -->
    <g transform="translate(255.493858 56.861969) scale(0.22 -0.22)">
     <use xlink:href="#Helvetica-32"/>
     <use xlink:href="#Helvetica-37" transform="translate(55.615234 0)"/>
     <use xlink:href="#Helvetica-38" transform="translate(111.230469 0)"/>
    </g>
   </g>
   <g id="text_33">
    <!-- 199 -->
    <g transform="translate(198.702888 27.485969) scale(0.22 -0.22)">
     <use xlink:href="#Helvetica-31"/>
     <use xlink:href="#Helvetica-39" transform="translate(55.615234 0)"/>
     <use xlink:href="#Helvetica-39" transform="translate(111.230469 0)"/>
    </g>
   </g>
   <g id="text_34">
    <!-- e -->
    <g transform="translate(7.2 31.589687) scale(0.34 -0.34)">
     <use xlink:href="#Helvetica-65"/>
    </g>
   </g>
  </g>
  <g id="axes_2">
   <g id="patch_48">
    <path d="M 478.024457 800.352 
L 819.2016 800.352 
L 819.2016 7.2 
L 478.024457 7.2 
z
" style="fill: #ffffff"/>
   </g>
   <g id="patch_49">
    <path d="M 478.024457 800.352 
L 819.2016 800.352 
L 819.2016 770.976 
L 478.024457 770.976 
z
" clip-path="url(#p54e212f52d)" style="fill: #d3d3d3; opacity: 0.2"/>
   </g>
   <g id="patch_50">
    <path d="M 478.024457 741.6 
L 819.2016 741.6 
L 819.2016 712.224 
L 478.024457 712.224 
z
" clip-path="url(#p54e212f52d)" style="fill: #d3d3d3; opacity: 0.2"/>
   </g>
   <g id="patch_51">
    <path d="M 478.024457 682.848 
L 819.2016 682.848 
L 819.2016 653.472 
L 478.024457 653.472 
z
" clip-path="url(#p54e212f52d)" style="fill: #d3d3d3; opacity: 0.2"/>
   </g>
   <g id="patch_52">
    <path d="M 478.024457 624.096 
L 819.2016 624.096 
L 819.2016 594.72 
L 478.024457 594.72 
z
" clip-path="url(#p54e212f52d)" style="fill: #d3d3d3; opacity: 0.2"/>
   </g>
   <g id="patch_53">
    <path d="M 478.024457 565.344 
L 819.2016 565.344 
L 819.2016 535.968 
L 478.024457 535.968 
z
" clip-path="url(#p54e212f52d)" style="fill: #d3d3d3; opacity: 0.2"/>
   </g>
   <g id="patch_54">
    <path d="M 478.024457 506.592 
L 819.2016 506.592 
L 819.2016 477.216 
L 478.024457 477.216 
z
" clip-path="url(#p54e212f52d)" style="fill: #d3d3d3; opacity: 0.2"/>
   </g>
   <g id="patch_55">
    <path d="M 478.024457 447.84 
L 819.2016 447.84 
L 819.2016 418.464 
L 478.024457 418.464 
z
" clip-path="url(#p54e212f52d)" style="fill: #d3d3d3; opacity: 0.2"/>
   </g>
   <g id="patch_56">
    <path d="M 478.024457 389.088 
L 819.2016 389.088 
L 819.2016 359.712 
L 478.024457 359.712 
z
" clip-path="url(#p54e212f52d)" style="fill: #d3d3d3; opacity: 0.2"/>
   </g>
   <g id="patch_57">
    <path d="M 478.024457 330.336 
L 819.2016 330.336 
L 819.2016 300.96 
L 478.024457 300.96 
z
" clip-path="url(#p54e212f52d)" style="fill: #d3d3d3; opacity: 0.2"/>
   </g>
   <g id="patch_58">
    <path d="M 478.024457 271.584 
L 819.2016 271.584 
L 819.2016 242.208 
L 478.024457 242.208 
z
" clip-path="url(#p54e212f52d)" style="fill: #d3d3d3; opacity: 0.2"/>
   </g>
   <g id="patch_59">
    <path d="M 478.024457 212.832 
L 819.2016 212.832 
L 819.2016 183.456 
L 478.024457 183.456 
z
" clip-path="url(#p54e212f52d)" style="fill: #d3d3d3; opacity: 0.2"/>
   </g>
   <g id="patch_60">
    <path d="M 478.024457 154.08 
L 819.2016 154.08 
L 819.2016 124.704 
L 478.024457 124.704 
z
" clip-path="url(#p54e212f52d)" style="fill: #d3d3d3; opacity: 0.2"/>
   </g>
   <g id="patch_61">
    <path d="M 478.024457 95.328 
L 819.2016 95.328 
L 819.2016 65.952 
L 478.024457 65.952 
z
" clip-path="url(#p54e212f52d)" style="fill: #d3d3d3; opacity: 0.2"/>
   </g>
   <g id="patch_62">
    <path d="M 478.024457 36.576 
L 819.2016 36.576 
L 819.2016 7.2 
L 478.024457 7.2 
z
" clip-path="url(#p54e212f52d)" style="fill: #d3d3d3; opacity: 0.2"/>
   </g>
   <g id="matplotlib.axis_3">
    <g id="xtick_6">
     <g id="line2d_6">
      <g>
       <use xlink:href="#mfa6b936049" x="478.024457" y="800.352" style="stroke: #000000; stroke-width: 0.8"/>
      </g>
     </g>
     <g id="text_35">
      <!-- 0 -->
      <g transform="translate(471.907426 823.133562) scale(0.22 -0.22)">
       <use xlink:href="#Helvetica-30"/>
      </g>
     </g>
    </g>
    <g id="xtick_7">
     <g id="line2d_7">
      <g>
       <use xlink:href="#mfa6b936049" x="554.478719" y="800.352" style="stroke: #000000; stroke-width: 0.8"/>
      </g>
     </g>
     <g id="text_36">
      <!-- 20 -->
      <g transform="translate(542.244656 823.133562) scale(0.22 -0.22)">
       <use xlink:href="#Helvetica-32"/>
       <use xlink:href="#Helvetica-30" transform="translate(55.615234 0)"/>
      </g>
     </g>
    </g>
    <g id="xtick_8">
     <g id="line2d_8">
      <g>
       <use xlink:href="#mfa6b936049" x="630.932981" y="800.352" style="stroke: #000000; stroke-width: 0.8"/>
      </g>
     </g>
     <g id="text_37">
      <!-- 40 -->
      <g transform="translate(618.698918 823.133562) scale(0.22 -0.22)">
       <use xlink:href="#Helvetica-34"/>
       <use xlink:href="#Helvetica-30" transform="translate(55.615234 0)"/>
      </g>
     </g>
    </g>
    <g id="xtick_9">
     <g id="line2d_9">
      <g>
       <use xlink:href="#mfa6b936049" x="707.387242" y="800.352" style="stroke: #000000; stroke-width: 0.8"/>
      </g>
     </g>
     <g id="text_38">
      <!-- 60 -->
      <g transform="translate(695.15318 823.133562) scale(0.22 -0.22)">
       <use xlink:href="#Helvetica-36"/>
       <use xlink:href="#Helvetica-30" transform="translate(55.615234 0)"/>
      </g>
     </g>
    </g>
    <g id="xtick_10">
     <g id="line2d_10">
      <g>
       <use xlink:href="#mfa6b936049" x="783.841504" y="800.352" style="stroke: #000000; stroke-width: 0.8"/>
      </g>
     </g>
     <g id="text_39">
      <!-- 80 -->
      <g transform="translate(771.607441 823.133562) scale(0.22 -0.22)">
       <use xlink:href="#Helvetica-38"/>
       <use xlink:href="#Helvetica-30" transform="translate(55.615234 0)"/>
      </g>
     </g>
    </g>
    <g id="text_40">
     <!-- Unique Donor Organs -->
     <g transform="translate(541.617404 847.930437) scale(0.22 -0.22)">
      <defs>
       <path id="Helvetica-55" d="M 1163 4591 
L 1163 1753 
Q 1163 1253 1350 922 
Q 1628 422 2288 422 
Q 3078 422 3363 963 
Q 3516 1256 3516 1753 
L 3516 4591 
L 4147 4591 
L 4147 2013 
Q 4147 1166 3919 709 
Q 3500 -122 2338 -122 
Q 1175 -122 759 709 
Q 531 1166 531 2013 
L 531 4591 
L 1163 4591 
z
M 2341 4591 
L 2341 4591 
z
" transform="scale(0.015625)"/>
       <path id="Helvetica-69" d="M 413 3331 
L 984 3331 
L 984 0 
L 413 0 
L 413 3331 
z
M 413 4591 
L 984 4591 
L 984 3953 
L 413 3953 
L 413 4591 
z
" transform="scale(0.015625)"/>
       <path id="Helvetica-71" d="M 775 1628 
Q 775 1194 897 900 
Q 1113 378 1669 378 
Q 2256 378 2478 928 
Q 2600 1231 2600 1703 
Q 2600 2138 2466 2428 
Q 2238 2925 1663 2925 
Q 1297 2925 1036 2608 
Q 775 2291 775 1628 
z
M 1606 3422 
Q 2022 3422 2306 3213 
Q 2463 3100 2606 2881 
L 2606 3347 
L 3141 3347 
L 3141 -1334 
L 2575 -1334 
L 2575 384 
Q 2434 159 2186 26 
Q 1938 -106 1566 -106 
Q 1031 -106 609 312 
Q 188 731 188 1588 
Q 188 2391 583 2906 
Q 978 3422 1606 3422 
z
" transform="scale(0.015625)"/>
       <path id="Helvetica-44" d="M 2250 531 
Q 2566 531 2769 597 
Q 3131 719 3363 1066 
Q 3547 1344 3628 1778 
Q 3675 2038 3675 2259 
Q 3675 3113 3336 3584 
Q 2997 4056 2244 4056 
L 1141 4056 
L 1141 531 
L 2250 531 
z
M 516 4591 
L 2375 4591 
Q 3322 4591 3844 3919 
Q 4309 3313 4309 2366 
Q 4309 1634 4034 1044 
Q 3550 0 2369 0 
L 516 0 
L 516 4591 
z
" transform="scale(0.015625)"/>
       <path id="Helvetica-72" d="M 428 3347 
L 963 3347 
L 963 2769 
Q 1028 2938 1284 3180 
Q 1541 3422 1875 3422 
Q 1891 3422 1928 3419 
Q 1966 3416 2056 3406 
L 2056 2813 
Q 2006 2822 1964 2825 
Q 1922 2828 1872 2828 
Q 1447 2828 1219 2554 
Q 991 2281 991 1925 
L 991 0 
L 428 0 
L 428 3347 
z
" transform="scale(0.015625)"/>
       <path id="Helvetica-4f" d="M 2469 4716 
Q 3684 4716 4269 3934 
Q 4725 3325 4725 2375 
Q 4725 1347 4203 666 
Q 3591 -134 2456 -134 
Q 1397 -134 791 566 
Q 250 1241 250 2272 
Q 250 3203 713 3866 
Q 1306 4716 2469 4716 
z
M 2531 422 
Q 3353 422 3720 1011 
Q 4088 1600 4088 2366 
Q 4088 3175 3664 3669 
Q 3241 4163 2506 4163 
Q 1794 4163 1344 3673 
Q 894 3184 894 2231 
Q 894 1469 1280 945 
Q 1666 422 2531 422 
z
M 2488 4716 
L 2488 4716 
z
" transform="scale(0.015625)"/>
       <path id="Helvetica-67" d="M 1594 3406 
Q 1988 3406 2281 3213 
Q 2441 3103 2606 2894 
L 2606 3316 
L 3125 3316 
L 3125 272 
Q 3125 -366 2938 -734 
Q 2588 -1416 1616 -1416 
Q 1075 -1416 706 -1173 
Q 338 -931 294 -416 
L 866 -416 
Q 906 -641 1028 -763 
Q 1219 -950 1628 -950 
Q 2275 -950 2475 -494 
Q 2594 -225 2584 466 
Q 2416 209 2178 84 
Q 1941 -41 1550 -41 
Q 1006 -41 598 345 
Q 191 731 191 1622 
Q 191 2463 602 2934 
Q 1013 3406 1594 3406 
z
M 2606 1688 
Q 2606 2309 2350 2609 
Q 2094 2909 1697 2909 
Q 1103 2909 884 2353 
Q 769 2056 769 1575 
Q 769 1009 998 714 
Q 1228 419 1616 419 
Q 2222 419 2469 966 
Q 2606 1275 2606 1688 
z
M 1659 3428 
L 1659 3428 
z
" transform="scale(0.015625)"/>
       <path id="Helvetica-73" d="M 747 1050 
Q 772 769 888 619 
Q 1100 347 1625 347 
Q 1938 347 2175 483 
Q 2413 619 2413 903 
Q 2413 1119 2222 1231 
Q 2100 1300 1741 1391 
L 1294 1503 
Q 866 1609 663 1741 
Q 300 1969 300 2372 
Q 300 2847 642 3140 
Q 984 3434 1563 3434 
Q 2319 3434 2653 2991 
Q 2863 2709 2856 2384 
L 2325 2384 
Q 2309 2575 2191 2731 
Q 1997 2953 1519 2953 
Q 1200 2953 1036 2831 
Q 872 2709 872 2509 
Q 872 2291 1088 2159 
Q 1213 2081 1456 2022 
L 1828 1931 
Q 2434 1784 2641 1647 
Q 2969 1431 2969 969 
Q 2969 522 2630 197 
Q 2291 -128 1597 -128 
Q 850 -128 539 211 
Q 228 550 206 1050 
L 747 1050 
z
M 1578 3428 
L 1578 3428 
z
" transform="scale(0.015625)"/>
      </defs>
      <use xlink:href="#Helvetica-55"/>
      <use xlink:href="#Helvetica-6e" transform="translate(72.216797 0)"/>
      <use xlink:href="#Helvetica-69" transform="translate(127.832031 0)"/>
      <use xlink:href="#Helvetica-71" transform="translate(150.048828 0)"/>
      <use xlink:href="#Helvetica-75" transform="translate(205.664062 0)"/>
      <use xlink:href="#Helvetica-65" transform="translate(261.279297 0)"/>
      <use xlink:href="#Helvetica-20" transform="translate(316.894531 0)"/>
      <use xlink:href="#Helvetica-44" transform="translate(344.677734 0)"/>
      <use xlink:href="#Helvetica-6f" transform="translate(416.894531 0)"/>
      <use xlink:href="#Helvetica-6e" transform="translate(472.509766 0)"/>
      <use xlink:href="#Helvetica-6f" transform="translate(528.125 0)"/>
      <use xlink:href="#Helvetica-72" transform="translate(583.740234 0)"/>
      <use xlink:href="#Helvetica-20" transform="translate(617.041016 0)"/>
      <use xlink:href="#Helvetica-4f" transform="translate(644.824219 0)"/>
      <use xlink:href="#Helvetica-72" transform="translate(722.607422 0)"/>
      <use xlink:href="#Helvetica-67" transform="translate(755.908203 0)"/>
      <use xlink:href="#Helvetica-61" transform="translate(811.523438 0)"/>
      <use xlink:href="#Helvetica-6e" transform="translate(867.138672 0)"/>
      <use xlink:href="#Helvetica-73" transform="translate(922.753906 0)"/>
     </g>
    </g>
   </g>
   <g id="matplotlib.axis_4"/>
   <g id="patch_63">
    <path d="M 478.024457 800.352 
L 478.024457 7.2 
" style="fill: none; stroke: #000000; stroke-width: 0.8; stroke-linejoin: miter; stroke-linecap: square"/>
   </g>
   <g id="patch_64">
    <path d="M 819.2016 800.352 
L 819.2016 7.2 
" style="fill: none; stroke: #000000; stroke-width: 0.8; stroke-linejoin: miter; stroke-linecap: square"/>
   </g>
   <g id="patch_65">
    <path d="M 478.024457 800.352 
L 819.2016 800.352 
" style="fill: none; stroke: #000000; stroke-width: 0.8; stroke-linejoin: miter; stroke-linecap: square"/>
   </g>
   <g id="patch_66">
    <path d="M 478.024457 7.2 
L 819.2016 7.2 
" style="fill: none; stroke: #000000; stroke-width: 0.8; stroke-linejoin: miter; stroke-linecap: square"/>
   </g>
   <g id="patch_67">
    <path d="M 478.024457 797.4144 
L 481.84717 797.4144 
L 481.84717 773.9136 
L 478.024457 773.9136 
z
" clip-path="url(#p54e212f52d)" style="fill: #4682b4"/>
   </g>
   <g id="patch_68">
    <path d="M 478.024457 768.0384 
L 481.84717 768.0384 
L 481.84717 744.5376 
L 478.024457 744.5376 
z
" clip-path="url(#p54e212f52d)" style="fill: #4682b4"/>
   </g>
   <g id="patch_69">
    <path d="M 478.024457 738.6624 
L 516.251588 738.6624 
L 516.251588 715.1616 
L 478.024457 715.1616 
z
" clip-path="url(#p54e212f52d)" style="fill: #4682b4"/>
   </g>
   <g id="patch_70">
    <path d="M 478.024457 709.2864 
L 504.783449 709.2864 
L 504.783449 685.7856 
L 478.024457 685.7856 
z
" clip-path="url(#p54e212f52d)" style="fill: #4682b4"/>
   </g>
   <g id="patch_71">
    <path d="M 478.024457 679.9104 
L 489.492596 679.9104 
L 489.492596 656.4096 
L 478.024457 656.4096 
z
" clip-path="url(#p54e212f52d)" style="fill: #4682b4"/>
   </g>
   <g id="patch_72">
    <path d="M 478.024457 650.5344 
L 531.54244 650.5344 
L 531.54244 627.0336 
L 478.024457 627.0336 
z
" clip-path="url(#p54e212f52d)" style="fill: #4682b4"/>
   </g>
   <g id="patch_73">
    <path d="M 478.024457 621.1584 
L 508.606162 621.1584 
L 508.606162 597.6576 
L 478.024457 597.6576 
z
" clip-path="url(#p54e212f52d)" style="fill: #4682b4"/>
   </g>
   <g id="patch_74">
    <path d="M 478.024457 591.7824 
L 497.138023 591.7824 
L 497.138023 568.2816 
L 478.024457 568.2816 
z
" clip-path="url(#p54e212f52d)" style="fill: #4682b4"/>
   </g>
   <g id="patch_75">
    <path d="M 478.024457 562.4064 
L 527.719727 562.4064 
L 527.719727 538.9056 
L 478.024457 538.9056 
z
" clip-path="url(#p54e212f52d)" style="fill: #4682b4"/>
   </g>
   <g id="patch_76">
    <path d="M 478.024457 533.0304 
L 523.897014 533.0304 
L 523.897014 509.5296 
L 478.024457 509.5296 
z
" clip-path="url(#p54e212f52d)" style="fill: #4682b4"/>
   </g>
   <g id="patch_77">
    <path d="M 478.024457 503.6544 
L 546.833293 503.6544 
L 546.833293 480.1536 
L 478.024457 480.1536 
z
" clip-path="url(#p54e212f52d)" style="fill: #4682b4"/>
   </g>
   <g id="patch_78">
    <path d="M 478.024457 474.2784 
L 504.783449 474.2784 
L 504.783449 450.7776 
L 478.024457 450.7776 
z
" clip-path="url(#p54e212f52d)" style="fill: #4682b4"/>
   </g>
   <g id="patch_79">
    <path d="M 478.024457 444.9024 
L 497.138023 444.9024 
L 497.138023 421.4016 
L 478.024457 421.4016 
z
" clip-path="url(#p54e212f52d)" style="fill: #4682b4"/>
   </g>
   <g id="patch_80">
    <path d="M 478.024457 415.5264 
L 520.074301 415.5264 
L 520.074301 392.0256 
L 478.024457 392.0256 
z
" clip-path="url(#p54e212f52d)" style="fill: #4682b4"/>
   </g>
   <g id="patch_81">
    <path d="M 478.024457 386.1504 
L 531.54244 386.1504 
L 531.54244 362.6496 
L 478.024457 362.6496 
z
" clip-path="url(#p54e212f52d)" style="fill: #4682b4"/>
   </g>
   <g id="patch_82">
    <path d="M 478.024457 356.7744 
L 500.960736 356.7744 
L 500.960736 333.2736 
L 478.024457 333.2736 
z
" clip-path="url(#p54e212f52d)" style="fill: #4682b4"/>
   </g>
   <g id="patch_83">
    <path d="M 478.024457 327.3984 
L 531.54244 327.3984 
L 531.54244 303.8976 
L 478.024457 303.8976 
z
" clip-path="url(#p54e212f52d)" style="fill: #4682b4"/>
   </g>
   <g id="patch_84">
    <path d="M 478.024457 298.0224 
L 550.656006 298.0224 
L 550.656006 274.5216 
L 478.024457 274.5216 
z
" clip-path="url(#p54e212f52d)" style="fill: #4682b4"/>
   </g>
   <g id="patch_85">
    <path d="M 478.024457 268.6464 
L 485.669883 268.6464 
L 485.669883 245.1456 
L 478.024457 245.1456 
z
" clip-path="url(#p54e212f52d)" style="fill: #4682b4"/>
   </g>
   <g id="patch_86">
    <path d="M 478.024457 239.2704 
L 523.897014 239.2704 
L 523.897014 215.7696 
L 478.024457 215.7696 
z
" clip-path="url(#p54e212f52d)" style="fill: #4682b4"/>
   </g>
   <g id="patch_87">
    <path d="M 478.024457 209.8944 
L 512.428875 209.8944 
L 512.428875 186.3936 
L 478.024457 186.3936 
z
" clip-path="url(#p54e212f52d)" style="fill: #4682b4"/>
   </g>
   <g id="patch_88">
    <path d="M 478.024457 180.5184 
L 516.251588 180.5184 
L 516.251588 157.0176 
L 478.024457 157.0176 
z
" clip-path="url(#p54e212f52d)" style="fill: #4682b4"/>
   </g>
   <g id="patch_89">
    <path d="M 478.024457 151.1424 
L 802.955069 151.1424 
L 802.955069 127.6416 
L 478.024457 127.6416 
z
" clip-path="url(#p54e212f52d)" style="fill: #4682b4"/>
   </g>
   <g id="patch_90">
    <path d="M 478.024457 121.7664 
L 596.528563 121.7664 
L 596.528563 98.2656 
L 478.024457 98.2656 
z
" clip-path="url(#p54e212f52d)" style="fill: #4682b4"/>
   </g>
   <g id="patch_91">
    <path d="M 478.024457 92.3904 
L 646.223833 92.3904 
L 646.223833 68.8896 
L 478.024457 68.8896 
z
" clip-path="url(#p54e212f52d)" style="fill: #4682b4"/>
   </g>
   <g id="patch_92">
    <path d="M 478.024457 63.0144 
L 500.960736 63.0144 
L 500.960736 39.5136 
L 478.024457 39.5136 
z
" clip-path="url(#p54e212f52d)" style="fill: #4682b4"/>
   </g>
   <g id="patch_93">
    <path d="M 478.024457 33.6384 
L 539.187867 33.6384 
L 539.187867 10.1376 
L 478.024457 10.1376 
z
" clip-path="url(#p54e212f52d)" style="fill: #4682b4"/>
   </g>
   <g id="text_41">
    <!-- 1 -->
    <g transform="translate(485.941296 791.261969) scale(0.22 -0.22)">
     <use xlink:href="#Helvetica-31"/>
    </g>
   </g>
   <g id="text_42">
    <!-- 1 -->
    <g transform="translate(485.941296 761.885969) scale(0.22 -0.22)">
     <use xlink:href="#Helvetica-31"/>
    </g>
   </g>
   <g id="text_43">
    <!-- 10 -->
    <g transform="translate(520.345714 732.509969) scale(0.22 -0.22)">
     <use xlink:href="#Helvetica-31"/>
     <use xlink:href="#Helvetica-30" transform="translate(55.615234 0)"/>
    </g>
   </g>
   <g id="text_44">
    <!-- 7 -->
    <g transform="translate(508.877574 703.133969) scale(0.22 -0.22)">
     <use xlink:href="#Helvetica-37"/>
    </g>
   </g>
   <g id="text_45">
    <!-- 3 -->
    <g transform="translate(493.586722 673.757969) scale(0.22 -0.22)">
     <use xlink:href="#Helvetica-33"/>
    </g>
   </g>
   <g id="text_46">
    <!-- 14 -->
    <g transform="translate(535.636566 644.381969) scale(0.22 -0.22)">
     <use xlink:href="#Helvetica-31"/>
     <use xlink:href="#Helvetica-34" transform="translate(55.615234 0)"/>
    </g>
   </g>
   <g id="text_47">
    <!-- 8 -->
    <g transform="translate(512.700288 615.005969) scale(0.22 -0.22)">
     <use xlink:href="#Helvetica-38"/>
    </g>
   </g>
   <g id="text_48">
    <!-- 5 -->
    <g transform="translate(501.232148 585.629969) scale(0.22 -0.22)">
     <use xlink:href="#Helvetica-35"/>
    </g>
   </g>
   <g id="text_49">
    <!-- 13 -->
    <g transform="translate(531.813853 556.253969) scale(0.22 -0.22)">
     <use xlink:href="#Helvetica-31"/>
     <use xlink:href="#Helvetica-33" transform="translate(55.615234 0)"/>
    </g>
   </g>
   <g id="text_50">
    <!-- 12 -->
    <g transform="translate(527.99114 526.877969) scale(0.22 -0.22)">
     <use xlink:href="#Helvetica-31"/>
     <use xlink:href="#Helvetica-32" transform="translate(55.615234 0)"/>
    </g>
   </g>
   <g id="text_51">
    <!-- 18 -->
    <g transform="translate(550.927418 497.501969) scale(0.22 -0.22)">
     <use xlink:href="#Helvetica-31"/>
     <use xlink:href="#Helvetica-38" transform="translate(55.615234 0)"/>
    </g>
   </g>
   <g id="text_52">
    <!-- 7 -->
    <g transform="translate(508.877574 468.125969) scale(0.22 -0.22)">
     <use xlink:href="#Helvetica-37"/>
    </g>
   </g>
   <g id="text_53">
    <!-- 5 -->
    <g transform="translate(501.232148 438.749969) scale(0.22 -0.22)">
     <use xlink:href="#Helvetica-35"/>
    </g>
   </g>
   <g id="text_54">
    <!-- 11 -->
    <g transform="translate(524.168427 409.373969) scale(0.22 -0.22)">
     <use xlink:href="#Helvetica-31"/>
     <use xlink:href="#Helvetica-31" transform="translate(55.615234 0)"/>
    </g>
   </g>
   <g id="text_55">
    <!-- 14 -->
    <g transform="translate(535.636566 379.997969) scale(0.22 -0.22)">
     <use xlink:href="#Helvetica-31"/>
     <use xlink:href="#Helvetica-34" transform="translate(55.615234 0)"/>
    </g>
   </g>
   <g id="text_56">
    <!-- 6 -->
    <g transform="translate(505.054861 350.621969) scale(0.22 -0.22)">
     <use xlink:href="#Helvetica-36"/>
    </g>
   </g>
   <g id="text_57">
    <!-- 14 -->
    <g transform="translate(535.636566 321.245969) scale(0.22 -0.22)">
     <use xlink:href="#Helvetica-31"/>
     <use xlink:href="#Helvetica-34" transform="translate(55.615234 0)"/>
    </g>
   </g>
   <g id="text_58">
    <!-- 19 -->
    <g transform="translate(554.750131 291.869969) scale(0.22 -0.22)">
     <use xlink:href="#Helvetica-31"/>
     <use xlink:href="#Helvetica-39" transform="translate(55.615234 0)"/>
    </g>
   </g>
   <g id="text_59">
    <!-- 2 -->
    <g transform="translate(489.764009 262.493969) scale(0.22 -0.22)">
     <use xlink:href="#Helvetica-32"/>
    </g>
   </g>
   <g id="text_60">
    <!-- 12 -->
    <g transform="translate(527.99114 233.117969) scale(0.22 -0.22)">
     <use xlink:href="#Helvetica-31"/>
     <use xlink:href="#Helvetica-32" transform="translate(55.615234 0)"/>
    </g>
   </g>
   <g id="text_61">
    <!-- 9 -->
    <g transform="translate(516.523001 203.741969) scale(0.22 -0.22)">
     <use xlink:href="#Helvetica-39"/>
    </g>
   </g>
   <g id="text_62">
    <!-- 10 -->
    <g transform="translate(520.345714 174.365969) scale(0.22 -0.22)">
     <use xlink:href="#Helvetica-31"/>
     <use xlink:href="#Helvetica-30" transform="translate(55.615234 0)"/>
    </g>
   </g>
   <g id="text_63">
    <!-- 85 -->
    <g style="fill: #ffffff" transform="translate(774.392819 144.989969) scale(0.22 -0.22)">
     <use xlink:href="#Helvetica-38"/>
     <use xlink:href="#Helvetica-35" transform="translate(55.615234 0)"/>
    </g>
   </g>
   <g id="text_64">
    <!-- 31 -->
    <g transform="translate(600.622688 115.613969) scale(0.22 -0.22)">
     <use xlink:href="#Helvetica-33"/>
     <use xlink:href="#Helvetica-31" transform="translate(55.615234 0)"/>
    </g>
   </g>
   <g id="text_65">
    <!-- 44 -->
    <g transform="translate(650.317959 86.237969) scale(0.22 -0.22)">
     <use xlink:href="#Helvetica-34"/>
     <use xlink:href="#Helvetica-34" transform="translate(55.615234 0)"/>
    </g>
   </g>
   <g id="text_66">
    <!-- 6 -->
    <g transform="translate(505.054861 56.861969) scale(0.22 -0.22)">
     <use xlink:href="#Helvetica-36"/>
    </g>
   </g>
   <g id="text_67">
    <!-- 16 -->
    <g transform="translate(543.281992 27.485969) scale(0.22 -0.22)">
     <use xlink:href="#Helvetica-31"/>
     <use xlink:href="#Helvetica-36" transform="translate(55.615234 0)"/>
    </g>
   </g>
   <g id="text_68">
    <!-- f -->
    <g transform="translate(433.671429 31.589687) scale(0.34 -0.34)">
     <defs>
      <path id="Helvetica-66" d="M 553 3856 
Q 566 4206 675 4369 
Q 872 4656 1434 4656 
Q 1488 4656 1544 4653 
Q 1600 4650 1672 4644 
L 1672 4131 
Q 1584 4138 1545 4139 
Q 1506 4141 1472 4141 
Q 1216 4141 1166 4008 
Q 1116 3875 1116 3331 
L 1672 3331 
L 1672 2888 
L 1109 2888 
L 1109 0 
L 553 0 
L 553 2888 
L 88 2888 
L 88 3331 
L 553 3331 
L 553 3856 
z
" transform="scale(0.015625)"/>
     </defs>
     <use xlink:href="#Helvetica-66"/>
    </g>
   </g>
  </g>
  <g id="axes_3">
   <g id="patch_94">
    <path d="M 904.495886 800.352 
L 1245.673029 800.352 
L 1245.673029 7.2 
L 904.495886 7.2 
z
" style="fill: #ffffff"/>
   </g>
   <g id="patch_95">
    <path d="M 904.495886 800.352 
L 1245.673029 800.352 
L 1245.673029 770.976 
L 904.495886 770.976 
z
" clip-path="url(#p363a620154)" style="fill: #d3d3d3; opacity: 0.2"/>
   </g>
   <g id="patch_96">
    <path d="M 904.495886 741.6 
L 1245.673029 741.6 
L 1245.673029 712.224 
L 904.495886 712.224 
z
" clip-path="url(#p363a620154)" style="fill: #d3d3d3; opacity: 0.2"/>
   </g>
   <g id="patch_97">
    <path d="M 904.495886 682.848 
L 1245.673029 682.848 
L 1245.673029 653.472 
L 904.495886 653.472 
z
" clip-path="url(#p363a620154)" style="fill: #d3d3d3; opacity: 0.2"/>
   </g>
   <g id="patch_98">
    <path d="M 904.495886 624.096 
L 1245.673029 624.096 
L 1245.673029 594.72 
L 904.495886 594.72 
z
" clip-path="url(#p363a620154)" style="fill: #d3d3d3; opacity: 0.2"/>
   </g>
   <g id="patch_99">
    <path d="M 904.495886 565.344 
L 1245.673029 565.344 
L 1245.673029 535.968 
L 904.495886 535.968 
z
" clip-path="url(#p363a620154)" style="fill: #d3d3d3; opacity: 0.2"/>
   </g>
   <g id="patch_100">
    <path d="M 904.495886 506.592 
L 1245.673029 506.592 
L 1245.673029 477.216 
L 904.495886 477.216 
z
" clip-path="url(#p363a620154)" style="fill: #d3d3d3; opacity: 0.2"/>
   </g>
   <g id="patch_101">
    <path d="M 904.495886 447.84 
L 1245.673029 447.84 
L 1245.673029 418.464 
L 904.495886 418.464 
z
" clip-path="url(#p363a620154)" style="fill: #d3d3d3; opacity: 0.2"/>
   </g>
   <g id="patch_102">
    <path d="M 904.495886 389.088 
L 1245.673029 389.088 
L 1245.673029 359.712 
L 904.495886 359.712 
z
" clip-path="url(#p363a620154)" style="fill: #d3d3d3; opacity: 0.2"/>
   </g>
   <g id="patch_103">
    <path d="M 904.495886 330.336 
L 1245.673029 330.336 
L 1245.673029 300.96 
L 904.495886 300.96 
z
" clip-path="url(#p363a620154)" style="fill: #d3d3d3; opacity: 0.2"/>
   </g>
   <g id="patch_104">
    <path d="M 904.495886 271.584 
L 1245.673029 271.584 
L 1245.673029 242.208 
L 904.495886 242.208 
z
" clip-path="url(#p363a620154)" style="fill: #d3d3d3; opacity: 0.2"/>
   </g>
   <g id="patch_105">
    <path d="M 904.495886 212.832 
L 1245.673029 212.832 
L 1245.673029 183.456 
L 904.495886 183.456 
z
" clip-path="url(#p363a620154)" style="fill: #d3d3d3; opacity: 0.2"/>
   </g>
   <g id="patch_106">
    <path d="M 904.495886 154.08 
L 1245.673029 154.08 
L 1245.673029 124.704 
L 904.495886 124.704 
z
" clip-path="url(#p363a620154)" style="fill: #d3d3d3; opacity: 0.2"/>
   </g>
   <g id="patch_107">
    <path d="M 904.495886 95.328 
L 1245.673029 95.328 
L 1245.673029 65.952 
L 904.495886 65.952 
z
" clip-path="url(#p363a620154)" style="fill: #d3d3d3; opacity: 0.2"/>
   </g>
   <g id="patch_108">
    <path d="M 904.495886 36.576 
L 1245.673029 36.576 
L 1245.673029 7.2 
L 904.495886 7.2 
z
" clip-path="url(#p363a620154)" style="fill: #d3d3d3; opacity: 0.2"/>
   </g>
   <g id="matplotlib.axis_5">
    <g id="xtick_11">
     <g id="line2d_11">
      <g>
       <use xlink:href="#mfa6b936049" x="904.495886" y="800.352" style="stroke: #000000; stroke-width: 0.8"/>
      </g>
     </g>
     <g id="text_69">
      <!-- 0 -->
      <g transform="translate(898.378854 823.133562) scale(0.22 -0.22)">
       <use xlink:href="#Helvetica-30"/>
      </g>
     </g>
    </g>
    <g id="xtick_12">
     <g id="line2d_12">
      <g>
       <use xlink:href="#mfa6b936049" x="974.624795" y="800.352" style="stroke: #000000; stroke-width: 0.8"/>
      </g>
     </g>
     <g id="text_70">
      <!-- 10 -->
      <g transform="translate(962.390732 823.133562) scale(0.22 -0.22)">
       <use xlink:href="#Helvetica-31"/>
       <use xlink:href="#Helvetica-30" transform="translate(55.615234 0)"/>
      </g>
     </g>
    </g>
    <g id="xtick_13">
     <g id="line2d_13">
      <g>
       <use xlink:href="#mfa6b936049" x="1044.753704" y="800.352" style="stroke: #000000; stroke-width: 0.8"/>
      </g>
     </g>
     <g id="text_71">
      <!-- 20 -->
      <g transform="translate(1032.519641 823.133562) scale(0.22 -0.22)">
       <use xlink:href="#Helvetica-32"/>
       <use xlink:href="#Helvetica-30" transform="translate(55.615234 0)"/>
      </g>
     </g>
    </g>
    <g id="xtick_14">
     <g id="line2d_14">
      <g>
       <use xlink:href="#mfa6b936049" x="1114.882613" y="800.352" style="stroke: #000000; stroke-width: 0.8"/>
      </g>
     </g>
     <g id="text_72">
      <!-- 30 -->
      <g transform="translate(1102.648551 823.133562) scale(0.22 -0.22)">
       <use xlink:href="#Helvetica-33"/>
       <use xlink:href="#Helvetica-30" transform="translate(55.615234 0)"/>
      </g>
     </g>
    </g>
    <g id="xtick_15">
     <g id="line2d_15">
      <g>
       <use xlink:href="#mfa6b936049" x="1185.011522" y="800.352" style="stroke: #000000; stroke-width: 0.8"/>
      </g>
     </g>
     <g id="text_73">
      <!-- 40 -->
      <g transform="translate(1172.77746 823.133562) scale(0.22 -0.22)">
       <use xlink:href="#Helvetica-34"/>
       <use xlink:href="#Helvetica-30" transform="translate(55.615234 0)"/>
      </g>
     </g>
    </g>
    <g id="text_74">
     <!-- Average Sample Number -->
     <g transform="translate(951.588832 847.930437) scale(0.22 -0.22)">
      <defs>
       <path id="Helvetica-41" d="M 2844 1881 
L 2147 3909 
L 1406 1881 
L 2844 1881 
z
M 1822 4591 
L 2525 4591 
L 4191 0 
L 3509 0 
L 3044 1375 
L 1228 1375 
L 731 0 
L 94 0 
L 1822 4591 
z
" transform="scale(0.015625)"/>
       <path id="Helvetica-76" d="M 688 3347 
L 1581 622 
L 2516 3347 
L 3131 3347 
L 1869 0 
L 1269 0 
L 34 3347 
L 688 3347 
z
" transform="scale(0.015625)"/>
       <path id="Helvetica-4e" d="M 488 4591 
L 1222 4591 
L 3541 872 
L 3541 4591 
L 4131 4591 
L 4131 0 
L 3434 0 
L 1081 3716 
L 1081 0 
L 488 0 
L 488 4591 
z
M 2269 4591 
L 2269 4591 
z
" transform="scale(0.015625)"/>
       <path id="Helvetica-62" d="M 369 4606 
L 916 4606 
L 916 2941 
Q 1100 3181 1356 3307 
Q 1613 3434 1913 3434 
Q 2538 3434 2927 3004 
Q 3316 2575 3316 1738 
Q 3316 944 2931 419 
Q 2547 -106 1866 -106 
Q 1484 -106 1222 78 
Q 1066 188 888 428 
L 888 0 
L 369 0 
L 369 4606 
z
M 1831 391 
Q 2288 391 2514 753 
Q 2741 1116 2741 1709 
Q 2741 2238 2514 2584 
Q 2288 2931 1847 2931 
Q 1463 2931 1173 2647 
Q 884 2363 884 1709 
Q 884 1238 1003 944 
Q 1225 391 1831 391 
z
" transform="scale(0.015625)"/>
      </defs>
      <use xlink:href="#Helvetica-41"/>
      <use xlink:href="#Helvetica-76" transform="translate(66.699219 0)"/>
      <use xlink:href="#Helvetica-65" transform="translate(116.699219 0)"/>
      <use xlink:href="#Helvetica-72" transform="translate(172.314453 0)"/>
      <use xlink:href="#Helvetica-61" transform="translate(205.615234 0)"/>
      <use xlink:href="#Helvetica-67" transform="translate(261.230469 0)"/>
      <use xlink:href="#Helvetica-65" transform="translate(316.845703 0)"/>
      <use xlink:href="#Helvetica-20" transform="translate(372.460938 0)"/>
      <use xlink:href="#Helvetica-53" transform="translate(400.244141 0)"/>
      <use xlink:href="#Helvetica-61" transform="translate(466.943359 0)"/>
      <use xlink:href="#Helvetica-6d" transform="translate(522.558594 0)"/>
      <use xlink:href="#Helvetica-70" transform="translate(605.859375 0)"/>
      <use xlink:href="#Helvetica-6c" transform="translate(661.474609 0)"/>
      <use xlink:href="#Helvetica-65" transform="translate(683.691406 0)"/>
      <use xlink:href="#Helvetica-20" transform="translate(739.306641 0)"/>
      <use xlink:href="#Helvetica-4e" transform="translate(767.089844 0)"/>
      <use xlink:href="#Helvetica-75" transform="translate(839.306641 0)"/>
      <use xlink:href="#Helvetica-6d" transform="translate(894.921875 0)"/>
      <use xlink:href="#Helvetica-62" transform="translate(978.222656 0)"/>
      <use xlink:href="#Helvetica-65" transform="translate(1033.837891 0)"/>
      <use xlink:href="#Helvetica-72" transform="translate(1089.453125 0)"/>
     </g>
     <!-- per Donor Organ -->
     <g transform="translate(992.548363 872.251437) scale(0.22 -0.22)">
      <use xlink:href="#Helvetica-70"/>
      <use xlink:href="#Helvetica-65" transform="translate(55.615234 0)"/>
      <use xlink:href="#Helvetica-72" transform="translate(111.230469 0)"/>
      <use xlink:href="#Helvetica-20" transform="translate(144.53125 0)"/>
      <use xlink:href="#Helvetica-44" transform="translate(172.314453 0)"/>
      <use xlink:href="#Helvetica-6f" transform="translate(244.53125 0)"/>
      <use xlink:href="#Helvetica-6e" transform="translate(300.146484 0)"/>
      <use xlink:href="#Helvetica-6f" transform="translate(355.761719 0)"/>
      <use xlink:href="#Helvetica-72" transform="translate(411.376953 0)"/>
      <use xlink:href="#Helvetica-20" transform="translate(444.677734 0)"/>
      <use xlink:href="#Helvetica-4f" transform="translate(472.460938 0)"/>
      <use xlink:href="#Helvetica-72" transform="translate(550.244141 0)"/>
      <use xlink:href="#Helvetica-67" transform="translate(583.544922 0)"/>
      <use xlink:href="#Helvetica-61" transform="translate(639.160156 0)"/>
      <use xlink:href="#Helvetica-6e" transform="translate(694.775391 0)"/>
     </g>
    </g>
   </g>
   <g id="matplotlib.axis_6"/>
   <g id="patch_109">
    <path d="M 904.495886 800.352 
L 904.495886 7.2 
" style="fill: none; stroke: #000000; stroke-width: 0.8; stroke-linejoin: miter; stroke-linecap: square"/>
   </g>
   <g id="patch_110">
    <path d="M 1245.673029 800.352 
L 1245.673029 7.2 
" style="fill: none; stroke: #000000; stroke-width: 0.8; stroke-linejoin: miter; stroke-linecap: square"/>
   </g>
   <g id="patch_111">
    <path d="M 904.495886 800.352 
L 1245.673029 800.352 
" style="fill: none; stroke: #000000; stroke-width: 0.8; stroke-linejoin: miter; stroke-linecap: square"/>
   </g>
   <g id="patch_112">
    <path d="M 904.495886 7.2 
L 1245.673029 7.2 
" style="fill: none; stroke: #000000; stroke-width: 0.8; stroke-linejoin: miter; stroke-linecap: square"/>
   </g>
   <g id="patch_113">
    <path d="M 904.495886 797.4144 
L 967.611904 797.4144 
L 967.611904 773.9136 
L 904.495886 773.9136 
z
" clip-path="url(#p363a620154)" style="fill: #4682b4"/>
   </g>
   <g id="patch_114">
    <path d="M 904.495886 768.0384 
L 925.534558 768.0384 
L 925.534558 744.5376 
L 904.495886 744.5376 
z
" clip-path="url(#p363a620154)" style="fill: #4682b4"/>
   </g>
   <g id="patch_115">
    <path d="M 904.495886 738.6624 
L 918.521668 738.6624 
L 918.521668 715.1616 
L 904.495886 715.1616 
z
" clip-path="url(#p363a620154)" style="fill: #4682b4"/>
   </g>
   <g id="patch_116">
    <path d="M 904.495886 709.2864 
L 918.521668 709.2864 
L 918.521668 685.7856 
L 904.495886 685.7856 
z
" clip-path="url(#p363a620154)" style="fill: #4682b4"/>
   </g>
   <g id="patch_117">
    <path d="M 904.495886 679.9104 
L 967.611904 679.9104 
L 967.611904 656.4096 
L 904.495886 656.4096 
z
" clip-path="url(#p363a620154)" style="fill: #4682b4"/>
   </g>
   <g id="patch_118">
    <path d="M 904.495886 650.5344 
L 925.534558 650.5344 
L 925.534558 627.0336 
L 904.495886 627.0336 
z
" clip-path="url(#p363a620154)" style="fill: #4682b4"/>
   </g>
   <g id="patch_119">
    <path d="M 904.495886 621.1584 
L 918.521668 621.1584 
L 918.521668 597.6576 
L 904.495886 597.6576 
z
" clip-path="url(#p363a620154)" style="fill: #4682b4"/>
   </g>
   <g id="patch_120">
    <path d="M 904.495886 591.7824 
L 925.534558 591.7824 
L 925.534558 568.2816 
L 904.495886 568.2816 
z
" clip-path="url(#p363a620154)" style="fill: #4682b4"/>
   </g>
   <g id="patch_121">
    <path d="M 904.495886 562.4064 
L 933.086903 562.4064 
L 933.086903 538.9056 
L 904.495886 538.9056 
z
" clip-path="url(#p363a620154)" style="fill: #4682b4"/>
   </g>
   <g id="patch_122">
    <path d="M 904.495886 533.0304 
L 936.053895 533.0304 
L 936.053895 509.5296 
L 904.495886 509.5296 
z
" clip-path="url(#p363a620154)" style="fill: #4682b4"/>
   </g>
   <g id="patch_123">
    <path d="M 904.495886 503.6544 
L 1047.091334 503.6544 
L 1047.091334 480.1536 
L 904.495886 480.1536 
z
" clip-path="url(#p363a620154)" style="fill: #4682b4"/>
   </g>
   <g id="patch_124">
    <path d="M 904.495886 474.2784 
L 957.593488 474.2784 
L 957.593488 450.7776 
L 904.495886 450.7776 
z
" clip-path="url(#p363a620154)" style="fill: #4682b4"/>
   </g>
   <g id="patch_125">
    <path d="M 904.495886 444.9024 
L 947.975809 444.9024 
L 947.975809 421.4016 
L 904.495886 421.4016 
z
" clip-path="url(#p363a620154)" style="fill: #4682b4"/>
   </g>
   <g id="patch_126">
    <path d="M 904.495886 415.5264 
L 956.7738 415.5264 
L 956.7738 392.0256 
L 904.495886 392.0256 
z
" clip-path="url(#p363a620154)" style="fill: #4682b4"/>
   </g>
   <g id="patch_127">
    <path d="M 904.495886 386.1504 
L 927.538242 386.1504 
L 927.538242 362.6496 
L 904.495886 362.6496 
z
" clip-path="url(#p363a620154)" style="fill: #4682b4"/>
   </g>
   <g id="patch_128">
    <path d="M 904.495886 356.7744 
L 958.261383 356.7744 
L 958.261383 333.2736 
L 904.495886 333.2736 
z
" clip-path="url(#p363a620154)" style="fill: #4682b4"/>
   </g>
   <g id="patch_129">
    <path d="M 904.495886 327.3984 
L 955.589805 327.3984 
L 955.589805 303.8976 
L 904.495886 303.8976 
z
" clip-path="url(#p363a620154)" style="fill: #4682b4"/>
   </g>
   <g id="patch_130">
    <path d="M 904.495886 298.0224 
L 934.762046 298.0224 
L 934.762046 274.5216 
L 904.495886 274.5216 
z
" clip-path="url(#p363a620154)" style="fill: #4682b4"/>
   </g>
   <g id="patch_131">
    <path d="M 904.495886 268.6464 
L 1167.479295 268.6464 
L 1167.479295 245.1456 
L 904.495886 245.1456 
z
" clip-path="url(#p363a620154)" style="fill: #4682b4"/>
   </g>
   <g id="patch_132">
    <path d="M 904.495886 239.2704 
L 995.663468 239.2704 
L 995.663468 215.7696 
L 904.495886 215.7696 
z
" clip-path="url(#p363a620154)" style="fill: #4682b4"/>
   </g>
   <g id="patch_133">
    <path d="M 904.495886 209.8944 
L 976.962425 209.8944 
L 976.962425 186.3936 
L 904.495886 186.3936 
z
" clip-path="url(#p363a620154)" style="fill: #4682b4"/>
   </g>
   <g id="patch_134">
    <path d="M 904.495886 180.5184 
L 976.027373 180.5184 
L 976.027373 157.0176 
L 904.495886 157.0176 
z
" clip-path="url(#p363a620154)" style="fill: #4682b4"/>
   </g>
   <g id="patch_135">
    <path d="M 904.495886 151.1424 
L 936.50767 151.1424 
L 936.50767 127.6416 
L 904.495886 127.6416 
z
" clip-path="url(#p363a620154)" style="fill: #4682b4"/>
   </g>
   <g id="patch_136">
    <path d="M 904.495886 121.7664 
L 977.339462 121.7664 
L 977.339462 98.2656 
L 904.495886 98.2656 
z
" clip-path="url(#p363a620154)" style="fill: #4682b4"/>
   </g>
   <g id="patch_137">
    <path d="M 904.495886 92.3904 
L 976.537401 92.3904 
L 976.537401 68.8896 
L 904.495886 68.8896 
z
" clip-path="url(#p363a620154)" style="fill: #4682b4"/>
   </g>
   <g id="patch_138">
    <path d="M 904.495886 63.0144 
L 1229.426498 63.0144 
L 1229.426498 39.5136 
L 904.495886 39.5136 
z
" clip-path="url(#p363a620154)" style="fill: #4682b4"/>
   </g>
   <g id="patch_139">
    <path d="M 904.495886 33.6384 
L 991.718716 33.6384 
L 991.718716 10.1376 
L 904.495886 10.1376 
z
" clip-path="url(#p363a620154)" style="fill: #4682b4"/>
   </g>
   <g id="text_75">
    <!-- 9.0 -->
    <g transform="translate(971.70603 791.261969) scale(0.22 -0.22)">
     <defs>
      <path id="Helvetica-2e" d="M 547 681 
L 1200 681 
L 1200 0 
L 547 0 
L 547 681 
z
" transform="scale(0.015625)"/>
     </defs>
     <use xlink:href="#Helvetica-39"/>
     <use xlink:href="#Helvetica-2e" transform="translate(55.615234 0)"/>
     <use xlink:href="#Helvetica-30" transform="translate(83.398438 0)"/>
    </g>
   </g>
   <g id="text_76">
    <!-- 3.0 -->
    <g transform="translate(929.628684 761.885969) scale(0.22 -0.22)">
     <use xlink:href="#Helvetica-33"/>
     <use xlink:href="#Helvetica-2e" transform="translate(55.615234 0)"/>
     <use xlink:href="#Helvetica-30" transform="translate(83.398438 0)"/>
    </g>
   </g>
   <g id="text_77">
    <!-- 2.0 -->
    <g transform="translate(922.615793 732.509969) scale(0.22 -0.22)">
     <use xlink:href="#Helvetica-32"/>
     <use xlink:href="#Helvetica-2e" transform="translate(55.615234 0)"/>
     <use xlink:href="#Helvetica-30" transform="translate(83.398438 0)"/>
    </g>
   </g>
   <g id="text_78">
    <!-- 2.0 -->
    <g transform="translate(922.615793 703.133969) scale(0.22 -0.22)">
     <use xlink:href="#Helvetica-32"/>
     <use xlink:href="#Helvetica-2e" transform="translate(55.615234 0)"/>
     <use xlink:href="#Helvetica-30" transform="translate(83.398438 0)"/>
    </g>
   </g>
   <g id="text_79">
    <!-- 9.0 -->
    <g transform="translate(971.70603 673.757969) scale(0.22 -0.22)">
     <use xlink:href="#Helvetica-39"/>
     <use xlink:href="#Helvetica-2e" transform="translate(55.615234 0)"/>
     <use xlink:href="#Helvetica-30" transform="translate(83.398438 0)"/>
    </g>
   </g>
   <g id="text_80">
    <!-- 3.0 -->
    <g transform="translate(929.628684 644.381969) scale(0.22 -0.22)">
     <use xlink:href="#Helvetica-33"/>
     <use xlink:href="#Helvetica-2e" transform="translate(55.615234 0)"/>
     <use xlink:href="#Helvetica-30" transform="translate(83.398438 0)"/>
    </g>
   </g>
   <g id="text_81">
    <!-- 2.0 -->
    <g transform="translate(922.615793 615.005969) scale(0.22 -0.22)">
     <use xlink:href="#Helvetica-32"/>
     <use xlink:href="#Helvetica-2e" transform="translate(55.615234 0)"/>
     <use xlink:href="#Helvetica-30" transform="translate(83.398438 0)"/>
    </g>
   </g>
   <g id="text_82">
    <!-- 3.0 -->
    <g transform="translate(929.628684 585.629969) scale(0.22 -0.22)">
     <use xlink:href="#Helvetica-33"/>
     <use xlink:href="#Helvetica-2e" transform="translate(55.615234 0)"/>
     <use xlink:href="#Helvetica-30" transform="translate(83.398438 0)"/>
    </g>
   </g>
   <g id="text_83">
    <!-- 4.1 -->
    <g transform="translate(937.181028 556.253969) scale(0.22 -0.22)">
     <use xlink:href="#Helvetica-34"/>
     <use xlink:href="#Helvetica-2e" transform="translate(55.615234 0)"/>
     <use xlink:href="#Helvetica-31" transform="translate(83.398438 0)"/>
    </g>
   </g>
   <g id="text_84">
    <!-- 4.5 -->
    <g transform="translate(940.148021 526.877969) scale(0.22 -0.22)">
     <use xlink:href="#Helvetica-34"/>
     <use xlink:href="#Helvetica-2e" transform="translate(55.615234 0)"/>
     <use xlink:href="#Helvetica-35" transform="translate(83.398438 0)"/>
    </g>
   </g>
   <g id="text_85">
    <!-- 20.3 -->
    <g transform="translate(1051.18546 497.501969) scale(0.22 -0.22)">
     <use xlink:href="#Helvetica-32"/>
     <use xlink:href="#Helvetica-30" transform="translate(55.615234 0)"/>
     <use xlink:href="#Helvetica-2e" transform="translate(111.230469 0)"/>
     <use xlink:href="#Helvetica-33" transform="translate(139.013672 0)"/>
    </g>
   </g>
   <g id="text_86">
    <!-- 7.6 -->
    <g transform="translate(961.687614 468.125969) scale(0.22 -0.22)">
     <use xlink:href="#Helvetica-37"/>
     <use xlink:href="#Helvetica-2e" transform="translate(55.615234 0)"/>
     <use xlink:href="#Helvetica-36" transform="translate(83.398438 0)"/>
    </g>
   </g>
   <g id="text_87">
    <!-- 6.2 -->
    <g transform="translate(952.069935 438.749969) scale(0.22 -0.22)">
     <use xlink:href="#Helvetica-36"/>
     <use xlink:href="#Helvetica-2e" transform="translate(55.615234 0)"/>
     <use xlink:href="#Helvetica-32" transform="translate(83.398438 0)"/>
    </g>
   </g>
   <g id="text_88">
    <!-- 7.5 -->
    <g transform="translate(960.867925 409.373969) scale(0.22 -0.22)">
     <use xlink:href="#Helvetica-37"/>
     <use xlink:href="#Helvetica-2e" transform="translate(55.615234 0)"/>
     <use xlink:href="#Helvetica-35" transform="translate(83.398438 0)"/>
    </g>
   </g>
   <g id="text_89">
    <!-- 3.3 -->
    <g transform="translate(931.632367 379.997969) scale(0.22 -0.22)">
     <use xlink:href="#Helvetica-33"/>
     <use xlink:href="#Helvetica-2e" transform="translate(55.615234 0)"/>
     <use xlink:href="#Helvetica-33" transform="translate(83.398438 0)"/>
    </g>
   </g>
   <g id="text_90">
    <!-- 7.7 -->
    <g transform="translate(962.355508 350.621969) scale(0.22 -0.22)">
     <use xlink:href="#Helvetica-37"/>
     <use xlink:href="#Helvetica-2e" transform="translate(55.615234 0)"/>
     <use xlink:href="#Helvetica-37" transform="translate(83.398438 0)"/>
    </g>
   </g>
   <g id="text_91">
    <!-- 7.3 -->
    <g transform="translate(959.683931 321.245969) scale(0.22 -0.22)">
     <use xlink:href="#Helvetica-37"/>
     <use xlink:href="#Helvetica-2e" transform="translate(55.615234 0)"/>
     <use xlink:href="#Helvetica-33" transform="translate(83.398438 0)"/>
    </g>
   </g>
   <g id="text_92">
    <!-- 4.3 -->
    <g transform="translate(938.856172 291.869969) scale(0.22 -0.22)">
     <use xlink:href="#Helvetica-34"/>
     <use xlink:href="#Helvetica-2e" transform="translate(55.615234 0)"/>
     <use xlink:href="#Helvetica-33" transform="translate(83.398438 0)"/>
    </g>
   </g>
   <g id="text_93">
    <!-- 37.5 -->
    <g transform="translate(1171.573421 262.493969) scale(0.22 -0.22)">
     <use xlink:href="#Helvetica-33"/>
     <use xlink:href="#Helvetica-37" transform="translate(55.615234 0)"/>
     <use xlink:href="#Helvetica-2e" transform="translate(111.230469 0)"/>
     <use xlink:href="#Helvetica-35" transform="translate(139.013672 0)"/>
    </g>
   </g>
   <g id="text_94">
    <!-- 13.0 -->
    <g transform="translate(999.757593 233.117969) scale(0.22 -0.22)">
     <use xlink:href="#Helvetica-31"/>
     <use xlink:href="#Helvetica-33" transform="translate(55.615234 0)"/>
     <use xlink:href="#Helvetica-2e" transform="translate(111.230469 0)"/>
     <use xlink:href="#Helvetica-30" transform="translate(139.013672 0)"/>
    </g>
   </g>
   <g id="text_95">
    <!-- 10.3 -->
    <g transform="translate(981.056551 203.741969) scale(0.22 -0.22)">
     <use xlink:href="#Helvetica-31"/>
     <use xlink:href="#Helvetica-30" transform="translate(55.615234 0)"/>
     <use xlink:href="#Helvetica-2e" transform="translate(111.230469 0)"/>
     <use xlink:href="#Helvetica-33" transform="translate(139.013672 0)"/>
    </g>
   </g>
   <g id="text_96">
    <!-- 10.2 -->
    <g transform="translate(980.121499 174.365969) scale(0.22 -0.22)">
     <use xlink:href="#Helvetica-31"/>
     <use xlink:href="#Helvetica-30" transform="translate(55.615234 0)"/>
     <use xlink:href="#Helvetica-2e" transform="translate(111.230469 0)"/>
     <use xlink:href="#Helvetica-32" transform="translate(139.013672 0)"/>
    </g>
   </g>
   <g id="text_97">
    <!-- 4.6 -->
    <g transform="translate(940.601796 144.989969) scale(0.22 -0.22)">
     <use xlink:href="#Helvetica-34"/>
     <use xlink:href="#Helvetica-2e" transform="translate(55.615234 0)"/>
     <use xlink:href="#Helvetica-36" transform="translate(83.398438 0)"/>
    </g>
   </g>
   <g id="text_98">
    <!-- 10.4 -->
    <g transform="translate(981.433588 115.613969) scale(0.22 -0.22)">
     <use xlink:href="#Helvetica-31"/>
     <use xlink:href="#Helvetica-30" transform="translate(55.615234 0)"/>
     <use xlink:href="#Helvetica-2e" transform="translate(111.230469 0)"/>
     <use xlink:href="#Helvetica-34" transform="translate(139.013672 0)"/>
    </g>
   </g>
   <g id="text_99">
    <!-- 10.3 -->
    <g transform="translate(980.631527 86.237969) scale(0.22 -0.22)">
     <use xlink:href="#Helvetica-31"/>
     <use xlink:href="#Helvetica-30" transform="translate(55.615234 0)"/>
     <use xlink:href="#Helvetica-2e" transform="translate(111.230469 0)"/>
     <use xlink:href="#Helvetica-33" transform="translate(139.013672 0)"/>
    </g>
   </g>
   <g id="text_100">
    <!-- 46.3 -->
    <g style="fill: #ffffff" transform="translate(1182.51831 56.861969) scale(0.22 -0.22)">
     <use xlink:href="#Helvetica-34"/>
     <use xlink:href="#Helvetica-36" transform="translate(55.615234 0)"/>
     <use xlink:href="#Helvetica-2e" transform="translate(111.230469 0)"/>
     <use xlink:href="#Helvetica-33" transform="translate(139.013672 0)"/>
    </g>
   </g>
   <g id="text_101">
    <!-- 12.4 -->
    <g transform="translate(995.812842 27.485969) scale(0.22 -0.22)">
     <use xlink:href="#Helvetica-31"/>
     <use xlink:href="#Helvetica-32" transform="translate(55.615234 0)"/>
     <use xlink:href="#Helvetica-2e" transform="translate(111.230469 0)"/>
     <use xlink:href="#Helvetica-34" transform="translate(139.013672 0)"/>
    </g>
   </g>
   <g id="text_102">
    <!-- g -->
    <g transform="translate(860.142857 31.154062) scale(0.34 -0.34)">
     <use xlink:href="#Helvetica-67"/>
    </g>
   </g>
  </g>
 </g>
 <defs>
  <clipPath id="p4638c787a9">
   <rect x="51.553029" y="7.2" width="341.177143" height="793.152"/>
  </clipPath>
  <clipPath id="p54e212f52d">
   <rect x="478.024457" y="7.2" width="341.177143" height="793.152"/>
  </clipPath>
  <clipPath id="p363a620154">
   <rect x="904.495886" y="7.2" width="341.177143" height="793.152"/>
  </clipPath>
 </defs>
</svg>
