<?xml version="1.0" encoding="utf-8" standalone="no"?>
<!DOCTYPE svg PUBLIC "-//W3C//DTD SVG 1.1//EN"
  "http://www.w3.org/Graphics/SVG/1.1/DTD/svg11.dtd">
<svg xmlns:xlink="http://www.w3.org/1999/xlink" width="731.39976pt" height="817.79976pt" viewBox="0 0 731.39976 817.79976" xmlns="http://www.w3.org/2000/svg" version="1.1">
 <metadata>
  <rdf:RDF xmlns:dc="http://purl.org/dc/elements/1.1/" xmlns:cc="http://creativecommons.org/ns#" xmlns:rdf="http://www.w3.org/1999/02/22-rdf-syntax-ns#">
   <cc:Work>
    <dc:type rdf:resource="http://purl.org/dc/dcmitype/StillImage"/>
    <dc:date>2025-08-29T12:55:23.322697</dc:date>
    <dc:format>image/svg+xml</dc:format>
    <dc:creator>
     <cc:Agent>
      <dc:title>Matplotlib v3.10.5, https://matplotlib.org/</dc:title>
     </cc:Agent>
    </dc:creator>
   </cc:Work>
  </rdf:RDF>
 </metadata>
 <defs>
  <style type="text/css">*{stroke-linejoin: round; stroke-linecap: butt}</style>
 </defs>
 <g id="figure_1">
  <g id="patch_1">
   <path d="M 0 817.79976 
L 731.39976 817.79976 
L 731.39976 0 
L 0 0 
z
" style="fill: #ffffff"/>
  </g>
  <g id="axes_1">
   <g id="patch_2">
    <path d="M 102.735553 781.084135 
L 303.556635 781.084135 
L 303.556635 48.058845 
L 102.735553 48.058845 
z
" style="fill: #ffffff"/>
   </g>
   <g id="patch_3">
    <path d="M 102.735553 778.466188 
L 104.985649 778.466188 
L 104.985649 757.522608 
L 102.735553 757.522608 
z
" clip-path="url(#p8e2d2f16e6)" style="fill: #4682b4"/>
   </g>
   <g id="patch_4">
    <path d="M 102.735553 752.286713 
L 104.985649 752.286713 
L 104.985649 731.343133 
L 102.735553 731.343133 
z
" clip-path="url(#p8e2d2f16e6)" style="fill: #4682b4"/>
   </g>
   <g id="patch_5">
    <path d="M 102.735553 726.107238 
L 107.235745 726.107238 
L 107.235745 705.163659 
L 102.735553 705.163659 
z
" clip-path="url(#p8e2d2f16e6)" style="fill: #4682b4"/>
   </g>
   <g id="patch_6">
    <path d="M 102.735553 699.927764 
L 109.485841 699.927764 
L 109.485841 678.984184 
L 102.735553 678.984184 
z
" clip-path="url(#p8e2d2f16e6)" style="fill: #4682b4"/>
   </g>
   <g id="patch_7">
    <path d="M 102.735553 673.748289 
L 113.986033 673.748289 
L 113.986033 652.804709 
L 102.735553 652.804709 
z
" clip-path="url(#p8e2d2f16e6)" style="fill: #4682b4"/>
   </g>
   <g id="patch_8">
    <path d="M 102.735553 647.568814 
L 113.986033 647.568814 
L 113.986033 626.625235 
L 102.735553 626.625235 
z
" clip-path="url(#p8e2d2f16e6)" style="fill: #4682b4"/>
   </g>
   <g id="patch_9">
    <path d="M 102.735553 621.38934 
L 116.236129 621.38934 
L 116.236129 600.44576 
L 102.735553 600.44576 
z
" clip-path="url(#p8e2d2f16e6)" style="fill: #4682b4"/>
   </g>
   <g id="patch_10">
    <path d="M 102.735553 595.209865 
L 116.236129 595.209865 
L 116.236129 574.266285 
L 102.735553 574.266285 
z
" clip-path="url(#p8e2d2f16e6)" style="fill: #4682b4"/>
   </g>
   <g id="patch_11">
    <path d="M 102.735553 569.03039 
L 118.486226 569.03039 
L 118.486226 548.086811 
L 102.735553 548.086811 
z
" clip-path="url(#p8e2d2f16e6)" style="fill: #4682b4"/>
   </g>
   <g id="patch_12">
    <path d="M 102.735553 542.850916 
L 118.486226 542.850916 
L 118.486226 521.907336 
L 102.735553 521.907336 
z
" clip-path="url(#p8e2d2f16e6)" style="fill: #4682b4"/>
   </g>
   <g id="patch_13">
    <path d="M 102.735553 516.671441 
L 120.736322 516.671441 
L 120.736322 495.727861 
L 102.735553 495.727861 
z
" clip-path="url(#p8e2d2f16e6)" style="fill: #4682b4"/>
   </g>
   <g id="patch_14">
    <path d="M 102.735553 490.491966 
L 122.986418 490.491966 
L 122.986418 469.548387 
L 102.735553 469.548387 
z
" clip-path="url(#p8e2d2f16e6)" style="fill: #4682b4"/>
   </g>
   <g id="patch_15">
    <path d="M 102.735553 464.312492 
L 125.236514 464.312492 
L 125.236514 443.368912 
L 102.735553 443.368912 
z
" clip-path="url(#p8e2d2f16e6)" style="fill: #4682b4"/>
   </g>
   <g id="patch_16">
    <path d="M 102.735553 438.133017 
L 125.236514 438.133017 
L 125.236514 417.189437 
L 102.735553 417.189437 
z
" clip-path="url(#p8e2d2f16e6)" style="fill: #4682b4"/>
   </g>
   <g id="patch_17">
    <path d="M 102.735553 411.953543 
L 127.48661 411.953543 
L 127.48661 391.009963 
L 102.735553 391.009963 
z
" clip-path="url(#p8e2d2f16e6)" style="fill: #4682b4"/>
   </g>
   <g id="patch_18">
    <path d="M 102.735553 385.774068 
L 129.736706 385.774068 
L 129.736706 364.830488 
L 102.735553 364.830488 
z
" clip-path="url(#p8e2d2f16e6)" style="fill: #4682b4"/>
   </g>
   <g id="patch_19">
    <path d="M 102.735553 359.594593 
L 129.736706 359.594593 
L 129.736706 338.651014 
L 102.735553 338.651014 
z
" clip-path="url(#p8e2d2f16e6)" style="fill: #4682b4"/>
   </g>
   <g id="patch_20">
    <path d="M 102.735553 333.415119 
L 131.986803 333.415119 
L 131.986803 312.471539 
L 102.735553 312.471539 
z
" clip-path="url(#p8e2d2f16e6)" style="fill: #4682b4"/>
   </g>
   <g id="patch_21">
    <path d="M 102.735553 307.235644 
L 134.236899 307.235644 
L 134.236899 286.292064 
L 102.735553 286.292064 
z
" clip-path="url(#p8e2d2f16e6)" style="fill: #4682b4"/>
   </g>
   <g id="patch_22">
    <path d="M 102.735553 281.056169 
L 134.236899 281.056169 
L 134.236899 260.11259 
L 102.735553 260.11259 
z
" clip-path="url(#p8e2d2f16e6)" style="fill: #4682b4"/>
   </g>
   <g id="patch_23">
    <path d="M 102.735553 254.876695 
L 134.236899 254.876695 
L 134.236899 233.933115 
L 102.735553 233.933115 
z
" clip-path="url(#p8e2d2f16e6)" style="fill: #4682b4"/>
   </g>
   <g id="patch_24">
    <path d="M 102.735553 228.69722 
L 138.737091 228.69722 
L 138.737091 207.75364 
L 102.735553 207.75364 
z
" clip-path="url(#p8e2d2f16e6)" style="fill: #4682b4"/>
   </g>
   <g id="patch_25">
    <path d="M 102.735553 202.517745 
L 143.237283 202.517745 
L 143.237283 181.574166 
L 102.735553 181.574166 
z
" clip-path="url(#p8e2d2f16e6)" style="fill: #4682b4"/>
   </g>
   <g id="patch_26">
    <path d="M 102.735553 176.338271 
L 145.48738 176.338271 
L 145.48738 155.394691 
L 102.735553 155.394691 
z
" clip-path="url(#p8e2d2f16e6)" style="fill: #4682b4"/>
   </g>
   <g id="patch_27">
    <path d="M 102.735553 150.158796 
L 172.488534 150.158796 
L 172.488534 129.215216 
L 102.735553 129.215216 
z
" clip-path="url(#p8e2d2f16e6)" style="fill: #4682b4"/>
   </g>
   <g id="patch_28">
    <path d="M 102.735553 123.979321 
L 201.739784 123.979321 
L 201.739784 103.035742 
L 102.735553 103.035742 
z
" clip-path="url(#p8e2d2f16e6)" style="fill: #4682b4"/>
   </g>
   <g id="patch_29">
    <path d="M 102.735553 97.799847 
L 293.993726 97.799847 
L 293.993726 76.856267 
L 102.735553 76.856267 
z
" clip-path="url(#p8e2d2f16e6)" style="fill: #4682b4"/>
   </g>
   <g id="matplotlib.axis_1">
    <g id="xtick_1">
     <g id="line2d_1">
      <path d="M 102.735553 781.084135 
L 102.735553 48.058845 
" clip-path="url(#p8e2d2f16e6)" style="fill: none; stroke-dasharray: 0.8,1.32; stroke-dashoffset: 0; stroke: #b0b0b0; stroke-opacity: 0.4; stroke-width: 0.8"/>
     </g>
     <g id="line2d_2">
      <defs>
       <path id="m239e156c1f" d="M 0 0 
L 0 3.5 
" style="stroke: #000000; stroke-width: 0.8"/>
      </defs>
      <g>
       <use xlink:href="#m239e156c1f" x="102.735553" y="781.084135" style="stroke: #000000; stroke-width: 0.8"/>
      </g>
     </g>
     <g id="text_1">
      <!-- 0 -->
      <g transform="translate(99.955084 795.257573) scale(0.1 -0.1)">
       <defs>
        <path id="Helvetica-30" d="M 1731 4475 
Q 2600 4475 2988 3759 
Q 3288 3206 3288 2244 
Q 3288 1331 3016 734 
Q 2622 -122 1728 -122 
Q 922 -122 528 578 
Q 200 1163 200 2147 
Q 200 2909 397 3456 
Q 766 4475 1731 4475 
z
M 1725 391 
Q 2163 391 2422 778 
Q 2681 1166 2681 2222 
Q 2681 2984 2493 3476 
Q 2306 3969 1766 3969 
Q 1269 3969 1039 3501 
Q 809 3034 809 2125 
Q 809 1441 956 1025 
Q 1181 391 1725 391 
z
" transform="scale(0.015625)"/>
       </defs>
       <use xlink:href="#Helvetica-30"/>
      </g>
     </g>
    </g>
    <g id="xtick_2">
     <g id="line2d_3">
      <path d="M 147.737476 781.084135 
L 147.737476 48.058845 
" clip-path="url(#p8e2d2f16e6)" style="fill: none; stroke-dasharray: 0.8,1.32; stroke-dashoffset: 0; stroke: #b0b0b0; stroke-opacity: 0.4; stroke-width: 0.8"/>
     </g>
     <g id="line2d_4">
      <g>
       <use xlink:href="#m239e156c1f" x="147.737476" y="781.084135" style="stroke: #000000; stroke-width: 0.8"/>
      </g>
     </g>
     <g id="text_2">
      <!-- 20 -->
      <g transform="translate(142.176538 795.257573) scale(0.1 -0.1)">
       <defs>
        <path id="Helvetica-32" d="M 200 0 
Q 231 578 439 1006 
Q 647 1434 1250 1784 
L 1850 2131 
Q 2253 2366 2416 2531 
Q 2672 2791 2672 3125 
Q 2672 3516 2437 3745 
Q 2203 3975 1813 3975 
Q 1234 3975 1013 3538 
Q 894 3303 881 2888 
L 309 2888 
Q 319 3472 525 3841 
Q 891 4491 1816 4491 
Q 2584 4491 2939 4075 
Q 3294 3659 3294 3150 
Q 3294 2613 2916 2231 
Q 2697 2009 2131 1694 
L 1703 1456 
Q 1397 1288 1222 1134 
Q 909 863 828 531 
L 3272 531 
L 3272 0 
L 200 0 
z
" transform="scale(0.015625)"/>
       </defs>
       <use xlink:href="#Helvetica-32"/>
       <use xlink:href="#Helvetica-30" transform="translate(55.615234 0)"/>
      </g>
     </g>
    </g>
    <g id="xtick_3">
     <g id="line2d_5">
      <path d="M 192.739399 781.084135 
L 192.739399 48.058845 
" clip-path="url(#p8e2d2f16e6)" style="fill: none; stroke-dasharray: 0.8,1.32; stroke-dashoffset: 0; stroke: #b0b0b0; stroke-opacity: 0.4; stroke-width: 0.8"/>
     </g>
     <g id="line2d_6">
      <g>
       <use xlink:href="#m239e156c1f" x="192.739399" y="781.084135" style="stroke: #000000; stroke-width: 0.8"/>
      </g>
     </g>
     <g id="text_3">
      <!-- 40 -->
      <g transform="translate(187.178461 795.257573) scale(0.1 -0.1)">
       <defs>
        <path id="Helvetica-34" d="M 2116 1584 
L 2116 3613 
L 681 1584 
L 2116 1584 
z
M 2125 0 
L 2125 1094 
L 163 1094 
L 163 1644 
L 2213 4488 
L 2688 4488 
L 2688 1584 
L 3347 1584 
L 3347 1094 
L 2688 1094 
L 2688 0 
L 2125 0 
z
" transform="scale(0.015625)"/>
       </defs>
       <use xlink:href="#Helvetica-34"/>
       <use xlink:href="#Helvetica-30" transform="translate(55.615234 0)"/>
      </g>
     </g>
    </g>
    <g id="xtick_4">
     <g id="line2d_7">
      <path d="M 237.741322 781.084135 
L 237.741322 48.058845 
" clip-path="url(#p8e2d2f16e6)" style="fill: none; stroke-dasharray: 0.8,1.32; stroke-dashoffset: 0; stroke: #b0b0b0; stroke-opacity: 0.4; stroke-width: 0.8"/>
     </g>
     <g id="line2d_8">
      <g>
       <use xlink:href="#m239e156c1f" x="237.741322" y="781.084135" style="stroke: #000000; stroke-width: 0.8"/>
      </g>
     </g>
     <g id="text_4">
      <!-- 60 -->
      <g transform="translate(232.180385 795.257573) scale(0.1 -0.1)">
       <defs>
        <path id="Helvetica-36" d="M 1872 4494 
Q 2622 4494 2917 4105 
Q 3213 3716 3213 3303 
L 2656 3303 
Q 2606 3569 2497 3719 
Q 2294 4000 1881 4000 
Q 1409 4000 1131 3564 
Q 853 3128 822 2316 
Q 1016 2600 1309 2741 
Q 1578 2866 1909 2866 
Q 2472 2866 2890 2506 
Q 3309 2147 3309 1434 
Q 3309 825 2912 354 
Q 2516 -116 1781 -116 
Q 1153 -116 697 361 
Q 241 838 241 1966 
Q 241 2800 444 3381 
Q 834 4494 1872 4494 
z
M 1831 384 
Q 2275 384 2495 682 
Q 2716 981 2716 1388 
Q 2716 1731 2519 2042 
Q 2322 2353 1803 2353 
Q 1441 2353 1167 2112 
Q 894 1872 894 1388 
Q 894 963 1142 673 
Q 1391 384 1831 384 
z
" transform="scale(0.015625)"/>
       </defs>
       <use xlink:href="#Helvetica-36"/>
       <use xlink:href="#Helvetica-30" transform="translate(55.615234 0)"/>
      </g>
     </g>
    </g>
    <g id="xtick_5">
     <g id="line2d_9">
      <path d="M 282.743245 781.084135 
L 282.743245 48.058845 
" clip-path="url(#p8e2d2f16e6)" style="fill: none; stroke-dasharray: 0.8,1.32; stroke-dashoffset: 0; stroke: #b0b0b0; stroke-opacity: 0.4; stroke-width: 0.8"/>
     </g>
     <g id="line2d_10">
      <g>
       <use xlink:href="#m239e156c1f" x="282.743245" y="781.084135" style="stroke: #000000; stroke-width: 0.8"/>
      </g>
     </g>
     <g id="text_5">
      <!-- 80 -->
      <g transform="translate(277.182308 795.257573) scale(0.1 -0.1)">
       <defs>
        <path id="Helvetica-38" d="M 1741 2600 
Q 2113 2600 2322 2808 
Q 2531 3016 2531 3303 
Q 2531 3553 2331 3762 
Q 2131 3972 1722 3972 
Q 1316 3972 1134 3762 
Q 953 3553 953 3272 
Q 953 2956 1187 2778 
Q 1422 2600 1741 2600 
z
M 1775 384 
Q 2166 384 2423 595 
Q 2681 806 2681 1225 
Q 2681 1659 2415 1884 
Q 2150 2109 1734 2109 
Q 1331 2109 1076 1879 
Q 822 1650 822 1244 
Q 822 894 1055 639 
Q 1288 384 1775 384 
z
M 975 2384 
Q 741 2484 609 2619 
Q 363 2869 363 3269 
Q 363 3769 725 4128 
Q 1088 4488 1753 4488 
Q 2397 4488 2762 4148 
Q 3128 3809 3128 3356 
Q 3128 2938 2916 2678 
Q 2797 2531 2547 2391 
Q 2825 2263 2984 2097 
Q 3281 1784 3281 1284 
Q 3281 694 2884 283 
Q 2488 -128 1763 -128 
Q 1109 -128 657 226 
Q 206 581 206 1256 
Q 206 1653 400 1942 
Q 594 2231 975 2384 
z
" transform="scale(0.015625)"/>
       </defs>
       <use xlink:href="#Helvetica-38"/>
       <use xlink:href="#Helvetica-30" transform="translate(55.615234 0)"/>
      </g>
     </g>
    </g>
    <g id="text_6">
     <!-- Count -->
     <g transform="translate(189.804688 808.515385) scale(0.1 -0.1)">
      <defs>
       <path id="Helvetica-43" d="M 2422 4716 
Q 3294 4716 3775 4256 
Q 4256 3797 4309 3213 
L 3703 3213 
Q 3600 3656 3292 3915 
Q 2984 4175 2428 4175 
Q 1750 4175 1333 3698 
Q 916 3222 916 2238 
Q 916 1431 1292 929 
Q 1669 428 2416 428 
Q 3103 428 3463 956 
Q 3653 1234 3747 1688 
L 4353 1688 
Q 4272 963 3816 472 
Q 3269 -119 2341 -119 
Q 1541 -119 997 366 
Q 281 1006 281 2344 
Q 281 3359 819 4009 
Q 1400 4716 2422 4716 
z
M 2297 4716 
L 2297 4716 
z
" transform="scale(0.015625)"/>
       <path id="Helvetica-6f" d="M 1741 363 
Q 2300 363 2508 786 
Q 2716 1209 2716 1728 
Q 2716 2197 2566 2491 
Q 2328 2953 1747 2953 
Q 1231 2953 997 2559 
Q 763 2166 763 1609 
Q 763 1075 997 719 
Q 1231 363 1741 363 
z
M 1763 3444 
Q 2409 3444 2856 3012 
Q 3303 2581 3303 1744 
Q 3303 934 2909 406 
Q 2516 -122 1688 -122 
Q 997 -122 590 345 
Q 184 813 184 1600 
Q 184 2444 612 2944 
Q 1041 3444 1763 3444 
z
M 1744 3428 
L 1744 3428 
z
" transform="scale(0.015625)"/>
       <path id="Helvetica-75" d="M 975 3347 
L 975 1125 
Q 975 869 1056 706 
Q 1206 406 1616 406 
Q 2203 406 2416 931 
Q 2531 1213 2531 1703 
L 2531 3347 
L 3094 3347 
L 3094 0 
L 2563 0 
L 2569 494 
Q 2459 303 2297 172 
Q 1975 -91 1516 -91 
Q 800 -91 541 388 
Q 400 644 400 1072 
L 400 3347 
L 975 3347 
z
M 1747 3428 
L 1747 3428 
z
" transform="scale(0.015625)"/>
       <path id="Helvetica-6e" d="M 413 3347 
L 947 3347 
L 947 2872 
Q 1184 3166 1450 3294 
Q 1716 3422 2041 3422 
Q 2753 3422 3003 2925 
Q 3141 2653 3141 2147 
L 3141 0 
L 2569 0 
L 2569 2109 
Q 2569 2416 2478 2603 
Q 2328 2916 1934 2916 
Q 1734 2916 1606 2875 
Q 1375 2806 1200 2600 
Q 1059 2434 1017 2257 
Q 975 2081 975 1753 
L 975 0 
L 413 0 
L 413 3347 
z
M 1734 3428 
L 1734 3428 
z
" transform="scale(0.015625)"/>
       <path id="Helvetica-74" d="M 525 4281 
L 1094 4281 
L 1094 3347 
L 1628 3347 
L 1628 2888 
L 1094 2888 
L 1094 703 
Q 1094 528 1213 469 
Q 1278 434 1431 434 
Q 1472 434 1519 436 
Q 1566 438 1628 444 
L 1628 0 
Q 1531 -28 1426 -40 
Q 1322 -53 1200 -53 
Q 806 -53 665 148 
Q 525 350 525 672 
L 525 2888 
L 72 2888 
L 72 3347 
L 525 3347 
L 525 4281 
z
" transform="scale(0.015625)"/>
      </defs>
      <use xlink:href="#Helvetica-43"/>
      <use xlink:href="#Helvetica-6f" transform="translate(72.216797 0)"/>
      <use xlink:href="#Helvetica-75" transform="translate(127.832031 0)"/>
      <use xlink:href="#Helvetica-6e" transform="translate(183.447266 0)"/>
      <use xlink:href="#Helvetica-74" transform="translate(239.0625 0)"/>
     </g>
    </g>
   </g>
   <g id="matplotlib.axis_2">
    <g id="ytick_1">
     <g id="line2d_11"/>
     <g id="text_7">
      <!-- Blood Vasculature -->
      <g transform="translate(26.193521 771.222445) scale(0.09 -0.09)">
       <defs>
        <path id="Helvetica-42" d="M 2213 2650 
Q 2606 2650 2825 2759 
Q 3169 2931 3169 3378 
Q 3169 3828 2803 3984 
Q 2597 4072 2191 4072 
L 1081 4072 
L 1081 2650 
L 2213 2650 
z
M 2422 531 
Q 2994 531 3238 863 
Q 3391 1072 3391 1369 
Q 3391 1869 2944 2050 
Q 2706 2147 2316 2147 
L 1081 2147 
L 1081 531 
L 2422 531 
z
M 472 4591 
L 2444 4591 
Q 3250 4591 3591 4109 
Q 3791 3825 3791 3453 
Q 3791 3019 3544 2741 
Q 3416 2594 3175 2472 
Q 3528 2338 3703 2169 
Q 4013 1869 4013 1341 
Q 4013 897 3734 538 
Q 3319 0 2413 0 
L 472 0 
L 472 4591 
z
" transform="scale(0.015625)"/>
        <path id="Helvetica-6c" d="M 428 4591 
L 991 4591 
L 991 0 
L 428 0 
L 428 4591 
z
" transform="scale(0.015625)"/>
        <path id="Helvetica-64" d="M 769 1634 
Q 769 1097 997 734 
Q 1225 372 1728 372 
Q 2119 372 2370 708 
Q 2622 1044 2622 1672 
Q 2622 2306 2362 2611 
Q 2103 2916 1722 2916 
Q 1297 2916 1033 2591 
Q 769 2266 769 1634 
z
M 1616 3406 
Q 2000 3406 2259 3244 
Q 2409 3150 2600 2916 
L 2600 4606 
L 3141 4606 
L 3141 0 
L 2634 0 
L 2634 466 
Q 2438 156 2169 18 
Q 1900 -119 1553 -119 
Q 994 -119 584 351 
Q 175 822 175 1603 
Q 175 2334 548 2870 
Q 922 3406 1616 3406 
z
" transform="scale(0.015625)"/>
        <path id="Helvetica-20" transform="scale(0.015625)"/>
        <path id="Helvetica-56" d="M 850 4591 
L 2169 681 
L 3472 4591 
L 4169 4591 
L 2494 0 
L 1834 0 
L 163 4591 
L 850 4591 
z
" transform="scale(0.015625)"/>
        <path id="Helvetica-61" d="M 844 891 
Q 844 647 1022 506 
Q 1200 366 1444 366 
Q 1741 366 2019 503 
Q 2488 731 2488 1250 
L 2488 1703 
Q 2384 1638 2221 1594 
Q 2059 1550 1903 1531 
L 1563 1488 
Q 1256 1447 1103 1359 
Q 844 1213 844 891 
z
M 2206 2028 
Q 2400 2053 2466 2191 
Q 2503 2266 2503 2406 
Q 2503 2694 2298 2823 
Q 2094 2953 1713 2953 
Q 1272 2953 1088 2716 
Q 984 2584 953 2325 
L 428 2325 
Q 444 2944 830 3186 
Q 1216 3428 1725 3428 
Q 2316 3428 2684 3203 
Q 3050 2978 3050 2503 
L 3050 575 
Q 3050 488 3086 434 
Q 3122 381 3238 381 
Q 3275 381 3322 386 
Q 3369 391 3422 400 
L 3422 -16 
Q 3291 -53 3222 -62 
Q 3153 -72 3034 -72 
Q 2744 -72 2613 134 
Q 2544 244 2516 444 
Q 2344 219 2022 53 
Q 1700 -113 1313 -113 
Q 847 -113 551 170 
Q 256 453 256 878 
Q 256 1344 547 1600 
Q 838 1856 1309 1916 
L 2206 2028 
z
M 1741 3428 
L 1741 3428 
z
" transform="scale(0.015625)"/>
        <path id="Helvetica-73" d="M 747 1050 
Q 772 769 888 619 
Q 1100 347 1625 347 
Q 1938 347 2175 483 
Q 2413 619 2413 903 
Q 2413 1119 2222 1231 
Q 2100 1300 1741 1391 
L 1294 1503 
Q 866 1609 663 1741 
Q 300 1969 300 2372 
Q 300 2847 642 3140 
Q 984 3434 1563 3434 
Q 2319 3434 2653 2991 
Q 2863 2709 2856 2384 
L 2325 2384 
Q 2309 2575 2191 2731 
Q 1997 2953 1519 2953 
Q 1200 2953 1036 2831 
Q 872 2709 872 2509 
Q 872 2291 1088 2159 
Q 1213 2081 1456 2022 
L 1828 1931 
Q 2434 1784 2641 1647 
Q 2969 1431 2969 969 
Q 2969 522 2630 197 
Q 2291 -128 1597 -128 
Q 850 -128 539 211 
Q 228 550 206 1050 
L 747 1050 
z
M 1578 3428 
L 1578 3428 
z
" transform="scale(0.015625)"/>
        <path id="Helvetica-63" d="M 1703 3444 
Q 2269 3444 2623 3169 
Q 2978 2894 3050 2222 
L 2503 2222 
Q 2453 2531 2275 2736 
Q 2097 2941 1703 2941 
Q 1166 2941 934 2416 
Q 784 2075 784 1575 
Q 784 1072 996 728 
Q 1209 384 1666 384 
Q 2016 384 2220 598 
Q 2425 813 2503 1184 
L 3050 1184 
Q 2956 519 2581 211 
Q 2206 -97 1622 -97 
Q 966 -97 575 383 
Q 184 863 184 1581 
Q 184 2463 612 2953 
Q 1041 3444 1703 3444 
z
M 1616 3428 
L 1616 3428 
z
" transform="scale(0.015625)"/>
        <path id="Helvetica-72" d="M 428 3347 
L 963 3347 
L 963 2769 
Q 1028 2938 1284 3180 
Q 1541 3422 1875 3422 
Q 1891 3422 1928 3419 
Q 1966 3416 2056 3406 
L 2056 2813 
Q 2006 2822 1964 2825 
Q 1922 2828 1872 2828 
Q 1447 2828 1219 2554 
Q 991 2281 991 1925 
L 991 0 
L 428 0 
L 428 3347 
z
" transform="scale(0.015625)"/>
        <path id="Helvetica-65" d="M 1806 3422 
Q 2163 3422 2497 3255 
Q 2831 3088 3006 2822 
Q 3175 2569 3231 2231 
Q 3281 2000 3281 1494 
L 828 1494 
Q 844 984 1069 676 
Q 1294 369 1766 369 
Q 2206 369 2469 659 
Q 2619 828 2681 1050 
L 3234 1050 
Q 3213 866 3089 639 
Q 2966 413 2813 269 
Q 2556 19 2178 -69 
Q 1975 -119 1719 -119 
Q 1094 -119 659 336 
Q 225 791 225 1609 
Q 225 2416 662 2919 
Q 1100 3422 1806 3422 
z
M 2703 1941 
Q 2669 2306 2544 2525 
Q 2313 2931 1772 2931 
Q 1384 2931 1121 2651 
Q 859 2372 844 1941 
L 2703 1941 
z
M 1753 3428 
L 1753 3428 
z
" transform="scale(0.015625)"/>
       </defs>
       <use xlink:href="#Helvetica-42"/>
       <use xlink:href="#Helvetica-6c" transform="translate(66.699219 0)"/>
       <use xlink:href="#Helvetica-6f" transform="translate(88.916016 0)"/>
       <use xlink:href="#Helvetica-6f" transform="translate(144.53125 0)"/>
       <use xlink:href="#Helvetica-64" transform="translate(200.146484 0)"/>
       <use xlink:href="#Helvetica-20" transform="translate(255.761719 0)"/>
       <use xlink:href="#Helvetica-56" transform="translate(283.544922 0)"/>
       <use xlink:href="#Helvetica-61" transform="translate(350.244141 0)"/>
       <use xlink:href="#Helvetica-73" transform="translate(405.859375 0)"/>
       <use xlink:href="#Helvetica-63" transform="translate(455.859375 0)"/>
       <use xlink:href="#Helvetica-75" transform="translate(505.859375 0)"/>
       <use xlink:href="#Helvetica-6c" transform="translate(561.474609 0)"/>
       <use xlink:href="#Helvetica-61" transform="translate(583.691406 0)"/>
       <use xlink:href="#Helvetica-74" transform="translate(639.306641 0)"/>
       <use xlink:href="#Helvetica-75" transform="translate(667.089844 0)"/>
       <use xlink:href="#Helvetica-72" transform="translate(722.705078 0)"/>
       <use xlink:href="#Helvetica-65" transform="translate(756.005859 0)"/>
      </g>
     </g>
    </g>
    <g id="ytick_2">
     <g id="line2d_12"/>
     <g id="text_8">
      <!-- Knee (Left) -->
      <g transform="translate(54.713678 745.076017) scale(0.09 -0.09)">
       <defs>
        <path id="Helvetica-4b" d="M 488 4591 
L 1094 4591 
L 1094 2353 
L 3331 4591 
L 4191 4591 
L 2281 2741 
L 4244 0 
L 3434 0 
L 1828 2303 
L 1094 1600 
L 1094 0 
L 488 0 
L 488 4591 
z
" transform="scale(0.015625)"/>
        <path id="Helvetica-28" d="M 1894 4666 
Q 1403 3713 1256 3263 
Q 1034 2578 1034 1681 
Q 1034 775 1288 25 
Q 1444 -438 1903 -1306 
L 1525 -1306 
Q 1069 -594 959 -397 
Q 850 -200 722 138 
Q 547 600 478 1125 
Q 444 1397 444 1644 
Q 444 2569 734 3291 
Q 919 3750 1503 4666 
L 1894 4666 
z
" transform="scale(0.015625)"/>
        <path id="Helvetica-4c" d="M 488 4591 
L 1109 4591 
L 1109 547 
L 3434 547 
L 3434 0 
L 488 0 
L 488 4591 
z
" transform="scale(0.015625)"/>
        <path id="Helvetica-66" d="M 553 3856 
Q 566 4206 675 4369 
Q 872 4656 1434 4656 
Q 1488 4656 1544 4653 
Q 1600 4650 1672 4644 
L 1672 4131 
Q 1584 4138 1545 4139 
Q 1506 4141 1472 4141 
Q 1216 4141 1166 4008 
Q 1116 3875 1116 3331 
L 1672 3331 
L 1672 2888 
L 1109 2888 
L 1109 0 
L 553 0 
L 553 2888 
L 88 2888 
L 88 3331 
L 553 3331 
L 553 3856 
z
" transform="scale(0.015625)"/>
        <path id="Helvetica-29" d="M 222 -1306 
Q 719 -338 863 106 
Q 1081 778 1081 1681 
Q 1081 2584 828 3334 
Q 672 3797 213 4666 
L 591 4666 
Q 1072 3897 1173 3717 
Q 1275 3538 1394 3222 
Q 1544 2831 1608 2450 
Q 1672 2069 1672 1716 
Q 1672 791 1378 66 
Q 1194 -400 613 -1306 
L 222 -1306 
z
" transform="scale(0.015625)"/>
       </defs>
       <use xlink:href="#Helvetica-4b"/>
       <use xlink:href="#Helvetica-6e" transform="translate(66.699219 0)"/>
       <use xlink:href="#Helvetica-65" transform="translate(122.314453 0)"/>
       <use xlink:href="#Helvetica-65" transform="translate(177.929688 0)"/>
       <use xlink:href="#Helvetica-20" transform="translate(233.544922 0)"/>
       <use xlink:href="#Helvetica-28" transform="translate(261.328125 0)"/>
       <use xlink:href="#Helvetica-4c" transform="translate(294.628906 0)"/>
       <use xlink:href="#Helvetica-65" transform="translate(350.244141 0)"/>
       <use xlink:href="#Helvetica-66" transform="translate(405.859375 0)"/>
       <use xlink:href="#Helvetica-74" transform="translate(433.642578 0)"/>
       <use xlink:href="#Helvetica-29" transform="translate(461.425781 0)"/>
      </g>
     </g>
    </g>
    <g id="ytick_3">
     <g id="line2d_13"/>
     <g id="text_9">
      <!-- Ovary (Left) -->
      <g transform="translate(51.729615 718.951386) scale(0.09 -0.09)">
       <defs>
        <path id="Helvetica-4f" d="M 2469 4716 
Q 3684 4716 4269 3934 
Q 4725 3325 4725 2375 
Q 4725 1347 4203 666 
Q 3591 -134 2456 -134 
Q 1397 -134 791 566 
Q 250 1241 250 2272 
Q 250 3203 713 3866 
Q 1306 4716 2469 4716 
z
M 2531 422 
Q 3353 422 3720 1011 
Q 4088 1600 4088 2366 
Q 4088 3175 3664 3669 
Q 3241 4163 2506 4163 
Q 1794 4163 1344 3673 
Q 894 3184 894 2231 
Q 894 1469 1280 945 
Q 1666 422 2531 422 
z
M 2488 4716 
L 2488 4716 
z
" transform="scale(0.015625)"/>
        <path id="Helvetica-76" d="M 688 3347 
L 1581 622 
L 2516 3347 
L 3131 3347 
L 1869 0 
L 1269 0 
L 34 3347 
L 688 3347 
z
" transform="scale(0.015625)"/>
        <path id="Helvetica-79" d="M 2503 3347 
L 3125 3347 
Q 3006 3025 2597 1878 
Q 2291 1016 2084 472 
Q 1597 -809 1397 -1090 
Q 1197 -1372 709 -1372 
Q 591 -1372 527 -1362 
Q 463 -1353 369 -1328 
L 369 -816 
Q 516 -856 581 -865 
Q 647 -875 697 -875 
Q 853 -875 926 -823 
Q 1000 -772 1050 -697 
Q 1066 -672 1162 -440 
Q 1259 -209 1303 -97 
L 66 3347 
L 703 3347 
L 1600 622 
L 2503 3347 
z
M 1597 3428 
L 1597 3428 
z
" transform="scale(0.015625)"/>
       </defs>
       <use xlink:href="#Helvetica-4f"/>
       <use xlink:href="#Helvetica-76" transform="translate(77.783203 0)"/>
       <use xlink:href="#Helvetica-61" transform="translate(127.783203 0)"/>
       <use xlink:href="#Helvetica-72" transform="translate(183.398438 0)"/>
       <use xlink:href="#Helvetica-79" transform="translate(216.699219 0)"/>
       <use xlink:href="#Helvetica-20" transform="translate(266.699219 0)"/>
       <use xlink:href="#Helvetica-28" transform="translate(294.482422 0)"/>
       <use xlink:href="#Helvetica-4c" transform="translate(327.783203 0)"/>
       <use xlink:href="#Helvetica-65" transform="translate(383.398438 0)"/>
       <use xlink:href="#Helvetica-66" transform="translate(439.013672 0)"/>
       <use xlink:href="#Helvetica-74" transform="translate(466.796875 0)"/>
       <use xlink:href="#Helvetica-29" transform="translate(494.580078 0)"/>
      </g>
     </g>
    </g>
    <g id="ytick_4">
     <g id="line2d_14"/>
     <g id="text_10">
      <!-- Bronchus (Left) -->
      <g transform="translate(37.712115 692.717067) scale(0.09 -0.09)">
       <defs>
        <path id="Helvetica-68" d="M 413 4606 
L 975 4606 
L 975 2894 
Q 1175 3147 1334 3250 
Q 1606 3428 2013 3428 
Q 2741 3428 3000 2919 
Q 3141 2641 3141 2147 
L 3141 0 
L 2563 0 
L 2563 2109 
Q 2563 2478 2469 2650 
Q 2316 2925 1894 2925 
Q 1544 2925 1259 2684 
Q 975 2444 975 1775 
L 975 0 
L 413 0 
L 413 4606 
z
" transform="scale(0.015625)"/>
       </defs>
       <use xlink:href="#Helvetica-42"/>
       <use xlink:href="#Helvetica-72" transform="translate(66.699219 0)"/>
       <use xlink:href="#Helvetica-6f" transform="translate(100 0)"/>
       <use xlink:href="#Helvetica-6e" transform="translate(155.615234 0)"/>
       <use xlink:href="#Helvetica-63" transform="translate(211.230469 0)"/>
       <use xlink:href="#Helvetica-68" transform="translate(261.230469 0)"/>
       <use xlink:href="#Helvetica-75" transform="translate(316.845703 0)"/>
       <use xlink:href="#Helvetica-73" transform="translate(372.460938 0)"/>
       <use xlink:href="#Helvetica-20" transform="translate(422.460938 0)"/>
       <use xlink:href="#Helvetica-28" transform="translate(450.244141 0)"/>
       <use xlink:href="#Helvetica-4c" transform="translate(483.544922 0)"/>
       <use xlink:href="#Helvetica-65" transform="translate(539.160156 0)"/>
       <use xlink:href="#Helvetica-66" transform="translate(594.775391 0)"/>
       <use xlink:href="#Helvetica-74" transform="translate(622.558594 0)"/>
       <use xlink:href="#Helvetica-29" transform="translate(650.341797 0)"/>
      </g>
     </g>
    </g>
    <g id="ytick_5">
     <g id="line2d_15"/>
     <g id="text_11">
      <!-- Fallopian Tube (Left) -->
      <g transform="translate(16.199303 666.55728) scale(0.09 -0.09)">
       <defs>
        <path id="Helvetica-46" d="M 547 4591 
L 3731 4591 
L 3731 4028 
L 1169 4028 
L 1169 2634 
L 3422 2634 
L 3422 2088 
L 1169 2088 
L 1169 0 
L 547 0 
L 547 4591 
z
" transform="scale(0.015625)"/>
        <path id="Helvetica-70" d="M 1825 378 
Q 2219 378 2480 708 
Q 2741 1038 2741 1694 
Q 2741 2094 2625 2381 
Q 2406 2934 1825 2934 
Q 1241 2934 1025 2350 
Q 909 2038 909 1556 
Q 909 1169 1025 897 
Q 1244 378 1825 378 
z
M 369 3331 
L 916 3331 
L 916 2888 
Q 1084 3116 1284 3241 
Q 1569 3428 1953 3428 
Q 2522 3428 2919 2992 
Q 3316 2556 3316 1747 
Q 3316 653 2744 184 
Q 2381 -113 1900 -113 
Q 1522 -113 1266 53 
Q 1116 147 931 375 
L 931 -1334 
L 369 -1334 
L 369 3331 
z
" transform="scale(0.015625)"/>
        <path id="Helvetica-69" d="M 413 3331 
L 984 3331 
L 984 0 
L 413 0 
L 413 3331 
z
M 413 4591 
L 984 4591 
L 984 3953 
L 413 3953 
L 413 4591 
z
" transform="scale(0.015625)"/>
        <path id="Helvetica-54" d="M 3828 4591 
L 3828 4044 
L 2281 4044 
L 2281 0 
L 1650 0 
L 1650 4044 
L 103 4044 
L 103 4591 
L 3828 4591 
z
" transform="scale(0.015625)"/>
        <path id="Helvetica-62" d="M 369 4606 
L 916 4606 
L 916 2941 
Q 1100 3181 1356 3307 
Q 1613 3434 1913 3434 
Q 2538 3434 2927 3004 
Q 3316 2575 3316 1738 
Q 3316 944 2931 419 
Q 2547 -106 1866 -106 
Q 1484 -106 1222 78 
Q 1066 188 888 428 
L 888 0 
L 369 0 
L 369 4606 
z
M 1831 391 
Q 2288 391 2514 753 
Q 2741 1116 2741 1709 
Q 2741 2238 2514 2584 
Q 2288 2931 1847 2931 
Q 1463 2931 1173 2647 
Q 884 2363 884 1709 
Q 884 1238 1003 944 
Q 1225 391 1831 391 
z
" transform="scale(0.015625)"/>
       </defs>
       <use xlink:href="#Helvetica-46"/>
       <use xlink:href="#Helvetica-61" transform="translate(61.083984 0)"/>
       <use xlink:href="#Helvetica-6c" transform="translate(116.699219 0)"/>
       <use xlink:href="#Helvetica-6c" transform="translate(138.916016 0)"/>
       <use xlink:href="#Helvetica-6f" transform="translate(161.132812 0)"/>
       <use xlink:href="#Helvetica-70" transform="translate(216.748047 0)"/>
       <use xlink:href="#Helvetica-69" transform="translate(272.363281 0)"/>
       <use xlink:href="#Helvetica-61" transform="translate(294.580078 0)"/>
       <use xlink:href="#Helvetica-6e" transform="translate(350.195312 0)"/>
       <use xlink:href="#Helvetica-20" transform="translate(405.810547 0)"/>
       <use xlink:href="#Helvetica-54" transform="translate(433.59375 0)"/>
       <use xlink:href="#Helvetica-75" transform="translate(494.677734 0)"/>
       <use xlink:href="#Helvetica-62" transform="translate(550.292969 0)"/>
       <use xlink:href="#Helvetica-65" transform="translate(605.908203 0)"/>
       <use xlink:href="#Helvetica-20" transform="translate(661.523438 0)"/>
       <use xlink:href="#Helvetica-28" transform="translate(689.306641 0)"/>
       <use xlink:href="#Helvetica-4c" transform="translate(722.607422 0)"/>
       <use xlink:href="#Helvetica-65" transform="translate(778.222656 0)"/>
       <use xlink:href="#Helvetica-66" transform="translate(833.837891 0)"/>
       <use xlink:href="#Helvetica-74" transform="translate(861.621094 0)"/>
       <use xlink:href="#Helvetica-29" transform="translate(889.404297 0)"/>
      </g>
     </g>
    </g>
    <g id="ytick_6">
     <g id="line2d_16"/>
     <g id="text_12">
      <!-- Knee (Right) -->
      <g transform="translate(48.714615 640.377806) scale(0.09 -0.09)">
       <defs>
        <path id="Helvetica-52" d="M 2622 2488 
Q 3059 2488 3314 2663 
Q 3569 2838 3569 3294 
Q 3569 3784 3213 3963 
Q 3022 4056 2703 4056 
L 1184 4056 
L 1184 2488 
L 2622 2488 
z
M 563 4591 
L 2688 4591 
Q 3213 4591 3553 4438 
Q 4200 4144 4200 3353 
Q 4200 2941 4029 2678 
Q 3859 2416 3553 2256 
Q 3822 2147 3958 1969 
Q 4094 1791 4109 1391 
L 4131 775 
Q 4141 513 4175 384 
Q 4231 166 4375 103 
L 4375 0 
L 3613 0 
Q 3581 59 3562 153 
Q 3544 247 3531 516 
L 3494 1281 
Q 3472 1731 3159 1884 
Q 2981 1969 2600 1969 
L 1184 1969 
L 1184 0 
L 563 0 
L 563 4591 
z
" transform="scale(0.015625)"/>
        <path id="Helvetica-67" d="M 1594 3406 
Q 1988 3406 2281 3213 
Q 2441 3103 2606 2894 
L 2606 3316 
L 3125 3316 
L 3125 272 
Q 3125 -366 2938 -734 
Q 2588 -1416 1616 -1416 
Q 1075 -1416 706 -1173 
Q 338 -931 294 -416 
L 866 -416 
Q 906 -641 1028 -763 
Q 1219 -950 1628 -950 
Q 2275 -950 2475 -494 
Q 2594 -225 2584 466 
Q 2416 209 2178 84 
Q 1941 -41 1550 -41 
Q 1006 -41 598 345 
Q 191 731 191 1622 
Q 191 2463 602 2934 
Q 1013 3406 1594 3406 
z
M 2606 1688 
Q 2606 2309 2350 2609 
Q 2094 2909 1697 2909 
Q 1103 2909 884 2353 
Q 769 2056 769 1575 
Q 769 1009 998 714 
Q 1228 419 1616 419 
Q 2222 419 2469 966 
Q 2606 1275 2606 1688 
z
M 1659 3428 
L 1659 3428 
z
" transform="scale(0.015625)"/>
       </defs>
       <use xlink:href="#Helvetica-4b"/>
       <use xlink:href="#Helvetica-6e" transform="translate(66.699219 0)"/>
       <use xlink:href="#Helvetica-65" transform="translate(122.314453 0)"/>
       <use xlink:href="#Helvetica-65" transform="translate(177.929688 0)"/>
       <use xlink:href="#Helvetica-20" transform="translate(233.544922 0)"/>
       <use xlink:href="#Helvetica-28" transform="translate(261.328125 0)"/>
       <use xlink:href="#Helvetica-52" transform="translate(294.628906 0)"/>
       <use xlink:href="#Helvetica-69" transform="translate(366.845703 0)"/>
       <use xlink:href="#Helvetica-67" transform="translate(389.0625 0)"/>
       <use xlink:href="#Helvetica-68" transform="translate(444.677734 0)"/>
       <use xlink:href="#Helvetica-74" transform="translate(500.292969 0)"/>
       <use xlink:href="#Helvetica-29" transform="translate(528.076172 0)"/>
      </g>
     </g>
    </g>
    <g id="ytick_7">
     <g id="line2d_17"/>
     <g id="text_13">
      <!-- Lung (Left) -->
      <g transform="translate(55.712115 614.198331) scale(0.09 -0.09)">
       <use xlink:href="#Helvetica-4c"/>
       <use xlink:href="#Helvetica-75" transform="translate(55.615234 0)"/>
       <use xlink:href="#Helvetica-6e" transform="translate(111.230469 0)"/>
       <use xlink:href="#Helvetica-67" transform="translate(166.845703 0)"/>
       <use xlink:href="#Helvetica-20" transform="translate(222.460938 0)"/>
       <use xlink:href="#Helvetica-28" transform="translate(250.244141 0)"/>
       <use xlink:href="#Helvetica-4c" transform="translate(283.544922 0)"/>
       <use xlink:href="#Helvetica-65" transform="translate(339.160156 0)"/>
       <use xlink:href="#Helvetica-66" transform="translate(394.775391 0)"/>
       <use xlink:href="#Helvetica-74" transform="translate(422.558594 0)"/>
       <use xlink:href="#Helvetica-29" transform="translate(450.341797 0)"/>
      </g>
     </g>
    </g>
    <g id="ytick_8">
     <g id="line2d_18"/>
     <g id="text_14">
      <!-- Ovary (Right) -->
      <g transform="translate(45.730553 588.054013) scale(0.09 -0.09)">
       <use xlink:href="#Helvetica-4f"/>
       <use xlink:href="#Helvetica-76" transform="translate(77.783203 0)"/>
       <use xlink:href="#Helvetica-61" transform="translate(127.783203 0)"/>
       <use xlink:href="#Helvetica-72" transform="translate(183.398438 0)"/>
       <use xlink:href="#Helvetica-79" transform="translate(216.699219 0)"/>
       <use xlink:href="#Helvetica-20" transform="translate(266.699219 0)"/>
       <use xlink:href="#Helvetica-28" transform="translate(294.482422 0)"/>
       <use xlink:href="#Helvetica-52" transform="translate(327.783203 0)"/>
       <use xlink:href="#Helvetica-69" transform="translate(400 0)"/>
       <use xlink:href="#Helvetica-67" transform="translate(422.216797 0)"/>
       <use xlink:href="#Helvetica-68" transform="translate(477.832031 0)"/>
       <use xlink:href="#Helvetica-74" transform="translate(533.447266 0)"/>
       <use xlink:href="#Helvetica-29" transform="translate(561.230469 0)"/>
      </g>
     </g>
    </g>
    <g id="ytick_9">
     <g id="line2d_19"/>
     <g id="text_15">
      <!-- Thymus -->
      <g transform="translate(67.232115 561.797194) scale(0.09 -0.09)">
       <defs>
        <path id="Helvetica-6d" d="M 413 3347 
L 969 3347 
L 969 2872 
Q 1169 3119 1331 3231 
Q 1609 3422 1963 3422 
Q 2363 3422 2606 3225 
Q 2744 3113 2856 2894 
Q 3044 3163 3297 3292 
Q 3550 3422 3866 3422 
Q 4541 3422 4784 2934 
Q 4916 2672 4916 2228 
L 4916 0 
L 4331 0 
L 4331 2325 
Q 4331 2659 4164 2784 
Q 3997 2909 3756 2909 
Q 3425 2909 3186 2687 
Q 2947 2466 2947 1947 
L 2947 0 
L 2375 0 
L 2375 2184 
Q 2375 2525 2294 2681 
Q 2166 2916 1816 2916 
Q 1497 2916 1236 2669 
Q 975 2422 975 1775 
L 975 0 
L 413 0 
L 413 3347 
z
" transform="scale(0.015625)"/>
       </defs>
       <use xlink:href="#Helvetica-54"/>
       <use xlink:href="#Helvetica-68" transform="translate(61.083984 0)"/>
       <use xlink:href="#Helvetica-79" transform="translate(116.699219 0)"/>
       <use xlink:href="#Helvetica-6d" transform="translate(166.699219 0)"/>
       <use xlink:href="#Helvetica-75" transform="translate(250 0)"/>
       <use xlink:href="#Helvetica-73" transform="translate(305.615234 0)"/>
      </g>
     </g>
    </g>
    <g id="ytick_10">
     <g id="line2d_20"/>
     <g id="text_16">
      <!-- Bone Marrow -->
      <g transform="translate(45.717896 535.607173) scale(0.09 -0.09)">
       <defs>
        <path id="Helvetica-4d" d="M 472 4591 
L 1363 4591 
L 2681 709 
L 3991 4591 
L 4872 4591 
L 4872 0 
L 4281 0 
L 4281 2709 
Q 4281 2850 4287 3175 
Q 4294 3500 4294 3872 
L 2984 0 
L 2369 0 
L 1050 3872 
L 1050 3731 
Q 1050 3563 1058 3217 
Q 1066 2872 1066 2709 
L 1066 0 
L 472 0 
L 472 4591 
z
" transform="scale(0.015625)"/>
        <path id="Helvetica-77" d="M 672 3347 
L 1316 709 
L 1969 3347 
L 2600 3347 
L 3256 725 
L 3941 3347 
L 4503 3347 
L 3531 0 
L 2947 0 
L 2266 2591 
L 1606 0 
L 1022 0 
L 56 3347 
L 672 3347 
z
" transform="scale(0.015625)"/>
       </defs>
       <use xlink:href="#Helvetica-42"/>
       <use xlink:href="#Helvetica-6f" transform="translate(66.699219 0)"/>
       <use xlink:href="#Helvetica-6e" transform="translate(122.314453 0)"/>
       <use xlink:href="#Helvetica-65" transform="translate(177.929688 0)"/>
       <use xlink:href="#Helvetica-20" transform="translate(233.544922 0)"/>
       <use xlink:href="#Helvetica-4d" transform="translate(261.328125 0)"/>
       <use xlink:href="#Helvetica-61" transform="translate(344.628906 0)"/>
       <use xlink:href="#Helvetica-72" transform="translate(400.244141 0)"/>
       <use xlink:href="#Helvetica-72" transform="translate(433.544922 0)"/>
       <use xlink:href="#Helvetica-6f" transform="translate(466.845703 0)"/>
       <use xlink:href="#Helvetica-77" transform="translate(522.460938 0)"/>
      </g>
     </g>
    </g>
    <g id="ytick_11">
     <g id="line2d_21"/>
     <g id="text_17">
      <!-- Liver -->
      <g transform="translate(79.729459 509.427698) scale(0.09 -0.09)">
       <use xlink:href="#Helvetica-4c"/>
       <use xlink:href="#Helvetica-69" transform="translate(55.615234 0)"/>
       <use xlink:href="#Helvetica-76" transform="translate(77.832031 0)"/>
       <use xlink:href="#Helvetica-65" transform="translate(127.832031 0)"/>
       <use xlink:href="#Helvetica-72" transform="translate(183.447266 0)"/>
      </g>
     </g>
    </g>
    <g id="ytick_12">
     <g id="line2d_22"/>
     <g id="text_18">
      <!-- Large Intestine -->
      <g transform="translate(39.699146 483.248223) scale(0.09 -0.09)">
       <defs>
        <path id="Helvetica-49" d="M 628 4591 
L 1256 4591 
L 1256 0 
L 628 0 
L 628 4591 
z
" transform="scale(0.015625)"/>
       </defs>
       <use xlink:href="#Helvetica-4c"/>
       <use xlink:href="#Helvetica-61" transform="translate(55.615234 0)"/>
       <use xlink:href="#Helvetica-72" transform="translate(111.230469 0)"/>
       <use xlink:href="#Helvetica-67" transform="translate(144.53125 0)"/>
       <use xlink:href="#Helvetica-65" transform="translate(200.146484 0)"/>
       <use xlink:href="#Helvetica-20" transform="translate(255.761719 0)"/>
       <use xlink:href="#Helvetica-49" transform="translate(283.544922 0)"/>
       <use xlink:href="#Helvetica-6e" transform="translate(311.328125 0)"/>
       <use xlink:href="#Helvetica-74" transform="translate(366.943359 0)"/>
       <use xlink:href="#Helvetica-65" transform="translate(394.726562 0)"/>
       <use xlink:href="#Helvetica-73" transform="translate(450.341797 0)"/>
       <use xlink:href="#Helvetica-74" transform="translate(500.341797 0)"/>
       <use xlink:href="#Helvetica-69" transform="translate(528.125 0)"/>
       <use xlink:href="#Helvetica-6e" transform="translate(550.341797 0)"/>
       <use xlink:href="#Helvetica-65" transform="translate(605.957031 0)"/>
      </g>
     </g>
    </g>
    <g id="ytick_13">
     <g id="line2d_23"/>
     <g id="text_19">
      <!-- Small Intestine -->
      <g transform="translate(40.211021 457.068749) scale(0.09 -0.09)">
       <defs>
        <path id="Helvetica-53" d="M 894 1481 
Q 916 1091 1078 847 
Q 1388 391 2169 391 
Q 2519 391 2806 491 
Q 3363 684 3363 1184 
Q 3363 1559 3128 1719 
Q 2891 1875 2384 1991 
L 1763 2131 
Q 1153 2269 900 2434 
Q 463 2722 463 3294 
Q 463 3913 891 4309 
Q 1319 4706 2103 4706 
Q 2825 4706 3329 4357 
Q 3834 4009 3834 3244 
L 3250 3244 
Q 3203 3613 3050 3809 
Q 2766 4169 2084 4169 
Q 1534 4169 1293 3937 
Q 1053 3706 1053 3400 
Q 1053 3063 1334 2906 
Q 1519 2806 2169 2656 
L 2813 2509 
Q 3278 2403 3531 2219 
Q 3969 1897 3969 1284 
Q 3969 522 3414 194 
Q 2859 -134 2125 -134 
Q 1269 -134 784 303 
Q 300 738 309 1481 
L 894 1481 
z
M 2150 4716 
L 2150 4716 
z
" transform="scale(0.015625)"/>
       </defs>
       <use xlink:href="#Helvetica-53"/>
       <use xlink:href="#Helvetica-6d" transform="translate(66.699219 0)"/>
       <use xlink:href="#Helvetica-61" transform="translate(150 0)"/>
       <use xlink:href="#Helvetica-6c" transform="translate(205.615234 0)"/>
       <use xlink:href="#Helvetica-6c" transform="translate(227.832031 0)"/>
       <use xlink:href="#Helvetica-20" transform="translate(250.048828 0)"/>
       <use xlink:href="#Helvetica-49" transform="translate(277.832031 0)"/>
       <use xlink:href="#Helvetica-6e" transform="translate(305.615234 0)"/>
       <use xlink:href="#Helvetica-74" transform="translate(361.230469 0)"/>
       <use xlink:href="#Helvetica-65" transform="translate(389.013672 0)"/>
       <use xlink:href="#Helvetica-73" transform="translate(444.628906 0)"/>
       <use xlink:href="#Helvetica-74" transform="translate(494.628906 0)"/>
       <use xlink:href="#Helvetica-69" transform="translate(522.412109 0)"/>
       <use xlink:href="#Helvetica-6e" transform="translate(544.628906 0)"/>
       <use xlink:href="#Helvetica-65" transform="translate(600.244141 0)"/>
      </g>
     </g>
    </g>
    <g id="ytick_14">
     <g id="line2d_24"/>
     <g id="text_20">
      <!-- Blood -->
      <g transform="translate(76.218053 430.889274) scale(0.09 -0.09)">
       <use xlink:href="#Helvetica-42"/>
       <use xlink:href="#Helvetica-6c" transform="translate(66.699219 0)"/>
       <use xlink:href="#Helvetica-6f" transform="translate(88.916016 0)"/>
       <use xlink:href="#Helvetica-6f" transform="translate(144.53125 0)"/>
       <use xlink:href="#Helvetica-64" transform="translate(200.146484 0)"/>
      </g>
     </g>
    </g>
    <g id="ytick_15">
     <g id="line2d_25"/>
     <g id="text_21">
      <!-- Lymph Node -->
      <g transform="translate(48.209771 404.720346) scale(0.09 -0.09)">
       <defs>
        <path id="Helvetica-4e" d="M 488 4591 
L 1222 4591 
L 3541 872 
L 3541 4591 
L 4131 4591 
L 4131 0 
L 3434 0 
L 1081 3716 
L 1081 0 
L 488 0 
L 488 4591 
z
M 2269 4591 
L 2269 4591 
z
" transform="scale(0.015625)"/>
       </defs>
       <use xlink:href="#Helvetica-4c"/>
       <use xlink:href="#Helvetica-79" transform="translate(55.615234 0)"/>
       <use xlink:href="#Helvetica-6d" transform="translate(105.615234 0)"/>
       <use xlink:href="#Helvetica-70" transform="translate(188.916016 0)"/>
       <use xlink:href="#Helvetica-68" transform="translate(244.53125 0)"/>
       <use xlink:href="#Helvetica-20" transform="translate(300.146484 0)"/>
       <use xlink:href="#Helvetica-4e" transform="translate(327.929688 0)"/>
       <use xlink:href="#Helvetica-6f" transform="translate(400.146484 0)"/>
       <use xlink:href="#Helvetica-64" transform="translate(455.761719 0)"/>
       <use xlink:href="#Helvetica-65" transform="translate(511.376953 0)"/>
      </g>
     </g>
    </g>
    <g id="ytick_16">
     <g id="line2d_26"/>
     <g id="text_22">
      <!-- Placenta -->
      <g transform="translate(64.212896 378.530325) scale(0.09 -0.09)">
       <defs>
        <path id="Helvetica-50" d="M 547 4591 
L 2613 4591 
Q 3225 4591 3600 4245 
Q 3975 3900 3975 3275 
Q 3975 2738 3640 2339 
Q 3306 1941 2613 1941 
L 1169 1941 
L 1169 0 
L 547 0 
L 547 4591 
z
M 3347 3272 
Q 3347 3778 2972 3959 
Q 2766 4056 2406 4056 
L 1169 4056 
L 1169 2466 
L 2406 2466 
Q 2825 2466 3086 2644 
Q 3347 2822 3347 3272 
z
" transform="scale(0.015625)"/>
       </defs>
       <use xlink:href="#Helvetica-50"/>
       <use xlink:href="#Helvetica-6c" transform="translate(66.699219 0)"/>
       <use xlink:href="#Helvetica-61" transform="translate(88.916016 0)"/>
       <use xlink:href="#Helvetica-63" transform="translate(144.53125 0)"/>
       <use xlink:href="#Helvetica-65" transform="translate(194.53125 0)"/>
       <use xlink:href="#Helvetica-6e" transform="translate(250.146484 0)"/>
       <use xlink:href="#Helvetica-74" transform="translate(305.761719 0)"/>
       <use xlink:href="#Helvetica-61" transform="translate(333.544922 0)"/>
      </g>
     </g>
    </g>
    <g id="ytick_17">
     <g id="line2d_27"/>
     <g id="text_23">
      <!-- Pancreas -->
      <g transform="translate(61.216178 352.35085) scale(0.09 -0.09)">
       <use xlink:href="#Helvetica-50"/>
       <use xlink:href="#Helvetica-61" transform="translate(66.699219 0)"/>
       <use xlink:href="#Helvetica-6e" transform="translate(122.314453 0)"/>
       <use xlink:href="#Helvetica-63" transform="translate(177.929688 0)"/>
       <use xlink:href="#Helvetica-72" transform="translate(227.929688 0)"/>
       <use xlink:href="#Helvetica-65" transform="translate(261.230469 0)"/>
       <use xlink:href="#Helvetica-61" transform="translate(316.845703 0)"/>
       <use xlink:href="#Helvetica-73" transform="translate(372.460938 0)"/>
      </g>
     </g>
    </g>
    <g id="ytick_18">
     <g id="line2d_28"/>
     <g id="text_24">
      <!-- Bladder -->
      <g transform="translate(68.21649 326.171376) scale(0.09 -0.09)">
       <use xlink:href="#Helvetica-42"/>
       <use xlink:href="#Helvetica-6c" transform="translate(66.699219 0)"/>
       <use xlink:href="#Helvetica-61" transform="translate(88.916016 0)"/>
       <use xlink:href="#Helvetica-64" transform="translate(144.53125 0)"/>
       <use xlink:href="#Helvetica-64" transform="translate(200.146484 0)"/>
       <use xlink:href="#Helvetica-65" transform="translate(255.761719 0)"/>
       <use xlink:href="#Helvetica-72" transform="translate(311.376953 0)"/>
      </g>
     </g>
    </g>
    <g id="ytick_19">
     <g id="line2d_29"/>
     <g id="text_25">
      <!-- Spleen -->
      <g transform="translate(71.213209 300.079792) scale(0.09 -0.09)">
       <use xlink:href="#Helvetica-53"/>
       <use xlink:href="#Helvetica-70" transform="translate(66.699219 0)"/>
       <use xlink:href="#Helvetica-6c" transform="translate(122.314453 0)"/>
       <use xlink:href="#Helvetica-65" transform="translate(144.53125 0)"/>
       <use xlink:href="#Helvetica-65" transform="translate(200.146484 0)"/>
       <use xlink:href="#Helvetica-6e" transform="translate(255.761719 0)"/>
      </g>
     </g>
    </g>
    <g id="ytick_20">
     <g id="line2d_30"/>
     <g id="text_26">
      <!-- Heart -->
      <g transform="translate(77.229146 273.812426) scale(0.09 -0.09)">
       <defs>
        <path id="Helvetica-48" d="M 503 4591 
L 1131 4591 
L 1131 2694 
L 3519 2694 
L 3519 4591 
L 4147 4591 
L 4147 0 
L 3519 0 
L 3519 2147 
L 1131 2147 
L 1131 0 
L 503 0 
L 503 4591 
z
" transform="scale(0.015625)"/>
       </defs>
       <use xlink:href="#Helvetica-48"/>
       <use xlink:href="#Helvetica-65" transform="translate(72.216797 0)"/>
       <use xlink:href="#Helvetica-61" transform="translate(127.832031 0)"/>
       <use xlink:href="#Helvetica-72" transform="translate(183.447266 0)"/>
       <use xlink:href="#Helvetica-74" transform="translate(216.748047 0)"/>
      </g>
     </g>
    </g>
    <g id="ytick_21">
     <g id="line2d_31"/>
     <g id="text_27">
      <!-- Brain -->
      <g transform="translate(78.226178 247.632952) scale(0.09 -0.09)">
       <use xlink:href="#Helvetica-42"/>
       <use xlink:href="#Helvetica-72" transform="translate(66.699219 0)"/>
       <use xlink:href="#Helvetica-61" transform="translate(100 0)"/>
       <use xlink:href="#Helvetica-69" transform="translate(155.615234 0)"/>
       <use xlink:href="#Helvetica-6e" transform="translate(177.832031 0)"/>
      </g>
     </g>
    </g>
    <g id="ytick_22">
     <g id="line2d_32"/>
     <g id="text_28">
      <!-- Lung (Right) -->
      <g transform="translate(49.713053 221.506211) scale(0.09 -0.09)">
       <use xlink:href="#Helvetica-4c"/>
       <use xlink:href="#Helvetica-75" transform="translate(55.615234 0)"/>
       <use xlink:href="#Helvetica-6e" transform="translate(111.230469 0)"/>
       <use xlink:href="#Helvetica-67" transform="translate(166.845703 0)"/>
       <use xlink:href="#Helvetica-20" transform="translate(222.460938 0)"/>
       <use xlink:href="#Helvetica-28" transform="translate(250.244141 0)"/>
       <use xlink:href="#Helvetica-52" transform="translate(283.544922 0)"/>
       <use xlink:href="#Helvetica-69" transform="translate(355.761719 0)"/>
       <use xlink:href="#Helvetica-67" transform="translate(377.978516 0)"/>
       <use xlink:href="#Helvetica-68" transform="translate(433.59375 0)"/>
       <use xlink:href="#Helvetica-74" transform="translate(489.208984 0)"/>
       <use xlink:href="#Helvetica-29" transform="translate(516.992188 0)"/>
      </g>
     </g>
    </g>
    <g id="ytick_23">
     <g id="line2d_33"/>
     <g id="text_29">
      <!-- Skin -->
      <g transform="translate(81.72774 195.274002) scale(0.09 -0.09)">
       <defs>
        <path id="Helvetica-6b" d="M 400 4591 
L 941 4591 
L 941 1925 
L 2384 3347 
L 3103 3347 
L 1822 2094 
L 3175 0 
L 2456 0 
L 1413 1688 
L 941 1256 
L 941 0 
L 400 0 
L 400 4591 
z
" transform="scale(0.015625)"/>
       </defs>
       <use xlink:href="#Helvetica-53"/>
       <use xlink:href="#Helvetica-6b" transform="translate(66.699219 0)"/>
       <use xlink:href="#Helvetica-69" transform="translate(116.699219 0)"/>
       <use xlink:href="#Helvetica-6e" transform="translate(138.916016 0)"/>
      </g>
     </g>
    </g>
    <g id="ytick_24">
     <g id="line2d_34"/>
     <g id="text_30">
      <!-- Fallopian Tube (Right) -->
      <g transform="translate(10.20024 169.147262) scale(0.09 -0.09)">
       <use xlink:href="#Helvetica-46"/>
       <use xlink:href="#Helvetica-61" transform="translate(61.083984 0)"/>
       <use xlink:href="#Helvetica-6c" transform="translate(116.699219 0)"/>
       <use xlink:href="#Helvetica-6c" transform="translate(138.916016 0)"/>
       <use xlink:href="#Helvetica-6f" transform="translate(161.132812 0)"/>
       <use xlink:href="#Helvetica-70" transform="translate(216.748047 0)"/>
       <use xlink:href="#Helvetica-69" transform="translate(272.363281 0)"/>
       <use xlink:href="#Helvetica-61" transform="translate(294.580078 0)"/>
       <use xlink:href="#Helvetica-6e" transform="translate(350.195312 0)"/>
       <use xlink:href="#Helvetica-20" transform="translate(405.810547 0)"/>
       <use xlink:href="#Helvetica-54" transform="translate(433.59375 0)"/>
       <use xlink:href="#Helvetica-75" transform="translate(494.677734 0)"/>
       <use xlink:href="#Helvetica-62" transform="translate(550.292969 0)"/>
       <use xlink:href="#Helvetica-65" transform="translate(605.908203 0)"/>
       <use xlink:href="#Helvetica-20" transform="translate(661.523438 0)"/>
       <use xlink:href="#Helvetica-28" transform="translate(689.306641 0)"/>
       <use xlink:href="#Helvetica-52" transform="translate(722.607422 0)"/>
       <use xlink:href="#Helvetica-69" transform="translate(794.824219 0)"/>
       <use xlink:href="#Helvetica-67" transform="translate(817.041016 0)"/>
       <use xlink:href="#Helvetica-68" transform="translate(872.65625 0)"/>
       <use xlink:href="#Helvetica-74" transform="translate(928.271484 0)"/>
       <use xlink:href="#Helvetica-29" transform="translate(956.054688 0)"/>
      </g>
     </g>
    </g>
    <g id="ytick_25">
     <g id="line2d_35"/>
     <g id="text_31">
      <!-- Kidney (Right) -->
      <g transform="translate(42.214928 142.967788) scale(0.09 -0.09)">
       <use xlink:href="#Helvetica-4b"/>
       <use xlink:href="#Helvetica-69" transform="translate(66.699219 0)"/>
       <use xlink:href="#Helvetica-64" transform="translate(88.916016 0)"/>
       <use xlink:href="#Helvetica-6e" transform="translate(144.53125 0)"/>
       <use xlink:href="#Helvetica-65" transform="translate(200.146484 0)"/>
       <use xlink:href="#Helvetica-79" transform="translate(255.761719 0)"/>
       <use xlink:href="#Helvetica-20" transform="translate(305.761719 0)"/>
       <use xlink:href="#Helvetica-28" transform="translate(333.544922 0)"/>
       <use xlink:href="#Helvetica-52" transform="translate(366.845703 0)"/>
       <use xlink:href="#Helvetica-69" transform="translate(439.0625 0)"/>
       <use xlink:href="#Helvetica-67" transform="translate(461.279297 0)"/>
       <use xlink:href="#Helvetica-68" transform="translate(516.894531 0)"/>
       <use xlink:href="#Helvetica-74" transform="translate(572.509766 0)"/>
       <use xlink:href="#Helvetica-29" transform="translate(600.292969 0)"/>
      </g>
     </g>
    </g>
    <g id="ytick_26">
     <g id="line2d_36"/>
     <g id="text_32">
      <!-- Kidney (Left) -->
      <g transform="translate(48.21399 116.788313) scale(0.09 -0.09)">
       <use xlink:href="#Helvetica-4b"/>
       <use xlink:href="#Helvetica-69" transform="translate(66.699219 0)"/>
       <use xlink:href="#Helvetica-64" transform="translate(88.916016 0)"/>
       <use xlink:href="#Helvetica-6e" transform="translate(144.53125 0)"/>
       <use xlink:href="#Helvetica-65" transform="translate(200.146484 0)"/>
       <use xlink:href="#Helvetica-79" transform="translate(255.761719 0)"/>
       <use xlink:href="#Helvetica-20" transform="translate(305.761719 0)"/>
       <use xlink:href="#Helvetica-28" transform="translate(333.544922 0)"/>
       <use xlink:href="#Helvetica-4c" transform="translate(366.845703 0)"/>
       <use xlink:href="#Helvetica-65" transform="translate(422.460938 0)"/>
       <use xlink:href="#Helvetica-66" transform="translate(478.076172 0)"/>
       <use xlink:href="#Helvetica-74" transform="translate(505.859375 0)"/>
       <use xlink:href="#Helvetica-29" transform="translate(533.642578 0)"/>
      </g>
     </g>
    </g>
    <g id="ytick_27">
     <g id="line2d_37"/>
     <g id="text_33">
      <!-- Uterus -->
      <g transform="translate(72.729146 90.556104) scale(0.09 -0.09)">
       <defs>
        <path id="Helvetica-55" d="M 1163 4591 
L 1163 1753 
Q 1163 1253 1350 922 
Q 1628 422 2288 422 
Q 3078 422 3363 963 
Q 3516 1256 3516 1753 
L 3516 4591 
L 4147 4591 
L 4147 2013 
Q 4147 1166 3919 709 
Q 3500 -122 2338 -122 
Q 1175 -122 759 709 
Q 531 1166 531 2013 
L 531 4591 
L 1163 4591 
z
M 2341 4591 
L 2341 4591 
z
" transform="scale(0.015625)"/>
       </defs>
       <use xlink:href="#Helvetica-55"/>
       <use xlink:href="#Helvetica-74" transform="translate(72.216797 0)"/>
       <use xlink:href="#Helvetica-65" transform="translate(100 0)"/>
       <use xlink:href="#Helvetica-72" transform="translate(155.615234 0)"/>
       <use xlink:href="#Helvetica-75" transform="translate(188.916016 0)"/>
       <use xlink:href="#Helvetica-73" transform="translate(244.53125 0)"/>
      </g>
     </g>
    </g>
    <g id="ytick_28">
     <g id="line2d_38"/>
     <g id="text_34">
      <!-- TOTAL -->
      <g transform="translate(63.788053 65.093973) scale(0.11 -0.11)">
       <defs>
        <path id="Helvetica-41" d="M 2844 1881 
L 2147 3909 
L 1406 1881 
L 2844 1881 
z
M 1822 4591 
L 2525 4591 
L 4191 0 
L 3509 0 
L 3044 1375 
L 1228 1375 
L 731 0 
L 94 0 
L 1822 4591 
z
" transform="scale(0.015625)"/>
       </defs>
       <use xlink:href="#Helvetica-54"/>
       <use xlink:href="#Helvetica-4f" transform="translate(61.083984 0)"/>
       <use xlink:href="#Helvetica-54" transform="translate(138.867188 0)"/>
       <use xlink:href="#Helvetica-41" transform="translate(199.951172 0)"/>
       <use xlink:href="#Helvetica-4c" transform="translate(266.650391 0)"/>
      </g>
     </g>
    </g>
   </g>
   <g id="line2d_39">
    <path d="M 102.735553 74.23832 
L 303.556635 74.23832 
" clip-path="url(#p8e2d2f16e6)" style="fill: none; stroke: #000000; stroke-width: 1.2; stroke-linecap: square"/>
   </g>
   <g id="patch_30">
    <path d="M 102.735553 781.084135 
L 102.735553 48.058845 
" style="fill: none; stroke: #000000; stroke-width: 0.8; stroke-linejoin: miter; stroke-linecap: square"/>
   </g>
   <g id="patch_31">
    <path d="M 303.556635 781.084135 
L 303.556635 48.058845 
" style="fill: none; stroke: #000000; stroke-width: 0.8; stroke-linejoin: miter; stroke-linecap: square"/>
   </g>
   <g id="patch_32">
    <path d="M 102.735553 781.084135 
L 303.556635 781.084135 
" style="fill: none; stroke: #000000; stroke-width: 0.8; stroke-linejoin: miter; stroke-linecap: square"/>
   </g>
   <g id="patch_33">
    <path d="M 102.735553 48.058845 
L 303.556635 48.058845 
" style="fill: none; stroke: #000000; stroke-width: 0.8; stroke-linejoin: miter; stroke-linecap: square"/>
   </g>
   <g id="text_35">
    <!-- 383 -->
    <g transform="translate(112.776607 63.947567) scale(0.11 -0.11)">
     <defs>
      <path id="Helvetica-33" d="M 1663 -122 
Q 869 -122 511 314 
Q 153 750 153 1375 
L 741 1375 
Q 778 941 903 744 
Q 1122 391 1694 391 
Q 2138 391 2406 628 
Q 2675 866 2675 1241 
Q 2675 1703 2392 1887 
Q 2109 2072 1606 2072 
Q 1550 2072 1492 2070 
Q 1434 2069 1375 2066 
L 1375 2563 
Q 1463 2553 1522 2550 
Q 1581 2547 1650 2547 
Q 1966 2547 2169 2647 
Q 2525 2822 2525 3272 
Q 2525 3606 2287 3787 
Q 2050 3969 1734 3969 
Q 1172 3969 956 3594 
Q 838 3388 822 3006 
L 266 3006 
Q 266 3506 466 3856 
Q 809 4481 1675 4481 
Q 2359 4481 2734 4176 
Q 3109 3872 3109 3294 
Q 3109 2881 2888 2625 
Q 2750 2466 2531 2375 
Q 2884 2278 3082 2001 
Q 3281 1725 3281 1325 
Q 3281 684 2859 281 
Q 2438 -122 1663 -122 
z
" transform="scale(0.015625)"/>
     </defs>
     <use xlink:href="#Helvetica-33"/>
     <use xlink:href="#Helvetica-38" transform="translate(55.615234 0)"/>
     <use xlink:href="#Helvetica-33" transform="translate(111.230469 0)"/>
    </g>
   </g>
   <g id="text_36">
    <!-- Unique Donor Organs -->
    <g transform="translate(144.784844 42.058845) scale(0.12 -0.12)">
     <defs>
      <path id="Helvetica-71" d="M 775 1628 
Q 775 1194 897 900 
Q 1113 378 1669 378 
Q 2256 378 2478 928 
Q 2600 1231 2600 1703 
Q 2600 2138 2466 2428 
Q 2238 2925 1663 2925 
Q 1297 2925 1036 2608 
Q 775 2291 775 1628 
z
M 1606 3422 
Q 2022 3422 2306 3213 
Q 2463 3100 2606 2881 
L 2606 3347 
L 3141 3347 
L 3141 -1334 
L 2575 -1334 
L 2575 384 
Q 2434 159 2186 26 
Q 1938 -106 1566 -106 
Q 1031 -106 609 312 
Q 188 731 188 1588 
Q 188 2391 583 2906 
Q 978 3422 1606 3422 
z
" transform="scale(0.015625)"/>
      <path id="Helvetica-44" d="M 2250 531 
Q 2566 531 2769 597 
Q 3131 719 3363 1066 
Q 3547 1344 3628 1778 
Q 3675 2038 3675 2259 
Q 3675 3113 3336 3584 
Q 2997 4056 2244 4056 
L 1141 4056 
L 1141 531 
L 2250 531 
z
M 516 4591 
L 2375 4591 
Q 3322 4591 3844 3919 
Q 4309 3313 4309 2366 
Q 4309 1634 4034 1044 
Q 3550 0 2369 0 
L 516 0 
L 516 4591 
z
" transform="scale(0.015625)"/>
     </defs>
     <use xlink:href="#Helvetica-55"/>
     <use xlink:href="#Helvetica-6e" transform="translate(72.216797 0)"/>
     <use xlink:href="#Helvetica-69" transform="translate(127.832031 0)"/>
     <use xlink:href="#Helvetica-71" transform="translate(150.048828 0)"/>
     <use xlink:href="#Helvetica-75" transform="translate(205.664062 0)"/>
     <use xlink:href="#Helvetica-65" transform="translate(261.279297 0)"/>
     <use xlink:href="#Helvetica-20" transform="translate(316.894531 0)"/>
     <use xlink:href="#Helvetica-44" transform="translate(344.677734 0)"/>
     <use xlink:href="#Helvetica-6f" transform="translate(416.894531 0)"/>
     <use xlink:href="#Helvetica-6e" transform="translate(472.509766 0)"/>
     <use xlink:href="#Helvetica-6f" transform="translate(528.125 0)"/>
     <use xlink:href="#Helvetica-72" transform="translate(583.740234 0)"/>
     <use xlink:href="#Helvetica-20" transform="translate(617.041016 0)"/>
     <use xlink:href="#Helvetica-4f" transform="translate(644.824219 0)"/>
     <use xlink:href="#Helvetica-72" transform="translate(722.607422 0)"/>
     <use xlink:href="#Helvetica-67" transform="translate(755.908203 0)"/>
     <use xlink:href="#Helvetica-61" transform="translate(811.523438 0)"/>
     <use xlink:href="#Helvetica-6e" transform="translate(867.138672 0)"/>
     <use xlink:href="#Helvetica-73" transform="translate(922.753906 0)"/>
    </g>
   </g>
  </g>
  <g id="axes_2">
   <g id="patch_34">
    <path d="M 313.057115 781.084135 
L 513.878197 781.084135 
L 513.878197 48.058845 
L 313.057115 48.058845 
z
" style="fill: #ffffff"/>
   </g>
   <g id="patch_35">
    <path d="M 313.057115 778.466188 
L 316.865353 778.466188 
L 316.865353 757.522608 
L 313.057115 757.522608 
z
" clip-path="url(#pb09ed4193e)" style="fill: #ff8c00"/>
   </g>
   <g id="patch_36">
    <path d="M 313.057115 752.286713 
L 314.326528 752.286713 
L 314.326528 731.343133 
L 313.057115 731.343133 
z
" clip-path="url(#pb09ed4193e)" style="fill: #ff8c00"/>
   </g>
   <g id="patch_37">
    <path d="M 313.057115 726.107238 
L 344.792431 726.107238 
L 344.792431 705.163659 
L 313.057115 705.163659 
z
" clip-path="url(#pb09ed4193e)" style="fill: #ff8c00"/>
   </g>
   <g id="patch_38">
    <path d="M 313.057115 699.927764 
L 324.481829 699.927764 
L 324.481829 678.984184 
L 313.057115 678.984184 
z
" clip-path="url(#pb09ed4193e)" style="fill: #ff8c00"/>
   </g>
   <g id="patch_39">
    <path d="M 313.057115 673.748289 
L 326.174379 673.748289 
L 326.174379 652.804709 
L 313.057115 652.804709 
z
" clip-path="url(#pb09ed4193e)" style="fill: #ff8c00"/>
   </g>
   <g id="patch_40">
    <path d="M 313.057115 647.568814 
L 319.404178 647.568814 
L 319.404178 626.625235 
L 313.057115 626.625235 
z
" clip-path="url(#pb09ed4193e)" style="fill: #ff8c00"/>
   </g>
   <g id="patch_41">
    <path d="M 313.057115 621.38934 
L 430.689355 621.38934 
L 430.689355 600.44576 
L 313.057115 600.44576 
z
" clip-path="url(#pb09ed4193e)" style="fill: #ff8c00"/>
   </g>
   <g id="patch_42">
    <path d="M 313.057115 595.209865 
L 332.521442 595.209865 
L 332.521442 574.266285 
L 313.057115 574.266285 
z
" clip-path="url(#pb09ed4193e)" style="fill: #ff8c00"/>
   </g>
   <g id="patch_43">
    <path d="M 313.057115 569.03039 
L 335.483405 569.03039 
L 335.483405 548.086811 
L 313.057115 548.086811 
z
" clip-path="url(#pb09ed4193e)" style="fill: #ff8c00"/>
   </g>
   <g id="patch_44">
    <path d="M 313.057115 542.850916 
L 318.981041 542.850916 
L 318.981041 521.907336 
L 313.057115 521.907336 
z
" clip-path="url(#pb09ed4193e)" style="fill: #ff8c00"/>
   </g>
   <g id="patch_45">
    <path d="M 313.057115 516.671441 
L 319.827316 516.671441 
L 319.827316 495.727861 
L 313.057115 495.727861 
z
" clip-path="url(#pb09ed4193e)" style="fill: #ff8c00"/>
   </g>
   <g id="patch_46">
    <path d="M 313.057115 490.491966 
L 352.408907 490.491966 
L 352.408907 469.548387 
L 313.057115 469.548387 
z
" clip-path="url(#pb09ed4193e)" style="fill: #ff8c00"/>
   </g>
   <g id="patch_47">
    <path d="M 313.057115 464.312492 
L 356.217145 464.312492 
L 356.217145 443.368912 
L 313.057115 443.368912 
z
" clip-path="url(#pb09ed4193e)" style="fill: #ff8c00"/>
   </g>
   <g id="patch_48">
    <path d="M 313.057115 438.133017 
L 321.519866 438.133017 
L 321.519866 417.189437 
L 313.057115 417.189437 
z
" clip-path="url(#pb09ed4193e)" style="fill: #ff8c00"/>
   </g>
   <g id="patch_49">
    <path d="M 313.057115 411.953543 
L 347.754394 411.953543 
L 347.754394 391.009963 
L 313.057115 391.009963 
z
" clip-path="url(#pb09ed4193e)" style="fill: #ff8c00"/>
   </g>
   <g id="patch_50">
    <path d="M 313.057115 385.774068 
L 379.066573 385.774068 
L 379.066573 364.830488 
L 313.057115 364.830488 
z
" clip-path="url(#pb09ed4193e)" style="fill: #ff8c00"/>
   </g>
   <g id="patch_51">
    <path d="M 313.057115 359.594593 
L 335.906543 359.594593 
L 335.906543 338.651014 
L 313.057115 338.651014 
z
" clip-path="url(#pb09ed4193e)" style="fill: #ff8c00"/>
   </g>
   <g id="patch_52">
    <path d="M 313.057115 333.415119 
L 335.483405 333.415119 
L 335.483405 312.471539 
L 313.057115 312.471539 
z
" clip-path="url(#pb09ed4193e)" style="fill: #ff8c00"/>
   </g>
   <g id="patch_53">
    <path d="M 313.057115 307.235644 
L 356.217145 307.235644 
L 356.217145 286.292064 
L 313.057115 286.292064 
z
" clip-path="url(#pb09ed4193e)" style="fill: #ff8c00"/>
   </g>
   <g id="patch_54">
    <path d="M 313.057115 281.056169 
L 332.521442 281.056169 
L 332.521442 260.11259 
L 313.057115 260.11259 
z
" clip-path="url(#pb09ed4193e)" style="fill: #ff8c00"/>
   </g>
   <g id="patch_55">
    <path d="M 313.057115 254.876695 
L 330.828892 254.876695 
L 330.828892 233.933115 
L 313.057115 233.933115 
z
" clip-path="url(#pb09ed4193e)" style="fill: #ff8c00"/>
   </g>
   <g id="patch_56">
    <path d="M 313.057115 228.69722 
L 397.261488 228.69722 
L 397.261488 207.75364 
L 313.057115 207.75364 
z
" clip-path="url(#pb09ed4193e)" style="fill: #ff8c00"/>
   </g>
   <g id="patch_57">
    <path d="M 313.057115 202.517745 
L 467.925459 202.517745 
L 467.925459 181.574166 
L 313.057115 181.574166 
z
" clip-path="url(#pb09ed4193e)" style="fill: #ff8c00"/>
   </g>
   <g id="patch_58">
    <path d="M 313.057115 176.338271 
L 347.754394 176.338271 
L 347.754394 155.394691 
L 313.057115 155.394691 
z
" clip-path="url(#pb09ed4193e)" style="fill: #ff8c00"/>
   </g>
   <g id="patch_59">
    <path d="M 313.057115 150.158796 
L 449.307407 150.158796 
L 449.307407 129.215216 
L 313.057115 129.215216 
z
" clip-path="url(#pb09ed4193e)" style="fill: #ff8c00"/>
   </g>
   <g id="patch_60">
    <path d="M 313.057115 123.979321 
L 504.315289 123.979321 
L 504.315289 103.035742 
L 313.057115 103.035742 
z
" clip-path="url(#pb09ed4193e)" style="fill: #ff8c00"/>
   </g>
   <g id="patch_61">
    <path d="M 313.057115 97.799847 
L 477.234485 97.799847 
L 477.234485 76.856267 
L 313.057115 76.856267 
z
" clip-path="url(#pb09ed4193e)" style="fill: #ff8c00"/>
   </g>
   <g id="matplotlib.axis_3">
    <g id="xtick_6">
     <g id="line2d_40">
      <path d="M 313.057115 781.084135 
L 313.057115 48.058845 
" clip-path="url(#pb09ed4193e)" style="fill: none; stroke-dasharray: 0.8,1.32; stroke-dashoffset: 0; stroke: #b0b0b0; stroke-opacity: 0.4; stroke-width: 0.8"/>
     </g>
     <g id="line2d_41">
      <g>
       <use xlink:href="#m239e156c1f" x="313.057115" y="781.084135" style="stroke: #000000; stroke-width: 0.8"/>
      </g>
     </g>
     <g id="text_37">
      <!-- 0 -->
      <g transform="translate(310.276646 795.257573) scale(0.1 -0.1)">
       <use xlink:href="#Helvetica-30"/>
      </g>
     </g>
    </g>
    <g id="xtick_7">
     <g id="line2d_42">
      <path d="M 355.37087 781.084135 
L 355.37087 48.058845 
" clip-path="url(#pb09ed4193e)" style="fill: none; stroke-dasharray: 0.8,1.32; stroke-dashoffset: 0; stroke: #b0b0b0; stroke-opacity: 0.4; stroke-width: 0.8"/>
     </g>
     <g id="line2d_43">
      <g>
       <use xlink:href="#m239e156c1f" x="355.37087" y="781.084135" style="stroke: #000000; stroke-width: 0.8"/>
      </g>
     </g>
     <g id="text_38">
      <!-- 100 -->
      <g transform="translate(347.029464 795.257573) scale(0.1 -0.1)">
       <defs>
        <path id="Helvetica-31" d="M 613 3169 
L 613 3600 
Q 1222 3659 1462 3798 
Q 1703 3938 1822 4456 
L 2266 4456 
L 2266 0 
L 1666 0 
L 1666 3169 
L 613 3169 
z
" transform="scale(0.015625)"/>
       </defs>
       <use xlink:href="#Helvetica-31"/>
       <use xlink:href="#Helvetica-30" transform="translate(55.615234 0)"/>
       <use xlink:href="#Helvetica-30" transform="translate(111.230469 0)"/>
      </g>
     </g>
    </g>
    <g id="xtick_8">
     <g id="line2d_44">
      <path d="M 397.684626 781.084135 
L 397.684626 48.058845 
" clip-path="url(#pb09ed4193e)" style="fill: none; stroke-dasharray: 0.8,1.32; stroke-dashoffset: 0; stroke: #b0b0b0; stroke-opacity: 0.4; stroke-width: 0.8"/>
     </g>
     <g id="line2d_45">
      <g>
       <use xlink:href="#m239e156c1f" x="397.684626" y="781.084135" style="stroke: #000000; stroke-width: 0.8"/>
      </g>
     </g>
     <g id="text_39">
      <!-- 200 -->
      <g transform="translate(389.343219 795.257573) scale(0.1 -0.1)">
       <use xlink:href="#Helvetica-32"/>
       <use xlink:href="#Helvetica-30" transform="translate(55.615234 0)"/>
       <use xlink:href="#Helvetica-30" transform="translate(111.230469 0)"/>
      </g>
     </g>
    </g>
    <g id="xtick_9">
     <g id="line2d_46">
      <path d="M 439.998381 781.084135 
L 439.998381 48.058845 
" clip-path="url(#pb09ed4193e)" style="fill: none; stroke-dasharray: 0.8,1.32; stroke-dashoffset: 0; stroke: #b0b0b0; stroke-opacity: 0.4; stroke-width: 0.8"/>
     </g>
     <g id="line2d_47">
      <g>
       <use xlink:href="#m239e156c1f" x="439.998381" y="781.084135" style="stroke: #000000; stroke-width: 0.8"/>
      </g>
     </g>
     <g id="text_40">
      <!-- 300 -->
      <g transform="translate(431.656975 795.257573) scale(0.1 -0.1)">
       <use xlink:href="#Helvetica-33"/>
       <use xlink:href="#Helvetica-30" transform="translate(55.615234 0)"/>
       <use xlink:href="#Helvetica-30" transform="translate(111.230469 0)"/>
      </g>
     </g>
    </g>
    <g id="xtick_10">
     <g id="line2d_48">
      <path d="M 482.312136 781.084135 
L 482.312136 48.058845 
" clip-path="url(#pb09ed4193e)" style="fill: none; stroke-dasharray: 0.8,1.32; stroke-dashoffset: 0; stroke: #b0b0b0; stroke-opacity: 0.4; stroke-width: 0.8"/>
     </g>
     <g id="line2d_49">
      <g>
       <use xlink:href="#m239e156c1f" x="482.312136" y="781.084135" style="stroke: #000000; stroke-width: 0.8"/>
      </g>
     </g>
     <g id="text_41">
      <!-- 400 -->
      <g transform="translate(473.97073 795.257573) scale(0.1 -0.1)">
       <use xlink:href="#Helvetica-34"/>
       <use xlink:href="#Helvetica-30" transform="translate(55.615234 0)"/>
       <use xlink:href="#Helvetica-30" transform="translate(111.230469 0)"/>
      </g>
     </g>
    </g>
    <g id="text_42">
     <!-- Count -->
     <g transform="translate(400.12625 808.515385) scale(0.1 -0.1)">
      <use xlink:href="#Helvetica-43"/>
      <use xlink:href="#Helvetica-6f" transform="translate(72.216797 0)"/>
      <use xlink:href="#Helvetica-75" transform="translate(127.832031 0)"/>
      <use xlink:href="#Helvetica-6e" transform="translate(183.447266 0)"/>
      <use xlink:href="#Helvetica-74" transform="translate(239.0625 0)"/>
     </g>
    </g>
   </g>
   <g id="matplotlib.axis_4">
    <g id="ytick_29">
     <g id="line2d_50">
      <defs>
       <path id="m2d9e99a5d9" d="M 0 0 
L -3.5 0 
" style="stroke: #000000; stroke-width: 0.8"/>
      </defs>
      <g>
       <use xlink:href="#m2d9e99a5d9" x="313.057115" y="767.994398" style="stroke: #000000; stroke-width: 0.8"/>
      </g>
     </g>
    </g>
    <g id="ytick_30">
     <g id="line2d_51">
      <g>
       <use xlink:href="#m2d9e99a5d9" x="313.057115" y="741.814923" style="stroke: #000000; stroke-width: 0.8"/>
      </g>
     </g>
    </g>
    <g id="ytick_31">
     <g id="line2d_52">
      <g>
       <use xlink:href="#m2d9e99a5d9" x="313.057115" y="715.635448" style="stroke: #000000; stroke-width: 0.8"/>
      </g>
     </g>
    </g>
    <g id="ytick_32">
     <g id="line2d_53">
      <g>
       <use xlink:href="#m2d9e99a5d9" x="313.057115" y="689.455974" style="stroke: #000000; stroke-width: 0.8"/>
      </g>
     </g>
    </g>
    <g id="ytick_33">
     <g id="line2d_54">
      <g>
       <use xlink:href="#m2d9e99a5d9" x="313.057115" y="663.276499" style="stroke: #000000; stroke-width: 0.8"/>
      </g>
     </g>
    </g>
    <g id="ytick_34">
     <g id="line2d_55">
      <g>
       <use xlink:href="#m2d9e99a5d9" x="313.057115" y="637.097024" style="stroke: #000000; stroke-width: 0.8"/>
      </g>
     </g>
    </g>
    <g id="ytick_35">
     <g id="line2d_56">
      <g>
       <use xlink:href="#m2d9e99a5d9" x="313.057115" y="610.91755" style="stroke: #000000; stroke-width: 0.8"/>
      </g>
     </g>
    </g>
    <g id="ytick_36">
     <g id="line2d_57">
      <g>
       <use xlink:href="#m2d9e99a5d9" x="313.057115" y="584.738075" style="stroke: #000000; stroke-width: 0.8"/>
      </g>
     </g>
    </g>
    <g id="ytick_37">
     <g id="line2d_58">
      <g>
       <use xlink:href="#m2d9e99a5d9" x="313.057115" y="558.558601" style="stroke: #000000; stroke-width: 0.8"/>
      </g>
     </g>
    </g>
    <g id="ytick_38">
     <g id="line2d_59">
      <g>
       <use xlink:href="#m2d9e99a5d9" x="313.057115" y="532.379126" style="stroke: #000000; stroke-width: 0.8"/>
      </g>
     </g>
    </g>
    <g id="ytick_39">
     <g id="line2d_60">
      <g>
       <use xlink:href="#m2d9e99a5d9" x="313.057115" y="506.199651" style="stroke: #000000; stroke-width: 0.8"/>
      </g>
     </g>
    </g>
    <g id="ytick_40">
     <g id="line2d_61">
      <g>
       <use xlink:href="#m2d9e99a5d9" x="313.057115" y="480.020177" style="stroke: #000000; stroke-width: 0.8"/>
      </g>
     </g>
    </g>
    <g id="ytick_41">
     <g id="line2d_62">
      <g>
       <use xlink:href="#m2d9e99a5d9" x="313.057115" y="453.840702" style="stroke: #000000; stroke-width: 0.8"/>
      </g>
     </g>
    </g>
    <g id="ytick_42">
     <g id="line2d_63">
      <g>
       <use xlink:href="#m2d9e99a5d9" x="313.057115" y="427.661227" style="stroke: #000000; stroke-width: 0.8"/>
      </g>
     </g>
    </g>
    <g id="ytick_43">
     <g id="line2d_64">
      <g>
       <use xlink:href="#m2d9e99a5d9" x="313.057115" y="401.481753" style="stroke: #000000; stroke-width: 0.8"/>
      </g>
     </g>
    </g>
    <g id="ytick_44">
     <g id="line2d_65">
      <g>
       <use xlink:href="#m2d9e99a5d9" x="313.057115" y="375.302278" style="stroke: #000000; stroke-width: 0.8"/>
      </g>
     </g>
    </g>
    <g id="ytick_45">
     <g id="line2d_66">
      <g>
       <use xlink:href="#m2d9e99a5d9" x="313.057115" y="349.122803" style="stroke: #000000; stroke-width: 0.8"/>
      </g>
     </g>
    </g>
    <g id="ytick_46">
     <g id="line2d_67">
      <g>
       <use xlink:href="#m2d9e99a5d9" x="313.057115" y="322.943329" style="stroke: #000000; stroke-width: 0.8"/>
      </g>
     </g>
    </g>
    <g id="ytick_47">
     <g id="line2d_68">
      <g>
       <use xlink:href="#m2d9e99a5d9" x="313.057115" y="296.763854" style="stroke: #000000; stroke-width: 0.8"/>
      </g>
     </g>
    </g>
    <g id="ytick_48">
     <g id="line2d_69">
      <g>
       <use xlink:href="#m2d9e99a5d9" x="313.057115" y="270.584379" style="stroke: #000000; stroke-width: 0.8"/>
      </g>
     </g>
    </g>
    <g id="ytick_49">
     <g id="line2d_70">
      <g>
       <use xlink:href="#m2d9e99a5d9" x="313.057115" y="244.404905" style="stroke: #000000; stroke-width: 0.8"/>
      </g>
     </g>
    </g>
    <g id="ytick_50">
     <g id="line2d_71">
      <g>
       <use xlink:href="#m2d9e99a5d9" x="313.057115" y="218.22543" style="stroke: #000000; stroke-width: 0.8"/>
      </g>
     </g>
    </g>
    <g id="ytick_51">
     <g id="line2d_72">
      <g>
       <use xlink:href="#m2d9e99a5d9" x="313.057115" y="192.045956" style="stroke: #000000; stroke-width: 0.8"/>
      </g>
     </g>
    </g>
    <g id="ytick_52">
     <g id="line2d_73">
      <g>
       <use xlink:href="#m2d9e99a5d9" x="313.057115" y="165.866481" style="stroke: #000000; stroke-width: 0.8"/>
      </g>
     </g>
    </g>
    <g id="ytick_53">
     <g id="line2d_74">
      <g>
       <use xlink:href="#m2d9e99a5d9" x="313.057115" y="139.687006" style="stroke: #000000; stroke-width: 0.8"/>
      </g>
     </g>
    </g>
    <g id="ytick_54">
     <g id="line2d_75">
      <g>
       <use xlink:href="#m2d9e99a5d9" x="313.057115" y="113.507532" style="stroke: #000000; stroke-width: 0.8"/>
      </g>
     </g>
    </g>
    <g id="ytick_55">
     <g id="line2d_76">
      <g>
       <use xlink:href="#m2d9e99a5d9" x="313.057115" y="87.328057" style="stroke: #000000; stroke-width: 0.8"/>
      </g>
     </g>
    </g>
    <g id="ytick_56">
     <g id="line2d_77">
      <g>
       <use xlink:href="#m2d9e99a5d9" x="313.057115" y="61.148582" style="stroke: #000000; stroke-width: 0.8"/>
      </g>
     </g>
    </g>
   </g>
   <g id="line2d_78">
    <path d="M 313.057115 74.23832 
L 513.878197 74.23832 
" clip-path="url(#pb09ed4193e)" style="fill: none; stroke: #000000; stroke-width: 1.2; stroke-linecap: square"/>
   </g>
   <g id="patch_62">
    <path d="M 313.057115 781.084135 
L 313.057115 48.058845 
" style="fill: none; stroke: #000000; stroke-width: 0.8; stroke-linejoin: miter; stroke-linecap: square"/>
   </g>
   <g id="patch_63">
    <path d="M 513.878197 781.084135 
L 513.878197 48.058845 
" style="fill: none; stroke: #000000; stroke-width: 0.8; stroke-linejoin: miter; stroke-linecap: square"/>
   </g>
   <g id="patch_64">
    <path d="M 313.057115 781.084135 
L 513.878197 781.084135 
" style="fill: none; stroke: #000000; stroke-width: 0.8; stroke-linejoin: miter; stroke-linecap: square"/>
   </g>
   <g id="patch_65">
    <path d="M 313.057115 48.058845 
L 513.878197 48.058845 
" style="fill: none; stroke: #000000; stroke-width: 0.8; stroke-linejoin: miter; stroke-linecap: square"/>
   </g>
   <g id="text_43">
    <!-- 3,126 -->
    <g transform="translate(323.098169 63.947567) scale(0.11 -0.11)">
     <defs>
      <path id="Helvetica-2c" d="M 531 -653 
Q 747 -616 834 -350 
Q 881 -209 881 -78 
Q 881 -56 879 -39 
Q 878 -22 872 0 
L 531 0 
L 531 681 
L 1200 681 
L 1200 50 
Q 1200 -322 1050 -603 
Q 900 -884 531 -950 
L 531 -653 
z
" transform="scale(0.015625)"/>
     </defs>
     <use xlink:href="#Helvetica-33"/>
     <use xlink:href="#Helvetica-2c" transform="translate(55.615234 0)"/>
     <use xlink:href="#Helvetica-31" transform="translate(83.398438 0)"/>
     <use xlink:href="#Helvetica-32" transform="translate(139.013672 0)"/>
     <use xlink:href="#Helvetica-36" transform="translate(194.628906 0)"/>
    </g>
   </g>
   <g id="text_44">
    <!-- Number of Samples -->
    <g transform="translate(360.449219 42.058845) scale(0.12 -0.12)">
     <use xlink:href="#Helvetica-4e"/>
     <use xlink:href="#Helvetica-75" transform="translate(72.216797 0)"/>
     <use xlink:href="#Helvetica-6d" transform="translate(127.832031 0)"/>
     <use xlink:href="#Helvetica-62" transform="translate(211.132812 0)"/>
     <use xlink:href="#Helvetica-65" transform="translate(266.748047 0)"/>
     <use xlink:href="#Helvetica-72" transform="translate(322.363281 0)"/>
     <use xlink:href="#Helvetica-20" transform="translate(355.664062 0)"/>
     <use xlink:href="#Helvetica-6f" transform="translate(383.447266 0)"/>
     <use xlink:href="#Helvetica-66" transform="translate(439.0625 0)"/>
     <use xlink:href="#Helvetica-20" transform="translate(466.845703 0)"/>
     <use xlink:href="#Helvetica-53" transform="translate(494.628906 0)"/>
     <use xlink:href="#Helvetica-61" transform="translate(561.328125 0)"/>
     <use xlink:href="#Helvetica-6d" transform="translate(616.943359 0)"/>
     <use xlink:href="#Helvetica-70" transform="translate(700.244141 0)"/>
     <use xlink:href="#Helvetica-6c" transform="translate(755.859375 0)"/>
     <use xlink:href="#Helvetica-65" transform="translate(778.076172 0)"/>
     <use xlink:href="#Helvetica-73" transform="translate(833.691406 0)"/>
    </g>
   </g>
  </g>
  <g id="axes_3">
   <g id="patch_66">
    <path d="M 523.378678 781.084135 
L 724.19976 781.084135 
L 724.19976 48.058845 
L 523.378678 48.058845 
z
" style="fill: #ffffff"/>
   </g>
   <g id="patch_67">
    <path d="M 523.378678 778.466188 
L 560.529546 778.466188 
L 560.529546 757.522608 
L 523.378678 757.522608 
z
" clip-path="url(#paaeea789ae)" style="fill: #228b22"/>
   </g>
   <g id="patch_68">
    <path d="M 523.378678 752.286713 
L 535.7623 752.286713 
L 535.7623 731.343133 
L 523.378678 731.343133 
z
" clip-path="url(#paaeea789ae)" style="fill: #228b22"/>
   </g>
   <g id="patch_69">
    <path d="M 523.378678 726.107238 
L 678.173962 726.107238 
L 678.173962 705.163659 
L 523.378678 705.163659 
z
" clip-path="url(#paaeea789ae)" style="fill: #228b22"/>
   </g>
   <g id="patch_70">
    <path d="M 523.378678 699.927764 
L 560.529546 699.927764 
L 560.529546 678.984184 
L 523.378678 678.984184 
z
" clip-path="url(#paaeea789ae)" style="fill: #228b22"/>
   </g>
   <g id="patch_71">
    <path d="M 523.378678 673.748289 
L 548.971498 673.748289 
L 548.971498 652.804709 
L 523.378678 652.804709 
z
" clip-path="url(#paaeea789ae)" style="fill: #228b22"/>
   </g>
   <g id="patch_72">
    <path d="M 523.378678 647.568814 
L 535.7623 647.568814 
L 535.7623 626.625235 
L 523.378678 626.625235 
z
" clip-path="url(#paaeea789ae)" style="fill: #228b22"/>
   </g>
   <g id="patch_73">
    <path d="M 523.378678 621.38934 
L 714.636851 621.38934 
L 714.636851 600.44576 
L 523.378678 600.44576 
z
" clip-path="url(#paaeea789ae)" style="fill: #228b22"/>
   </g>
   <g id="patch_74">
    <path d="M 523.378678 595.209865 
L 555.025713 595.209865 
L 555.025713 574.266285 
L 523.378678 574.266285 
z
" clip-path="url(#paaeea789ae)" style="fill: #228b22"/>
   </g>
   <g id="patch_75">
    <path d="M 523.378678 569.03039 
L 554.632583 569.03039 
L 554.632583 548.086811 
L 523.378678 548.086811 
z
" clip-path="url(#paaeea789ae)" style="fill: #228b22"/>
   </g>
   <g id="patch_76">
    <path d="M 523.378678 542.850916 
L 531.634426 542.850916 
L 531.634426 521.907336 
L 523.378678 521.907336 
z
" clip-path="url(#paaeea789ae)" style="fill: #228b22"/>
   </g>
   <g id="patch_77">
    <path d="M 523.378678 516.671441 
L 531.634426 516.671441 
L 531.634426 495.727861 
L 523.378678 495.727861 
z
" clip-path="url(#paaeea789ae)" style="fill: #228b22"/>
   </g>
   <g id="patch_78">
    <path d="M 523.378678 490.491966 
L 566.033378 490.491966 
L 566.033378 469.548387 
L 523.378678 469.548387 
z
" clip-path="url(#paaeea789ae)" style="fill: #228b22"/>
   </g>
   <g id="patch_79">
    <path d="M 523.378678 464.312492 
L 565.482995 464.312492 
L 565.482995 443.368912 
L 523.378678 443.368912 
z
" clip-path="url(#paaeea789ae)" style="fill: #228b22"/>
   </g>
   <g id="patch_80">
    <path d="M 523.378678 438.133017 
L 531.634426 438.133017 
L 531.634426 417.189437 
L 523.378678 417.189437 
z
" clip-path="url(#paaeea789ae)" style="fill: #228b22"/>
   </g>
   <g id="patch_81">
    <path d="M 523.378678 411.953543 
L 554.150104 411.953543 
L 554.150104 391.009963 
L 523.378678 391.009963 
z
" clip-path="url(#paaeea789ae)" style="fill: #228b22"/>
   </g>
   <g id="patch_82">
    <path d="M 523.378678 385.774068 
L 577.041043 385.774068 
L 577.041043 364.830488 
L 523.378678 364.830488 
z
" clip-path="url(#paaeea789ae)" style="fill: #228b22"/>
   </g>
   <g id="patch_83">
    <path d="M 523.378678 359.594593 
L 541.954112 359.594593 
L 541.954112 338.651014 
L 523.378678 338.651014 
z
" clip-path="url(#paaeea789ae)" style="fill: #228b22"/>
   </g>
   <g id="patch_84">
    <path d="M 523.378678 333.415119 
L 540.207703 333.415119 
L 540.207703 312.471539 
L 523.378678 312.471539 
z
" clip-path="url(#paaeea789ae)" style="fill: #228b22"/>
   </g>
   <g id="patch_85">
    <path d="M 523.378678 307.235644 
L 553.45319 307.235644 
L 553.45319 286.292064 
L 523.378678 286.292064 
z
" clip-path="url(#paaeea789ae)" style="fill: #228b22"/>
   </g>
   <g id="patch_86">
    <path d="M 523.378678 281.056169 
L 536.941693 281.056169 
L 536.941693 260.11259 
L 523.378678 260.11259 
z
" clip-path="url(#paaeea789ae)" style="fill: #228b22"/>
   </g>
   <g id="patch_87">
    <path d="M 523.378678 254.876695 
L 535.7623 254.876695 
L 535.7623 233.933115 
L 523.378678 233.933115 
z
" clip-path="url(#paaeea789ae)" style="fill: #228b22"/>
   </g>
   <g id="patch_88">
    <path d="M 523.378678 228.69722 
L 574.719114 228.69722 
L 574.719114 207.75364 
L 523.378678 207.75364 
z
" clip-path="url(#paaeea789ae)" style="fill: #228b22"/>
   </g>
   <g id="patch_89">
    <path d="M 523.378678 202.517745 
L 607.312121 202.517745 
L 607.312121 181.574166 
L 523.378678 181.574166 
z
" clip-path="url(#paaeea789ae)" style="fill: #228b22"/>
   </g>
   <g id="patch_90">
    <path d="M 523.378678 176.338271 
L 541.193714 176.338271 
L 541.193714 155.394691 
L 523.378678 155.394691 
z
" clip-path="url(#paaeea789ae)" style="fill: #228b22"/>
   </g>
   <g id="patch_91">
    <path d="M 523.378678 150.158796 
L 566.255307 150.158796 
L 566.255307 129.215216 
L 523.378678 129.215216 
z
" clip-path="url(#paaeea789ae)" style="fill: #228b22"/>
   </g>
   <g id="patch_92">
    <path d="M 523.378678 123.979321 
L 565.783204 123.979321 
L 565.783204 103.035742 
L 523.378678 103.035742 
z
" clip-path="url(#paaeea789ae)" style="fill: #228b22"/>
   </g>
   <g id="patch_93">
    <path d="M 523.378678 97.799847 
L 542.221209 97.799847 
L 542.221209 76.856267 
L 523.378678 76.856267 
z
" clip-path="url(#paaeea789ae)" style="fill: #228b22"/>
   </g>
   <g id="matplotlib.axis_5">
    <g id="xtick_11">
     <g id="line2d_79">
      <path d="M 523.378678 781.084135 
L 523.378678 48.058845 
" clip-path="url(#paaeea789ae)" style="fill: none; stroke-dasharray: 0.8,1.32; stroke-dashoffset: 0; stroke: #b0b0b0; stroke-opacity: 0.4; stroke-width: 0.8"/>
     </g>
     <g id="line2d_80">
      <g>
       <use xlink:href="#m239e156c1f" x="523.378678" y="781.084135" style="stroke: #000000; stroke-width: 0.8"/>
      </g>
     </g>
     <g id="text_45">
      <!-- 0 -->
      <g transform="translate(520.598209 795.257573) scale(0.1 -0.1)">
       <use xlink:href="#Helvetica-30"/>
      </g>
     </g>
    </g>
    <g id="xtick_12">
     <g id="line2d_81">
      <path d="M 564.65742 781.084135 
L 564.65742 48.058845 
" clip-path="url(#paaeea789ae)" style="fill: none; stroke-dasharray: 0.8,1.32; stroke-dashoffset: 0; stroke: #b0b0b0; stroke-opacity: 0.4; stroke-width: 0.8"/>
     </g>
     <g id="line2d_82">
      <g>
       <use xlink:href="#m239e156c1f" x="564.65742" y="781.084135" style="stroke: #000000; stroke-width: 0.8"/>
      </g>
     </g>
     <g id="text_46">
      <!-- 10 -->
      <g transform="translate(559.096483 795.257573) scale(0.1 -0.1)">
       <use xlink:href="#Helvetica-31"/>
       <use xlink:href="#Helvetica-30" transform="translate(55.615234 0)"/>
      </g>
     </g>
    </g>
    <g id="xtick_13">
     <g id="line2d_83">
      <path d="M 605.936163 781.084135 
L 605.936163 48.058845 
" clip-path="url(#paaeea789ae)" style="fill: none; stroke-dasharray: 0.8,1.32; stroke-dashoffset: 0; stroke: #b0b0b0; stroke-opacity: 0.4; stroke-width: 0.8"/>
     </g>
     <g id="line2d_84">
      <g>
       <use xlink:href="#m239e156c1f" x="605.936163" y="781.084135" style="stroke: #000000; stroke-width: 0.8"/>
      </g>
     </g>
     <g id="text_47">
      <!-- 20 -->
      <g transform="translate(600.375225 795.257573) scale(0.1 -0.1)">
       <use xlink:href="#Helvetica-32"/>
       <use xlink:href="#Helvetica-30" transform="translate(55.615234 0)"/>
      </g>
     </g>
    </g>
    <g id="xtick_14">
     <g id="line2d_85">
      <path d="M 647.214905 781.084135 
L 647.214905 48.058845 
" clip-path="url(#paaeea789ae)" style="fill: none; stroke-dasharray: 0.8,1.32; stroke-dashoffset: 0; stroke: #b0b0b0; stroke-opacity: 0.4; stroke-width: 0.8"/>
     </g>
     <g id="line2d_86">
      <g>
       <use xlink:href="#m239e156c1f" x="647.214905" y="781.084135" style="stroke: #000000; stroke-width: 0.8"/>
      </g>
     </g>
     <g id="text_48">
      <!-- 30 -->
      <g transform="translate(641.653968 795.257573) scale(0.1 -0.1)">
       <use xlink:href="#Helvetica-33"/>
       <use xlink:href="#Helvetica-30" transform="translate(55.615234 0)"/>
      </g>
     </g>
    </g>
    <g id="xtick_15">
     <g id="line2d_87">
      <path d="M 688.493648 781.084135 
L 688.493648 48.058845 
" clip-path="url(#paaeea789ae)" style="fill: none; stroke-dasharray: 0.8,1.32; stroke-dashoffset: 0; stroke: #b0b0b0; stroke-opacity: 0.4; stroke-width: 0.8"/>
     </g>
     <g id="line2d_88">
      <g>
       <use xlink:href="#m239e156c1f" x="688.493648" y="781.084135" style="stroke: #000000; stroke-width: 0.8"/>
      </g>
     </g>
     <g id="text_49">
      <!-- 40 -->
      <g transform="translate(682.93271 795.257573) scale(0.1 -0.1)">
       <use xlink:href="#Helvetica-34"/>
       <use xlink:href="#Helvetica-30" transform="translate(55.615234 0)"/>
      </g>
     </g>
    </g>
    <g id="text_50">
     <!-- Mean -->
     <g transform="translate(611.282969 808.515385) scale(0.1 -0.1)">
      <use xlink:href="#Helvetica-4d"/>
      <use xlink:href="#Helvetica-65" transform="translate(83.300781 0)"/>
      <use xlink:href="#Helvetica-61" transform="translate(138.916016 0)"/>
      <use xlink:href="#Helvetica-6e" transform="translate(194.53125 0)"/>
     </g>
    </g>
   </g>
   <g id="matplotlib.axis_6">
    <g id="ytick_57">
     <g id="line2d_89">
      <g>
       <use xlink:href="#m2d9e99a5d9" x="523.378678" y="767.994398" style="stroke: #000000; stroke-width: 0.8"/>
      </g>
     </g>
    </g>
    <g id="ytick_58">
     <g id="line2d_90">
      <g>
       <use xlink:href="#m2d9e99a5d9" x="523.378678" y="741.814923" style="stroke: #000000; stroke-width: 0.8"/>
      </g>
     </g>
    </g>
    <g id="ytick_59">
     <g id="line2d_91">
      <g>
       <use xlink:href="#m2d9e99a5d9" x="523.378678" y="715.635448" style="stroke: #000000; stroke-width: 0.8"/>
      </g>
     </g>
    </g>
    <g id="ytick_60">
     <g id="line2d_92">
      <g>
       <use xlink:href="#m2d9e99a5d9" x="523.378678" y="689.455974" style="stroke: #000000; stroke-width: 0.8"/>
      </g>
     </g>
    </g>
    <g id="ytick_61">
     <g id="line2d_93">
      <g>
       <use xlink:href="#m2d9e99a5d9" x="523.378678" y="663.276499" style="stroke: #000000; stroke-width: 0.8"/>
      </g>
     </g>
    </g>
    <g id="ytick_62">
     <g id="line2d_94">
      <g>
       <use xlink:href="#m2d9e99a5d9" x="523.378678" y="637.097024" style="stroke: #000000; stroke-width: 0.8"/>
      </g>
     </g>
    </g>
    <g id="ytick_63">
     <g id="line2d_95">
      <g>
       <use xlink:href="#m2d9e99a5d9" x="523.378678" y="610.91755" style="stroke: #000000; stroke-width: 0.8"/>
      </g>
     </g>
    </g>
    <g id="ytick_64">
     <g id="line2d_96">
      <g>
       <use xlink:href="#m2d9e99a5d9" x="523.378678" y="584.738075" style="stroke: #000000; stroke-width: 0.8"/>
      </g>
     </g>
    </g>
    <g id="ytick_65">
     <g id="line2d_97">
      <g>
       <use xlink:href="#m2d9e99a5d9" x="523.378678" y="558.558601" style="stroke: #000000; stroke-width: 0.8"/>
      </g>
     </g>
    </g>
    <g id="ytick_66">
     <g id="line2d_98">
      <g>
       <use xlink:href="#m2d9e99a5d9" x="523.378678" y="532.379126" style="stroke: #000000; stroke-width: 0.8"/>
      </g>
     </g>
    </g>
    <g id="ytick_67">
     <g id="line2d_99">
      <g>
       <use xlink:href="#m2d9e99a5d9" x="523.378678" y="506.199651" style="stroke: #000000; stroke-width: 0.8"/>
      </g>
     </g>
    </g>
    <g id="ytick_68">
     <g id="line2d_100">
      <g>
       <use xlink:href="#m2d9e99a5d9" x="523.378678" y="480.020177" style="stroke: #000000; stroke-width: 0.8"/>
      </g>
     </g>
    </g>
    <g id="ytick_69">
     <g id="line2d_101">
      <g>
       <use xlink:href="#m2d9e99a5d9" x="523.378678" y="453.840702" style="stroke: #000000; stroke-width: 0.8"/>
      </g>
     </g>
    </g>
    <g id="ytick_70">
     <g id="line2d_102">
      <g>
       <use xlink:href="#m2d9e99a5d9" x="523.378678" y="427.661227" style="stroke: #000000; stroke-width: 0.8"/>
      </g>
     </g>
    </g>
    <g id="ytick_71">
     <g id="line2d_103">
      <g>
       <use xlink:href="#m2d9e99a5d9" x="523.378678" y="401.481753" style="stroke: #000000; stroke-width: 0.8"/>
      </g>
     </g>
    </g>
    <g id="ytick_72">
     <g id="line2d_104">
      <g>
       <use xlink:href="#m2d9e99a5d9" x="523.378678" y="375.302278" style="stroke: #000000; stroke-width: 0.8"/>
      </g>
     </g>
    </g>
    <g id="ytick_73">
     <g id="line2d_105">
      <g>
       <use xlink:href="#m2d9e99a5d9" x="523.378678" y="349.122803" style="stroke: #000000; stroke-width: 0.8"/>
      </g>
     </g>
    </g>
    <g id="ytick_74">
     <g id="line2d_106">
      <g>
       <use xlink:href="#m2d9e99a5d9" x="523.378678" y="322.943329" style="stroke: #000000; stroke-width: 0.8"/>
      </g>
     </g>
    </g>
    <g id="ytick_75">
     <g id="line2d_107">
      <g>
       <use xlink:href="#m2d9e99a5d9" x="523.378678" y="296.763854" style="stroke: #000000; stroke-width: 0.8"/>
      </g>
     </g>
    </g>
    <g id="ytick_76">
     <g id="line2d_108">
      <g>
       <use xlink:href="#m2d9e99a5d9" x="523.378678" y="270.584379" style="stroke: #000000; stroke-width: 0.8"/>
      </g>
     </g>
    </g>
    <g id="ytick_77">
     <g id="line2d_109">
      <g>
       <use xlink:href="#m2d9e99a5d9" x="523.378678" y="244.404905" style="stroke: #000000; stroke-width: 0.8"/>
      </g>
     </g>
    </g>
    <g id="ytick_78">
     <g id="line2d_110">
      <g>
       <use xlink:href="#m2d9e99a5d9" x="523.378678" y="218.22543" style="stroke: #000000; stroke-width: 0.8"/>
      </g>
     </g>
    </g>
    <g id="ytick_79">
     <g id="line2d_111">
      <g>
       <use xlink:href="#m2d9e99a5d9" x="523.378678" y="192.045956" style="stroke: #000000; stroke-width: 0.8"/>
      </g>
     </g>
    </g>
    <g id="ytick_80">
     <g id="line2d_112">
      <g>
       <use xlink:href="#m2d9e99a5d9" x="523.378678" y="165.866481" style="stroke: #000000; stroke-width: 0.8"/>
      </g>
     </g>
    </g>
    <g id="ytick_81">
     <g id="line2d_113">
      <g>
       <use xlink:href="#m2d9e99a5d9" x="523.378678" y="139.687006" style="stroke: #000000; stroke-width: 0.8"/>
      </g>
     </g>
    </g>
    <g id="ytick_82">
     <g id="line2d_114">
      <g>
       <use xlink:href="#m2d9e99a5d9" x="523.378678" y="113.507532" style="stroke: #000000; stroke-width: 0.8"/>
      </g>
     </g>
    </g>
    <g id="ytick_83">
     <g id="line2d_115">
      <g>
       <use xlink:href="#m2d9e99a5d9" x="523.378678" y="87.328057" style="stroke: #000000; stroke-width: 0.8"/>
      </g>
     </g>
    </g>
    <g id="ytick_84">
     <g id="line2d_116">
      <g>
       <use xlink:href="#m2d9e99a5d9" x="523.378678" y="61.148582" style="stroke: #000000; stroke-width: 0.8"/>
      </g>
     </g>
    </g>
   </g>
   <g id="line2d_117">
    <path d="M 523.378678 74.23832 
L 724.19976 74.23832 
" clip-path="url(#paaeea789ae)" style="fill: none; stroke: #000000; stroke-width: 1.2; stroke-linecap: square"/>
   </g>
   <g id="patch_94">
    <path d="M 523.378678 781.084135 
L 523.378678 48.058845 
" style="fill: none; stroke: #000000; stroke-width: 0.8; stroke-linejoin: miter; stroke-linecap: square"/>
   </g>
   <g id="patch_95">
    <path d="M 724.19976 781.084135 
L 724.19976 48.058845 
" style="fill: none; stroke: #000000; stroke-width: 0.8; stroke-linejoin: miter; stroke-linecap: square"/>
   </g>
   <g id="patch_96">
    <path d="M 523.378678 781.084135 
L 724.19976 781.084135 
" style="fill: none; stroke: #000000; stroke-width: 0.8; stroke-linejoin: miter; stroke-linecap: square"/>
   </g>
   <g id="patch_97">
    <path d="M 523.378678 48.058845 
L 724.19976 48.058845 
" style="fill: none; stroke: #000000; stroke-width: 0.8; stroke-linejoin: miter; stroke-linecap: square"/>
   </g>
   <g id="text_51">
    <!-- 8.2 -->
    <g transform="translate(533.419732 63.947567) scale(0.11 -0.11)">
     <defs>
      <path id="Helvetica-2e" d="M 547 681 
L 1200 681 
L 1200 0 
L 547 0 
L 547 681 
z
" transform="scale(0.015625)"/>
     </defs>
     <use xlink:href="#Helvetica-38"/>
     <use xlink:href="#Helvetica-2e" transform="translate(55.615234 0)"/>
     <use xlink:href="#Helvetica-32" transform="translate(83.398438 0)"/>
    </g>
   </g>
   <g id="text_52">
    <!-- Mean Samples / Donor -->
    <g transform="translate(562.430781 42.058845) scale(0.12 -0.12)">
     <defs>
      <path id="Helvetica-2f" d="M 1456 4591 
L 1931 4591 
L 475 0 
L 0 0 
L 1456 4591 
z
" transform="scale(0.015625)"/>
     </defs>
     <use xlink:href="#Helvetica-4d"/>
     <use xlink:href="#Helvetica-65" transform="translate(83.300781 0)"/>
     <use xlink:href="#Helvetica-61" transform="translate(138.916016 0)"/>
     <use xlink:href="#Helvetica-6e" transform="translate(194.53125 0)"/>
     <use xlink:href="#Helvetica-20" transform="translate(250.146484 0)"/>
     <use xlink:href="#Helvetica-53" transform="translate(277.929688 0)"/>
     <use xlink:href="#Helvetica-61" transform="translate(344.628906 0)"/>
     <use xlink:href="#Helvetica-6d" transform="translate(400.244141 0)"/>
     <use xlink:href="#Helvetica-70" transform="translate(483.544922 0)"/>
     <use xlink:href="#Helvetica-6c" transform="translate(539.160156 0)"/>
     <use xlink:href="#Helvetica-65" transform="translate(561.376953 0)"/>
     <use xlink:href="#Helvetica-73" transform="translate(616.992188 0)"/>
     <use xlink:href="#Helvetica-20" transform="translate(666.992188 0)"/>
     <use xlink:href="#Helvetica-2f" transform="translate(694.775391 0)"/>
     <use xlink:href="#Helvetica-20" transform="translate(722.558594 0)"/>
     <use xlink:href="#Helvetica-44" transform="translate(750.341797 0)"/>
     <use xlink:href="#Helvetica-6f" transform="translate(822.558594 0)"/>
     <use xlink:href="#Helvetica-6e" transform="translate(878.173828 0)"/>
     <use xlink:href="#Helvetica-6f" transform="translate(933.789062 0)"/>
     <use xlink:href="#Helvetica-72" transform="translate(989.404297 0)"/>
    </g>
   </g>
  </g>
  <g id="text_53">
   <!-- Samples -->
   <g transform="translate(332.185781 23.46399) scale(0.18 -0.18)">
    <use xlink:href="#Helvetica-53"/>
    <use xlink:href="#Helvetica-61" transform="translate(66.699219 0)"/>
    <use xlink:href="#Helvetica-6d" transform="translate(122.314453 0)"/>
    <use xlink:href="#Helvetica-70" transform="translate(205.615234 0)"/>
    <use xlink:href="#Helvetica-6c" transform="translate(261.230469 0)"/>
    <use xlink:href="#Helvetica-65" transform="translate(283.447266 0)"/>
    <use xlink:href="#Helvetica-73" transform="translate(339.0625 0)"/>
   </g>
  </g>
  <g id="text_54">
   <!-- c -->
   <g transform="translate(7.2 24.41625) scale(0.24 -0.24)">
    <use xlink:href="#Helvetica-63"/>
   </g>
  </g>
 </g>
 <defs>
  <clipPath id="p8e2d2f16e6">
   <rect x="102.735553" y="48.058845" width="200.821083" height="733.02529"/>
  </clipPath>
  <clipPath id="pb09ed4193e">
   <rect x="313.057115" y="48.058845" width="200.821082" height="733.02529"/>
  </clipPath>
  <clipPath id="paaeea789ae">
   <rect x="523.378678" y="48.058845" width="200.821082" height="733.02529"/>
  </clipPath>
 </defs>
</svg>
