<?xml version="1.0" encoding="utf-8" standalone="no"?>
<!DOCTYPE svg PUBLIC "-//W3C//DTD SVG 1.1//EN"
  "http://www.w3.org/Graphics/SVG/1.1/DTD/svg11.dtd">
<svg xmlns:xlink="http://www.w3.org/1999/xlink" width="1051.2pt" height="705.6pt" viewBox="0 0 1051.2 705.6" xmlns="http://www.w3.org/2000/svg" version="1.1">
 <metadata>
  <rdf:RDF xmlns:dc="http://purl.org/dc/elements/1.1/" xmlns:cc="http://creativecommons.org/ns#" xmlns:rdf="http://www.w3.org/1999/02/22-rdf-syntax-ns#">
   <cc:Work>
    <dc:type rdf:resource="http://purl.org/dc/dcmitype/StillImage"/>
    <dc:date>2026-02-17T12:22:21.045747</dc:date>
    <dc:format>image/svg+xml</dc:format>
    <dc:creator>
     <cc:Agent>
      <dc:title>Matplotlib v3.10.7, https://matplotlib.org/</dc:title>
     </cc:Agent>
    </dc:creator>
   </cc:Work>
  </rdf:RDF>
 </metadata>
 <defs>
  <style type="text/css">*{stroke-linejoin: round; stroke-linecap: butt}</style>
 </defs>
 <g id="figure_1">
  <g id="patch_1">
   <path d="M 0 705.6 
L 1051.2 705.6 
L 1051.2 0 
L 0 0 
z
" style="fill: #ffffff"/>
  </g>
  <g id="axes_1">
   <g id="patch_2">
    <path d="M 234.11 649.24 
L 1040.4 649.24 
L 1040.4 10.8 
L 234.11 10.8 
z
" style="fill: #ffffff"/>
   </g>
   <g id="patch_3">
    <path d="M 234.11 649.24 
L 1040.4 649.24 
L 1040.4 626.438571 
L 234.11 626.438571 
z
" clip-path="url(#p7958ba0b4b)" style="fill: #d3d3d3; opacity: 0.2"/>
   </g>
   <g id="patch_4">
    <path d="M 234.11 603.637143 
L 1040.4 603.637143 
L 1040.4 580.835714 
L 234.11 580.835714 
z
" clip-path="url(#p7958ba0b4b)" style="fill: #d3d3d3; opacity: 0.2"/>
   </g>
   <g id="patch_5">
    <path d="M 234.11 558.034286 
L 1040.4 558.034286 
L 1040.4 535.232857 
L 234.11 535.232857 
z
" clip-path="url(#p7958ba0b4b)" style="fill: #d3d3d3; opacity: 0.2"/>
   </g>
   <g id="patch_6">
    <path d="M 234.11 512.431429 
L 1040.4 512.431429 
L 1040.4 489.63 
L 234.11 489.63 
z
" clip-path="url(#p7958ba0b4b)" style="fill: #d3d3d3; opacity: 0.2"/>
   </g>
   <g id="patch_7">
    <path d="M 234.11 466.828571 
L 1040.4 466.828571 
L 1040.4 444.027143 
L 234.11 444.027143 
z
" clip-path="url(#p7958ba0b4b)" style="fill: #d3d3d3; opacity: 0.2"/>
   </g>
   <g id="patch_8">
    <path d="M 234.11 421.225714 
L 1040.4 421.225714 
L 1040.4 398.424286 
L 234.11 398.424286 
z
" clip-path="url(#p7958ba0b4b)" style="fill: #d3d3d3; opacity: 0.2"/>
   </g>
   <g id="patch_9">
    <path d="M 234.11 375.622857 
L 1040.4 375.622857 
L 1040.4 352.821429 
L 234.11 352.821429 
z
" clip-path="url(#p7958ba0b4b)" style="fill: #d3d3d3; opacity: 0.2"/>
   </g>
   <g id="patch_10">
    <path d="M 234.11 330.02 
L 1040.4 330.02 
L 1040.4 307.218571 
L 234.11 307.218571 
z
" clip-path="url(#p7958ba0b4b)" style="fill: #d3d3d3; opacity: 0.2"/>
   </g>
   <g id="patch_11">
    <path d="M 234.11 284.417143 
L 1040.4 284.417143 
L 1040.4 261.615714 
L 234.11 261.615714 
z
" clip-path="url(#p7958ba0b4b)" style="fill: #d3d3d3; opacity: 0.2"/>
   </g>
   <g id="patch_12">
    <path d="M 234.11 238.814286 
L 1040.4 238.814286 
L 1040.4 216.012857 
L 234.11 216.012857 
z
" clip-path="url(#p7958ba0b4b)" style="fill: #d3d3d3; opacity: 0.2"/>
   </g>
   <g id="patch_13">
    <path d="M 234.11 193.211429 
L 1040.4 193.211429 
L 1040.4 170.41 
L 234.11 170.41 
z
" clip-path="url(#p7958ba0b4b)" style="fill: #d3d3d3; opacity: 0.2"/>
   </g>
   <g id="patch_14">
    <path d="M 234.11 147.608571 
L 1040.4 147.608571 
L 1040.4 124.807143 
L 234.11 124.807143 
z
" clip-path="url(#p7958ba0b4b)" style="fill: #d3d3d3; opacity: 0.2"/>
   </g>
   <g id="patch_15">
    <path d="M 234.11 102.005714 
L 1040.4 102.005714 
L 1040.4 79.204286 
L 234.11 79.204286 
z
" clip-path="url(#p7958ba0b4b)" style="fill: #d3d3d3; opacity: 0.2"/>
   </g>
   <g id="patch_16">
    <path d="M 234.11 56.402857 
L 1040.4 56.402857 
L 1040.4 33.601429 
L 234.11 33.601429 
z
" clip-path="url(#p7958ba0b4b)" style="fill: #d3d3d3; opacity: 0.2"/>
   </g>
   <g id="matplotlib.axis_1">
    <g id="xtick_1">
     <g id="line2d_1">
      <defs>
       <path id="mec1942211f" d="M 0 0 
L 0 3.5 
" style="stroke: #000000; stroke-width: 0.8"/>
      </defs>
      <g>
       <use xlink:href="#mec1942211f" x="234.11" y="649.24" style="stroke: #000000; stroke-width: 0.8"/>
      </g>
     </g>
     <g id="text_1">
      <!-- 0 -->
      <g transform="translate(228.38375 669.917187) scale(0.18 -0.18)">
       <defs>
        <path id="DejaVuSans-30" d="M 2034 4250 
Q 1547 4250 1301 3770 
Q 1056 3291 1056 2328 
Q 1056 1369 1301 889 
Q 1547 409 2034 409 
Q 2525 409 2770 889 
Q 3016 1369 3016 2328 
Q 3016 3291 2770 3770 
Q 2525 4250 2034 4250 
z
M 2034 4750 
Q 2819 4750 3233 4129 
Q 3647 3509 3647 2328 
Q 3647 1150 3233 529 
Q 2819 -91 2034 -91 
Q 1250 -91 836 529 
Q 422 1150 422 2328 
Q 422 3509 836 4129 
Q 1250 4750 2034 4750 
z
" transform="scale(0.015625)"/>
       </defs>
       <use xlink:href="#DejaVuSans-30"/>
      </g>
     </g>
    </g>
    <g id="xtick_2">
     <g id="line2d_2">
      <g>
       <use xlink:href="#mec1942211f" x="330.579251" y="649.24" style="stroke: #000000; stroke-width: 0.8"/>
      </g>
     </g>
     <g id="text_2">
      <!-- 100 -->
      <g transform="translate(313.400501 669.917187) scale(0.18 -0.18)">
       <defs>
        <path id="DejaVuSans-31" d="M 794 531 
L 1825 531 
L 1825 4091 
L 703 3866 
L 703 4441 
L 1819 4666 
L 2450 4666 
L 2450 531 
L 3481 531 
L 3481 0 
L 794 0 
L 794 531 
z
" transform="scale(0.015625)"/>
       </defs>
       <use xlink:href="#DejaVuSans-31"/>
       <use xlink:href="#DejaVuSans-30" transform="translate(63.623047 0)"/>
       <use xlink:href="#DejaVuSans-30" transform="translate(127.246094 0)"/>
      </g>
     </g>
    </g>
    <g id="xtick_3">
     <g id="line2d_3">
      <g>
       <use xlink:href="#mec1942211f" x="427.048502" y="649.24" style="stroke: #000000; stroke-width: 0.8"/>
      </g>
     </g>
     <g id="text_3">
      <!-- 200 -->
      <g transform="translate(409.869752 669.917187) scale(0.18 -0.18)">
       <defs>
        <path id="DejaVuSans-32" d="M 1228 531 
L 3431 531 
L 3431 0 
L 469 0 
L 469 531 
Q 828 903 1448 1529 
Q 2069 2156 2228 2338 
Q 2531 2678 2651 2914 
Q 2772 3150 2772 3378 
Q 2772 3750 2511 3984 
Q 2250 4219 1831 4219 
Q 1534 4219 1204 4116 
Q 875 4013 500 3803 
L 500 4441 
Q 881 4594 1212 4672 
Q 1544 4750 1819 4750 
Q 2544 4750 2975 4387 
Q 3406 4025 3406 3419 
Q 3406 3131 3298 2873 
Q 3191 2616 2906 2266 
Q 2828 2175 2409 1742 
Q 1991 1309 1228 531 
z
" transform="scale(0.015625)"/>
       </defs>
       <use xlink:href="#DejaVuSans-32"/>
       <use xlink:href="#DejaVuSans-30" transform="translate(63.623047 0)"/>
       <use xlink:href="#DejaVuSans-30" transform="translate(127.246094 0)"/>
      </g>
     </g>
    </g>
    <g id="xtick_4">
     <g id="line2d_4">
      <g>
       <use xlink:href="#mec1942211f" x="523.517753" y="649.24" style="stroke: #000000; stroke-width: 0.8"/>
      </g>
     </g>
     <g id="text_4">
      <!-- 300 -->
      <g transform="translate(506.339003 669.917187) scale(0.18 -0.18)">
       <defs>
        <path id="DejaVuSans-33" d="M 2597 2516 
Q 3050 2419 3304 2112 
Q 3559 1806 3559 1356 
Q 3559 666 3084 287 
Q 2609 -91 1734 -91 
Q 1441 -91 1130 -33 
Q 819 25 488 141 
L 488 750 
Q 750 597 1062 519 
Q 1375 441 1716 441 
Q 2309 441 2620 675 
Q 2931 909 2931 1356 
Q 2931 1769 2642 2001 
Q 2353 2234 1838 2234 
L 1294 2234 
L 1294 2753 
L 1863 2753 
Q 2328 2753 2575 2939 
Q 2822 3125 2822 3475 
Q 2822 3834 2567 4026 
Q 2313 4219 1838 4219 
Q 1578 4219 1281 4162 
Q 984 4106 628 3988 
L 628 4550 
Q 988 4650 1302 4700 
Q 1616 4750 1894 4750 
Q 2613 4750 3031 4423 
Q 3450 4097 3450 3541 
Q 3450 3153 3228 2886 
Q 3006 2619 2597 2516 
z
" transform="scale(0.015625)"/>
       </defs>
       <use xlink:href="#DejaVuSans-33"/>
       <use xlink:href="#DejaVuSans-30" transform="translate(63.623047 0)"/>
       <use xlink:href="#DejaVuSans-30" transform="translate(127.246094 0)"/>
      </g>
     </g>
    </g>
    <g id="xtick_5">
     <g id="line2d_5">
      <g>
       <use xlink:href="#mec1942211f" x="619.987004" y="649.24" style="stroke: #000000; stroke-width: 0.8"/>
      </g>
     </g>
     <g id="text_5">
      <!-- 400 -->
      <g transform="translate(602.808254 669.917187) scale(0.18 -0.18)">
       <defs>
        <path id="DejaVuSans-34" d="M 2419 4116 
L 825 1625 
L 2419 1625 
L 2419 4116 
z
M 2253 4666 
L 3047 4666 
L 3047 1625 
L 3713 1625 
L 3713 1100 
L 3047 1100 
L 3047 0 
L 2419 0 
L 2419 1100 
L 313 1100 
L 313 1709 
L 2253 4666 
z
" transform="scale(0.015625)"/>
       </defs>
       <use xlink:href="#DejaVuSans-34"/>
       <use xlink:href="#DejaVuSans-30" transform="translate(63.623047 0)"/>
       <use xlink:href="#DejaVuSans-30" transform="translate(127.246094 0)"/>
      </g>
     </g>
    </g>
    <g id="xtick_6">
     <g id="line2d_6">
      <g>
       <use xlink:href="#mec1942211f" x="716.456255" y="649.24" style="stroke: #000000; stroke-width: 0.8"/>
      </g>
     </g>
     <g id="text_6">
      <!-- 500 -->
      <g transform="translate(699.277505 669.917187) scale(0.18 -0.18)">
       <defs>
        <path id="DejaVuSans-35" d="M 691 4666 
L 3169 4666 
L 3169 4134 
L 1269 4134 
L 1269 2991 
Q 1406 3038 1543 3061 
Q 1681 3084 1819 3084 
Q 2600 3084 3056 2656 
Q 3513 2228 3513 1497 
Q 3513 744 3044 326 
Q 2575 -91 1722 -91 
Q 1428 -91 1123 -41 
Q 819 9 494 109 
L 494 744 
Q 775 591 1075 516 
Q 1375 441 1709 441 
Q 2250 441 2565 725 
Q 2881 1009 2881 1497 
Q 2881 1984 2565 2268 
Q 2250 2553 1709 2553 
Q 1456 2553 1204 2497 
Q 953 2441 691 2322 
L 691 4666 
z
" transform="scale(0.015625)"/>
       </defs>
       <use xlink:href="#DejaVuSans-35"/>
       <use xlink:href="#DejaVuSans-30" transform="translate(63.623047 0)"/>
       <use xlink:href="#DejaVuSans-30" transform="translate(127.246094 0)"/>
      </g>
     </g>
    </g>
    <g id="xtick_7">
     <g id="line2d_7">
      <g>
       <use xlink:href="#mec1942211f" x="812.925506" y="649.24" style="stroke: #000000; stroke-width: 0.8"/>
      </g>
     </g>
     <g id="text_7">
      <!-- 600 -->
      <g transform="translate(795.746756 669.917187) scale(0.18 -0.18)">
       <defs>
        <path id="DejaVuSans-36" d="M 2113 2584 
Q 1688 2584 1439 2293 
Q 1191 2003 1191 1497 
Q 1191 994 1439 701 
Q 1688 409 2113 409 
Q 2538 409 2786 701 
Q 3034 994 3034 1497 
Q 3034 2003 2786 2293 
Q 2538 2584 2113 2584 
z
M 3366 4563 
L 3366 3988 
Q 3128 4100 2886 4159 
Q 2644 4219 2406 4219 
Q 1781 4219 1451 3797 
Q 1122 3375 1075 2522 
Q 1259 2794 1537 2939 
Q 1816 3084 2150 3084 
Q 2853 3084 3261 2657 
Q 3669 2231 3669 1497 
Q 3669 778 3244 343 
Q 2819 -91 2113 -91 
Q 1303 -91 875 529 
Q 447 1150 447 2328 
Q 447 3434 972 4092 
Q 1497 4750 2381 4750 
Q 2619 4750 2861 4703 
Q 3103 4656 3366 4563 
z
" transform="scale(0.015625)"/>
       </defs>
       <use xlink:href="#DejaVuSans-36"/>
       <use xlink:href="#DejaVuSans-30" transform="translate(63.623047 0)"/>
       <use xlink:href="#DejaVuSans-30" transform="translate(127.246094 0)"/>
      </g>
     </g>
    </g>
    <g id="xtick_8">
     <g id="line2d_8">
      <g>
       <use xlink:href="#mec1942211f" x="909.394757" y="649.24" style="stroke: #000000; stroke-width: 0.8"/>
      </g>
     </g>
     <g id="text_8">
      <!-- 700 -->
      <g transform="translate(892.216007 669.917187) scale(0.18 -0.18)">
       <defs>
        <path id="DejaVuSans-37" d="M 525 4666 
L 3525 4666 
L 3525 4397 
L 1831 0 
L 1172 0 
L 2766 4134 
L 525 4134 
L 525 4666 
z
" transform="scale(0.015625)"/>
       </defs>
       <use xlink:href="#DejaVuSans-37"/>
       <use xlink:href="#DejaVuSans-30" transform="translate(63.623047 0)"/>
       <use xlink:href="#DejaVuSans-30" transform="translate(127.246094 0)"/>
      </g>
     </g>
    </g>
    <g id="xtick_9">
     <g id="line2d_9">
      <g>
       <use xlink:href="#mec1942211f" x="1005.864008" y="649.24" style="stroke: #000000; stroke-width: 0.8"/>
      </g>
     </g>
     <g id="text_9">
      <!-- 800 -->
      <g transform="translate(988.685258 669.917187) scale(0.18 -0.18)">
       <defs>
        <path id="DejaVuSans-38" d="M 2034 2216 
Q 1584 2216 1326 1975 
Q 1069 1734 1069 1313 
Q 1069 891 1326 650 
Q 1584 409 2034 409 
Q 2484 409 2743 651 
Q 3003 894 3003 1313 
Q 3003 1734 2745 1975 
Q 2488 2216 2034 2216 
z
M 1403 2484 
Q 997 2584 770 2862 
Q 544 3141 544 3541 
Q 544 4100 942 4425 
Q 1341 4750 2034 4750 
Q 2731 4750 3128 4425 
Q 3525 4100 3525 3541 
Q 3525 3141 3298 2862 
Q 3072 2584 2669 2484 
Q 3125 2378 3379 2068 
Q 3634 1759 3634 1313 
Q 3634 634 3220 271 
Q 2806 -91 2034 -91 
Q 1263 -91 848 271 
Q 434 634 434 1313 
Q 434 1759 690 2068 
Q 947 2378 1403 2484 
z
M 1172 3481 
Q 1172 3119 1398 2916 
Q 1625 2713 2034 2713 
Q 2441 2713 2670 2916 
Q 2900 3119 2900 3481 
Q 2900 3844 2670 4047 
Q 2441 4250 2034 4250 
Q 1625 4250 1398 4047 
Q 1172 3844 1172 3481 
z
" transform="scale(0.015625)"/>
       </defs>
       <use xlink:href="#DejaVuSans-38"/>
       <use xlink:href="#DejaVuSans-30" transform="translate(63.623047 0)"/>
       <use xlink:href="#DejaVuSans-30" transform="translate(127.246094 0)"/>
      </g>
     </g>
    </g>
    <g id="text_10">
     <!-- Dataset Count -->
     <g transform="translate(572.424063 691.337812) scale(0.18 -0.18)">
      <defs>
       <path id="DejaVuSans-44" d="M 1259 4147 
L 1259 519 
L 2022 519 
Q 2988 519 3436 956 
Q 3884 1394 3884 2338 
Q 3884 3275 3436 3711 
Q 2988 4147 2022 4147 
L 1259 4147 
z
M 628 4666 
L 1925 4666 
Q 3281 4666 3915 4102 
Q 4550 3538 4550 2338 
Q 4550 1131 3912 565 
Q 3275 0 1925 0 
L 628 0 
L 628 4666 
z
" transform="scale(0.015625)"/>
       <path id="DejaVuSans-61" d="M 2194 1759 
Q 1497 1759 1228 1600 
Q 959 1441 959 1056 
Q 959 750 1161 570 
Q 1363 391 1709 391 
Q 2188 391 2477 730 
Q 2766 1069 2766 1631 
L 2766 1759 
L 2194 1759 
z
M 3341 1997 
L 3341 0 
L 2766 0 
L 2766 531 
Q 2569 213 2275 61 
Q 1981 -91 1556 -91 
Q 1019 -91 701 211 
Q 384 513 384 1019 
Q 384 1609 779 1909 
Q 1175 2209 1959 2209 
L 2766 2209 
L 2766 2266 
Q 2766 2663 2505 2880 
Q 2244 3097 1772 3097 
Q 1472 3097 1187 3025 
Q 903 2953 641 2809 
L 641 3341 
Q 956 3463 1253 3523 
Q 1550 3584 1831 3584 
Q 2591 3584 2966 3190 
Q 3341 2797 3341 1997 
z
" transform="scale(0.015625)"/>
       <path id="DejaVuSans-74" d="M 1172 4494 
L 1172 3500 
L 2356 3500 
L 2356 3053 
L 1172 3053 
L 1172 1153 
Q 1172 725 1289 603 
Q 1406 481 1766 481 
L 2356 481 
L 2356 0 
L 1766 0 
Q 1100 0 847 248 
Q 594 497 594 1153 
L 594 3053 
L 172 3053 
L 172 3500 
L 594 3500 
L 594 4494 
L 1172 4494 
z
" transform="scale(0.015625)"/>
       <path id="DejaVuSans-73" d="M 2834 3397 
L 2834 2853 
Q 2591 2978 2328 3040 
Q 2066 3103 1784 3103 
Q 1356 3103 1142 2972 
Q 928 2841 928 2578 
Q 928 2378 1081 2264 
Q 1234 2150 1697 2047 
L 1894 2003 
Q 2506 1872 2764 1633 
Q 3022 1394 3022 966 
Q 3022 478 2636 193 
Q 2250 -91 1575 -91 
Q 1294 -91 989 -36 
Q 684 19 347 128 
L 347 722 
Q 666 556 975 473 
Q 1284 391 1588 391 
Q 1994 391 2212 530 
Q 2431 669 2431 922 
Q 2431 1156 2273 1281 
Q 2116 1406 1581 1522 
L 1381 1569 
Q 847 1681 609 1914 
Q 372 2147 372 2553 
Q 372 3047 722 3315 
Q 1072 3584 1716 3584 
Q 2034 3584 2315 3537 
Q 2597 3491 2834 3397 
z
" transform="scale(0.015625)"/>
       <path id="DejaVuSans-65" d="M 3597 1894 
L 3597 1613 
L 953 1613 
Q 991 1019 1311 708 
Q 1631 397 2203 397 
Q 2534 397 2845 478 
Q 3156 559 3463 722 
L 3463 178 
Q 3153 47 2828 -22 
Q 2503 -91 2169 -91 
Q 1331 -91 842 396 
Q 353 884 353 1716 
Q 353 2575 817 3079 
Q 1281 3584 2069 3584 
Q 2775 3584 3186 3129 
Q 3597 2675 3597 1894 
z
M 3022 2063 
Q 3016 2534 2758 2815 
Q 2500 3097 2075 3097 
Q 1594 3097 1305 2825 
Q 1016 2553 972 2059 
L 3022 2063 
z
" transform="scale(0.015625)"/>
       <path id="DejaVuSans-20" transform="scale(0.015625)"/>
       <path id="DejaVuSans-43" d="M 4122 4306 
L 4122 3641 
Q 3803 3938 3442 4084 
Q 3081 4231 2675 4231 
Q 1875 4231 1450 3742 
Q 1025 3253 1025 2328 
Q 1025 1406 1450 917 
Q 1875 428 2675 428 
Q 3081 428 3442 575 
Q 3803 722 4122 1019 
L 4122 359 
Q 3791 134 3420 21 
Q 3050 -91 2638 -91 
Q 1578 -91 968 557 
Q 359 1206 359 2328 
Q 359 3453 968 4101 
Q 1578 4750 2638 4750 
Q 3056 4750 3426 4639 
Q 3797 4528 4122 4306 
z
" transform="scale(0.015625)"/>
       <path id="DejaVuSans-6f" d="M 1959 3097 
Q 1497 3097 1228 2736 
Q 959 2375 959 1747 
Q 959 1119 1226 758 
Q 1494 397 1959 397 
Q 2419 397 2687 759 
Q 2956 1122 2956 1747 
Q 2956 2369 2687 2733 
Q 2419 3097 1959 3097 
z
M 1959 3584 
Q 2709 3584 3137 3096 
Q 3566 2609 3566 1747 
Q 3566 888 3137 398 
Q 2709 -91 1959 -91 
Q 1206 -91 779 398 
Q 353 888 353 1747 
Q 353 2609 779 3096 
Q 1206 3584 1959 3584 
z
" transform="scale(0.015625)"/>
       <path id="DejaVuSans-75" d="M 544 1381 
L 544 3500 
L 1119 3500 
L 1119 1403 
Q 1119 906 1312 657 
Q 1506 409 1894 409 
Q 2359 409 2629 706 
Q 2900 1003 2900 1516 
L 2900 3500 
L 3475 3500 
L 3475 0 
L 2900 0 
L 2900 538 
Q 2691 219 2414 64 
Q 2138 -91 1772 -91 
Q 1169 -91 856 284 
Q 544 659 544 1381 
z
M 1991 3584 
L 1991 3584 
z
" transform="scale(0.015625)"/>
       <path id="DejaVuSans-6e" d="M 3513 2113 
L 3513 0 
L 2938 0 
L 2938 2094 
Q 2938 2591 2744 2837 
Q 2550 3084 2163 3084 
Q 1697 3084 1428 2787 
Q 1159 2491 1159 1978 
L 1159 0 
L 581 0 
L 581 3500 
L 1159 3500 
L 1159 2956 
Q 1366 3272 1645 3428 
Q 1925 3584 2291 3584 
Q 2894 3584 3203 3211 
Q 3513 2838 3513 2113 
z
" transform="scale(0.015625)"/>
      </defs>
      <use xlink:href="#DejaVuSans-44"/>
      <use xlink:href="#DejaVuSans-61" transform="translate(77.001953 0)"/>
      <use xlink:href="#DejaVuSans-74" transform="translate(138.28125 0)"/>
      <use xlink:href="#DejaVuSans-61" transform="translate(177.490234 0)"/>
      <use xlink:href="#DejaVuSans-73" transform="translate(238.769531 0)"/>
      <use xlink:href="#DejaVuSans-65" transform="translate(290.869141 0)"/>
      <use xlink:href="#DejaVuSans-74" transform="translate(352.392578 0)"/>
      <use xlink:href="#DejaVuSans-20" transform="translate(391.601562 0)"/>
      <use xlink:href="#DejaVuSans-43" transform="translate(423.388672 0)"/>
      <use xlink:href="#DejaVuSans-6f" transform="translate(493.212891 0)"/>
      <use xlink:href="#DejaVuSans-75" transform="translate(554.394531 0)"/>
      <use xlink:href="#DejaVuSans-6e" transform="translate(617.773438 0)"/>
      <use xlink:href="#DejaVuSans-74" transform="translate(681.152344 0)"/>
     </g>
    </g>
   </g>
   <g id="matplotlib.axis_2">
    <g id="ytick_1">
     <g id="line2d_10">
      <defs>
       <path id="m23135516ca" d="M 0 0 
L -3.5 0 
" style="stroke: #000000; stroke-width: 0.8"/>
      </defs>
      <g>
       <use xlink:href="#m23135516ca" x="234.11" y="637.839286" style="stroke: #000000; stroke-width: 0.8"/>
      </g>
     </g>
     <g id="text_11">
      <!-- Bronchus (Right) -->
      <g transform="translate(76.09 644.677879) scale(0.18 -0.18)">
       <defs>
        <path id="DejaVuSans-42" d="M 1259 2228 
L 1259 519 
L 2272 519 
Q 2781 519 3026 730 
Q 3272 941 3272 1375 
Q 3272 1813 3026 2020 
Q 2781 2228 2272 2228 
L 1259 2228 
z
M 1259 4147 
L 1259 2741 
L 2194 2741 
Q 2656 2741 2882 2914 
Q 3109 3088 3109 3444 
Q 3109 3797 2882 3972 
Q 2656 4147 2194 4147 
L 1259 4147 
z
M 628 4666 
L 2241 4666 
Q 2963 4666 3353 4366 
Q 3744 4066 3744 3513 
Q 3744 3084 3544 2831 
Q 3344 2578 2956 2516 
Q 3422 2416 3680 2098 
Q 3938 1781 3938 1306 
Q 3938 681 3513 340 
Q 3088 0 2303 0 
L 628 0 
L 628 4666 
z
" transform="scale(0.015625)"/>
        <path id="DejaVuSans-72" d="M 2631 2963 
Q 2534 3019 2420 3045 
Q 2306 3072 2169 3072 
Q 1681 3072 1420 2755 
Q 1159 2438 1159 1844 
L 1159 0 
L 581 0 
L 581 3500 
L 1159 3500 
L 1159 2956 
Q 1341 3275 1631 3429 
Q 1922 3584 2338 3584 
Q 2397 3584 2469 3576 
Q 2541 3569 2628 3553 
L 2631 2963 
z
" transform="scale(0.015625)"/>
        <path id="DejaVuSans-63" d="M 3122 3366 
L 3122 2828 
Q 2878 2963 2633 3030 
Q 2388 3097 2138 3097 
Q 1578 3097 1268 2742 
Q 959 2388 959 1747 
Q 959 1106 1268 751 
Q 1578 397 2138 397 
Q 2388 397 2633 464 
Q 2878 531 3122 666 
L 3122 134 
Q 2881 22 2623 -34 
Q 2366 -91 2075 -91 
Q 1284 -91 818 406 
Q 353 903 353 1747 
Q 353 2603 823 3093 
Q 1294 3584 2113 3584 
Q 2378 3584 2631 3529 
Q 2884 3475 3122 3366 
z
" transform="scale(0.015625)"/>
        <path id="DejaVuSans-68" d="M 3513 2113 
L 3513 0 
L 2938 0 
L 2938 2094 
Q 2938 2591 2744 2837 
Q 2550 3084 2163 3084 
Q 1697 3084 1428 2787 
Q 1159 2491 1159 1978 
L 1159 0 
L 581 0 
L 581 4863 
L 1159 4863 
L 1159 2956 
Q 1366 3272 1645 3428 
Q 1925 3584 2291 3584 
Q 2894 3584 3203 3211 
Q 3513 2838 3513 2113 
z
" transform="scale(0.015625)"/>
        <path id="DejaVuSans-28" d="M 1984 4856 
Q 1566 4138 1362 3434 
Q 1159 2731 1159 2009 
Q 1159 1288 1364 580 
Q 1569 -128 1984 -844 
L 1484 -844 
Q 1016 -109 783 600 
Q 550 1309 550 2009 
Q 550 2706 781 3412 
Q 1013 4119 1484 4856 
L 1984 4856 
z
" transform="scale(0.015625)"/>
        <path id="DejaVuSans-52" d="M 2841 2188 
Q 3044 2119 3236 1894 
Q 3428 1669 3622 1275 
L 4263 0 
L 3584 0 
L 2988 1197 
Q 2756 1666 2539 1819 
Q 2322 1972 1947 1972 
L 1259 1972 
L 1259 0 
L 628 0 
L 628 4666 
L 2053 4666 
Q 2853 4666 3247 4331 
Q 3641 3997 3641 3322 
Q 3641 2881 3436 2590 
Q 3231 2300 2841 2188 
z
M 1259 4147 
L 1259 2491 
L 2053 2491 
Q 2509 2491 2742 2702 
Q 2975 2913 2975 3322 
Q 2975 3731 2742 3939 
Q 2509 4147 2053 4147 
L 1259 4147 
z
" transform="scale(0.015625)"/>
        <path id="DejaVuSans-69" d="M 603 3500 
L 1178 3500 
L 1178 0 
L 603 0 
L 603 3500 
z
M 603 4863 
L 1178 4863 
L 1178 4134 
L 603 4134 
L 603 4863 
z
" transform="scale(0.015625)"/>
        <path id="DejaVuSans-67" d="M 2906 1791 
Q 2906 2416 2648 2759 
Q 2391 3103 1925 3103 
Q 1463 3103 1205 2759 
Q 947 2416 947 1791 
Q 947 1169 1205 825 
Q 1463 481 1925 481 
Q 2391 481 2648 825 
Q 2906 1169 2906 1791 
z
M 3481 434 
Q 3481 -459 3084 -895 
Q 2688 -1331 1869 -1331 
Q 1566 -1331 1297 -1286 
Q 1028 -1241 775 -1147 
L 775 -588 
Q 1028 -725 1275 -790 
Q 1522 -856 1778 -856 
Q 2344 -856 2625 -561 
Q 2906 -266 2906 331 
L 2906 616 
Q 2728 306 2450 153 
Q 2172 0 1784 0 
Q 1141 0 747 490 
Q 353 981 353 1791 
Q 353 2603 747 3093 
Q 1141 3584 1784 3584 
Q 2172 3584 2450 3431 
Q 2728 3278 2906 2969 
L 2906 3500 
L 3481 3500 
L 3481 434 
z
" transform="scale(0.015625)"/>
        <path id="DejaVuSans-29" d="M 513 4856 
L 1013 4856 
Q 1481 4119 1714 3412 
Q 1947 2706 1947 2009 
Q 1947 1309 1714 600 
Q 1481 -109 1013 -844 
L 513 -844 
Q 928 -128 1133 580 
Q 1338 1288 1338 2009 
Q 1338 2731 1133 3434 
Q 928 4138 513 4856 
z
" transform="scale(0.015625)"/>
       </defs>
       <use xlink:href="#DejaVuSans-42"/>
       <use xlink:href="#DejaVuSans-72" transform="translate(68.603516 0)"/>
       <use xlink:href="#DejaVuSans-6f" transform="translate(107.466797 0)"/>
       <use xlink:href="#DejaVuSans-6e" transform="translate(168.648438 0)"/>
       <use xlink:href="#DejaVuSans-63" transform="translate(232.027344 0)"/>
       <use xlink:href="#DejaVuSans-68" transform="translate(287.007812 0)"/>
       <use xlink:href="#DejaVuSans-75" transform="translate(350.386719 0)"/>
       <use xlink:href="#DejaVuSans-73" transform="translate(413.765625 0)"/>
       <use xlink:href="#DejaVuSans-20" transform="translate(465.865234 0)"/>
       <use xlink:href="#DejaVuSans-28" transform="translate(497.652344 0)"/>
       <use xlink:href="#DejaVuSans-52" transform="translate(536.666016 0)"/>
       <use xlink:href="#DejaVuSans-69" transform="translate(606.148438 0)"/>
       <use xlink:href="#DejaVuSans-67" transform="translate(633.931641 0)"/>
       <use xlink:href="#DejaVuSans-68" transform="translate(697.408203 0)"/>
       <use xlink:href="#DejaVuSans-74" transform="translate(760.787109 0)"/>
       <use xlink:href="#DejaVuSans-29" transform="translate(799.996094 0)"/>
      </g>
     </g>
    </g>
    <g id="ytick_2">
     <g id="line2d_11">
      <g>
       <use xlink:href="#m23135516ca" x="234.11" y="615.037857" style="stroke: #000000; stroke-width: 0.8"/>
      </g>
     </g>
     <g id="text_12">
      <!-- Blood Vasculature -->
      <g transform="translate(65.388438 621.876451) scale(0.18 -0.18)">
       <defs>
        <path id="DejaVuSans-6c" d="M 603 4863 
L 1178 4863 
L 1178 0 
L 603 0 
L 603 4863 
z
" transform="scale(0.015625)"/>
        <path id="DejaVuSans-64" d="M 2906 2969 
L 2906 4863 
L 3481 4863 
L 3481 0 
L 2906 0 
L 2906 525 
Q 2725 213 2448 61 
Q 2172 -91 1784 -91 
Q 1150 -91 751 415 
Q 353 922 353 1747 
Q 353 2572 751 3078 
Q 1150 3584 1784 3584 
Q 2172 3584 2448 3432 
Q 2725 3281 2906 2969 
z
M 947 1747 
Q 947 1113 1208 752 
Q 1469 391 1925 391 
Q 2381 391 2643 752 
Q 2906 1113 2906 1747 
Q 2906 2381 2643 2742 
Q 2381 3103 1925 3103 
Q 1469 3103 1208 2742 
Q 947 2381 947 1747 
z
" transform="scale(0.015625)"/>
        <path id="DejaVuSans-56" d="M 1831 0 
L 50 4666 
L 709 4666 
L 2188 738 
L 3669 4666 
L 4325 4666 
L 2547 0 
L 1831 0 
z
" transform="scale(0.015625)"/>
       </defs>
       <use xlink:href="#DejaVuSans-42"/>
       <use xlink:href="#DejaVuSans-6c" transform="translate(68.603516 0)"/>
       <use xlink:href="#DejaVuSans-6f" transform="translate(96.386719 0)"/>
       <use xlink:href="#DejaVuSans-6f" transform="translate(157.568359 0)"/>
       <use xlink:href="#DejaVuSans-64" transform="translate(218.75 0)"/>
       <use xlink:href="#DejaVuSans-20" transform="translate(282.226562 0)"/>
       <use xlink:href="#DejaVuSans-56" transform="translate(314.013672 0)"/>
       <use xlink:href="#DejaVuSans-61" transform="translate(374.671875 0)"/>
       <use xlink:href="#DejaVuSans-73" transform="translate(435.951172 0)"/>
       <use xlink:href="#DejaVuSans-63" transform="translate(488.050781 0)"/>
       <use xlink:href="#DejaVuSans-75" transform="translate(543.03125 0)"/>
       <use xlink:href="#DejaVuSans-6c" transform="translate(606.410156 0)"/>
       <use xlink:href="#DejaVuSans-61" transform="translate(634.193359 0)"/>
       <use xlink:href="#DejaVuSans-74" transform="translate(695.472656 0)"/>
       <use xlink:href="#DejaVuSans-75" transform="translate(734.681641 0)"/>
       <use xlink:href="#DejaVuSans-72" transform="translate(798.060547 0)"/>
       <use xlink:href="#DejaVuSans-65" transform="translate(836.923828 0)"/>
      </g>
     </g>
    </g>
    <g id="ytick_3">
     <g id="line2d_12">
      <g>
       <use xlink:href="#m23135516ca" x="234.11" y="592.236429" style="stroke: #000000; stroke-width: 0.8"/>
      </g>
     </g>
     <g id="text_13">
      <!-- Knee (Left) -->
      <g transform="translate(128.112813 599.075022) scale(0.18 -0.18)">
       <defs>
        <path id="DejaVuSans-4b" d="M 628 4666 
L 1259 4666 
L 1259 2694 
L 3353 4666 
L 4166 4666 
L 1850 2491 
L 4331 0 
L 3500 0 
L 1259 2247 
L 1259 0 
L 628 0 
L 628 4666 
z
" transform="scale(0.015625)"/>
        <path id="DejaVuSans-4c" d="M 628 4666 
L 1259 4666 
L 1259 531 
L 3531 531 
L 3531 0 
L 628 0 
L 628 4666 
z
" transform="scale(0.015625)"/>
        <path id="DejaVuSans-66" d="M 2375 4863 
L 2375 4384 
L 1825 4384 
Q 1516 4384 1395 4259 
Q 1275 4134 1275 3809 
L 1275 3500 
L 2222 3500 
L 2222 3053 
L 1275 3053 
L 1275 0 
L 697 0 
L 697 3053 
L 147 3053 
L 147 3500 
L 697 3500 
L 697 3744 
Q 697 4328 969 4595 
Q 1241 4863 1831 4863 
L 2375 4863 
z
" transform="scale(0.015625)"/>
       </defs>
       <use xlink:href="#DejaVuSans-4b"/>
       <use xlink:href="#DejaVuSans-6e" transform="translate(65.576172 0)"/>
       <use xlink:href="#DejaVuSans-65" transform="translate(128.955078 0)"/>
       <use xlink:href="#DejaVuSans-65" transform="translate(190.478516 0)"/>
       <use xlink:href="#DejaVuSans-20" transform="translate(252.001953 0)"/>
       <use xlink:href="#DejaVuSans-28" transform="translate(283.789062 0)"/>
       <use xlink:href="#DejaVuSans-4c" transform="translate(322.802734 0)"/>
       <use xlink:href="#DejaVuSans-65" transform="translate(376.765625 0)"/>
       <use xlink:href="#DejaVuSans-66" transform="translate(438.289062 0)"/>
       <use xlink:href="#DejaVuSans-74" transform="translate(471.744141 0)"/>
       <use xlink:href="#DejaVuSans-29" transform="translate(510.953125 0)"/>
      </g>
     </g>
    </g>
    <g id="ytick_4">
     <g id="line2d_13">
      <g>
       <use xlink:href="#m23135516ca" x="234.11" y="569.435" style="stroke: #000000; stroke-width: 0.8"/>
      </g>
     </g>
     <g id="text_14">
      <!-- Bone Marrow -->
      <g transform="translate(109.167813 576.273594) scale(0.18 -0.18)">
       <defs>
        <path id="DejaVuSans-4d" d="M 628 4666 
L 1569 4666 
L 2759 1491 
L 3956 4666 
L 4897 4666 
L 4897 0 
L 4281 0 
L 4281 4097 
L 3078 897 
L 2444 897 
L 1241 4097 
L 1241 0 
L 628 0 
L 628 4666 
z
" transform="scale(0.015625)"/>
        <path id="DejaVuSans-77" d="M 269 3500 
L 844 3500 
L 1563 769 
L 2278 3500 
L 2956 3500 
L 3675 769 
L 4391 3500 
L 4966 3500 
L 4050 0 
L 3372 0 
L 2619 2869 
L 1863 0 
L 1184 0 
L 269 3500 
z
" transform="scale(0.015625)"/>
       </defs>
       <use xlink:href="#DejaVuSans-42"/>
       <use xlink:href="#DejaVuSans-6f" transform="translate(68.603516 0)"/>
       <use xlink:href="#DejaVuSans-6e" transform="translate(129.785156 0)"/>
       <use xlink:href="#DejaVuSans-65" transform="translate(193.164062 0)"/>
       <use xlink:href="#DejaVuSans-20" transform="translate(254.6875 0)"/>
       <use xlink:href="#DejaVuSans-4d" transform="translate(286.474609 0)"/>
       <use xlink:href="#DejaVuSans-61" transform="translate(372.753906 0)"/>
       <use xlink:href="#DejaVuSans-72" transform="translate(434.033203 0)"/>
       <use xlink:href="#DejaVuSans-72" transform="translate(473.396484 0)"/>
       <use xlink:href="#DejaVuSans-6f" transform="translate(512.259766 0)"/>
       <use xlink:href="#DejaVuSans-77" transform="translate(573.441406 0)"/>
      </g>
     </g>
    </g>
    <g id="ytick_5">
     <g id="line2d_14">
      <g>
       <use xlink:href="#m23135516ca" x="234.11" y="546.633571" style="stroke: #000000; stroke-width: 0.8"/>
      </g>
     </g>
     <g id="text_15">
      <!-- Bronchus (Left) -->
      <g transform="translate(89.620938 553.472165) scale(0.18 -0.18)">
       <use xlink:href="#DejaVuSans-42"/>
       <use xlink:href="#DejaVuSans-72" transform="translate(68.603516 0)"/>
       <use xlink:href="#DejaVuSans-6f" transform="translate(107.466797 0)"/>
       <use xlink:href="#DejaVuSans-6e" transform="translate(168.648438 0)"/>
       <use xlink:href="#DejaVuSans-63" transform="translate(232.027344 0)"/>
       <use xlink:href="#DejaVuSans-68" transform="translate(287.007812 0)"/>
       <use xlink:href="#DejaVuSans-75" transform="translate(350.386719 0)"/>
       <use xlink:href="#DejaVuSans-73" transform="translate(413.765625 0)"/>
       <use xlink:href="#DejaVuSans-20" transform="translate(465.865234 0)"/>
       <use xlink:href="#DejaVuSans-28" transform="translate(497.652344 0)"/>
       <use xlink:href="#DejaVuSans-4c" transform="translate(536.666016 0)"/>
       <use xlink:href="#DejaVuSans-65" transform="translate(590.628906 0)"/>
       <use xlink:href="#DejaVuSans-66" transform="translate(652.152344 0)"/>
       <use xlink:href="#DejaVuSans-74" transform="translate(685.607422 0)"/>
       <use xlink:href="#DejaVuSans-29" transform="translate(724.816406 0)"/>
      </g>
     </g>
    </g>
    <g id="ytick_6">
     <g id="line2d_15">
      <g>
       <use xlink:href="#m23135516ca" x="234.11" y="523.832143" style="stroke: #000000; stroke-width: 0.8"/>
      </g>
     </g>
     <g id="text_16">
      <!-- Blood -->
      <g transform="translate(176.305 530.670737) scale(0.18 -0.18)">
       <use xlink:href="#DejaVuSans-42"/>
       <use xlink:href="#DejaVuSans-6c" transform="translate(68.603516 0)"/>
       <use xlink:href="#DejaVuSans-6f" transform="translate(96.386719 0)"/>
       <use xlink:href="#DejaVuSans-6f" transform="translate(157.568359 0)"/>
       <use xlink:href="#DejaVuSans-64" transform="translate(218.75 0)"/>
      </g>
     </g>
    </g>
    <g id="ytick_7">
     <g id="line2d_16">
      <g>
       <use xlink:href="#m23135516ca" x="234.11" y="501.030714" style="stroke: #000000; stroke-width: 0.8"/>
      </g>
     </g>
     <g id="text_17">
      <!-- Brain -->
      <g transform="translate(179.921875 507.869308) scale(0.18 -0.18)">
       <use xlink:href="#DejaVuSans-42"/>
       <use xlink:href="#DejaVuSans-72" transform="translate(68.603516 0)"/>
       <use xlink:href="#DejaVuSans-61" transform="translate(109.716797 0)"/>
       <use xlink:href="#DejaVuSans-69" transform="translate(170.996094 0)"/>
       <use xlink:href="#DejaVuSans-6e" transform="translate(198.779297 0)"/>
      </g>
     </g>
    </g>
    <g id="ytick_8">
     <g id="line2d_17">
      <g>
       <use xlink:href="#m23135516ca" x="234.11" y="478.229286" style="stroke: #000000; stroke-width: 0.8"/>
      </g>
     </g>
     <g id="text_18">
      <!-- Liver -->
      <g transform="translate(182.950938 485.067879) scale(0.18 -0.18)">
       <defs>
        <path id="DejaVuSans-76" d="M 191 3500 
L 800 3500 
L 1894 563 
L 2988 3500 
L 3597 3500 
L 2284 0 
L 1503 0 
L 191 3500 
z
" transform="scale(0.015625)"/>
       </defs>
       <use xlink:href="#DejaVuSans-4c"/>
       <use xlink:href="#DejaVuSans-69" transform="translate(55.712891 0)"/>
       <use xlink:href="#DejaVuSans-76" transform="translate(83.496094 0)"/>
       <use xlink:href="#DejaVuSans-65" transform="translate(142.675781 0)"/>
       <use xlink:href="#DejaVuSans-72" transform="translate(204.199219 0)"/>
      </g>
     </g>
    </g>
    <g id="ytick_9">
     <g id="line2d_18">
      <g>
       <use xlink:href="#m23135516ca" x="234.11" y="455.427857" style="stroke: #000000; stroke-width: 0.8"/>
      </g>
     </g>
     <g id="text_19">
      <!-- Knee (Right) -->
      <g transform="translate(114.581875 462.266451) scale(0.18 -0.18)">
       <use xlink:href="#DejaVuSans-4b"/>
       <use xlink:href="#DejaVuSans-6e" transform="translate(65.576172 0)"/>
       <use xlink:href="#DejaVuSans-65" transform="translate(128.955078 0)"/>
       <use xlink:href="#DejaVuSans-65" transform="translate(190.478516 0)"/>
       <use xlink:href="#DejaVuSans-20" transform="translate(252.001953 0)"/>
       <use xlink:href="#DejaVuSans-28" transform="translate(283.789062 0)"/>
       <use xlink:href="#DejaVuSans-52" transform="translate(322.802734 0)"/>
       <use xlink:href="#DejaVuSans-69" transform="translate(392.285156 0)"/>
       <use xlink:href="#DejaVuSans-67" transform="translate(420.068359 0)"/>
       <use xlink:href="#DejaVuSans-68" transform="translate(483.544922 0)"/>
       <use xlink:href="#DejaVuSans-74" transform="translate(546.923828 0)"/>
       <use xlink:href="#DejaVuSans-29" transform="translate(586.132812 0)"/>
      </g>
     </g>
    </g>
    <g id="ytick_10">
     <g id="line2d_19">
      <g>
       <use xlink:href="#m23135516ca" x="234.11" y="432.626429" style="stroke: #000000; stroke-width: 0.8"/>
      </g>
     </g>
     <g id="text_20">
      <!-- Bladder -->
      <g transform="translate(157.399375 439.465022) scale(0.18 -0.18)">
       <use xlink:href="#DejaVuSans-42"/>
       <use xlink:href="#DejaVuSans-6c" transform="translate(68.603516 0)"/>
       <use xlink:href="#DejaVuSans-61" transform="translate(96.386719 0)"/>
       <use xlink:href="#DejaVuSans-64" transform="translate(157.666016 0)"/>
       <use xlink:href="#DejaVuSans-64" transform="translate(221.142578 0)"/>
       <use xlink:href="#DejaVuSans-65" transform="translate(284.619141 0)"/>
       <use xlink:href="#DejaVuSans-72" transform="translate(346.142578 0)"/>
      </g>
     </g>
    </g>
    <g id="ytick_11">
     <g id="line2d_20">
      <g>
       <use xlink:href="#m23135516ca" x="234.11" y="409.825" style="stroke: #000000; stroke-width: 0.8"/>
      </g>
     </g>
     <g id="text_21">
      <!-- Pancreas -->
      <g transform="translate(146.253438 416.663594) scale(0.18 -0.18)">
       <defs>
        <path id="DejaVuSans-50" d="M 1259 4147 
L 1259 2394 
L 2053 2394 
Q 2494 2394 2734 2622 
Q 2975 2850 2975 3272 
Q 2975 3691 2734 3919 
Q 2494 4147 2053 4147 
L 1259 4147 
z
M 628 4666 
L 2053 4666 
Q 2838 4666 3239 4311 
Q 3641 3956 3641 3272 
Q 3641 2581 3239 2228 
Q 2838 1875 2053 1875 
L 1259 1875 
L 1259 0 
L 628 0 
L 628 4666 
z
" transform="scale(0.015625)"/>
       </defs>
       <use xlink:href="#DejaVuSans-50"/>
       <use xlink:href="#DejaVuSans-61" transform="translate(55.802734 0)"/>
       <use xlink:href="#DejaVuSans-6e" transform="translate(117.082031 0)"/>
       <use xlink:href="#DejaVuSans-63" transform="translate(180.460938 0)"/>
       <use xlink:href="#DejaVuSans-72" transform="translate(235.441406 0)"/>
       <use xlink:href="#DejaVuSans-65" transform="translate(274.304688 0)"/>
       <use xlink:href="#DejaVuSans-61" transform="translate(335.828125 0)"/>
       <use xlink:href="#DejaVuSans-73" transform="translate(397.107422 0)"/>
      </g>
     </g>
    </g>
    <g id="ytick_12">
     <g id="line2d_21">
      <g>
       <use xlink:href="#m23135516ca" x="234.11" y="387.023571" style="stroke: #000000; stroke-width: 0.8"/>
      </g>
     </g>
     <g id="text_22">
      <!-- Thymus -->
      <g transform="translate(155.737188 393.862165) scale(0.18 -0.18)">
       <defs>
        <path id="DejaVuSans-54" d="M -19 4666 
L 3928 4666 
L 3928 4134 
L 2272 4134 
L 2272 0 
L 1638 0 
L 1638 4134 
L -19 4134 
L -19 4666 
z
" transform="scale(0.015625)"/>
        <path id="DejaVuSans-79" d="M 2059 -325 
Q 1816 -950 1584 -1140 
Q 1353 -1331 966 -1331 
L 506 -1331 
L 506 -850 
L 844 -850 
Q 1081 -850 1212 -737 
Q 1344 -625 1503 -206 
L 1606 56 
L 191 3500 
L 800 3500 
L 1894 763 
L 2988 3500 
L 3597 3500 
L 2059 -325 
z
" transform="scale(0.015625)"/>
        <path id="DejaVuSans-6d" d="M 3328 2828 
Q 3544 3216 3844 3400 
Q 4144 3584 4550 3584 
Q 5097 3584 5394 3201 
Q 5691 2819 5691 2113 
L 5691 0 
L 5113 0 
L 5113 2094 
Q 5113 2597 4934 2840 
Q 4756 3084 4391 3084 
Q 3944 3084 3684 2787 
Q 3425 2491 3425 1978 
L 3425 0 
L 2847 0 
L 2847 2094 
Q 2847 2600 2669 2842 
Q 2491 3084 2119 3084 
Q 1678 3084 1418 2786 
Q 1159 2488 1159 1978 
L 1159 0 
L 581 0 
L 581 3500 
L 1159 3500 
L 1159 2956 
Q 1356 3278 1631 3431 
Q 1906 3584 2284 3584 
Q 2666 3584 2933 3390 
Q 3200 3197 3328 2828 
z
" transform="scale(0.015625)"/>
       </defs>
       <use xlink:href="#DejaVuSans-54"/>
       <use xlink:href="#DejaVuSans-68" transform="translate(61.083984 0)"/>
       <use xlink:href="#DejaVuSans-79" transform="translate(124.462891 0)"/>
       <use xlink:href="#DejaVuSans-6d" transform="translate(183.642578 0)"/>
       <use xlink:href="#DejaVuSans-75" transform="translate(281.054688 0)"/>
       <use xlink:href="#DejaVuSans-73" transform="translate(344.433594 0)"/>
      </g>
     </g>
    </g>
    <g id="ytick_13">
     <g id="line2d_22">
      <g>
       <use xlink:href="#m23135516ca" x="234.11" y="364.222143" style="stroke: #000000; stroke-width: 0.8"/>
      </g>
     </g>
     <g id="text_23">
      <!-- Skin -->
      <g transform="translate(188.851562 371.060737) scale(0.18 -0.18)">
       <defs>
        <path id="DejaVuSans-53" d="M 3425 4513 
L 3425 3897 
Q 3066 4069 2747 4153 
Q 2428 4238 2131 4238 
Q 1616 4238 1336 4038 
Q 1056 3838 1056 3469 
Q 1056 3159 1242 3001 
Q 1428 2844 1947 2747 
L 2328 2669 
Q 3034 2534 3370 2195 
Q 3706 1856 3706 1288 
Q 3706 609 3251 259 
Q 2797 -91 1919 -91 
Q 1588 -91 1214 -16 
Q 841 59 441 206 
L 441 856 
Q 825 641 1194 531 
Q 1563 422 1919 422 
Q 2459 422 2753 634 
Q 3047 847 3047 1241 
Q 3047 1584 2836 1778 
Q 2625 1972 2144 2069 
L 1759 2144 
Q 1053 2284 737 2584 
Q 422 2884 422 3419 
Q 422 4038 858 4394 
Q 1294 4750 2059 4750 
Q 2388 4750 2728 4690 
Q 3069 4631 3425 4513 
z
" transform="scale(0.015625)"/>
        <path id="DejaVuSans-6b" d="M 581 4863 
L 1159 4863 
L 1159 1991 
L 2875 3500 
L 3609 3500 
L 1753 1863 
L 3688 0 
L 2938 0 
L 1159 1709 
L 1159 0 
L 581 0 
L 581 4863 
z
" transform="scale(0.015625)"/>
       </defs>
       <use xlink:href="#DejaVuSans-53"/>
       <use xlink:href="#DejaVuSans-6b" transform="translate(63.476562 0)"/>
       <use xlink:href="#DejaVuSans-69" transform="translate(121.386719 0)"/>
       <use xlink:href="#DejaVuSans-6e" transform="translate(149.169922 0)"/>
      </g>
     </g>
    </g>
    <g id="ytick_14">
     <g id="line2d_23">
      <g>
       <use xlink:href="#m23135516ca" x="234.11" y="341.420714" style="stroke: #000000; stroke-width: 0.8"/>
      </g>
     </g>
     <g id="text_24">
      <!-- Lymph Node -->
      <g transform="translate(114.998125 348.259308) scale(0.18 -0.18)">
       <defs>
        <path id="DejaVuSans-70" d="M 1159 525 
L 1159 -1331 
L 581 -1331 
L 581 3500 
L 1159 3500 
L 1159 2969 
Q 1341 3281 1617 3432 
Q 1894 3584 2278 3584 
Q 2916 3584 3314 3078 
Q 3713 2572 3713 1747 
Q 3713 922 3314 415 
Q 2916 -91 2278 -91 
Q 1894 -91 1617 61 
Q 1341 213 1159 525 
z
M 3116 1747 
Q 3116 2381 2855 2742 
Q 2594 3103 2138 3103 
Q 1681 3103 1420 2742 
Q 1159 2381 1159 1747 
Q 1159 1113 1420 752 
Q 1681 391 2138 391 
Q 2594 391 2855 752 
Q 3116 1113 3116 1747 
z
" transform="scale(0.015625)"/>
        <path id="DejaVuSans-4e" d="M 628 4666 
L 1478 4666 
L 3547 763 
L 3547 4666 
L 4159 4666 
L 4159 0 
L 3309 0 
L 1241 3903 
L 1241 0 
L 628 0 
L 628 4666 
z
" transform="scale(0.015625)"/>
       </defs>
       <use xlink:href="#DejaVuSans-4c"/>
       <use xlink:href="#DejaVuSans-79" transform="translate(46.587891 0)"/>
       <use xlink:href="#DejaVuSans-6d" transform="translate(105.767578 0)"/>
       <use xlink:href="#DejaVuSans-70" transform="translate(203.179688 0)"/>
       <use xlink:href="#DejaVuSans-68" transform="translate(266.65625 0)"/>
       <use xlink:href="#DejaVuSans-20" transform="translate(330.035156 0)"/>
       <use xlink:href="#DejaVuSans-4e" transform="translate(361.822266 0)"/>
       <use xlink:href="#DejaVuSans-6f" transform="translate(436.626953 0)"/>
       <use xlink:href="#DejaVuSans-64" transform="translate(497.808594 0)"/>
       <use xlink:href="#DejaVuSans-65" transform="translate(561.285156 0)"/>
      </g>
     </g>
    </g>
    <g id="ytick_15">
     <g id="line2d_24">
      <g>
       <use xlink:href="#m23135516ca" x="234.11" y="318.619286" style="stroke: #000000; stroke-width: 0.8"/>
      </g>
     </g>
     <g id="text_25">
      <!-- Fallopian Tube (Left) -->
      <g transform="translate(45.95125 325.457879) scale(0.18 -0.18)">
       <defs>
        <path id="DejaVuSans-46" d="M 628 4666 
L 3309 4666 
L 3309 4134 
L 1259 4134 
L 1259 2759 
L 3109 2759 
L 3109 2228 
L 1259 2228 
L 1259 0 
L 628 0 
L 628 4666 
z
" transform="scale(0.015625)"/>
        <path id="DejaVuSans-62" d="M 3116 1747 
Q 3116 2381 2855 2742 
Q 2594 3103 2138 3103 
Q 1681 3103 1420 2742 
Q 1159 2381 1159 1747 
Q 1159 1113 1420 752 
Q 1681 391 2138 391 
Q 2594 391 2855 752 
Q 3116 1113 3116 1747 
z
M 1159 2969 
Q 1341 3281 1617 3432 
Q 1894 3584 2278 3584 
Q 2916 3584 3314 3078 
Q 3713 2572 3713 1747 
Q 3713 922 3314 415 
Q 2916 -91 2278 -91 
Q 1894 -91 1617 61 
Q 1341 213 1159 525 
L 1159 0 
L 581 0 
L 581 4863 
L 1159 4863 
L 1159 2969 
z
" transform="scale(0.015625)"/>
       </defs>
       <use xlink:href="#DejaVuSans-46"/>
       <use xlink:href="#DejaVuSans-61" transform="translate(48.394531 0)"/>
       <use xlink:href="#DejaVuSans-6c" transform="translate(109.673828 0)"/>
       <use xlink:href="#DejaVuSans-6c" transform="translate(137.457031 0)"/>
       <use xlink:href="#DejaVuSans-6f" transform="translate(165.240234 0)"/>
       <use xlink:href="#DejaVuSans-70" transform="translate(226.421875 0)"/>
       <use xlink:href="#DejaVuSans-69" transform="translate(289.898438 0)"/>
       <use xlink:href="#DejaVuSans-61" transform="translate(317.681641 0)"/>
       <use xlink:href="#DejaVuSans-6e" transform="translate(378.960938 0)"/>
       <use xlink:href="#DejaVuSans-20" transform="translate(442.339844 0)"/>
       <use xlink:href="#DejaVuSans-54" transform="translate(474.126953 0)"/>
       <use xlink:href="#DejaVuSans-75" transform="translate(520.085938 0)"/>
       <use xlink:href="#DejaVuSans-62" transform="translate(583.464844 0)"/>
       <use xlink:href="#DejaVuSans-65" transform="translate(646.941406 0)"/>
       <use xlink:href="#DejaVuSans-20" transform="translate(708.464844 0)"/>
       <use xlink:href="#DejaVuSans-28" transform="translate(740.251953 0)"/>
       <use xlink:href="#DejaVuSans-4c" transform="translate(779.265625 0)"/>
       <use xlink:href="#DejaVuSans-65" transform="translate(833.228516 0)"/>
       <use xlink:href="#DejaVuSans-66" transform="translate(894.751953 0)"/>
       <use xlink:href="#DejaVuSans-74" transform="translate(928.207031 0)"/>
       <use xlink:href="#DejaVuSans-29" transform="translate(967.416016 0)"/>
      </g>
     </g>
    </g>
    <g id="ytick_16">
     <g id="line2d_25">
      <g>
       <use xlink:href="#m23135516ca" x="234.11" y="295.817857" style="stroke: #000000; stroke-width: 0.8"/>
      </g>
     </g>
     <g id="text_26">
      <!-- Heart -->
      <g transform="translate(177.010938 302.656451) scale(0.18 -0.18)">
       <defs>
        <path id="DejaVuSans-48" d="M 628 4666 
L 1259 4666 
L 1259 2753 
L 3553 2753 
L 3553 4666 
L 4184 4666 
L 4184 0 
L 3553 0 
L 3553 2222 
L 1259 2222 
L 1259 0 
L 628 0 
L 628 4666 
z
" transform="scale(0.015625)"/>
       </defs>
       <use xlink:href="#DejaVuSans-48"/>
       <use xlink:href="#DejaVuSans-65" transform="translate(75.195312 0)"/>
       <use xlink:href="#DejaVuSans-61" transform="translate(136.71875 0)"/>
       <use xlink:href="#DejaVuSans-72" transform="translate(197.998047 0)"/>
       <use xlink:href="#DejaVuSans-74" transform="translate(239.111328 0)"/>
      </g>
     </g>
    </g>
    <g id="ytick_17">
     <g id="line2d_26">
      <g>
       <use xlink:href="#m23135516ca" x="234.11" y="273.016429" style="stroke: #000000; stroke-width: 0.8"/>
      </g>
     </g>
     <g id="text_27">
      <!-- Spleen -->
      <g transform="translate(165.69625 279.855022) scale(0.18 -0.18)">
       <use xlink:href="#DejaVuSans-53"/>
       <use xlink:href="#DejaVuSans-70" transform="translate(63.476562 0)"/>
       <use xlink:href="#DejaVuSans-6c" transform="translate(126.953125 0)"/>
       <use xlink:href="#DejaVuSans-65" transform="translate(154.736328 0)"/>
       <use xlink:href="#DejaVuSans-65" transform="translate(216.259766 0)"/>
       <use xlink:href="#DejaVuSans-6e" transform="translate(277.783203 0)"/>
      </g>
     </g>
    </g>
    <g id="ytick_18">
     <g id="line2d_27">
      <g>
       <use xlink:href="#m23135516ca" x="234.11" y="250.215" style="stroke: #000000; stroke-width: 0.8"/>
      </g>
     </g>
     <g id="text_28">
      <!-- Ovary (Right) -->
      <g transform="translate(106.0375 257.053594) scale(0.18 -0.18)">
       <defs>
        <path id="DejaVuSans-4f" d="M 2522 4238 
Q 1834 4238 1429 3725 
Q 1025 3213 1025 2328 
Q 1025 1447 1429 934 
Q 1834 422 2522 422 
Q 3209 422 3611 934 
Q 4013 1447 4013 2328 
Q 4013 3213 3611 3725 
Q 3209 4238 2522 4238 
z
M 2522 4750 
Q 3503 4750 4090 4092 
Q 4678 3434 4678 2328 
Q 4678 1225 4090 567 
Q 3503 -91 2522 -91 
Q 1538 -91 948 565 
Q 359 1222 359 2328 
Q 359 3434 948 4092 
Q 1538 4750 2522 4750 
z
" transform="scale(0.015625)"/>
       </defs>
       <use xlink:href="#DejaVuSans-4f"/>
       <use xlink:href="#DejaVuSans-76" transform="translate(78.710938 0)"/>
       <use xlink:href="#DejaVuSans-61" transform="translate(137.890625 0)"/>
       <use xlink:href="#DejaVuSans-72" transform="translate(199.169922 0)"/>
       <use xlink:href="#DejaVuSans-79" transform="translate(240.283203 0)"/>
       <use xlink:href="#DejaVuSans-20" transform="translate(299.462891 0)"/>
       <use xlink:href="#DejaVuSans-28" transform="translate(331.25 0)"/>
       <use xlink:href="#DejaVuSans-52" transform="translate(370.263672 0)"/>
       <use xlink:href="#DejaVuSans-69" transform="translate(439.746094 0)"/>
       <use xlink:href="#DejaVuSans-67" transform="translate(467.529297 0)"/>
       <use xlink:href="#DejaVuSans-68" transform="translate(531.005859 0)"/>
       <use xlink:href="#DejaVuSans-74" transform="translate(594.384766 0)"/>
       <use xlink:href="#DejaVuSans-29" transform="translate(633.59375 0)"/>
      </g>
     </g>
    </g>
    <g id="ytick_19">
     <g id="line2d_28">
      <g>
       <use xlink:href="#m23135516ca" x="234.11" y="227.413571" style="stroke: #000000; stroke-width: 0.8"/>
      </g>
     </g>
     <g id="text_29">
      <!-- Fallopian Tube (Right) -->
      <g transform="translate(32.420313 234.252165) scale(0.18 -0.18)">
       <use xlink:href="#DejaVuSans-46"/>
       <use xlink:href="#DejaVuSans-61" transform="translate(48.394531 0)"/>
       <use xlink:href="#DejaVuSans-6c" transform="translate(109.673828 0)"/>
       <use xlink:href="#DejaVuSans-6c" transform="translate(137.457031 0)"/>
       <use xlink:href="#DejaVuSans-6f" transform="translate(165.240234 0)"/>
       <use xlink:href="#DejaVuSans-70" transform="translate(226.421875 0)"/>
       <use xlink:href="#DejaVuSans-69" transform="translate(289.898438 0)"/>
       <use xlink:href="#DejaVuSans-61" transform="translate(317.681641 0)"/>
       <use xlink:href="#DejaVuSans-6e" transform="translate(378.960938 0)"/>
       <use xlink:href="#DejaVuSans-20" transform="translate(442.339844 0)"/>
       <use xlink:href="#DejaVuSans-54" transform="translate(474.126953 0)"/>
       <use xlink:href="#DejaVuSans-75" transform="translate(520.085938 0)"/>
       <use xlink:href="#DejaVuSans-62" transform="translate(583.464844 0)"/>
       <use xlink:href="#DejaVuSans-65" transform="translate(646.941406 0)"/>
       <use xlink:href="#DejaVuSans-20" transform="translate(708.464844 0)"/>
       <use xlink:href="#DejaVuSans-28" transform="translate(740.251953 0)"/>
       <use xlink:href="#DejaVuSans-52" transform="translate(779.265625 0)"/>
       <use xlink:href="#DejaVuSans-69" transform="translate(848.748047 0)"/>
       <use xlink:href="#DejaVuSans-67" transform="translate(876.53125 0)"/>
       <use xlink:href="#DejaVuSans-68" transform="translate(940.007812 0)"/>
       <use xlink:href="#DejaVuSans-74" transform="translate(1003.386719 0)"/>
       <use xlink:href="#DejaVuSans-29" transform="translate(1042.595703 0)"/>
      </g>
     </g>
    </g>
    <g id="ytick_20">
     <g id="line2d_29">
      <g>
       <use xlink:href="#m23135516ca" x="234.11" y="204.612143" style="stroke: #000000; stroke-width: 0.8"/>
      </g>
     </g>
     <g id="text_30">
      <!-- Ovary (Left) -->
      <g transform="translate(119.568438 211.450737) scale(0.18 -0.18)">
       <use xlink:href="#DejaVuSans-4f"/>
       <use xlink:href="#DejaVuSans-76" transform="translate(78.710938 0)"/>
       <use xlink:href="#DejaVuSans-61" transform="translate(137.890625 0)"/>
       <use xlink:href="#DejaVuSans-72" transform="translate(199.169922 0)"/>
       <use xlink:href="#DejaVuSans-79" transform="translate(240.283203 0)"/>
       <use xlink:href="#DejaVuSans-20" transform="translate(299.462891 0)"/>
       <use xlink:href="#DejaVuSans-28" transform="translate(331.25 0)"/>
       <use xlink:href="#DejaVuSans-4c" transform="translate(370.263672 0)"/>
       <use xlink:href="#DejaVuSans-65" transform="translate(424.226562 0)"/>
       <use xlink:href="#DejaVuSans-66" transform="translate(485.75 0)"/>
       <use xlink:href="#DejaVuSans-74" transform="translate(519.205078 0)"/>
       <use xlink:href="#DejaVuSans-29" transform="translate(558.414062 0)"/>
      </g>
     </g>
    </g>
    <g id="ytick_21">
     <g id="line2d_30">
      <g>
       <use xlink:href="#m23135516ca" x="234.11" y="181.810714" style="stroke: #000000; stroke-width: 0.8"/>
      </g>
     </g>
     <g id="text_31">
      <!-- Placenta -->
      <g transform="translate(149.757812 188.649308) scale(0.18 -0.18)">
       <use xlink:href="#DejaVuSans-50"/>
       <use xlink:href="#DejaVuSans-6c" transform="translate(60.302734 0)"/>
       <use xlink:href="#DejaVuSans-61" transform="translate(88.085938 0)"/>
       <use xlink:href="#DejaVuSans-63" transform="translate(149.365234 0)"/>
       <use xlink:href="#DejaVuSans-65" transform="translate(204.345703 0)"/>
       <use xlink:href="#DejaVuSans-6e" transform="translate(265.869141 0)"/>
       <use xlink:href="#DejaVuSans-74" transform="translate(329.248047 0)"/>
       <use xlink:href="#DejaVuSans-61" transform="translate(368.457031 0)"/>
      </g>
     </g>
    </g>
    <g id="ytick_22">
     <g id="line2d_31">
      <g>
       <use xlink:href="#m23135516ca" x="234.11" y="159.009286" style="stroke: #000000; stroke-width: 0.8"/>
      </g>
     </g>
     <g id="text_32">
      <!-- Large Intestine -->
      <g transform="translate(91.975 165.847879) scale(0.18 -0.18)">
       <defs>
        <path id="DejaVuSans-49" d="M 628 4666 
L 1259 4666 
L 1259 0 
L 628 0 
L 628 4666 
z
" transform="scale(0.015625)"/>
       </defs>
       <use xlink:href="#DejaVuSans-4c"/>
       <use xlink:href="#DejaVuSans-61" transform="translate(55.712891 0)"/>
       <use xlink:href="#DejaVuSans-72" transform="translate(116.992188 0)"/>
       <use xlink:href="#DejaVuSans-67" transform="translate(156.355469 0)"/>
       <use xlink:href="#DejaVuSans-65" transform="translate(219.832031 0)"/>
       <use xlink:href="#DejaVuSans-20" transform="translate(281.355469 0)"/>
       <use xlink:href="#DejaVuSans-49" transform="translate(313.142578 0)"/>
       <use xlink:href="#DejaVuSans-6e" transform="translate(342.634766 0)"/>
       <use xlink:href="#DejaVuSans-74" transform="translate(406.013672 0)"/>
       <use xlink:href="#DejaVuSans-65" transform="translate(445.222656 0)"/>
       <use xlink:href="#DejaVuSans-73" transform="translate(506.746094 0)"/>
       <use xlink:href="#DejaVuSans-74" transform="translate(558.845703 0)"/>
       <use xlink:href="#DejaVuSans-69" transform="translate(598.054688 0)"/>
       <use xlink:href="#DejaVuSans-6e" transform="translate(625.837891 0)"/>
       <use xlink:href="#DejaVuSans-65" transform="translate(689.216797 0)"/>
      </g>
     </g>
    </g>
    <g id="ytick_23">
     <g id="line2d_32">
      <g>
       <use xlink:href="#m23135516ca" x="234.11" y="136.207857" style="stroke: #000000; stroke-width: 0.8"/>
      </g>
     </g>
     <g id="text_33">
      <!-- Small Intestine -->
      <g transform="translate(92.630313 143.046451) scale(0.18 -0.18)">
       <use xlink:href="#DejaVuSans-53"/>
       <use xlink:href="#DejaVuSans-6d" transform="translate(63.476562 0)"/>
       <use xlink:href="#DejaVuSans-61" transform="translate(160.888672 0)"/>
       <use xlink:href="#DejaVuSans-6c" transform="translate(222.167969 0)"/>
       <use xlink:href="#DejaVuSans-6c" transform="translate(249.951172 0)"/>
       <use xlink:href="#DejaVuSans-20" transform="translate(277.734375 0)"/>
       <use xlink:href="#DejaVuSans-49" transform="translate(309.521484 0)"/>
       <use xlink:href="#DejaVuSans-6e" transform="translate(339.013672 0)"/>
       <use xlink:href="#DejaVuSans-74" transform="translate(402.392578 0)"/>
       <use xlink:href="#DejaVuSans-65" transform="translate(441.601562 0)"/>
       <use xlink:href="#DejaVuSans-73" transform="translate(503.125 0)"/>
       <use xlink:href="#DejaVuSans-74" transform="translate(555.224609 0)"/>
       <use xlink:href="#DejaVuSans-69" transform="translate(594.433594 0)"/>
       <use xlink:href="#DejaVuSans-6e" transform="translate(622.216797 0)"/>
       <use xlink:href="#DejaVuSans-65" transform="translate(685.595703 0)"/>
      </g>
     </g>
    </g>
    <g id="ytick_24">
     <g id="line2d_33">
      <g>
       <use xlink:href="#m23135516ca" x="234.11" y="113.406429" style="stroke: #000000; stroke-width: 0.8"/>
      </g>
     </g>
     <g id="text_34">
      <!-- Kidney (Right) -->
      <g transform="translate(98.575938 120.245022) scale(0.18 -0.18)">
       <use xlink:href="#DejaVuSans-4b"/>
       <use xlink:href="#DejaVuSans-69" transform="translate(65.576172 0)"/>
       <use xlink:href="#DejaVuSans-64" transform="translate(93.359375 0)"/>
       <use xlink:href="#DejaVuSans-6e" transform="translate(156.835938 0)"/>
       <use xlink:href="#DejaVuSans-65" transform="translate(220.214844 0)"/>
       <use xlink:href="#DejaVuSans-79" transform="translate(281.738281 0)"/>
       <use xlink:href="#DejaVuSans-20" transform="translate(340.917969 0)"/>
       <use xlink:href="#DejaVuSans-28" transform="translate(372.705078 0)"/>
       <use xlink:href="#DejaVuSans-52" transform="translate(411.71875 0)"/>
       <use xlink:href="#DejaVuSans-69" transform="translate(481.201172 0)"/>
       <use xlink:href="#DejaVuSans-67" transform="translate(508.984375 0)"/>
       <use xlink:href="#DejaVuSans-68" transform="translate(572.460938 0)"/>
       <use xlink:href="#DejaVuSans-74" transform="translate(635.839844 0)"/>
       <use xlink:href="#DejaVuSans-29" transform="translate(675.048828 0)"/>
      </g>
     </g>
    </g>
    <g id="ytick_25">
     <g id="line2d_34">
      <g>
       <use xlink:href="#m23135516ca" x="234.11" y="90.605" style="stroke: #000000; stroke-width: 0.8"/>
      </g>
     </g>
     <g id="text_35">
      <!-- Kidney (Left) -->
      <g transform="translate(112.106875 97.443594) scale(0.18 -0.18)">
       <use xlink:href="#DejaVuSans-4b"/>
       <use xlink:href="#DejaVuSans-69" transform="translate(65.576172 0)"/>
       <use xlink:href="#DejaVuSans-64" transform="translate(93.359375 0)"/>
       <use xlink:href="#DejaVuSans-6e" transform="translate(156.835938 0)"/>
       <use xlink:href="#DejaVuSans-65" transform="translate(220.214844 0)"/>
       <use xlink:href="#DejaVuSans-79" transform="translate(281.738281 0)"/>
       <use xlink:href="#DejaVuSans-20" transform="translate(340.917969 0)"/>
       <use xlink:href="#DejaVuSans-28" transform="translate(372.705078 0)"/>
       <use xlink:href="#DejaVuSans-4c" transform="translate(411.71875 0)"/>
       <use xlink:href="#DejaVuSans-65" transform="translate(465.681641 0)"/>
       <use xlink:href="#DejaVuSans-66" transform="translate(527.205078 0)"/>
       <use xlink:href="#DejaVuSans-74" transform="translate(560.660156 0)"/>
       <use xlink:href="#DejaVuSans-29" transform="translate(599.869141 0)"/>
      </g>
     </g>
    </g>
    <g id="ytick_26">
     <g id="line2d_35">
      <g>
       <use xlink:href="#m23135516ca" x="234.11" y="67.803571" style="stroke: #000000; stroke-width: 0.8"/>
      </g>
     </g>
     <g id="text_36">
      <!-- Lung (Left) -->
      <g transform="translate(129.519063 74.642165) scale(0.18 -0.18)">
       <use xlink:href="#DejaVuSans-4c"/>
       <use xlink:href="#DejaVuSans-75" transform="translate(53.962891 0)"/>
       <use xlink:href="#DejaVuSans-6e" transform="translate(117.341797 0)"/>
       <use xlink:href="#DejaVuSans-67" transform="translate(180.720703 0)"/>
       <use xlink:href="#DejaVuSans-20" transform="translate(244.197266 0)"/>
       <use xlink:href="#DejaVuSans-28" transform="translate(275.984375 0)"/>
       <use xlink:href="#DejaVuSans-4c" transform="translate(314.998047 0)"/>
       <use xlink:href="#DejaVuSans-65" transform="translate(368.960938 0)"/>
       <use xlink:href="#DejaVuSans-66" transform="translate(430.484375 0)"/>
       <use xlink:href="#DejaVuSans-74" transform="translate(463.939453 0)"/>
       <use xlink:href="#DejaVuSans-29" transform="translate(503.148438 0)"/>
      </g>
     </g>
    </g>
    <g id="ytick_27">
     <g id="line2d_36">
      <g>
       <use xlink:href="#m23135516ca" x="234.11" y="45.002143" style="stroke: #000000; stroke-width: 0.8"/>
      </g>
     </g>
     <g id="text_37">
      <!-- Uterus -->
      <g transform="translate(167.62 51.840737) scale(0.18 -0.18)">
       <defs>
        <path id="DejaVuSans-55" d="M 556 4666 
L 1191 4666 
L 1191 1831 
Q 1191 1081 1462 751 
Q 1734 422 2344 422 
Q 2950 422 3222 751 
Q 3494 1081 3494 1831 
L 3494 4666 
L 4128 4666 
L 4128 1753 
Q 4128 841 3676 375 
Q 3225 -91 2344 -91 
Q 1459 -91 1007 375 
Q 556 841 556 1753 
L 556 4666 
z
" transform="scale(0.015625)"/>
       </defs>
       <use xlink:href="#DejaVuSans-55"/>
       <use xlink:href="#DejaVuSans-74" transform="translate(73.193359 0)"/>
       <use xlink:href="#DejaVuSans-65" transform="translate(112.402344 0)"/>
       <use xlink:href="#DejaVuSans-72" transform="translate(173.925781 0)"/>
       <use xlink:href="#DejaVuSans-75" transform="translate(215.039062 0)"/>
       <use xlink:href="#DejaVuSans-73" transform="translate(278.417969 0)"/>
      </g>
     </g>
    </g>
    <g id="ytick_28">
     <g id="line2d_37">
      <g>
       <use xlink:href="#m23135516ca" x="234.11" y="22.200714" style="stroke: #000000; stroke-width: 0.8"/>
      </g>
     </g>
     <g id="text_38">
      <!-- Lung (Right) -->
      <g transform="translate(115.988125 29.039308) scale(0.18 -0.18)">
       <use xlink:href="#DejaVuSans-4c"/>
       <use xlink:href="#DejaVuSans-75" transform="translate(53.962891 0)"/>
       <use xlink:href="#DejaVuSans-6e" transform="translate(117.341797 0)"/>
       <use xlink:href="#DejaVuSans-67" transform="translate(180.720703 0)"/>
       <use xlink:href="#DejaVuSans-20" transform="translate(244.197266 0)"/>
       <use xlink:href="#DejaVuSans-28" transform="translate(275.984375 0)"/>
       <use xlink:href="#DejaVuSans-52" transform="translate(314.998047 0)"/>
       <use xlink:href="#DejaVuSans-69" transform="translate(384.480469 0)"/>
       <use xlink:href="#DejaVuSans-67" transform="translate(412.263672 0)"/>
       <use xlink:href="#DejaVuSans-68" transform="translate(475.740234 0)"/>
       <use xlink:href="#DejaVuSans-74" transform="translate(539.119141 0)"/>
       <use xlink:href="#DejaVuSans-29" transform="translate(578.328125 0)"/>
      </g>
     </g>
    </g>
    <g id="text_39">
     <!-- Organ Class -->
     <g transform="translate(24.676875 384.117031) rotate(-90) scale(0.18 -0.18)">
      <use xlink:href="#DejaVuSans-4f"/>
      <use xlink:href="#DejaVuSans-72" transform="translate(78.710938 0)"/>
      <use xlink:href="#DejaVuSans-67" transform="translate(118.074219 0)"/>
      <use xlink:href="#DejaVuSans-61" transform="translate(181.550781 0)"/>
      <use xlink:href="#DejaVuSans-6e" transform="translate(242.830078 0)"/>
      <use xlink:href="#DejaVuSans-20" transform="translate(306.208984 0)"/>
      <use xlink:href="#DejaVuSans-43" transform="translate(337.996094 0)"/>
      <use xlink:href="#DejaVuSans-6c" transform="translate(407.820312 0)"/>
      <use xlink:href="#DejaVuSans-61" transform="translate(435.603516 0)"/>
      <use xlink:href="#DejaVuSans-73" transform="translate(496.882812 0)"/>
      <use xlink:href="#DejaVuSans-73" transform="translate(548.982422 0)"/>
     </g>
    </g>
   </g>
   <g id="patch_17">
    <path d="M 234.11 649.24 
L 234.11 10.8 
" style="fill: none; stroke: #000000; stroke-width: 0.8; stroke-linejoin: miter; stroke-linecap: square"/>
   </g>
   <g id="patch_18">
    <path d="M 1040.4 649.24 
L 1040.4 10.8 
" style="fill: none; stroke: #000000; stroke-width: 0.8; stroke-linejoin: miter; stroke-linecap: square"/>
   </g>
   <g id="patch_19">
    <path d="M 234.11 649.24 
L 1040.4 649.24 
" style="fill: none; stroke: #000000; stroke-width: 0.8; stroke-linejoin: miter; stroke-linecap: square"/>
   </g>
   <g id="patch_20">
    <path d="M 234.11 10.8 
L 1040.4 10.8 
" style="fill: none; stroke: #000000; stroke-width: 0.8; stroke-linejoin: miter; stroke-linecap: square"/>
   </g>
   <g id="patch_21">
    <path d="M 234.11 646.959857 
L 236.039385 646.959857 
L 236.039385 628.718714 
L 234.11 628.718714 
z
" clip-path="url(#p7958ba0b4b)" style="fill: #4682b4"/>
   </g>
   <g id="patch_22">
    <path d="M 234.11 624.158429 
L 237.96877 624.158429 
L 237.96877 605.917286 
L 234.11 605.917286 
z
" clip-path="url(#p7958ba0b4b)" style="fill: #4682b4"/>
   </g>
   <g id="patch_23">
    <path d="M 234.11 601.357 
L 237.96877 601.357 
L 237.96877 583.115857 
L 234.11 583.115857 
z
" clip-path="url(#p7958ba0b4b)" style="fill: #4682b4"/>
   </g>
   <g id="patch_24">
    <path d="M 234.11 578.555571 
L 243.756925 578.555571 
L 243.756925 560.314429 
L 234.11 560.314429 
z
" clip-path="url(#p7958ba0b4b)" style="fill: #4682b4"/>
   </g>
   <g id="patch_25">
    <path d="M 234.11 555.754143 
L 245.68631 555.754143 
L 245.68631 537.513 
L 234.11 537.513 
z
" clip-path="url(#p7958ba0b4b)" style="fill: #4682b4"/>
   </g>
   <g id="patch_26">
    <path d="M 234.11 532.952714 
L 247.615695 532.952714 
L 247.615695 514.711571 
L 234.11 514.711571 
z
" clip-path="url(#p7958ba0b4b)" style="fill: #4682b4"/>
   </g>
   <g id="patch_27">
    <path d="M 234.11 510.151286 
L 247.615695 510.151286 
L 247.615695 491.910143 
L 234.11 491.910143 
z
" clip-path="url(#p7958ba0b4b)" style="fill: #4682b4"/>
   </g>
   <g id="patch_28">
    <path d="M 234.11 487.349857 
L 249.54508 487.349857 
L 249.54508 469.108714 
L 234.11 469.108714 
z
" clip-path="url(#p7958ba0b4b)" style="fill: #4682b4"/>
   </g>
   <g id="patch_29">
    <path d="M 234.11 464.548429 
L 255.333235 464.548429 
L 255.333235 446.307286 
L 234.11 446.307286 
z
" clip-path="url(#p7958ba0b4b)" style="fill: #4682b4"/>
   </g>
   <g id="patch_30">
    <path d="M 234.11 441.747 
L 261.12139 441.747 
L 261.12139 423.505857 
L 234.11 423.505857 
z
" clip-path="url(#p7958ba0b4b)" style="fill: #4682b4"/>
   </g>
   <g id="patch_31">
    <path d="M 234.11 418.945571 
L 261.12139 418.945571 
L 261.12139 400.704429 
L 234.11 400.704429 
z
" clip-path="url(#p7958ba0b4b)" style="fill: #4682b4"/>
   </g>
   <g id="patch_32">
    <path d="M 234.11 396.144143 
L 284.274011 396.144143 
L 284.274011 377.903 
L 234.11 377.903 
z
" clip-path="url(#p7958ba0b4b)" style="fill: #4682b4"/>
   </g>
   <g id="patch_33">
    <path d="M 234.11 373.342714 
L 291.991551 373.342714 
L 291.991551 355.101571 
L 234.11 355.101571 
z
" clip-path="url(#p7958ba0b4b)" style="fill: #4682b4"/>
   </g>
   <g id="patch_34">
    <path d="M 234.11 350.541286 
L 311.285401 350.541286 
L 311.285401 332.300143 
L 234.11 332.300143 
z
" clip-path="url(#p7958ba0b4b)" style="fill: #4682b4"/>
   </g>
   <g id="patch_35">
    <path d="M 234.11 327.739857 
L 313.214786 327.739857 
L 313.214786 309.498714 
L 234.11 309.498714 
z
" clip-path="url(#p7958ba0b4b)" style="fill: #4682b4"/>
   </g>
   <g id="patch_36">
    <path d="M 234.11 304.938429 
L 327.685173 304.938429 
L 327.685173 286.697286 
L 234.11 286.697286 
z
" clip-path="url(#p7958ba0b4b)" style="fill: #4682b4"/>
   </g>
   <g id="patch_37">
    <path d="M 234.11 282.137 
L 347.943716 282.137 
L 347.943716 263.895857 
L 234.11 263.895857 
z
" clip-path="url(#p7958ba0b4b)" style="fill: #4682b4"/>
   </g>
   <g id="patch_38">
    <path d="M 234.11 259.335571 
L 366.272874 259.335571 
L 366.272874 241.094429 
L 234.11 241.094429 
z
" clip-path="url(#p7958ba0b4b)" style="fill: #4682b4"/>
   </g>
   <g id="patch_39">
    <path d="M 234.11 236.534143 
L 416.436884 236.534143 
L 416.436884 218.293 
L 234.11 218.293 
z
" clip-path="url(#p7958ba0b4b)" style="fill: #4682b4"/>
   </g>
   <g id="patch_40">
    <path d="M 234.11 213.732714 
L 498.435748 213.732714 
L 498.435748 195.491571 
L 234.11 195.491571 
z
" clip-path="url(#p7958ba0b4b)" style="fill: #4682b4"/>
   </g>
   <g id="patch_41">
    <path d="M 234.11 190.931286 
L 558.246683 190.931286 
L 558.246683 172.690143 
L 234.11 172.690143 
z
" clip-path="url(#p7958ba0b4b)" style="fill: #4682b4"/>
   </g>
   <g id="patch_42">
    <path d="M 234.11 168.129857 
L 608.410694 168.129857 
L 608.410694 149.888714 
L 234.11 149.888714 
z
" clip-path="url(#p7958ba0b4b)" style="fill: #4682b4"/>
   </g>
   <g id="patch_43">
    <path d="M 234.11 145.328429 
L 616.128234 145.328429 
L 616.128234 127.087286 
L 234.11 127.087286 
z
" clip-path="url(#p7958ba0b4b)" style="fill: #4682b4"/>
   </g>
   <g id="patch_44">
    <path d="M 234.11 122.527 
L 771.443728 122.527 
L 771.443728 104.285857 
L 234.11 104.285857 
z
" clip-path="url(#p7958ba0b4b)" style="fill: #4682b4"/>
   </g>
   <g id="patch_45">
    <path d="M 234.11 99.725571 
L 810.996121 99.725571 
L 810.996121 81.484429 
L 234.11 81.484429 
z
" clip-path="url(#p7958ba0b4b)" style="fill: #4682b4"/>
   </g>
   <g id="patch_46">
    <path d="M 234.11 76.924143 
L 852.477899 76.924143 
L 852.477899 58.683 
L 234.11 58.683 
z
" clip-path="url(#p7958ba0b4b)" style="fill: #4682b4"/>
   </g>
   <g id="patch_47">
    <path d="M 234.11 54.122714 
L 946.053073 54.122714 
L 946.053073 35.881571 
L 234.11 35.881571 
z
" clip-path="url(#p7958ba0b4b)" style="fill: #4682b4"/>
   </g>
   <g id="patch_48">
    <path d="M 234.11 31.321286 
L 1002.005238 31.321286 
L 1002.005238 13.080143 
L 234.11 13.080143 
z
" clip-path="url(#p7958ba0b4b)" style="fill: #4682b4"/>
   </g>
   <g id="text_40">
    <!-- 2 -->
    <g transform="translate(244.102285 642.806161) scale(0.18 -0.18)">
     <use xlink:href="#DejaVuSans-32"/>
    </g>
   </g>
   <g id="text_41">
    <!-- 4 -->
    <g transform="translate(246.03167 620.004732) scale(0.18 -0.18)">
     <use xlink:href="#DejaVuSans-34"/>
    </g>
   </g>
   <g id="text_42">
    <!-- 4 -->
    <g transform="translate(246.03167 597.203304) scale(0.18 -0.18)">
     <use xlink:href="#DejaVuSans-34"/>
    </g>
   </g>
   <g id="text_43">
    <!-- 10 -->
    <g transform="translate(251.819825 574.401875) scale(0.18 -0.18)">
     <use xlink:href="#DejaVuSans-31"/>
     <use xlink:href="#DejaVuSans-30" transform="translate(63.623047 0)"/>
    </g>
   </g>
   <g id="text_44">
    <!-- 12 -->
    <g transform="translate(253.74921 551.600446) scale(0.18 -0.18)">
     <use xlink:href="#DejaVuSans-31"/>
     <use xlink:href="#DejaVuSans-32" transform="translate(63.623047 0)"/>
    </g>
   </g>
   <g id="text_45">
    <!-- 14 -->
    <g transform="translate(255.678595 528.799018) scale(0.18 -0.18)">
     <use xlink:href="#DejaVuSans-31"/>
     <use xlink:href="#DejaVuSans-34" transform="translate(63.623047 0)"/>
    </g>
   </g>
   <g id="text_46">
    <!-- 14 -->
    <g transform="translate(255.678595 505.997589) scale(0.18 -0.18)">
     <use xlink:href="#DejaVuSans-31"/>
     <use xlink:href="#DejaVuSans-34" transform="translate(63.623047 0)"/>
    </g>
   </g>
   <g id="text_47">
    <!-- 16 -->
    <g transform="translate(257.60798 483.196161) scale(0.18 -0.18)">
     <use xlink:href="#DejaVuSans-31"/>
     <use xlink:href="#DejaVuSans-36" transform="translate(63.623047 0)"/>
    </g>
   </g>
   <g id="text_48">
    <!-- 22 -->
    <g transform="translate(263.396135 460.394732) scale(0.18 -0.18)">
     <use xlink:href="#DejaVuSans-32"/>
     <use xlink:href="#DejaVuSans-32" transform="translate(63.623047 0)"/>
    </g>
   </g>
   <g id="text_49">
    <!-- 28 -->
    <g transform="translate(269.18429 437.593304) scale(0.18 -0.18)">
     <use xlink:href="#DejaVuSans-32"/>
     <use xlink:href="#DejaVuSans-38" transform="translate(63.623047 0)"/>
    </g>
   </g>
   <g id="text_50">
    <!-- 28 -->
    <g transform="translate(269.18429 414.791875) scale(0.18 -0.18)">
     <use xlink:href="#DejaVuSans-32"/>
     <use xlink:href="#DejaVuSans-38" transform="translate(63.623047 0)"/>
    </g>
   </g>
   <g id="text_51">
    <!-- 52 -->
    <g transform="translate(292.336911 391.990446) scale(0.18 -0.18)">
     <use xlink:href="#DejaVuSans-35"/>
     <use xlink:href="#DejaVuSans-32" transform="translate(63.623047 0)"/>
    </g>
   </g>
   <g id="text_52">
    <!-- 60 -->
    <g transform="translate(300.054451 369.189018) scale(0.18 -0.18)">
     <use xlink:href="#DejaVuSans-36"/>
     <use xlink:href="#DejaVuSans-30" transform="translate(63.623047 0)"/>
    </g>
   </g>
   <g id="text_53">
    <!-- 80 -->
    <g transform="translate(319.348301 346.387589) scale(0.18 -0.18)">
     <use xlink:href="#DejaVuSans-38"/>
     <use xlink:href="#DejaVuSans-30" transform="translate(63.623047 0)"/>
    </g>
   </g>
   <g id="text_54">
    <!-- 82 -->
    <g transform="translate(321.277686 323.586161) scale(0.18 -0.18)">
     <use xlink:href="#DejaVuSans-38"/>
     <use xlink:href="#DejaVuSans-32" transform="translate(63.623047 0)"/>
    </g>
   </g>
   <g id="text_55">
    <!-- 97 -->
    <g transform="translate(335.748073 300.784732) scale(0.18 -0.18)">
     <defs>
      <path id="DejaVuSans-39" d="M 703 97 
L 703 672 
Q 941 559 1184 500 
Q 1428 441 1663 441 
Q 2288 441 2617 861 
Q 2947 1281 2994 2138 
Q 2813 1869 2534 1725 
Q 2256 1581 1919 1581 
Q 1219 1581 811 2004 
Q 403 2428 403 3163 
Q 403 3881 828 4315 
Q 1253 4750 1959 4750 
Q 2769 4750 3195 4129 
Q 3622 3509 3622 2328 
Q 3622 1225 3098 567 
Q 2575 -91 1691 -91 
Q 1453 -91 1209 -44 
Q 966 3 703 97 
z
M 1959 2075 
Q 2384 2075 2632 2365 
Q 2881 2656 2881 3163 
Q 2881 3666 2632 3958 
Q 2384 4250 1959 4250 
Q 1534 4250 1286 3958 
Q 1038 3666 1038 3163 
Q 1038 2656 1286 2365 
Q 1534 2075 1959 2075 
z
" transform="scale(0.015625)"/>
     </defs>
     <use xlink:href="#DejaVuSans-39"/>
     <use xlink:href="#DejaVuSans-37" transform="translate(63.623047 0)"/>
    </g>
   </g>
   <g id="text_56">
    <!-- 118 -->
    <g transform="translate(356.006616 277.983304) scale(0.18 -0.18)">
     <use xlink:href="#DejaVuSans-31"/>
     <use xlink:href="#DejaVuSans-31" transform="translate(63.623047 0)"/>
     <use xlink:href="#DejaVuSans-38" transform="translate(127.246094 0)"/>
    </g>
   </g>
   <g id="text_57">
    <!-- 137 -->
    <g transform="translate(374.335774 255.181875) scale(0.18 -0.18)">
     <use xlink:href="#DejaVuSans-31"/>
     <use xlink:href="#DejaVuSans-33" transform="translate(63.623047 0)"/>
     <use xlink:href="#DejaVuSans-37" transform="translate(127.246094 0)"/>
    </g>
   </g>
   <g id="text_58">
    <!-- 189 -->
    <g transform="translate(424.499784 232.380446) scale(0.18 -0.18)">
     <use xlink:href="#DejaVuSans-31"/>
     <use xlink:href="#DejaVuSans-38" transform="translate(63.623047 0)"/>
     <use xlink:href="#DejaVuSans-39" transform="translate(127.246094 0)"/>
    </g>
   </g>
   <g id="text_59">
    <!-- 274 -->
    <g transform="translate(506.498648 209.579018) scale(0.18 -0.18)">
     <use xlink:href="#DejaVuSans-32"/>
     <use xlink:href="#DejaVuSans-37" transform="translate(63.623047 0)"/>
     <use xlink:href="#DejaVuSans-34" transform="translate(127.246094 0)"/>
    </g>
   </g>
   <g id="text_60">
    <!-- 336 -->
    <g transform="translate(566.309583 186.777589) scale(0.18 -0.18)">
     <use xlink:href="#DejaVuSans-33"/>
     <use xlink:href="#DejaVuSans-33" transform="translate(63.623047 0)"/>
     <use xlink:href="#DejaVuSans-36" transform="translate(127.246094 0)"/>
    </g>
   </g>
   <g id="text_61">
    <!-- 388 -->
    <g transform="translate(616.473594 163.976161) scale(0.18 -0.18)">
     <use xlink:href="#DejaVuSans-33"/>
     <use xlink:href="#DejaVuSans-38" transform="translate(63.623047 0)"/>
     <use xlink:href="#DejaVuSans-38" transform="translate(127.246094 0)"/>
    </g>
   </g>
   <g id="text_62">
    <!-- 396 -->
    <g transform="translate(624.191134 141.174732) scale(0.18 -0.18)">
     <use xlink:href="#DejaVuSans-33"/>
     <use xlink:href="#DejaVuSans-39" transform="translate(63.623047 0)"/>
     <use xlink:href="#DejaVuSans-36" transform="translate(127.246094 0)"/>
    </g>
   </g>
   <g id="text_63">
    <!-- 557 -->
    <g transform="translate(779.506628 118.373304) scale(0.18 -0.18)">
     <use xlink:href="#DejaVuSans-35"/>
     <use xlink:href="#DejaVuSans-35" transform="translate(63.623047 0)"/>
     <use xlink:href="#DejaVuSans-37" transform="translate(127.246094 0)"/>
    </g>
   </g>
   <g id="text_64">
    <!-- 598 -->
    <g transform="translate(819.059021 95.571875) scale(0.18 -0.18)">
     <use xlink:href="#DejaVuSans-35"/>
     <use xlink:href="#DejaVuSans-39" transform="translate(63.623047 0)"/>
     <use xlink:href="#DejaVuSans-38" transform="translate(127.246094 0)"/>
    </g>
   </g>
   <g id="text_65">
    <!-- 641 -->
    <g transform="translate(860.540799 72.770446) scale(0.18 -0.18)">
     <use xlink:href="#DejaVuSans-36"/>
     <use xlink:href="#DejaVuSans-34" transform="translate(63.623047 0)"/>
     <use xlink:href="#DejaVuSans-31" transform="translate(127.246094 0)"/>
    </g>
   </g>
   <g id="text_66">
    <!-- 738 -->
    <g style="fill: #ffffff" transform="translate(900.417985 49.969018) scale(0.18 -0.18)">
     <defs>
      <path id="DejaVuSans-Bold-37" d="M 428 4666 
L 3944 4666 
L 3944 3988 
L 2125 0 
L 953 0 
L 2675 3781 
L 428 3781 
L 428 4666 
z
" transform="scale(0.015625)"/>
      <path id="DejaVuSans-Bold-33" d="M 2981 2516 
Q 3453 2394 3698 2092 
Q 3944 1791 3944 1325 
Q 3944 631 3412 270 
Q 2881 -91 1863 -91 
Q 1503 -91 1142 -33 
Q 781 25 428 141 
L 428 1069 
Q 766 900 1098 814 
Q 1431 728 1753 728 
Q 2231 728 2486 893 
Q 2741 1059 2741 1369 
Q 2741 1688 2480 1852 
Q 2219 2016 1709 2016 
L 1228 2016 
L 1228 2791 
L 1734 2791 
Q 2188 2791 2409 2933 
Q 2631 3075 2631 3366 
Q 2631 3634 2415 3781 
Q 2200 3928 1806 3928 
Q 1516 3928 1219 3862 
Q 922 3797 628 3669 
L 628 4550 
Q 984 4650 1334 4700 
Q 1684 4750 2022 4750 
Q 2931 4750 3382 4451 
Q 3834 4153 3834 3553 
Q 3834 3144 3618 2883 
Q 3403 2622 2981 2516 
z
" transform="scale(0.015625)"/>
      <path id="DejaVuSans-Bold-38" d="M 2228 2088 
Q 1891 2088 1709 1903 
Q 1528 1719 1528 1375 
Q 1528 1031 1709 848 
Q 1891 666 2228 666 
Q 2563 666 2741 848 
Q 2919 1031 2919 1375 
Q 2919 1722 2741 1905 
Q 2563 2088 2228 2088 
z
M 1350 2484 
Q 925 2613 709 2878 
Q 494 3144 494 3541 
Q 494 4131 934 4440 
Q 1375 4750 2228 4750 
Q 3075 4750 3515 4442 
Q 3956 4134 3956 3541 
Q 3956 3144 3739 2878 
Q 3522 2613 3097 2484 
Q 3572 2353 3814 2058 
Q 4056 1763 4056 1313 
Q 4056 619 3595 264 
Q 3134 -91 2228 -91 
Q 1319 -91 855 264 
Q 391 619 391 1313 
Q 391 1763 633 2058 
Q 875 2353 1350 2484 
z
M 1631 3419 
Q 1631 3141 1786 2991 
Q 1941 2841 2228 2841 
Q 2509 2841 2662 2991 
Q 2816 3141 2816 3419 
Q 2816 3697 2662 3845 
Q 2509 3994 2228 3994 
Q 1941 3994 1786 3844 
Q 1631 3694 1631 3419 
z
" transform="scale(0.015625)"/>
     </defs>
     <use xlink:href="#DejaVuSans-Bold-37"/>
     <use xlink:href="#DejaVuSans-Bold-33" transform="translate(69.580078 0)"/>
     <use xlink:href="#DejaVuSans-Bold-38" transform="translate(139.160156 0)"/>
    </g>
   </g>
   <g id="text_67">
    <!-- 796 -->
    <g style="fill: #ffffff" transform="translate(956.370151 27.167589) scale(0.18 -0.18)">
     <defs>
      <path id="DejaVuSans-Bold-39" d="M 641 103 
L 641 966 
Q 928 831 1190 764 
Q 1453 697 1709 697 
Q 2247 697 2547 995 
Q 2847 1294 2900 1881 
Q 2688 1725 2447 1647 
Q 2206 1569 1925 1569 
Q 1209 1569 770 1986 
Q 331 2403 331 3084 
Q 331 3838 820 4291 
Q 1309 4744 2131 4744 
Q 3044 4744 3544 4128 
Q 4044 3513 4044 2388 
Q 4044 1231 3459 570 
Q 2875 -91 1856 -91 
Q 1528 -91 1228 -42 
Q 928 6 641 103 
z
M 2125 2350 
Q 2441 2350 2600 2554 
Q 2759 2759 2759 3169 
Q 2759 3575 2600 3781 
Q 2441 3988 2125 3988 
Q 1809 3988 1650 3781 
Q 1491 3575 1491 3169 
Q 1491 2759 1650 2554 
Q 1809 2350 2125 2350 
z
" transform="scale(0.015625)"/>
      <path id="DejaVuSans-Bold-36" d="M 2316 2303 
Q 2000 2303 1842 2098 
Q 1684 1894 1684 1484 
Q 1684 1075 1842 870 
Q 2000 666 2316 666 
Q 2634 666 2792 870 
Q 2950 1075 2950 1484 
Q 2950 1894 2792 2098 
Q 2634 2303 2316 2303 
z
M 3803 4544 
L 3803 3681 
Q 3506 3822 3243 3889 
Q 2981 3956 2731 3956 
Q 2194 3956 1894 3657 
Q 1594 3359 1544 2772 
Q 1750 2925 1990 3001 
Q 2231 3078 2516 3078 
Q 3231 3078 3670 2659 
Q 4109 2241 4109 1563 
Q 4109 813 3618 361 
Q 3128 -91 2303 -91 
Q 1394 -91 895 523 
Q 397 1138 397 2266 
Q 397 3422 980 4083 
Q 1563 4744 2578 4744 
Q 2900 4744 3203 4694 
Q 3506 4644 3803 4544 
z
" transform="scale(0.015625)"/>
     </defs>
     <use xlink:href="#DejaVuSans-Bold-37"/>
     <use xlink:href="#DejaVuSans-Bold-39" transform="translate(69.580078 0)"/>
     <use xlink:href="#DejaVuSans-Bold-36" transform="translate(139.160156 0)"/>
    </g>
   </g>
   <g id="text_68">
    <!-- d -->
    <g transform="translate(48.6633 30.555937) scale(0.26 -0.26)">
     <defs>
      <path id="DejaVuSans-Bold-64" d="M 2919 2988 
L 2919 4863 
L 4044 4863 
L 4044 0 
L 2919 0 
L 2919 506 
Q 2688 197 2409 53 
Q 2131 -91 1766 -91 
Q 1119 -91 703 423 
Q 288 938 288 1747 
Q 288 2556 703 3070 
Q 1119 3584 1766 3584 
Q 2128 3584 2408 3439 
Q 2688 3294 2919 2988 
z
M 2181 722 
Q 2541 722 2730 984 
Q 2919 1247 2919 1747 
Q 2919 2247 2730 2509 
Q 2541 2772 2181 2772 
Q 1825 2772 1636 2509 
Q 1447 2247 1447 1747 
Q 1447 1247 1636 984 
Q 1825 722 2181 722 
z
" transform="scale(0.015625)"/>
     </defs>
     <use xlink:href="#DejaVuSans-Bold-64"/>
    </g>
   </g>
  </g>
 </g>
 <defs>
  <clipPath id="p7958ba0b4b">
   <rect x="234.11" y="10.8" width="806.29" height="638.44"/>
  </clipPath>
 </defs>
</svg>
